<svg width="36" height="36" viewBox="0 0 36 36" fill="none" xmlns="http://www.w3.org/2000/svg">
<rect x="0.239258" width="35.2174" height="35.2174" rx="4" fill="#8B9DFF"/>
<g clip-path="url(#clip0_25_7457)">
<path d="M25.5712 10.7794C25.5652 10.7677 25.5551 10.7587 25.5432 10.7537C24.1446 10.1122 22.6687 9.65452 21.1525 9.39246C21.1243 9.38718 21.0959 9.40071 21.0819 9.4257C20.8808 9.79049 20.6985 10.1651 20.5353 10.5483C18.9007 10.3002 17.2382 10.3002 15.6039 10.5483C15.4398 10.1642 15.2543 9.78934 15.0486 9.4257C15.0342 9.40117 15.0062 9.38787 14.978 9.39246C13.4615 9.65384 11.9857 10.1115 10.5873 10.7537C10.5754 10.7587 10.5653 10.7674 10.5584 10.7785C7.76209 14.9546 6.99606 19.0279 7.37185 23.0509C7.37392 23.0708 7.38423 23.089 7.40005 23.1013C9.0284 24.3069 10.8496 25.2272 12.7863 25.8229C12.8143 25.8314 12.8443 25.8215 12.862 25.7981C13.2779 25.2323 13.6466 24.6327 13.9639 24.0063C13.9728 23.9889 13.9737 23.9687 13.9666 23.9504C13.9595 23.9322 13.9448 23.918 13.9265 23.9114C13.3453 23.689 12.7826 23.4209 12.2438 23.1096C12.2239 23.0979 12.2113 23.077 12.2099 23.0541C12.2085 23.0312 12.2188 23.0089 12.2372 22.9949C12.3507 22.9103 12.4619 22.823 12.5712 22.7331C12.5907 22.7171 12.6178 22.7134 12.6409 22.7237C16.1712 24.3349 19.993 24.3349 23.4813 22.7237C23.5044 22.7127 23.532 22.7159 23.5519 22.7324C23.6613 22.8228 23.7732 22.9103 23.8869 22.9949C23.9052 23.0089 23.9158 23.0309 23.9146 23.0539C23.9132 23.0768 23.9009 23.0979 23.8809 23.1096C23.3433 23.4235 22.7801 23.6913 22.1973 23.9105C22.179 23.9173 22.1645 23.9318 22.1577 23.9501C22.1508 23.9685 22.1519 23.9889 22.1609 24.0063C22.4835 24.6293 22.8515 25.2279 23.2619 25.7972C23.2791 25.821 23.3093 25.8314 23.3375 25.8229C25.2777 25.2293 27.1021 24.3089 28.7325 23.1013C28.7485 23.0896 28.7589 23.0715 28.7605 23.0518C29.2103 18.4009 28.007 14.3607 25.5712 10.7794ZM14.491 20.6015C13.4281 20.6015 12.5524 19.6261 12.5524 18.4284C12.5524 17.2304 13.4111 16.255 14.491 16.255C15.5792 16.255 16.4465 17.2389 16.4296 18.4284C16.4293 19.6261 15.5707 20.6015 14.491 20.6015ZM21.6583 20.6015C20.5956 20.6015 19.7197 19.6261 19.7197 18.4284C19.7197 17.2304 20.5784 16.255 21.6583 16.255C22.7467 16.255 23.6138 17.2389 23.5968 18.4284C23.5968 19.6261 22.7467 20.6015 21.6583 20.6015Z" fill="white"/>
</g>
<defs>
<clipPath id="clip0_25_7457">
<rect width="21.5707" height="16.4348" fill="white" transform="translate(7.28271 9.3913)"/>
</clipPath>
</defs>
</svg>
