<svg width="36" height="36" viewBox="0 0 36 36" fill="none" xmlns="http://www.w3.org/2000/svg">
<rect x="0.347656" width="35.2174" height="35.2174" rx="4" fill="#1296DB"/>
<g clip-path="url(#clip0_25_7463)">
<path d="M26.0192 9.49897L8.88138 16.1815C7.71184 16.6566 7.71864 17.3163 8.66673 17.6104L13.0668 18.9983L23.2469 12.5034C23.7283 12.2073 24.168 12.3665 23.8064 12.6912L15.5588 20.2182H15.5568L15.5588 20.2191L15.2552 24.8052C15.6998 24.8052 15.896 24.5991 16.1455 24.3557L18.2827 22.2542L22.7281 25.5744C23.5479 26.0308 24.1363 25.7963 24.3405 24.807L27.2581 10.9007C27.5569 9.68939 26.8011 9.14103 26.0192 9.49897Z" fill="white"/>
</g>
<defs>
<clipPath id="clip0_25_7463">
<rect width="19.3696" height="16.4348" fill="white" transform="translate(7.97803 9.3913)"/>
</clipPath>
</defs>
</svg>
