<svg width="36" height="36" viewBox="0 0 36 36" fill="none" xmlns="http://www.w3.org/2000/svg">
<rect x="0.239258" width="35.2174" height="35.2174" rx="4" fill="#00BBFF"/>
<path d="M28.9128 10.897C28.1173 11.2402 27.2517 11.4871 26.3601 11.5833C27.2803 11.0348 27.9796 10.1692 28.3097 9.13979C27.4597 9.64669 26.4979 10.0184 25.4971 10.2108C24.6861 9.34515 23.5345 8.80966 22.2582 8.80966C19.8017 8.80966 17.8261 10.8008 17.8261 13.2443C17.8261 13.5875 17.8677 13.9306 17.9353 14.2607C14.257 14.0684 10.9765 12.3111 8.7956 9.62069C8.41088 10.281 8.19252 11.0348 8.19252 11.8588C8.19252 13.3977 8.97496 14.7546 10.1681 15.5526C9.44026 15.524 8.75401 15.3187 8.16393 14.9886V15.0432C8.16393 17.1981 9.68721 18.9839 11.7174 19.3946C11.3457 19.4908 10.9479 19.5454 10.5502 19.5454C10.2617 19.5454 9.98875 19.5168 9.7132 19.4778C10.2747 21.235 11.9097 22.5114 13.8567 22.553C12.3335 23.7461 10.4255 24.448 8.35369 24.448C7.98197 24.448 7.63884 24.435 7.28271 24.3934C9.2479 25.6541 11.5796 26.382 14.0907 26.382C22.2426 26.382 26.7032 19.6286 26.7032 13.7668C26.7032 13.5745 26.7032 13.3821 26.6902 13.1897C27.5533 12.5581 28.3097 11.7756 28.9128 10.897Z" fill="white"/>
</svg>
