<svg width="36" height="36" viewBox="0 0 36 36" fill="none" xmlns="http://www.w3.org/2000/svg">
<path d="M31.5601 0.0223083H3.59589C1.61086 0.0223083 0 1.6293 0 3.61605V31.5803C0 33.5671 1.61086 35.174 3.59589 35.174H31.5601C33.5452 35.174 35.156 33.5692 35.156 31.5803V3.61605C35.156 1.6293 33.5473 0.0223083 31.5601 0.0223083ZM20.2511 5.95767H21.9628V11.3562C21.9628 12.3934 21.9958 12.362 22.0306 12.4921C22.0675 12.6298 22.1915 12.9533 22.5927 12.9533C23.0193 12.9533 23.1373 12.6122 23.1703 12.4667C23.1973 12.3406 23.2282 12.3659 23.2282 11.2841V5.95767H24.9382V14.0604H23.2051L23.2265 13.6515L22.6992 13.4327C22.5653 13.7038 22.4104 13.8978 22.2203 14.0334C22.0285 14.1673 21.8131 14.2351 21.5573 14.2351C21.2625 14.2351 21.0222 14.1711 20.8403 14.045C20.6618 13.9231 20.5378 13.7716 20.4562 13.5798C20.367 13.3666 20.3108 13.1361 20.2893 12.9091C20.264 12.6474 20.2507 12.1067 20.2507 11.3004V5.95767H20.2511ZM14.3037 9.32699C14.3037 8.48166 14.3754 7.82856 14.5114 7.36513C14.6393 6.93688 14.8659 6.59961 15.2053 6.34C15.5503 6.07052 16.006 5.93664 16.5604 5.93664C17.0333 5.93664 17.4383 6.02976 17.77 6.20398C18.0919 6.37476 18.3399 6.59746 18.5085 6.85922C18.681 7.13427 18.8012 7.41533 18.8651 7.69854C18.9312 7.99334 18.9638 8.47007 18.9638 9.11373V10.5405C18.9638 11.3781 18.9308 11.9887 18.8707 12.3646C18.8123 12.7096 18.6845 13.0392 18.4926 13.3417C18.3008 13.6382 18.0623 13.8592 17.758 14.0029C17.4439 14.1523 17.0736 14.2299 16.6587 14.2299C16.1858 14.2299 15.7846 14.1643 15.4627 14.0283C15.1641 13.9081 14.9354 13.7335 14.7766 13.4992C14.614 13.255 14.4938 12.9542 14.4217 12.6058C14.3441 12.2294 14.3055 11.6442 14.3055 10.8632L14.3037 9.32699ZM10.3011 3.07152L11.6931 7.55136C11.9351 6.38034 12.4045 4.76004 12.7766 3.07152H14.0386L12.414 9.46259L12.4024 9.51322V14.057H10.9233V9.51322L10.9117 9.46473L9.03907 3.07152H10.3011ZM30.4492 28.1303C30.2282 30.1462 28.4388 31.7979 26.4328 31.9335C20.5245 32.1875 14.6333 32.1875 8.72668 31.9335C6.71805 31.7979 4.93126 30.1462 4.70812 28.1303C4.48885 24.9395 4.48885 21.8049 4.70812 18.6184C4.92911 16.6024 6.71805 14.9547 8.72668 14.8131C14.6329 14.5612 20.524 14.5612 26.4328 14.8131C28.441 14.9547 30.2282 16.602 30.4492 18.6184C30.6702 21.8049 30.6702 24.9395 30.4492 28.1303ZM16.6338 13.2602C16.8818 13.2602 17.0757 13.1108 17.1629 12.8529C17.2036 12.7349 17.2521 12.5097 17.2521 11.8973V8.38683C17.2521 7.67752 17.2113 7.4488 17.1689 7.31879C17.0818 7.05532 16.8899 6.90213 16.6398 6.90213C16.3935 6.90213 16.1999 7.04931 16.1085 7.31106C16.0622 7.43722 16.0154 7.67194 16.0154 8.38683V11.8003C16.0154 12.471 16.0639 12.7019 16.1068 12.8319C16.1957 13.1031 16.3879 13.2602 16.6338 13.2602ZM7.01155 19.2307H8.68463V28.6341H10.4371V19.2307H12.1136V17.4473H7.01155V19.2307ZM15.2984 25.424C15.2984 26.4336 15.2692 26.6838 15.246 26.7907C15.186 27.0524 14.9766 27.2112 14.6818 27.2112C14.4007 27.2112 14.1973 27.0601 14.1312 26.81C14.1021 26.7035 14.0712 26.4534 14.0712 25.4918V20.1473H12.4118V25.9706C12.4118 26.7383 12.4234 27.2498 12.4466 27.5021C12.4698 27.733 12.5303 27.9617 12.6229 28.1767C12.7062 28.3706 12.8323 28.5199 13.0087 28.6341C13.1795 28.7521 13.4061 28.8087 13.6794 28.8087C13.9141 28.8087 14.1175 28.7486 14.296 28.6264C14.4801 28.5023 14.641 28.3045 14.7727 28.0428L15.298 28.1706L15.2748 28.6435H16.9573V20.1473H15.3001L15.2984 25.424ZM22.6374 20.5781C22.5464 20.3979 22.4142 20.264 22.24 20.1614C22.0598 20.0589 21.8388 20.0104 21.5848 20.0104C21.3715 20.0104 21.1793 20.0627 20.9956 20.1773C20.8077 20.2975 20.6313 20.4738 20.4721 20.7218L19.9662 21.5024V17.4491H18.3068V28.6358H19.8731L19.9701 28.1376L20.1056 27.4437L20.4738 28.0406C20.6364 28.308 20.8171 28.5041 21.0068 28.6336C21.187 28.7538 21.3754 28.816 21.5805 28.816C21.8714 28.816 22.1156 28.7135 22.3288 28.5135C22.552 28.2964 22.6893 28.0539 22.7494 27.7596C22.815 27.4339 22.8481 26.9185 22.8481 26.9533V22.5121C22.8481 22.5314 22.9141 22.0701 22.815 21.1531C22.7983 20.9617 22.7382 20.7738 22.6374 20.5781ZM21.193 25.5072C21.193 26.3019 21.1522 26.5443 21.1196 26.6705C21.042 26.9438 20.8463 27.1026 20.5828 27.1026C20.3271 27.1026 20.131 26.9516 20.0494 26.6859C20.0108 26.5658 19.9683 26.3294 19.9683 25.6025V23.3518C19.9683 22.5957 20.007 22.3687 20.0417 22.2606C20.1172 22.0104 20.3151 21.8594 20.5691 21.8594C20.8308 21.8594 21.0282 22.0182 21.1119 22.2876C21.1488 22.4056 21.1973 22.6425 21.1973 23.3557V25.5093L21.193 25.5072ZM25.7273 24.643H28.5925V23.7204C28.5925 22.8849 28.5148 21.9272 28.3616 21.4796C28.2161 21.0475 27.9698 20.7141 27.6077 20.4562C27.2567 20.2082 26.7954 20.0782 26.2388 20.0782C25.7874 20.0782 25.3841 20.1829 25.0408 20.394C24.6975 20.6056 24.4593 20.9021 24.3083 21.3033C24.1495 21.7199 24.0658 22.3134 24.0658 23.366V25.9732C24.0658 26.3088 24.1049 26.8048 24.1744 27.1305C24.2444 27.4446 24.3701 27.7355 24.5486 27.9973C24.7172 28.2436 24.9635 28.4431 25.2733 28.5886C25.5913 28.7358 25.9672 28.8117 26.3899 28.8117C26.822 28.8117 27.1829 28.7362 27.4579 28.5925C27.733 28.447 27.9621 28.2243 28.144 27.9295C28.3337 27.6231 28.456 27.3305 28.5062 27.067C28.5607 26.7898 28.5877 26.3787 28.5877 25.8436V25.4463H27.0447V26.3611C27.0447 26.8456 27.0116 27.1618 26.9438 27.3519C26.849 27.6098 26.6297 27.7609 26.3448 27.7609C26.0946 27.7609 25.9007 27.6368 25.8136 27.4137C25.7707 27.309 25.7222 27.1211 25.7222 26.5375V24.6456H25.726V24.643H25.7273ZM25.7273 23.4505V22.491C25.7273 21.7856 25.7642 21.892 25.7951 21.7972C25.8689 21.5706 26.0685 21.4367 26.3457 21.4367C26.5937 21.4367 26.7838 21.5822 26.8593 21.8302C26.8902 21.9311 26.9293 21.8341 26.9293 22.4915V23.7204H25.7291L25.7273 23.4505Z" fill="#D02708"/>
</svg>
