<svg width="88" height="86" viewBox="0 0 88 86" fill="none" xmlns="http://www.w3.org/2000/svg">
<g opacity="0.25" filter="url(#filter0_f_1_8125)">
<circle cx="41.5" cy="44.5" r="37.5" fill="url(#paint0_linear_1_8125)"/>
</g>
<circle cx="50.5" cy="37.5" r="37.5" fill="url(#paint1_linear_1_8125)"/>
<path d="M44.2102 44.5067C44.4358 44.5067 44.6459 44.4451 44.8304 44.3373L53.6306 39.2039C54.0407 39.0191 54.3277 38.5931 54.3277 38.1003C54.3277 37.6485 54.0817 37.2481 53.7178 37.0377L45.1174 32.0172C44.897 31.7606 44.569 31.6014 44.2102 31.6014C43.5388 31.6014 43.0007 32.1507 43.0007 32.8232V32.8899L42.9853 32.9002L43.0058 43.1566C43.0007 43.1977 43.0007 43.2388 43.0007 43.285C43.0007 43.9626 43.544 44.5067 44.2102 44.5067Z" fill="white"/>
<path d="M28.3268 41.9297C28.3268 42.8396 29.0662 43.5775 29.9772 43.5775C30.8889 43.5775 31.6275 42.8396 31.6275 41.9297C31.6275 41.0198 30.8882 40.2819 29.9772 40.2819C29.0655 40.2819 28.3268 41.0198 28.3268 41.9297Z" fill="white"/>
<path d="M74.214 32.279C74.2191 32.1969 74.2243 32.1147 74.2243 32.0326C74.2243 30.2359 72.7635 28.7832 70.9645 28.7832C70.3649 28.7832 69.8011 28.9474 69.3142 29.2298L69.2886 29.2144L67.6741 30.1486V26.8274C67.6689 23.0749 64.604 20 60.8522 20H35.1281C31.3815 20 28.3114 23.0697 28.3114 26.8274V35.3385H28.3217C28.3217 36.2471 29.0597 36.9863 29.972 36.9863C30.8843 36.9863 31.6224 36.2471 31.6224 35.3385H31.6326V26.5656C31.6326 24.7586 33.1087 23.2802 34.9129 23.2802H61.0624C62.8665 23.2802 64.3426 24.7586 64.3426 26.5656V49.6092C64.3426 51.4161 62.8665 52.8945 61.0624 52.8945H34.918C33.1139 52.8945 31.6378 51.4161 31.6378 49.6092V48.5107C31.6378 47.6021 30.8997 46.8629 29.9874 46.8629C29.0751 46.8629 28.3371 47.6021 28.3371 48.5107H28.3165V49.2961C28.3165 53.0537 31.3866 56.1234 35.1333 56.1234H60.8574C64.6091 56.1234 67.6741 53.0537 67.6741 49.2961V46.0056L69.3706 46.9861L69.3757 46.9809C69.8472 47.2427 70.3905 47.3916 70.9645 47.3916C72.7635 47.3916 74.2243 45.9337 74.2243 44.1422C74.2243 44.06 74.2191 43.9779 74.214 43.8958V32.279ZM70.9543 42.8075C70.9389 43.2079 70.6006 43.5313 70.1855 43.5313C70.0471 43.5313 69.9138 43.4954 69.8011 43.4286L67.6741 42.212V33.9114L69.7703 32.7205C69.8882 32.6435 70.0317 32.6024 70.1855 32.6024C70.6109 32.6024 70.9543 32.9412 70.9543 33.3519V42.8075Z" fill="white"/>
<defs>
<filter id="filter0_f_1_8125" x="0" y="3" width="83" height="83" filterUnits="userSpaceOnUse" color-interpolation-filters="sRGB">
<feFlood flood-opacity="0" result="BackgroundImageFix"/>
<feBlend mode="normal" in="SourceGraphic" in2="BackgroundImageFix" result="shape"/>
<feGaussianBlur stdDeviation="2" result="effect1_foregroundBlur_1_8125"/>
</filter>
<linearGradient id="paint0_linear_1_8125" x1="5.20435" y1="7.74144" x2="5.20435" y2="80.3327" gradientUnits="userSpaceOnUse">
<stop stop-color="#FFA426"/>
<stop offset="1" stop-color="#FF5B21"/>
</linearGradient>
<linearGradient id="paint1_linear_1_8125" x1="14.2044" y1="0.741436" x2="14.2044" y2="73.3327" gradientUnits="userSpaceOnUse">
<stop stop-color="#FFA426"/>
<stop offset="1" stop-color="#FF5B21"/>
</linearGradient>
</defs>
</svg>
