<svg width="88" height="86" viewBox="0 0 88 86" fill="none" xmlns="http://www.w3.org/2000/svg">
<g opacity="0.25" filter="url(#filter0_f_1_8126)">
<circle cx="41.5" cy="44.5" r="37.5" fill="url(#paint0_linear_1_8126)"/>
</g>
<circle cx="50.5" cy="37.5" r="37.5" fill="url(#paint1_linear_1_8126)"/>
<path d="M72.2752 32.5209L51.3932 14.5513C50.5386 13.8162 49.2785 13.8162 48.4239 14.5513L27.117 32.8884C26.4556 33.459 26.8563 34.5471 27.7302 34.5471H30.9458V54.451C30.9458 55.5487 31.8342 56.4336 32.9254 56.4336H66.8917C67.9877 56.4336 68.8713 55.5439 68.8713 54.451V34.5471H71.522C72.589 34.5471 73.0815 33.2172 72.2752 32.5209ZM64.6032 53.6966H35.0642C34.3786 53.6966 33.8186 53.1405 33.8186 52.449V31.9745H32.2446L49.7661 17.414L67.2876 31.9745C66.5006 31.9745 65.8681 32.6128 65.8681 33.3962V34.5471H65.873V52.4248C65.873 53.1308 65.3032 53.6966 64.6032 53.6966Z" fill="white"/>
<path d="M43.3831 43.4835V52.9422C43.3831 53.9722 44.2184 54.804 45.242 54.804H54.2224C55.2508 54.804 56.0813 53.9674 56.0813 52.9422V43.4835C56.0813 40.9786 54.0534 38.9427 51.5476 38.9427H47.912C45.411 38.9427 43.3831 40.9738 43.3831 43.4835ZM53.0878 54.804H46.4249V43.4642C46.4249 42.4342 47.2602 41.6024 48.2838 41.6024H51.229C52.2574 41.6024 53.0878 42.439 53.0878 43.4642V54.804Z" fill="white"/>
<defs>
<filter id="filter0_f_1_8126" x="0" y="3" width="83" height="83" filterUnits="userSpaceOnUse" color-interpolation-filters="sRGB">
<feFlood flood-opacity="0" result="BackgroundImageFix"/>
<feBlend mode="normal" in="SourceGraphic" in2="BackgroundImageFix" result="shape"/>
<feGaussianBlur stdDeviation="2" result="effect1_foregroundBlur_1_8126"/>
</filter>
<linearGradient id="paint0_linear_1_8126" x1="5.20435" y1="7.74144" x2="5.20435" y2="80.3327" gradientUnits="userSpaceOnUse">
<stop stop-color="#43DF88"/>
<stop offset="1" stop-color="#1890FF"/>
</linearGradient>
<linearGradient id="paint1_linear_1_8126" x1="14.2044" y1="0.741436" x2="14.2044" y2="73.3327" gradientUnits="userSpaceOnUse">
<stop stop-color="#43DF88"/>
<stop offset="1" stop-color="#1890FF"/>
</linearGradient>
</defs>
</svg>
