<svg width="88" height="86" viewBox="0 0 88 86" fill="none" xmlns="http://www.w3.org/2000/svg">
<g opacity="0.25" filter="url(#filter0_f_1_8127)">
<circle cx="41.5" cy="44.5" r="37.5" fill="url(#paint0_linear_1_8127)"/>
</g>
<circle cx="50.5" cy="37.5" r="37.5" fill="url(#paint1_linear_1_8127)"/>
<path d="M66.5991 37.707H69.7491C69.7521 30.8633 66.1334 24.5299 60.2401 21.0663L58.6432 23.7855C63.5518 26.6769 66.5991 32.0114 66.5991 37.707ZM42.6971 23.5767L41.1729 20.8165C35.0368 24.2158 31.2271 30.684 31.2235 37.707H34.3735C34.3765 31.8315 37.5644 26.4206 42.6971 23.5767ZM50.4872 53.8452C47.3972 53.8494 44.371 52.9601 41.7731 51.2842L40.0674 53.9361C46.1674 57.8613 53.9502 58.0268 60.2113 54.3651L58.6203 51.6428C56.1528 53.087 53.3452 53.847 50.4872 53.8452Z" fill="white"/>
<path d="M65.47 41.445C64.2539 41.4438 63.0757 41.868 62.1385 42.6437L58.9031 40.7728C59.2606 39.7902 59.4432 38.7522 59.4426 37.7063C59.4426 33.2991 56.2518 29.6237 52.0629 28.8769V25.2652C54.5322 24.4859 56.0655 22.0188 55.672 19.4553C55.2778 16.8925 53.0759 15 50.4864 15C47.8969 15 45.695 16.8925 45.3014 19.4553C44.9079 22.0188 46.4406 24.4859 48.9105 25.2652V28.8757C44.721 29.6237 41.5308 33.2985 41.5308 37.7057C41.5295 38.7516 41.7122 39.7896 42.0703 40.7722L38.8361 42.6437C36.836 40.9961 33.9347 41.0563 32.0043 42.7857C30.0739 44.5151 29.6924 47.3963 31.1055 49.5704C32.5186 51.7439 35.304 52.5599 37.6639 51.4918C40.0239 50.4237 41.2526 47.7904 40.5574 45.292L43.6558 43.5C45.3543 45.5146 47.8537 46.6772 50.4864 46.6772C53.1191 46.6772 55.6185 45.5146 57.3176 43.5L60.4166 45.292C59.8133 47.4649 60.6623 49.781 62.526 51.0465C64.3897 52.3125 66.8518 52.2463 68.6446 50.8816C70.4374 49.5168 71.1608 47.1586 70.4416 45.0212C69.7225 42.8838 67.7212 41.445 65.47 41.445ZM35.504 48.7983C34.3469 48.7983 33.409 47.8584 33.409 46.6994C33.409 45.5405 34.3475 44.6005 35.5046 44.6005C36.6618 44.6005 37.5997 45.5399 37.6003 46.6994C37.5991 47.8578 36.6612 48.7971 35.504 48.7983ZM50.487 18.1562C51.6448 18.1562 52.5832 19.0961 52.5832 20.2557C52.5832 21.4152 51.6448 22.3552 50.487 22.3552C49.3292 22.3552 48.3908 21.4152 48.3908 20.2557C48.392 19.0961 49.3298 18.1568 50.487 18.1562ZM50.487 43.5216C47.2811 43.5216 44.682 40.9185 44.682 37.7069C44.682 34.496 47.2811 31.8922 50.487 31.8922C53.6935 31.8922 56.2926 34.4954 56.2926 37.7069C56.2884 40.9167 53.6917 43.5174 50.487 43.5216ZM65.47 48.7983C64.3128 48.7983 63.3743 47.8584 63.3743 46.6994C63.3743 45.5405 64.3128 44.6005 65.47 44.6005C66.6271 44.6005 67.5656 45.5399 67.5656 46.6994C67.565 47.8578 66.6271 48.7971 65.47 48.7983Z" fill="white"/>
<defs>
<filter id="filter0_f_1_8127" x="0" y="3" width="83" height="83" filterUnits="userSpaceOnUse" color-interpolation-filters="sRGB">
<feFlood flood-opacity="0" result="BackgroundImageFix"/>
<feBlend mode="normal" in="SourceGraphic" in2="BackgroundImageFix" result="shape"/>
<feGaussianBlur stdDeviation="2" result="effect1_foregroundBlur_1_8127"/>
</filter>
<linearGradient id="paint0_linear_1_8127" x1="10" y1="82" x2="102.657" y2="59.0372" gradientUnits="userSpaceOnUse">
<stop offset="0.0833571" stop-color="#F02148"/>
<stop offset="1" stop-color="#FF5B21"/>
</linearGradient>
<linearGradient id="paint1_linear_1_8127" x1="19" y1="75" x2="111.657" y2="52.0372" gradientUnits="userSpaceOnUse">
<stop offset="0.0833571" stop-color="#F02148"/>
<stop offset="1" stop-color="#FF5B21"/>
</linearGradient>
</defs>
</svg>
