<svg width="32" height="33" viewBox="0 0 32 33" fill="none" xmlns="http://www.w3.org/2000/svg">
<rect width="32" height="32.6084" rx="6" fill="url(#paint0_linear_31_1869)"/>
<path d="M11.1799 28.1534C11.6244 28.311 12.5393 28.7147 12.7726 28.7493C11.5318 27.2154 11.3836 23.5056 12.9578 22.0794C12.2911 22.4523 11.88 22.8252 11.3836 23.5056C12.0429 20.8107 14.3765 19.6497 16.4433 19.6151C15.8321 19.5152 15.2173 19.4729 14.595 19.5729C13.8134 19.6959 13.0171 19.9765 12.2985 19.446C11.7503 19.0423 11.8355 18.5157 11.3947 17.9852C11.5651 18.1927 12.3874 18.5464 12.6652 18.6425C13.143 18.8078 13.1689 18.7732 13.669 18.7579C14.5728 18.7271 15.5432 18.3811 16.3729 18.9616C16.547 19.0846 16.8396 19.4383 17.0841 19.6421C17.773 19.7113 18.4101 19.9073 18.9065 20.2226L18.9102 20.2264C18.8991 20.2226 18.8879 20.2226 18.8768 20.2187C18.8583 20.2149 18.8398 20.2072 18.8213 20.2033C18.8472 20.2149 18.8657 20.2226 18.8731 20.2264L18.8768 20.2302C18.8657 20.2264 18.8546 20.2264 18.8435 20.2226C18.8139 20.2149 18.7805 20.2072 18.7509 20.1995C18.7287 20.1956 18.7102 20.188 18.6916 20.188C18.6398 20.1764 18.5842 20.1649 18.5324 20.161C18.5101 20.1572 18.4916 20.1534 18.4694 20.1534C18.399 20.1457 18.3286 20.138 18.2583 20.138C18.1249 20.1341 17.9879 20.138 17.8471 20.1534C16.3137 20.334 15.2025 21.7526 15.3691 23.3249C15.3691 23.3365 15.3728 23.3518 15.3728 23.3634C15.5321 24.7089 16.1544 27.2231 17.7434 27.6613C18.3323 27.8228 18.8694 28.0842 19.8954 27.9996C20.8437 27.9227 21.766 27.6613 23.1957 26.0236C24.4366 24.1553 24.9773 21.1567 24.9996 18.8347C25.0329 15.1211 23.1068 12.5262 22.466 11.7304C23.2883 14.2216 23.2513 16.4551 22.3808 17.5046C22.1586 17.7699 21.7845 18.0736 21.0289 18.1043C21.3733 17.5623 21.9808 15.7977 21.5585 12.7223C21.2622 10.581 19.8473 9.01633 19.3806 8.46659C19.4547 9.09322 19.4843 10.0774 19.1472 11.1884C18.9991 11.6804 18.8065 12.0918 18.6213 12.4263C18.362 11.1961 17.7953 9.23161 16.4655 7.16721C15.121 5.07589 13.5653 3.77651 12.5615 3.05762C13.3319 5.06436 13.5801 8.70494 11.5021 12.6146C10.8465 13.8487 8.93156 15.2864 8.77599 17.5315C8.39447 17.2509 7.85739 17.2355 7.79813 16.4436C7.75738 15.9284 7.93518 14.4714 8.26854 13.5488C7.93888 14.0755 4.42377 17.1356 6.84619 23.1442C8.10926 26.2774 9.5242 27.2077 10.6947 27.9189C10.8465 28.015 11.0095 28.0919 11.1799 28.1534Z" fill="white"/>
<defs>
<linearGradient id="paint0_linear_31_1869" x1="2.56" y1="32.6084" x2="42.1784" y2="22.9731" gradientUnits="userSpaceOnUse">
<stop offset="0.0833571" stop-color="#F02148"/>
<stop offset="1" stop-color="#FF5B21"/>
</linearGradient>
</defs>
</svg>
