<svg width="32" height="32" viewBox="0 0 32 32" fill="none" xmlns="http://www.w3.org/2000/svg">
<path d="M16 13.24C14.47 13.24 13.23 14.48 13.23 16.01C13.23 17.54 14.47 18.78 16 18.78C17.53 18.78 18.77 17.54 18.77 16.01C18.77 14.47 17.53 13.24 16 13.24Z" fill="white" fill-opacity="0.5"/>
<path d="M19.32 9.24995C19.32 9.24995 17.45 9.19995 16 9.19995C14.55 9.19995 12.74 9.24995 12.74 9.24995C10.62 9.24995 9.25 10.56 9.25 12.69C9.25 12.69 9.2 14.46 9.2 15.87C9.2 17.37 9.25 19.28 9.25 19.28C9.25 21.4 10.62 22.77 12.74 22.77C12.74 22.77 14.45 22.82 15.86 22.82C17.36 22.82 19.32 22.77 19.32 22.77C21.44 22.77 22.76 21.46 22.76 19.33C22.76 19.33 22.81 17.43 22.81 15.96C22.81 14.52 22.76 12.69 22.76 12.69C22.76 10.56 21.44 9.24995 19.32 9.24995ZM16 20.25C13.65 20.25 11.75 18.35 11.75 16C11.75 13.65 13.65 11.75 16 11.75C18.35 11.75 20.25 13.65 20.25 16C20.25 18.35 18.35 20.25 16 20.25ZM20.45 12.64C19.88 12.64 19.42 12.18 19.42 11.61C19.42 11.04 19.88 10.58 20.45 10.58C21.02 10.58 21.48 11.04 21.48 11.61C21.48 12.17 21.02 12.64 20.45 12.64Z" fill="white" fill-opacity="0.5"/>
<path d="M16 0C7.16 0 0 7.16 0 16C0 24.84 7.16 32 16 32C24.84 32 32 24.84 32 16C32 7.16 24.84 0 16 0ZM24.24 19.61C24.24 22.2 22.2 24.24 19.61 24.24C19.61 24.24 17.66 24.3 15.83 24.3C14.12 24.3 12.46 24.24 12.46 24.24C9.87 24.24 7.77 22.14 7.77 19.55C7.77 19.55 7.71 17.66 7.71 15.83C7.71 14.12 7.77 12.46 7.77 12.46C7.77 9.87 9.87 7.77 12.46 7.77C12.46 7.77 14.23 7.71 16.01 7.71C17.79 7.71 19.62 7.77 19.62 7.77C22.21 7.77 24.25 9.81 24.25 12.4C24.25 12.4 24.31 14.19 24.31 15.95C24.3 17.74 24.24 19.61 24.24 19.61Z" fill="white" fill-opacity="0.5"/>
</svg>
