<?xml version="1.0" encoding="utf-8"?>
<!-- Generator: Adobe Illustrator 24.0.1, SVG Export Plug-In . SVG Version: 6.00 Build 0)  -->
<svg version="1.1" id="Layer_1" xmlns="http://www.w3.org/2000/svg" xmlns:xlink="http://www.w3.org/1999/xlink" x="0px" y="0px"
	 viewBox="0 0 726 428" style="enable-background:new 0 0 726 428;" xml:space="preserve">
<style type="text/css">
	.st0{fill:url(#SVGID_1_);fill-opacity:0.5;}
	.st1{fill:url(#SVGID_2_);stroke:#BBBDBF;stroke-width:0.4024;stroke-miterlimit:10;}
	.st2{fill:url(#SVGID_3_);}
	.st3{fill:#030303;}
	.st4{fill:url(#SVGID_4_);}
	.st5{fill:none;filter:url(#Adobe_OpacityMaskFilter);}
	.st6{mask:url(#mask0_1_1796_1_);}
	.st7{opacity:0.49;}
	.st8{fill:url(#SVGID_5_);}
	.st9{fill:url(#SVGID_6_);stroke:#6D6E70;stroke-width:0.3351;stroke-miterlimit:10;}
	.st10{fill:url(#SVGID_7_);filter:url(#Adobe_OpacityMaskFilter_1_);}
	.st11{mask:url(#mask1_1_1796_1_);}
	.st12{opacity:3.000000e-02;fill:url(#SVGID_8_);enable-background:new    ;}
	.st13{fill:none;}
</style>
<g>
	
		<linearGradient id="SVGID_1_" gradientUnits="userSpaceOnUse" x1="352.01" y1="36.3231" x2="359.01" y2="-87.6769" gradientTransform="matrix(1 0 0 -1 0 428)">
		<stop  offset="0" style="stop-color:#050C37"/>
		<stop  offset="0.6099" style="stop-color:#F2F2F2;stop-opacity:0"/>
	</linearGradient>
	<ellipse class="st0" cx="352" cy="391.5" rx="316" ry="16.5"/>
</g>
<linearGradient id="SVGID_2_" gradientUnits="userSpaceOnUse" x1="125.9134" y1="461.5695" x2="580.8499" y2="7.6784" gradientTransform="matrix(1 0 0 -1 0 428)">
	<stop  offset="0" style="stop-color:#E0E0E0"/>
	<stop  offset="1" style="stop-color:#999999"/>
</linearGradient>
<path class="st1" d="M605.3,386.5c12.5,0,22.6-10.1,22.6-22.6v-341c0-12.5-10.1-22.6-22.6-22.6H101.5C89,0.3,78.9,10.4,78.9,22.9
	v341c0,12.5,10.1,22.6,22.6,22.6L605.3,386.5L605.3,386.5z"/>
<linearGradient id="SVGID_3_" gradientUnits="userSpaceOnUse" x1="625.152" y1="234.6272" x2="81.6049" y2="234.6272" gradientTransform="matrix(1 0 0 -1 0 428)">
	<stop  offset="0" style="stop-color:#000000"/>
	<stop  offset="1" style="stop-color:#383838"/>
</linearGradient>
<path class="st2" d="M605.3,383.8c11,0,19.9-8.9,19.9-19.9v-341c0-11-8.9-19.9-19.9-19.9H101.5c-11,0-19.9,8.9-19.9,19.9v341
	c0,11,8.9,19.9,19.9,19.9H605.3z"/>
<path class="st3" d="M605.3,382.2c10.1,0,18.3-8.2,18.3-18.3v-341c0-10.1-8.2-18.3-18.3-18.3H101.5c-10.1,0-18.3,8.2-18.3,18.3v341
	c0,10.1,8.2,18.3,18.3,18.3L605.3,382.2L605.3,382.2z"/>
<linearGradient id="SVGID_4_" gradientUnits="userSpaceOnUse" x1="351.9734" y1="35.3893" x2="351.9734" y2="49.458" gradientTransform="matrix(1 0 0 -1 0 428)">
	<stop  offset="0" style="stop-color:#242424"/>
	<stop  offset="1" style="stop-color:#C4C4C4"/>
</linearGradient>
<path class="st4" d="M66,392.5l286.1,0l245.2,0h45.5c4.2-0.4,10.8-2.2,18.8-9.5h0.1v-0.1v-0.6v-3.8H42.3v3.8v0.5v0.2h0.2
	C54.8,394.2,63.5,392.5,66,392.5z"/>
<defs>
	<filter id="Adobe_OpacityMaskFilter" filterUnits="userSpaceOnUse" x="42" y="379" width="620" height="14.1">
		<feColorMatrix  type="matrix" values="1 0 0 0 0  0 1 0 0 0  0 0 1 0 0  0 0 0 1 0"/>
	</filter>
</defs>
<mask maskUnits="userSpaceOnUse" x="42" y="379" width="620" height="14.1" id="mask0_1_1796_1_">
	<rect x="40" y="376" class="st5" width="623" height="19"/>
</mask>
<g class="st6">
	<g class="st7">
		<path d="M65.7,393l286.4,0l245.5,0h45.5c4.2-0.4,10.8-2.2,18.9-9.5h0.1v-0.1v-0.6V379H42v3.8v0.5v0.2h0.2
			C54.5,394.6,63.2,393,65.7,393z"/>
	</g>
</g>
<linearGradient id="SVGID_5_" gradientUnits="userSpaceOnUse" x1="42" y1="51" x2="662" y2="51" gradientTransform="matrix(1 0 0 -1 0 428)">
	<stop  offset="0" style="stop-color:#E1E2E3"/>
	<stop  offset="1" style="stop-color:#A8A8A8"/>
</linearGradient>
<path class="st8" d="M662,383.6V370H42v13.6c2.3,0.2,4.7,0.4,7.3,0.4h605.5C657.3,384,659.7,383.9,662,383.6z"/>
<linearGradient id="SVGID_6_" gradientUnits="userSpaceOnUse" x1="353.3785" y1="51.509" x2="353.3785" y2="59.017" gradientTransform="matrix(1 0 0 -1 0 428)">
	<stop  offset="0" style="stop-color:#242424"/>
	<stop  offset="0.5276" style="stop-color:#A9A9A9"/>
	<stop  offset="1" style="stop-color:#C9C9C9"/>
</linearGradient>
<path class="st9" d="M404,376.5c4.9,0,8.9-2.8,8.9-6.2c0-0.5-0.1-0.9-0.2-1.3H294.1c-0.1,0.4-0.2,0.9-0.2,1.3c0,3.4,4,6.2,8.9,6.2
	H404z"/>
<defs>
	<filter id="Adobe_OpacityMaskFilter_1_" filterUnits="userSpaceOnUse" x="83.2" y="4.5" width="294.1" height="364.4">
		<feColorMatrix  type="matrix" values="1 0 0 0 0  0 1 0 0 0  0 0 1 0 0  0 0 0 1 0"/>
	</filter>
</defs>
<mask maskUnits="userSpaceOnUse" x="83.2" y="4.5" width="294.1" height="364.4" id="mask1_1_1796_1_">
	
		<linearGradient id="SVGID_7_" gradientUnits="userSpaceOnUse" x1="46.7787" y1="391.243" x2="297.0316" y2="6.7735" gradientTransform="matrix(1 0 0 -1 0 428)">
		<stop  offset="0" style="stop-color:#FFFFFF"/>
		<stop  offset="6.290000e-02" style="stop-color:#DADADA"/>
		<stop  offset="0.1601" style="stop-color:#A7A7A7"/>
		<stop  offset="0.2621" style="stop-color:#7B7B7B"/>
		<stop  offset="0.3668" style="stop-color:#555555"/>
		<stop  offset="0.475" style="stop-color:#363636"/>
		<stop  offset="0.5878" style="stop-color:#1E1E1E"/>
		<stop  offset="0.7072" style="stop-color:#0D0D0D"/>
		<stop  offset="0.8376" style="stop-color:#030303"/>
		<stop  offset="1" style="stop-color:#000000"/>
	</linearGradient>
	<path class="st10" d="M83.2,369V23.7c0-10.5,8.2-19.1,18.3-19.1h104.1L377.3,369H83.2z"/>
</mask>
<g class="st11">
	
		<linearGradient id="SVGID_8_" gradientUnits="userSpaceOnUse" x1="309.281" y1="356.0026" x2="106.2242" y2="44.0421" gradientTransform="matrix(1 0 0 -1 0 428)">
		<stop  offset="0" style="stop-color:#FFFFFF"/>
		<stop  offset="8.960000e-02" style="stop-color:#FFFFFF"/>
		<stop  offset="1" style="stop-color:#FFFFFF"/>
	</linearGradient>
	<path class="st12" d="M205.6,4.5H101.5c-10.1,0-18.3,8.6-18.3,19.1V369h294.1L205.6,4.5z"/>
</g>
<rect x="104" y="23" class="st13" width="504" height="320"/>
</svg>
