<svg width="100" height="64" viewBox="0 0 100 64" fill="none" xmlns="http://www.w3.org/2000/svg">
<path d="M94.8747 37.8117L62.6226 56.5683C55.7566 60.5696 44.5774 60.5696 37.6649 56.5683L5.21703 37.8117C1.73282 35.7971 3.7379e-05 33.1576 0.00935343 30.5273L3.71655e-05 34.2581C-0.00927889 36.8977 1.73282 39.5372 5.20771 41.5425L37.6649 60.2991C44.5774 64.3004 55.7473 64.3004 62.6226 60.2991L94.8654 41.5332C98.2751 39.5465 99.9893 36.9536 99.9893 34.3514L99.9986 30.6206C99.9986 33.2228 98.2844 35.8251 94.8747 37.8117Z" fill="url(#paint0_linear_1_3153)"/>
<path d="M94.7911 23.3361C101.704 27.3374 101.741 33.8103 94.8749 37.8116L62.6227 56.5682C55.7568 60.5695 44.5775 60.5695 37.665 56.5682L5.21719 37.8116C-1.69532 33.8103 -1.73258 27.3374 5.13335 23.3361L37.3762 4.57023C44.2421 0.568955 55.4214 0.568955 62.3339 4.57023L94.7911 23.3361Z" fill="white"/>
<g opacity="0.41" filter="url(#filter0_f_1_3153)">
<path d="M72.4414 47.8073L82.7424 42.5247L53.4241 29.0541L41.5384 29.8465L72.4414 47.8073Z" fill="#30265B"/>
</g>
<path d="M72.5541 26.982L72.5541 47.5845L73.955 46.7772L73.955 26.1365L72.5541 26.982Z" fill="url(#paint1_linear_1_3153)"/>
<path d="M72.5583 26.9821L72.5583 47.5846L41.753 29.739L41.753 9.09601L72.5583 26.9821Z" fill="url(#paint2_linear_1_3153)"/>
<path d="M41.753 9.09593L72.5583 26.982L73.9547 26.1365L43.1404 8.26392L41.753 9.09593Z" fill="url(#paint3_linear_1_3153)"/>
<path d="M72.1871 22.8692L72.1871 27.4363L74.2973 26.2108L74.2973 21.6032L72.1871 22.8692Z" fill="url(#paint4_linear_1_3153)"/>
<path d="M72.1916 22.8692L72.1916 27.4363L41.4623 9.59292L41.4623 4.98535L72.1916 22.8692Z" fill="url(#paint5_linear_1_3153)"/>
<path d="M41.4623 4.98531L72.1916 22.8691L74.2973 21.6031L43.5591 3.73279L41.4623 4.98531Z" fill="url(#paint6_linear_1_3153)"/>
<path d="M48.5873 13.7665L46.4144 12.5072L50.3395 10.1978L52.5124 11.4593L48.5873 13.7665Z" fill="url(#paint7_linear_1_3153)"/>
<path d="M53.517 16.6178L51.3441 15.3563L55.2625 13.0491L57.4354 14.3084L53.517 16.6178Z" fill="url(#paint8_linear_1_3153)"/>
<path d="M58.447 19.4691L56.2741 18.2076L60.1858 15.8982L62.3587 17.1597L58.447 19.4691Z" fill="url(#paint9_linear_1_3153)"/>
<path d="M63.3767 22.3204L61.2038 21.0589L65.1088 18.7495L67.2839 20.0088L63.3767 22.3204Z" fill="url(#paint10_linear_1_3153)"/>
<path d="M68.3089 25.1719L66.1338 23.9103L70.0342 21.5987L72.2071 22.8602L68.3089 25.1719Z" fill="url(#paint11_linear_1_3153)"/>
<path d="M72.1871 13.9577L72.1871 17.3037L74.2973 15.7071L74.2973 12.3206L72.1871 13.9577Z" fill="url(#paint12_linear_1_3153)"/>
<path d="M72.1916 13.9576L72.1916 17.3014L41.4623 5.00555L41.4623 1.62128L72.1916 13.9576Z" fill="url(#paint13_linear_1_3153)"/>
<path d="M41.4623 1.6213L72.1915 13.9576L74.2973 12.3206L43.5591 0L41.4623 1.6213Z" fill="url(#paint14_linear_1_3153)"/>
<path d="M50.8141 5.44187L48.6412 4.56488L50.3173 8.55855L52.4902 9.43554L50.8141 5.44187Z" fill="url(#paint15_linear_1_3153)"/>
<path d="M55.7349 7.40054L53.5598 6.5213L55.2382 10.5195L57.411 11.3987L55.7349 7.40054Z" fill="url(#paint16_linear_1_3153)"/>
<path d="M60.6534 9.35696L58.4805 8.47772L60.1566 12.4826L62.3295 13.3596L60.6534 9.35696Z" fill="url(#paint17_linear_1_3153)"/>
<path d="M65.5745 11.3132L63.3994 10.434L65.0777 14.4434L67.2506 15.3226L65.5745 11.3132Z" fill="url(#paint18_linear_1_3153)"/>
<path d="M70.4932 13.2696L68.3203 12.3904L69.9964 16.4065L72.1693 17.2835L70.4932 13.2696Z" fill="url(#paint19_linear_1_3153)"/>
<path d="M41.44 2.00818L41.2789 2.08463L41.487 9.55253L46.2714 12.4601L46.4348 12.3634L46.4348 8.98361L43.8949 3.38662L41.44 2.00818Z" fill="url(#paint20_linear_1_3153)"/>
<path d="M41.2743 2.07336L41.2743 9.57499L46.2712 12.4601L46.2712 9.04655L43.7313 3.45181L41.2743 2.07336Z" fill="url(#paint21_linear_1_3153)"/>
<path d="M42.8005 4.65039C42.8005 4.87526 42.6192 4.95396 42.3932 4.82354C42.1694 4.69312 41.9859 4.40529 41.9859 4.17817C41.9859 3.9533 42.1672 3.87459 42.3932 4.00502C42.617 4.13544 42.8005 4.42552 42.8005 4.65039Z" fill="#A7A9AC"/>
<path d="M42.8005 8.72052C42.8005 8.94539 42.6192 9.02409 42.3932 8.89367C42.1694 8.76325 41.9859 8.47541 41.9859 8.2483C41.9859 8.02343 42.1672 7.94472 42.3932 8.07515C42.617 8.20557 42.8005 8.49565 42.8005 8.72052Z" fill="#A7A9AC"/>
<path d="M45.6894 10.2789C45.6894 10.5037 45.5081 10.5824 45.2821 10.452C45.0583 10.3216 44.8748 10.0338 44.8748 9.80665C44.8748 9.58178 45.0561 9.50307 45.2821 9.6335C45.5081 9.76392 45.6894 10.0518 45.6894 10.2789Z" fill="#A7A9AC"/>
<path d="M42.6973 4.68408C42.6973 4.90895 42.516 4.98766 42.29 4.85723C42.064 4.72681 41.8827 4.43898 41.8827 4.21186C41.8827 3.98699 42.064 3.90829 42.29 4.03871C42.5138 4.17138 42.6973 4.45921 42.6973 4.68408Z" fill="url(#paint22_linear_1_3153)"/>
<path d="M42.6973 8.75421C42.6973 8.97908 42.516 9.05778 42.29 8.92736C42.064 8.79694 41.8827 8.50911 41.8827 8.28199C41.8827 8.05712 42.064 7.97841 42.29 8.10884C42.5138 8.24151 42.6973 8.52934 42.6973 8.75421Z" fill="url(#paint23_linear_1_3153)"/>
<path d="M45.5864 10.3126C45.5864 10.5374 45.4052 10.6161 45.1792 10.4857C44.9554 10.3553 44.7719 10.0675 44.7719 9.84034C44.7719 9.61547 44.9532 9.53676 45.1792 9.66719C45.4029 9.79761 45.5864 10.0877 45.5864 10.3126Z" fill="url(#paint24_linear_1_3153)"/>
<path d="M45.8885 7.61182L72.1937 22.5431L74.2972 21.6032L72.3816 22.8894L72.1869 27.4363L72.0325 22.9164L45.8885 7.61182Z" fill="url(#paint25_radial_1_3153)"/>
<path d="M42.0573 1.90686L72.1063 13.717L74.1047 12.433L72.3256 14.106L72.1914 17.1282L71.9363 14.0205L42.0573 1.90686Z" fill="url(#paint26_radial_1_3153)"/>
<path d="M43.1742 16.2175C43.1048 16.1433 43.0533 16.0669 43.0175 15.9904C42.9817 15.914 42.9616 15.842 42.9593 15.7768C42.9593 15.7656 42.9638 15.7588 42.9705 15.7543C42.9772 15.7498 42.9862 15.7521 42.9974 15.7566L43.0332 15.7768C43.0556 15.7903 43.0667 15.8105 43.0712 15.8398C43.0802 15.9095 43.1115 15.9859 43.1697 16.0691C43.2256 16.1523 43.3084 16.2243 43.4158 16.285C43.5277 16.3502 43.6128 16.3749 43.6687 16.3592C43.7247 16.3435 43.7515 16.294 43.7515 16.2085C43.7515 16.1568 43.7381 16.1051 43.7112 16.0579C43.6844 16.0084 43.6463 15.9567 43.5949 15.9027C43.5434 15.8488 43.4673 15.7723 43.3644 15.6734C43.2726 15.5857 43.201 15.5115 43.1495 15.4485C43.0981 15.3855 43.06 15.3226 43.0354 15.2596C43.0108 15.1966 42.9974 15.1292 42.9974 15.055C42.9974 14.9853 43.013 14.9313 43.0466 14.8953C43.0802 14.8571 43.1272 14.8413 43.1876 14.8458C43.2502 14.8503 43.3219 14.8751 43.4091 14.9245C43.4964 14.9763 43.5725 15.037 43.6351 15.1112C43.6978 15.1831 43.7448 15.2574 43.7784 15.3316C43.8097 15.4058 43.8276 15.471 43.8298 15.5294C43.8298 15.5407 43.8276 15.5474 43.8209 15.5519C43.8142 15.5564 43.8052 15.5542 43.794 15.5474L43.7582 15.5272C43.7493 15.5227 43.7426 15.5137 43.7336 15.5047C43.7247 15.4935 43.7202 15.48 43.7202 15.4642C43.7135 15.3923 43.6821 15.3158 43.624 15.2394C43.568 15.1629 43.4964 15.0999 43.4114 15.0482C43.3196 14.9943 43.248 14.974 43.1943 14.983C43.1406 14.992 43.1137 15.0392 43.1137 15.1202C43.1137 15.1741 43.1249 15.2259 43.1495 15.2731C43.1742 15.3226 43.21 15.3743 43.2592 15.426C43.3084 15.48 43.38 15.5519 43.474 15.6419C43.5702 15.7341 43.6463 15.8128 43.7023 15.8757C43.756 15.941 43.7985 16.0039 43.8254 16.0669C43.8522 16.1298 43.8679 16.1973 43.8679 16.2715C43.8679 16.3952 43.8276 16.4671 43.7493 16.4896C43.6687 16.5121 43.5613 16.4829 43.4226 16.4042C43.3219 16.357 43.2413 16.2917 43.1742 16.2175Z" fill="white"/>
<path d="M44.237 16.7369C44.161 16.5908 44.1184 16.4334 44.1117 16.2602C44.1095 16.222 44.1095 16.1613 44.1095 16.0781C44.1095 15.9926 44.1095 15.9319 44.1117 15.8937C44.1184 15.7273 44.1587 15.6171 44.237 15.5609C44.3131 15.5047 44.4295 15.5226 44.5839 15.6103C44.6891 15.6711 44.7764 15.7453 44.848 15.8307C44.9173 15.9162 44.9688 16.0016 45.0046 16.0893C45.0382 16.177 45.0561 16.258 45.0606 16.3299L45.0606 16.3344C45.0606 16.3457 45.0561 16.3524 45.0494 16.3547C45.0427 16.3569 45.0337 16.3547 45.0225 16.3502L44.9867 16.3299C44.9643 16.3164 44.9531 16.2962 44.9487 16.2647C44.9263 16.1343 44.886 16.0286 44.8256 15.9477C44.7652 15.8644 44.6868 15.7947 44.5861 15.7363C44.4743 15.6711 44.387 15.6576 44.3266 15.6936C44.2639 15.7295 44.2326 15.8217 44.2259 15.9701C44.2236 16.0061 44.2236 16.0623 44.2236 16.1388C44.2236 16.2152 44.2236 16.2737 44.2259 16.3142C44.2303 16.4671 44.2639 16.5975 44.3266 16.7055C44.3892 16.8134 44.4743 16.9011 44.5861 16.9641C44.6868 17.0225 44.7674 17.045 44.8256 17.0315C44.886 17.018 44.9263 16.9596 44.9487 16.8561C44.9531 16.8291 44.9666 16.8224 44.9867 16.8359L45.0225 16.8561C45.0337 16.8629 45.0427 16.8719 45.0494 16.8831C45.0561 16.8944 45.0606 16.9078 45.0583 16.9191C45.0538 16.9888 45.0359 17.0473 45.0024 17.0945C44.9688 17.1417 44.9173 17.1687 44.8457 17.1732C44.7764 17.1777 44.6868 17.1485 44.5817 17.0877C44.4295 17 44.3131 16.8831 44.237 16.7369Z" fill="white"/>
<path d="M45.3761 17.5151C45.3694 17.5038 45.3649 17.4903 45.3649 17.4768L45.3649 16.1321C45.3649 16.1186 45.3694 16.1096 45.3761 16.1051C45.3828 16.1006 45.3917 16.1006 45.4052 16.1074L46.0989 16.5099C46.1123 16.5166 46.1213 16.5279 46.1302 16.5391C46.1369 16.5504 46.1414 16.5661 46.1414 16.5796L46.1414 16.6111C46.1414 16.6246 46.1369 16.6336 46.1302 16.6381C46.1235 16.6426 46.1123 16.6403 46.1011 16.6336L45.479 16.2738L45.479 16.7977L46.0608 17.135C46.0743 17.1418 46.0832 17.153 46.0922 17.1643C46.0989 17.1777 46.1034 17.1912 46.1034 17.2047L46.1034 17.2362C46.1034 17.2497 46.0989 17.2587 46.0922 17.2632C46.0854 17.2677 46.0743 17.2654 46.0631 17.2587L45.4812 16.9214L45.4812 17.4656L46.1168 17.8344C46.1302 17.8411 46.1392 17.8524 46.1481 17.8636C46.1548 17.8771 46.1593 17.8906 46.1593 17.9041L46.1593 17.9356C46.1593 17.949 46.1548 17.958 46.1481 17.9625C46.1414 17.967 46.1302 17.9648 46.119 17.958L45.4096 17.5465C45.394 17.5375 45.3828 17.5285 45.3761 17.5151Z" fill="white"/>
<path d="M46.4746 18.1536C46.4679 18.1401 46.4634 18.1289 46.4634 18.1154L46.4634 16.7707C46.4634 16.7572 46.4679 16.7482 46.4746 16.7437C46.4813 16.7392 46.4903 16.7392 46.5037 16.7459L46.5418 16.7684C46.5574 16.7774 46.5686 16.7931 46.5798 16.8156L47.2377 18.3537L47.2377 17.2181C47.2377 17.2047 47.2422 17.1957 47.2489 17.1912C47.2556 17.1867 47.2646 17.1867 47.278 17.1934L47.3093 17.2114C47.3227 17.2181 47.3317 17.2294 47.3406 17.2406C47.3474 17.2541 47.3518 17.2676 47.3518 17.2811L47.3518 18.6236C47.3518 18.6371 47.3474 18.6461 47.3406 18.6506C47.3339 18.6551 47.325 18.6551 47.3116 18.6483L47.2735 18.6258C47.2579 18.6168 47.2467 18.6011 47.2355 18.5786L46.5798 17.045L46.5798 18.1783C46.5798 18.1918 46.5753 18.2008 46.5686 18.2053C46.5619 18.2098 46.5507 18.2076 46.5395 18.2008L46.5082 18.1828C46.4903 18.1738 46.4813 18.1648 46.4746 18.1536Z" fill="white"/>
<path d="M47.737 18.8845C47.7303 18.871 47.7258 18.8598 47.7258 18.8463L47.7258 17.5016C47.7258 17.4881 47.7303 17.4791 47.737 17.4746C47.7437 17.4701 47.7526 17.4701 47.7661 17.4768L48.4598 17.8793C48.4732 17.8861 48.4822 17.8973 48.4911 17.9086C48.4978 17.9221 48.5023 17.9356 48.5023 17.949L48.5023 17.9805C48.5023 17.994 48.4978 18.003 48.4911 18.0075C48.4844 18.012 48.4732 18.0098 48.462 18.003L47.8399 17.6432L47.8399 18.1672L48.4217 18.5045C48.4352 18.5112 48.4441 18.5225 48.4531 18.5337C48.4598 18.5472 48.4643 18.5607 48.4643 18.5742L48.4643 18.6057C48.4643 18.6192 48.4598 18.6281 48.4531 18.6326C48.4464 18.6371 48.4352 18.6349 48.424 18.6281L47.8421 18.2908L47.8421 18.835L48.4777 19.2038C48.4911 19.2106 48.5001 19.2218 48.5068 19.233C48.5135 19.2465 48.518 19.26 48.518 19.2735L48.518 19.305C48.518 19.3185 48.5135 19.3275 48.5068 19.332C48.5001 19.3365 48.4889 19.3342 48.4777 19.3275L47.7683 18.916C47.7526 18.907 47.7437 18.898 47.737 18.8845Z" fill="white"/>
<path d="M52.9442 21.9607C52.9375 21.9495 52.933 21.936 52.933 21.9225L52.933 20.6542L52.5794 20.4496C52.5682 20.4429 52.5571 20.4339 52.5503 20.4204C52.5436 20.4069 52.5391 20.3956 52.5391 20.3822L52.5391 20.3507C52.5391 20.3372 52.5436 20.3282 52.5503 20.3237C52.5571 20.3192 52.566 20.3192 52.5794 20.3259L53.394 20.7982C53.4074 20.8049 53.4164 20.8162 53.4253 20.8274C53.432 20.8409 53.4365 20.8544 53.4365 20.8679L53.4365 20.8994C53.4365 20.9128 53.432 20.9218 53.4253 20.9263C53.4186 20.9308 53.4074 20.9286 53.3962 20.9218L53.0449 20.7195L53.0449 21.9877C53.0449 22.0012 53.0404 22.0102 53.0337 22.0147C53.027 22.0192 53.0158 22.017 53.0046 22.0102L52.9733 21.9922C52.9599 21.9832 52.9509 21.9742 52.9442 21.9607Z" fill="white"/>
<path d="M53.4498 22.2553C53.4431 22.2441 53.4386 22.2306 53.4386 22.2193L53.4431 22.1991L53.8929 21.1287C53.9019 21.1062 53.9198 21.104 53.9444 21.1175L54.0048 21.1535C54.0294 21.167 54.0473 21.1917 54.0563 21.2254L54.5061 22.8197L54.5105 22.8445C54.5105 22.8557 54.5061 22.8625 54.4993 22.867C54.4926 22.8715 54.4837 22.8715 54.4747 22.8647L54.4389 22.8445C54.4277 22.8377 54.4188 22.8287 54.4121 22.8197C54.4054 22.8085 54.4009 22.7995 54.3986 22.7905L54.289 22.397L53.6579 22.0304L53.5483 22.2958C53.546 22.3003 53.5416 22.3048 53.5349 22.3093C53.5281 22.3115 53.5192 22.3115 53.5102 22.3048L53.4744 22.2845C53.4655 22.2756 53.4565 22.2666 53.4498 22.2553ZM53.7027 21.9315L54.2465 22.2486L53.9735 21.2816L53.7027 21.9315Z" fill="white"/>
<path d="M54.7749 23.0243C54.7681 23.0108 54.7637 22.9996 54.7637 22.9861L54.7637 21.6414C54.7637 21.6279 54.7681 21.6189 54.7749 21.6144C54.7816 21.6099 54.7905 21.6099 54.8039 21.6167L54.8353 21.6346C54.8487 21.6414 54.8576 21.6526 54.8666 21.6639C54.8733 21.6751 54.8778 21.6909 54.8778 21.7044L54.8778 22.2373L55.4171 21.9989C55.426 21.9967 55.4372 21.9944 55.4462 21.9944C55.4574 21.9944 55.4686 21.9989 55.4842 22.0079L55.5133 22.0237C55.5223 22.0282 55.5312 22.0372 55.5379 22.0506C55.5447 22.0641 55.5491 22.0754 55.5491 22.0866C55.5491 22.0979 55.5469 22.1046 55.5402 22.1091L54.936 22.379L55.576 23.4313C55.5827 23.4426 55.5872 23.4561 55.5872 23.4651C55.5872 23.4763 55.5827 23.4831 55.576 23.4876C55.5693 23.4921 55.5603 23.4921 55.5514 23.4853L55.52 23.4673C55.5044 23.4583 55.4909 23.4471 55.482 23.4358C55.4708 23.4246 55.4619 23.4111 55.4529 23.3976L54.8756 22.4554L54.8756 23.0491C54.8756 23.0626 54.8711 23.0716 54.8644 23.076C54.8577 23.0805 54.8465 23.0783 54.8353 23.0716L54.8039 23.0536C54.7928 23.0468 54.7838 23.0356 54.7749 23.0243Z" fill="white"/>
<path d="M55.8443 23.6451C55.8376 23.6316 55.8331 23.6203 55.8331 23.6068L55.8331 22.2621C55.8331 22.2486 55.8376 22.2396 55.8443 22.2351C55.851 22.2306 55.8599 22.2306 55.8734 22.2374L56.5671 22.6399C56.5805 22.6466 56.5894 22.6579 56.5984 22.6691C56.6051 22.6826 56.6096 22.6961 56.6096 22.7096L56.6096 22.7411C56.6096 22.7546 56.6051 22.7636 56.5984 22.7681C56.5917 22.7726 56.5805 22.7703 56.5693 22.7636L55.9472 22.4038L55.9472 22.9277L56.529 23.265C56.5425 23.2718 56.5514 23.283 56.5604 23.2943C56.5671 23.3055 56.5715 23.3212 56.5715 23.3347L56.5715 23.3662C56.5715 23.3797 56.5671 23.3887 56.5604 23.3932C56.5536 23.3977 56.5425 23.3955 56.5313 23.3887L55.9494 23.0514L55.9494 23.5956L56.585 23.9644C56.5984 23.9711 56.6073 23.9824 56.6163 23.9936C56.623 24.0071 56.6275 24.0206 56.6275 24.0341L56.6275 24.0656C56.6275 24.0791 56.623 24.088 56.6163 24.0925C56.6096 24.097 56.5984 24.0948 56.5872 24.088L55.8778 23.6765C55.8599 23.6653 55.851 23.6563 55.8443 23.6451Z" fill="white"/>
<path d="M64.1913 28.4301C64.1846 28.4167 64.1801 28.4054 64.1801 28.3919L64.1801 27.0472C64.1801 27.0337 64.1846 27.0247 64.1913 27.0202C64.198 27.0157 64.207 27.0157 64.2204 27.0225L64.5986 27.2428C64.7217 27.3148 64.8202 27.3913 64.8918 27.4745C64.9634 27.5577 65.0148 27.6476 65.0439 27.7466C65.0753 27.8455 65.0909 27.9579 65.0932 28.0839C65.0954 28.1266 65.0954 28.1805 65.0954 28.248C65.0954 28.3155 65.0954 28.3717 65.0932 28.4122C65.0909 28.5426 65.0753 28.6393 65.0439 28.7C65.0148 28.763 64.9634 28.7922 64.894 28.7922C64.8246 28.7922 64.7284 28.7562 64.6076 28.6865L64.2204 28.4616C64.2092 28.4526 64.2003 28.4436 64.1913 28.4301ZM64.6008 28.5561C64.6948 28.61 64.7709 28.6393 64.8246 28.6415C64.8783 28.6438 64.9186 28.619 64.9432 28.5696C64.9678 28.5201 64.9813 28.4414 64.9835 28.3335C64.9857 28.293 64.9857 28.2413 64.9857 28.1805C64.9857 28.1198 64.9857 28.0704 64.9835 28.0276C64.9813 27.8725 64.9499 27.7421 64.8895 27.6386C64.8291 27.5329 64.7306 27.4407 64.5919 27.3598L64.2943 27.1866L64.2943 28.3762L64.6008 28.5561Z" fill="white"/>
<path d="M65.2965 29.0732C65.2898 29.0619 65.2854 29.0485 65.2854 29.0372L65.2898 29.017L65.7396 27.9466C65.7486 27.9241 65.7665 27.9219 65.7911 27.9354L65.8515 27.9713C65.8761 27.9848 65.894 28.0096 65.903 28.0433L66.3528 29.6376L66.3573 29.6623C66.3573 29.6736 66.3528 29.6803 66.3461 29.6848C66.3394 29.6893 66.3304 29.6893 66.3214 29.6826L66.2856 29.6623C66.2745 29.6556 66.2655 29.6466 66.2588 29.6376C66.2521 29.6264 66.2476 29.6174 66.2454 29.6084L66.1357 29.2149L65.5047 28.8483L65.395 29.1137C65.3928 29.1182 65.3883 29.1227 65.3816 29.1272C65.3749 29.1294 65.3659 29.1294 65.3547 29.1227L65.3189 29.1024C65.3122 29.0934 65.3055 29.0844 65.2965 29.0732ZM65.5494 28.7494L66.0932 29.0664L65.8202 28.0995L65.5494 28.7494Z" fill="white"/>
<path d="M66.7622 29.9232C66.7555 29.9097 66.751 29.8985 66.751 29.885L66.751 28.6145L66.3997 28.4098C66.3885 28.4031 66.3773 28.3941 66.3706 28.3806C66.3639 28.3693 66.3594 28.3559 66.3594 28.3424L66.3594 28.3109C66.3594 28.2974 66.3639 28.2884 66.3706 28.2839C66.3773 28.2794 66.3863 28.2794 66.3997 28.2861L67.2142 28.7584C67.2277 28.7651 67.2366 28.7764 67.2456 28.7876C67.2523 28.8011 67.2568 28.8146 67.2568 28.8281L67.2568 28.8596C67.2568 28.8731 67.2523 28.882 67.2456 28.8865C67.2389 28.891 67.2277 28.8888 67.2165 28.882L66.8651 28.6797L66.8651 29.9479C66.8651 29.9614 66.8607 29.9704 66.854 29.9749C66.8472 29.9794 66.8361 29.9772 66.8249 29.9704L66.7935 29.9524C66.7801 29.9434 66.7689 29.9344 66.7622 29.9232Z" fill="white"/>
<path d="M67.5256 30.3662C67.5189 30.3528 67.5145 30.3415 67.5145 30.328L67.5145 28.9833C67.5145 28.9698 67.5189 28.9608 67.5256 28.9563C67.5324 28.9518 67.5413 28.9518 67.5547 28.9586L68.2484 29.3611C68.2619 29.3678 68.2708 29.3791 68.2775 29.3903C68.2843 29.4038 68.2887 29.4173 68.2887 29.4308L68.2887 29.4623C68.2887 29.4758 68.2843 29.4848 68.2775 29.4893C68.2708 29.4938 68.2596 29.4915 68.2484 29.4848L67.6263 29.125L67.6263 29.6489L68.2082 29.9862C68.2216 29.993 68.2305 30.0042 68.2395 30.0155C68.2462 30.0267 68.2507 30.0424 68.2507 30.0559L68.2507 30.0874C68.2507 30.1009 68.2462 30.1099 68.2395 30.1144C68.2328 30.1189 68.2216 30.1166 68.2104 30.1099L67.6286 29.7726L67.6286 30.3168L68.2641 30.6856C68.2775 30.6923 68.2865 30.7035 68.2954 30.7148C68.3022 30.726 68.3066 30.7418 68.3066 30.7553L68.3066 30.7868C68.3066 30.8002 68.3022 30.8092 68.2954 30.8137C68.2887 30.8182 68.2775 30.816 68.2663 30.8092L67.557 30.3977C67.5435 30.3865 67.5346 30.3775 67.5256 30.3662Z" fill="white"/>
<path d="M71.3837 35.7946C71.4262 35.7946 71.4687 35.7722 71.4911 35.7317C71.5247 35.671 71.5045 35.5945 71.4441 35.5608L63.0054 30.6856L63.0054 25.2416L71.321 30.0448C71.3412 30.056 71.3613 30.0605 71.3837 30.0605C71.4262 30.0605 71.4687 30.038 71.4911 29.9975C71.5247 29.9368 71.5045 29.8604 71.4441 29.8266L62.992 24.9425C62.9719 24.8998 62.9293 24.8705 62.8801 24.8705C62.8779 24.8705 62.8734 24.8728 62.8712 24.8728L42.8833 13.3258C42.8228 13.292 42.7467 13.3123 42.7132 13.373C42.6796 13.4337 42.6998 13.5102 42.7602 13.5439L51.3443 18.5045L51.3443 23.9486L42.8833 19.0599C42.8228 19.0262 42.7467 19.0464 42.7132 19.1071C42.6796 19.1679 42.6998 19.2443 42.7602 19.278L53.6985 25.5991L53.6985 29.8918L42.8833 23.6427C42.8228 23.609 42.7467 23.6292 42.7132 23.69C42.6796 23.7507 42.6998 23.8271 42.7602 23.8609L71.3188 40.3617C71.3389 40.373 71.3591 40.3775 71.3815 40.3775C71.424 40.3775 71.4665 40.355 71.4889 40.3145C71.5224 40.2538 71.5023 40.1773 71.4419 40.1436L53.8954 30.0065L53.8954 25.7677L53.8484 25.6868L71.3188 35.7812C71.3412 35.7902 71.3636 35.7946 71.3837 35.7946ZM62.7593 30.5417L51.5972 24.0925L51.5972 18.6484L62.7593 25.0976L62.7593 30.5417Z" fill="url(#paint27_linear_1_3153)"/>
<path d="M71.4463 44.4768L42.8877 27.976C42.8272 27.9422 42.7512 27.9625 42.7176 28.0232C42.684 28.0839 42.7042 28.1604 42.7646 28.1941L71.3232 44.695C71.3434 44.7062 71.3635 44.7107 71.3859 44.7107C71.4284 44.7107 71.4709 44.6882 71.4933 44.6477C71.5269 44.5893 71.5067 44.5128 71.4463 44.4768Z" fill="url(#paint28_linear_1_3153)"/>
<path d="M72.6301 27.2541H72.4063L72.4063 46.4242H72.6301L72.6301 27.2541Z" fill="url(#paint29_radial_1_3153)"/>
<g style="mix-blend-mode:multiply" opacity="0.61" filter="url(#filter1_f_1_3153)">
<path d="M39.6625 48.341L51.8216 55.2947C52.508 55.688 53.3577 55.6563 54.0144 55.2164L64.6356 48.0875C64.8953 47.9122 64.9509 47.5524 64.7561 47.3063L52.8976 54.0177L40.5845 46.7582L39.6458 47.338C39.2692 47.5692 39.2784 48.121 39.6625 48.341Z" fill="#30265B"/>
</g>
<path d="M49.9163 39.0551C49.7215 39.1688 49.5415 39.1427 49.458 38.988L49.2595 38.6263C49.0758 38.2926 48.69 38.2367 48.267 38.4809L44.9628 40.3973C44.4267 40.7087 43.9146 41.2549 43.5399 41.913C43.0835 42.7146 42.4601 43.3783 41.8089 43.7567L38.6551 45.5856L38.6551 42.3679L48.3671 36.7341C49.5044 36.0741 50.4246 36.6017 50.4246 37.9142L50.4246 38.1714C50.4246 38.4977 50.1964 38.891 49.9163 39.0551Z" fill="url(#paint30_linear_1_3153)"/>
<path opacity="0.75" d="M39.4622 45.7832L39.4622 44.8828C39.4622 44.2694 39.8332 43.9879 40.2914 44.2527L44.0204 46.4171C44.4787 46.6818 44.8497 47.3958 44.8497 48.0091L44.8497 48.9096C44.8497 49.5229 44.4787 49.8044 44.0204 49.5397L40.2914 47.3753C39.8332 47.1087 39.4622 46.3965 39.4622 45.7832Z" fill="url(#paint31_linear_1_3153)"/>
<path opacity="0.8" d="M44.1559 49.4017L40.4269 47.2373C39.9687 46.9726 39.5976 46.2586 39.5976 45.6452L39.5976 44.7448C39.5976 44.523 39.6459 44.3459 39.7294 44.2209C39.5643 44.3291 39.4604 44.5584 39.4604 44.8828L39.4604 45.7832C39.4604 46.3965 39.8314 47.1087 40.2896 47.3753L44.0186 49.5397C44.3118 49.7093 44.5678 49.6553 44.7143 49.4334C44.5696 49.5285 44.373 49.5266 44.1559 49.4017Z" fill="url(#paint32_linear_1_3153)"/>
<path opacity="0.75" d="M47.3765 50.3749L47.3765 49.4744C47.3765 48.8611 47.7475 48.5796 48.2058 48.8443L51.9347 51.0087C52.393 51.2735 52.764 51.9875 52.764 52.6008L52.764 53.5012C52.764 54.1146 52.393 54.3961 51.9347 54.1314L48.2058 51.967C47.7475 51.7022 47.3765 50.9882 47.3765 50.3749Z" fill="url(#paint33_linear_1_3153)"/>
<path opacity="0.8" d="M52.072 53.9934L48.343 51.829C47.8848 51.5643 47.5138 50.8503 47.5138 50.2369L47.5138 49.3365C47.5138 49.1146 47.562 48.9375 47.6455 48.8126C47.4804 48.9207 47.3765 49.1501 47.3765 49.4744L47.3765 50.3749C47.3765 50.9882 47.7475 51.7004 48.2058 51.9669L51.9347 54.1313C52.2279 54.301 52.4839 54.2469 52.6305 54.0251C52.4839 54.122 52.2891 54.1202 52.072 53.9934Z" fill="url(#paint34_linear_1_3153)"/>
<path d="M38.6329 42.3344L38.6329 46.0144C38.6329 46.762 39.1579 47.6736 39.8072 48.0502L44.2375 50.6191C44.8479 50.9733 45.3859 50.826 45.5658 50.2574C45.6326 50.0412 45.8367 49.9871 46.0686 50.1213L46.1614 50.1754C46.3914 50.3096 46.5955 50.6023 46.6641 50.895C46.8422 51.6724 47.3821 52.4442 47.9925 52.7984L52.4209 55.3674C53.0702 55.7439 53.5952 55.4419 53.5952 54.6944L53.5952 51.0143L38.6329 42.3344ZM44.8497 48.9096C44.8497 49.5229 44.4787 49.8044 44.0204 49.5397L40.2915 47.3753C39.8332 47.1106 39.4622 46.3966 39.4622 45.7832L39.4622 44.8828C39.4622 44.2694 39.8332 43.9879 40.2915 44.2527L44.0204 46.4171C44.4787 46.6818 44.8497 47.3958 44.8497 48.0091L44.8497 48.9096ZM52.7641 53.5012C52.7641 54.1146 52.393 54.3961 51.9348 54.1314L48.2058 51.967C47.7476 51.7022 47.3765 50.9882 47.3765 50.3749L47.3765 49.4745C47.3765 48.8611 47.7476 48.5796 48.2058 48.8443L51.9348 51.0087C52.393 51.2735 52.7641 51.9875 52.7641 52.6008L52.7641 53.5012Z" fill="url(#paint35_linear_1_3153)"/>
<path d="M64.8472 47.709C64.6525 47.8227 64.4725 47.7966 64.389 47.6419L64.1905 47.2802C64.0068 46.9465 63.6209 46.8906 63.198 47.1348L59.8938 49.0513C59.3577 49.3626 58.8456 49.9088 58.4709 50.5669C58.0145 51.3686 57.3911 52.0322 56.7399 52.4107L53.5861 54.2395L53.5861 51.0218L63.2981 45.388C64.4354 44.7281 65.3556 45.2557 65.3556 46.5681L65.3556 46.8254C65.3556 47.1516 65.1274 47.5468 64.8472 47.709Z" fill="url(#paint36_linear_1_3153)"/>
<g style="mix-blend-mode:multiply" opacity="0.37">
<g filter="url(#filter2_f_1_3153)">
<path d="M31.1685 46.5705L43.2942 39.5497L35.1572 34.8649L23.3135 42.0497L31.1685 46.5705Z" fill="#30265B"/>
</g>
</g>
<path d="M40.6779 27.8217L36.743 42.7413L30.1125 38.8077L30.1514 21.6584L40.6779 27.8217Z" fill="url(#paint37_linear_1_3153)"/>
<path d="M19.6157 27.8217L23.5506 42.5587L30.183 38.6251L30.144 21.6585L19.6157 27.8217Z" fill="url(#paint38_linear_1_3153)"/>
<path d="M31.1513 23.4445C31.1513 22.9318 30.7376 22.5161 30.2274 22.5161C29.8156 22.5161 29.4705 22.7882 29.3517 23.1629C29.2423 23.1163 29.1217 23.0902 28.9955 23.0902C28.4854 23.0902 28.0716 23.506 28.0716 24.0186C28.0716 24.522 28.4705 24.9284 28.9659 24.9433C29.0493 25.4467 29.4816 25.8307 30.0066 25.8307C30.5892 25.8307 31.0623 25.3553 31.0623 24.7699C31.0623 24.5294 30.9806 24.3076 30.8452 24.1286C31.0326 23.959 31.1513 23.7166 31.1513 23.4445Z" fill="url(#paint39_radial_1_3153)"/>
<path d="M33.0419 23.9422C32.8972 23.5283 32.5076 23.2319 32.0476 23.2319C31.465 23.2319 30.9919 23.7073 30.9919 24.2926C30.9919 24.4753 31.0383 24.6487 31.1199 24.7978C30.9604 24.9656 30.8602 25.1912 30.8602 25.441C30.8602 25.9537 31.2739 26.3694 31.7841 26.3694C32.196 26.3694 32.541 26.0972 32.6598 25.7225C32.7692 25.7691 32.8898 25.7952 33.016 25.7952C33.5262 25.7952 33.9399 25.3795 33.9399 24.8668C33.938 24.3635 33.5391 23.9571 33.0419 23.9422Z" fill="url(#paint40_radial_1_3153)"/>
<path d="M30.1293 24.934C29.9846 24.5201 29.595 24.2237 29.1349 24.2237C28.5524 24.2237 28.0793 24.6991 28.0793 25.2845C28.0793 25.4672 28.1257 25.6405 28.2073 25.7897C28.0478 25.9575 27.9476 26.183 27.9476 26.4328C27.9476 26.9455 28.3613 27.3612 28.8715 27.3612C29.2833 27.3612 29.6284 27.0891 29.7471 26.7143C29.8566 26.7609 29.9772 26.787 30.1033 26.787C30.6135 26.787 31.0272 26.3713 31.0272 25.8586C31.0254 25.3572 30.6265 24.9489 30.1293 24.934Z" fill="url(#paint41_radial_1_3153)"/>
<path d="M33.0642 26.3117C33.0642 25.799 32.6505 25.3833 32.1403 25.3833C31.7284 25.3833 31.3834 25.6555 31.2646 26.0302C31.1552 25.9836 31.0346 25.9575 30.9084 25.9575C30.3982 25.9575 29.9845 26.3732 29.9845 26.8859C29.9845 27.3892 30.3834 27.7956 30.8787 27.8106C30.9622 28.3139 31.3945 28.6979 31.9195 28.6979C32.502 28.6979 32.9751 28.2226 32.9751 27.6372C32.9751 27.3967 32.8935 27.1748 32.7581 26.9959C32.9454 26.8262 33.0642 26.5839 33.0642 26.3117Z" fill="url(#paint42_radial_1_3153)"/>
<path d="M28.1386 24.3057C28.1386 23.7931 27.7249 23.3773 27.2147 23.3773C26.8028 23.3773 26.4578 23.6495 26.339 24.0242C26.2296 23.9776 26.109 23.9515 25.9828 23.9515C25.4726 23.9515 25.0589 24.3672 25.0589 24.8799C25.0589 25.3833 25.4578 25.7897 25.9531 25.8046C26.0366 26.3079 26.4689 26.692 26.9939 26.692C27.5765 26.692 28.0495 26.2166 28.0495 25.6312C28.0495 25.3907 27.9679 25.1689 27.8325 24.9899C28.0199 24.8203 28.1386 24.5779 28.1386 24.3057Z" fill="url(#paint43_radial_1_3153)"/>
<path d="M30.467 25.2416C30.3223 24.8277 29.9327 24.5313 29.4726 24.5313C28.89 24.5313 28.4169 25.0067 28.4169 25.5921C28.4169 25.7748 28.4633 25.9481 28.545 26.0973C28.3854 26.2651 28.2852 26.4906 28.2852 26.7405C28.2852 27.2531 28.6989 27.6689 29.2091 27.6689C29.621 27.6689 29.966 27.3967 30.0848 27.022C30.1942 27.0686 30.3148 27.0947 30.441 27.0947C30.9512 27.0947 31.3649 26.6789 31.3649 26.1663C31.363 25.6648 30.9642 25.2584 30.467 25.2416Z" fill="url(#paint44_radial_1_3153)"/>
<path d="M25.7322 26.1066C25.5875 25.6927 25.1979 25.3963 24.7379 25.3963C24.1553 25.3963 23.6822 25.8717 23.6822 26.4571C23.6822 26.6398 23.7286 26.8131 23.8102 26.9623C23.6507 27.1301 23.5505 27.3556 23.5505 27.6054C23.5505 28.1181 23.9642 28.5338 24.4744 28.5338C24.8863 28.5338 25.2313 28.2617 25.3501 27.8869C25.4595 27.9336 25.5801 27.9597 25.7063 27.9597C26.2165 27.9597 26.6302 27.5439 26.6302 27.0313C26.6283 26.5279 26.2294 26.1215 25.7322 26.1066Z" fill="url(#paint45_radial_1_3153)"/>
<path d="M28.3148 25.5156C28.3148 25.0029 27.9011 24.5872 27.3909 24.5872C26.979 24.5872 26.6339 24.8594 26.5152 25.2341C26.4057 25.1875 26.2852 25.1614 26.159 25.1614C25.6488 25.1614 25.2351 25.5771 25.2351 26.0898C25.2351 26.5932 25.634 26.9996 26.1293 27.0145C26.2128 27.5178 26.6451 27.9019 27.1701 27.9019C27.7526 27.9019 28.2257 27.4265 28.2257 26.8411C28.2257 26.6006 28.1441 26.3788 28.0087 26.1998C28.196 26.0302 28.3148 25.7878 28.3148 25.5156Z" fill="url(#paint46_radial_1_3153)"/>
<path d="M29.5021 27.4824C29.5021 26.9697 29.0883 26.554 28.5782 26.554C28.1663 26.554 27.8212 26.8262 27.7025 27.2009C27.593 27.1543 27.4724 27.1282 27.3463 27.1282C26.8361 27.1282 26.4224 27.5439 26.4224 28.0566C26.4224 28.56 26.8213 28.9664 27.3166 28.9813C27.4001 29.4846 27.8324 29.8687 28.3574 29.8687C28.9399 29.8687 29.413 29.3933 29.413 28.8079C29.413 28.5674 29.3314 28.3456 29.1959 28.1666C29.3833 27.9969 29.5021 27.7546 29.5021 27.4824Z" fill="url(#paint47_radial_1_3153)"/>
<path d="M24.5339 27.2885C24.5339 26.7758 24.1202 26.3601 23.61 26.3601C23.1982 26.3601 22.8531 26.6323 22.7344 27.007C22.6249 26.9604 22.5043 26.9343 22.3781 26.9343C21.868 26.9343 21.4543 27.35 21.4543 27.8627C21.4543 28.366 21.8531 28.7725 22.3485 28.7874C22.432 29.2907 22.8642 29.6748 23.3892 29.6748C23.9718 29.6748 24.4449 29.1994 24.4449 28.614C24.4449 28.3735 24.3632 28.1517 24.2278 27.9727C24.4152 27.803 24.5339 27.5607 24.5339 27.2885Z" fill="url(#paint48_radial_1_3153)"/>
<path d="M26.4243 27.7863C26.2796 27.3724 25.89 27.076 25.4299 27.076C24.8474 27.076 24.3743 27.5514 24.3743 28.1368C24.3743 28.3194 24.4207 28.4928 24.5023 28.642C24.3427 28.8097 24.2426 29.0353 24.2426 29.2851C24.2426 29.7978 24.6563 30.2135 25.1665 30.2135C25.5783 30.2135 25.9234 29.9414 26.0421 29.5666C26.1516 29.6132 26.2722 29.6393 26.3983 29.6393C26.9085 29.6393 27.3222 29.2236 27.3222 28.7109C27.3204 28.2095 26.9215 27.8012 26.4243 27.7863Z" fill="url(#paint49_radial_1_3153)"/>
<path d="M23.5117 28.7799C23.367 28.3661 22.9774 28.0696 22.5173 28.0696C21.9347 28.0696 21.4616 28.545 21.4616 29.1304C21.4616 29.3131 21.508 29.4865 21.5897 29.6356C21.4301 29.8034 21.3299 30.029 21.3299 30.2788C21.3299 30.7915 21.7436 31.2072 22.2538 31.2072C22.6657 31.2072 23.0108 30.935 23.1295 30.5603C23.2389 30.6069 23.3595 30.633 23.4857 30.633C23.9959 30.633 24.4096 30.2173 24.4096 29.7046C24.4077 29.2012 24.0089 28.7948 23.5117 28.7799Z" fill="url(#paint50_radial_1_3153)"/>
<path d="M26.4465 30.1558C26.4465 29.6431 26.0328 29.2274 25.5226 29.2274C25.1108 29.2274 24.7657 29.4995 24.647 29.8743C24.5375 29.8276 24.4169 29.8015 24.2908 29.8015C23.7806 29.8015 23.3669 30.2173 23.3669 30.7299C23.3669 31.2333 23.7657 31.6397 24.2611 31.6546C24.3446 32.158 24.7768 32.542 25.3019 32.542C25.8844 32.542 26.3575 32.0666 26.3575 31.4812C26.3575 31.2408 26.2758 31.0189 26.1404 30.8399C26.3278 30.6703 26.4465 30.4279 26.4465 30.1558Z" fill="url(#paint51_radial_1_3153)"/>
<path d="M35.1754 25.6312C35.1754 25.1185 34.7617 24.7028 34.2515 24.7028C33.8396 24.7028 33.4946 24.9749 33.3758 25.3497C33.2664 25.303 33.1458 25.277 33.0196 25.277C32.5095 25.277 32.0957 25.6927 32.0957 26.2053C32.0957 26.7087 32.4946 27.1151 32.99 27.13C33.0734 27.6334 33.5057 28.0174 34.0307 28.0174C34.6133 28.0174 35.0863 27.542 35.0863 26.9566C35.0863 26.7162 35.0047 26.4943 34.8693 26.3153C35.0567 26.1457 35.1754 25.9033 35.1754 25.6312Z" fill="url(#paint52_radial_1_3153)"/>
<path d="M37.0658 26.129C36.9211 25.7151 36.5315 25.4187 36.0714 25.4187C35.4888 25.4187 35.0158 25.8941 35.0158 26.4795C35.0158 26.6622 35.0621 26.8355 35.1438 26.9847C34.9842 27.1525 34.884 27.378 34.884 27.6278C34.884 28.1405 35.2978 28.5562 35.8079 28.5562C36.2198 28.5562 36.5649 28.2841 36.6836 27.9093C36.7931 27.956 36.9137 27.9821 37.0398 27.9821C37.55 27.9821 37.9637 27.5663 37.9637 27.0537C37.9619 26.5522 37.563 26.1439 37.0658 26.129Z" fill="url(#paint53_radial_1_3153)"/>
<path d="M34.1531 27.1226C34.0084 26.7088 33.6188 26.4124 33.1588 26.4124C32.5762 26.4124 32.1031 26.8877 32.1031 27.4731C32.1031 27.6558 32.1495 27.8292 32.2311 27.9783C32.0716 28.1461 31.9714 28.3717 31.9714 28.6215C31.9714 29.1342 32.3851 29.5499 32.8953 29.5499C33.3072 29.5499 33.6522 29.2777 33.771 28.903C33.8804 28.9496 34.001 28.9757 34.1272 28.9757C34.6374 28.9757 35.0511 28.56 35.0511 28.0473C35.0492 27.544 34.6503 27.1375 34.1531 27.1226Z" fill="url(#paint54_radial_1_3153)"/>
<path d="M37.088 28.4984C37.088 27.9857 36.6743 27.57 36.1641 27.57C35.7523 27.57 35.4072 27.8422 35.2884 28.2169C35.179 28.1703 35.0584 28.1442 34.9322 28.1442C34.4221 28.1442 34.0083 28.5599 34.0083 29.0726C34.0083 29.5759 34.4072 29.9824 34.9026 29.9973C34.986 30.5006 35.4183 30.8847 35.9433 30.8847C36.5259 30.8847 36.999 30.4093 36.999 29.8239C36.999 29.5815 36.9173 29.3616 36.7819 29.1826C36.9693 29.0129 37.088 28.7706 37.088 28.4984Z" fill="url(#paint55_radial_1_3153)"/>
<path d="M32.5372 27.268C32.5372 26.7553 32.1235 26.3396 31.6133 26.3396C31.2015 26.3396 30.8564 26.6118 30.7376 26.9865C30.6282 26.9399 30.5076 26.9138 30.3814 26.9138C29.8713 26.9138 29.4575 27.3295 29.4575 27.8422C29.4575 28.3455 29.8564 28.7519 30.3518 28.7669C30.4352 29.2702 30.8675 29.6542 31.3925 29.6542C31.9751 29.6542 32.4482 29.1789 32.4482 28.5935C32.4482 28.353 32.3665 28.1312 32.2311 27.9522C32.4185 27.7825 32.5372 27.5383 32.5372 27.268Z" fill="url(#paint56_radial_1_3153)"/>
<path d="M34.4462 28.2691C34.3015 27.8553 33.9119 27.5588 33.4518 27.5588C32.8692 27.5588 32.3961 28.0342 32.3961 28.6196C32.3961 28.8023 32.4425 28.9757 32.5242 29.1248C32.3646 29.2926 32.2644 29.5182 32.2644 29.768C32.2644 30.2807 32.6781 30.6964 33.1883 30.6964C33.6002 30.6964 33.9453 30.4242 34.064 30.0495C34.1734 30.0961 34.294 30.1222 34.4202 30.1222C34.9304 30.1222 35.3441 29.7065 35.3441 29.1938C35.3422 28.6923 34.9434 28.284 34.4462 28.2691Z" fill="url(#paint57_radial_1_3153)"/>
<path d="M30.3055 28.5805C30.1608 28.1666 29.7712 27.8702 29.3111 27.8702C28.7286 27.8702 28.2555 28.3456 28.2555 28.9309C28.2555 29.1136 28.3019 29.287 28.3835 29.4362C28.2239 29.6039 28.1238 29.8295 28.1238 30.0793C28.1238 30.592 28.5375 31.0077 29.0476 31.0077C29.4595 31.0077 29.8046 30.7355 29.9233 30.3608C30.0328 30.4074 30.1534 30.4335 30.2795 30.4335C30.7897 30.4335 31.2034 30.0178 31.2034 29.5051C31.2016 29.0018 30.8027 28.5954 30.3055 28.5805Z" fill="url(#paint58_radial_1_3153)"/>
<path d="M33.5261 29.6711C33.5261 29.1584 33.1124 28.7427 32.6022 28.7427C32.1904 28.7427 31.8453 29.0149 31.7266 29.3896C31.6171 29.343 31.4965 29.3169 31.3704 29.3169C30.8602 29.3169 30.4465 29.7326 30.4465 30.2453C30.4465 30.7486 30.8454 31.155 31.3407 31.1699C31.4242 31.6733 31.8564 32.0573 32.3815 32.0573C32.964 32.0573 33.4371 31.5819 33.4371 30.9966C33.4371 30.7561 33.3555 30.5342 33.22 30.3553C33.4074 30.1856 33.5261 29.9414 33.5261 29.6711Z" fill="url(#paint59_radial_1_3153)"/>
<path d="M32.8823 28.3735C32.8823 27.8609 32.4686 27.4451 31.9584 27.4451C31.5466 27.4451 31.2015 27.7173 31.0828 28.092C30.9733 28.0454 30.8527 28.0193 30.7266 28.0193C30.2164 28.0193 29.8027 28.435 29.8027 28.9477C29.8027 29.4511 30.2015 29.8575 30.6969 29.8724C30.7804 30.3757 31.2126 30.7598 31.7377 30.7598C32.3202 30.7598 32.7933 30.2844 32.7933 29.699C32.7933 29.4567 32.7117 29.2367 32.5762 29.0577C32.7636 28.8881 32.8823 28.6457 32.8823 28.3735Z" fill="url(#paint60_radial_1_3153)"/>
<path d="M28.5577 29.4772C28.5577 28.9645 28.144 28.5488 27.6338 28.5488C27.222 28.5488 26.8769 28.8209 26.7582 29.1957C26.6487 29.1491 26.5281 29.123 26.402 29.123C25.8918 29.123 25.4781 29.5387 25.4781 30.0514C25.4781 30.5547 25.877 30.9611 26.3723 30.976C26.4558 31.4794 26.888 31.8634 27.4131 31.8634C27.9956 31.8634 28.4687 31.388 28.4687 30.8027C28.4687 30.5622 28.3871 30.3403 28.2516 30.1613C28.439 29.9917 28.5577 29.7493 28.5577 29.4772Z" fill="url(#paint61_radial_1_3153)"/>
<path d="M30.4484 29.9731C30.3037 29.5592 29.9141 29.2628 29.454 29.2628C28.8715 29.2628 28.3984 29.7382 28.3984 30.3236C28.3984 30.5063 28.4448 30.6797 28.5264 30.8288C28.3668 30.9966 28.2666 31.2221 28.2666 31.472C28.2666 31.9846 28.6804 32.4004 29.1905 32.4004C29.6024 32.4004 29.9475 32.1282 30.0662 31.7535C30.1757 31.8001 30.2963 31.8262 30.4224 31.8262C30.9326 31.8262 31.3463 31.4104 31.3463 30.8978C31.3445 30.3963 30.9456 29.9899 30.4484 29.9731Z" fill="url(#paint62_radial_1_3153)"/>
<path d="M30.5059 26.7926C30.3612 26.3788 29.9716 26.0823 29.5115 26.0823C28.929 26.0823 28.4559 26.5577 28.4559 27.1431C28.4559 27.3258 28.5023 27.4992 28.5839 27.6483C28.4244 27.8161 28.3242 28.0417 28.3242 28.2915C28.3242 28.8041 28.7379 29.2199 29.2481 29.2199C29.6599 29.2199 30.005 28.9477 30.1237 28.573C30.2332 28.6196 30.3538 28.6457 30.4799 28.6457C30.9901 28.6457 31.4038 28.23 31.4038 27.7173C31.402 27.2139 31.0031 26.8075 30.5059 26.7926Z" fill="url(#paint63_radial_1_3153)"/>
<path d="M38.6279 27.7415C38.4831 27.3277 38.0936 27.0312 37.6335 27.0312C37.0509 27.0312 36.5778 27.5066 36.5778 28.092C36.5778 28.2747 36.6242 28.4481 36.7058 28.5972C36.5463 28.765 36.4461 28.9906 36.4461 29.2404C36.4461 29.7531 36.8598 30.1688 37.37 30.1688C37.7819 30.1688 38.1269 29.8966 38.2457 29.5219C38.3551 29.5685 38.4757 29.5946 38.6019 29.5946C39.1121 29.5946 39.5258 29.1789 39.5258 28.6662C39.5239 28.1647 39.1251 27.7564 38.6279 27.7415Z" fill="url(#paint64_radial_1_3153)"/>
<path d="M35.2161 30.1035C35.0714 29.6897 34.6818 29.3932 34.2217 29.3932C33.6392 29.3932 33.1661 29.8686 33.1661 30.454C33.1661 30.6367 33.2125 30.8101 33.2941 30.9592C33.1346 31.127 33.0344 31.3526 33.0344 31.6024C33.0344 32.1151 33.4481 32.5308 33.9583 32.5308C34.3701 32.5308 34.7152 32.2586 34.8339 31.8839C34.9434 31.9305 35.064 31.9566 35.1901 31.9566C35.7003 31.9566 36.114 31.5409 36.114 31.0282C36.1122 30.5249 35.7133 30.1184 35.2161 30.1035Z" fill="url(#paint65_radial_1_3153)"/>
<path d="M32.0087 31.5875C31.8639 31.1737 31.4743 30.8773 31.0143 30.8773C30.4317 30.8773 29.9586 31.3526 29.9586 31.938C29.9586 32.1207 30.005 32.2941 30.0866 32.4432C29.9271 32.611 29.8269 32.8366 29.8269 33.0864C29.8269 33.5991 30.2406 34.0148 30.7508 34.0148C31.1627 34.0148 31.5077 33.7426 31.6265 33.3679C31.7359 33.4145 31.8565 33.4406 31.9827 33.4406C32.4929 33.4406 32.9066 33.0249 32.9066 32.5122C32.9047 32.0089 32.5058 31.6025 32.0087 31.5875Z" fill="url(#paint66_radial_1_3153)"/>
<path d="M27.5355 30.9668C27.3908 30.5529 27.0012 30.2565 26.5411 30.2565C25.9586 30.2565 25.4855 30.7319 25.4855 31.3172C25.4855 31.4999 25.5319 31.6733 25.6135 31.8224C25.4539 31.9902 25.3538 32.2158 25.3538 32.4656C25.3538 32.9783 25.7675 33.394 26.2777 33.394C26.6895 33.394 27.0346 33.1218 27.1533 32.7471C27.2628 32.7937 27.3834 32.8198 27.5095 32.8198C28.0197 32.8198 28.4334 32.4041 28.4334 31.8914C28.4316 31.3899 28.0308 30.9817 27.5355 30.9668Z" fill="url(#paint67_radial_1_3153)"/>
<path d="M30.4706 32.3444C30.4706 31.8317 30.0569 31.416 29.5467 31.416C29.1349 31.416 28.7898 31.6882 28.671 32.0629C28.5616 32.0163 28.441 31.9902 28.3148 31.9902C27.8047 31.9902 27.3909 32.4059 27.3909 32.9186C27.3909 33.422 27.7898 33.8284 28.2852 33.8433C28.3686 34.3466 28.8009 34.7307 29.3259 34.7307C29.9085 34.7307 30.3816 34.2553 30.3816 33.6699C30.3816 33.4294 30.2999 33.2076 30.1645 33.0286C30.3519 32.8589 30.4706 32.6166 30.4706 32.3444Z" fill="url(#paint68_radial_1_3153)"/>
<path d="M31.1069 34.9003C31.1069 34.3877 30.6932 33.9719 30.183 33.9719C29.7712 33.9719 29.4261 34.2441 29.3074 34.6188C29.1979 34.5722 29.0773 34.5461 28.9512 34.5461C28.441 34.5461 28.0273 34.9618 28.0273 35.4745C28.0273 35.9779 28.4262 36.3843 28.9215 36.3992C29.005 36.9025 29.4372 37.2866 29.9623 37.2866C30.5448 37.2866 31.0179 36.8112 31.0179 36.2258C31.0179 35.9853 30.9363 35.7635 30.8008 35.5845C30.9882 35.4149 31.1069 35.1725 31.1069 34.9003Z" fill="url(#paint69_radial_1_3153)"/>
<path d="M31.1923 37.7675C31.1923 37.2548 30.7786 36.8391 30.2684 36.8391C29.8566 36.8391 29.5115 37.1113 29.3928 37.486C29.2833 37.4394 29.1627 37.4133 29.0366 37.4133C28.5264 37.4133 28.1127 37.829 28.1127 38.3417C28.1127 38.8451 28.5115 39.2515 29.0069 39.2664C29.0904 39.7697 29.5226 40.1538 30.0477 40.1538C30.6302 40.1538 31.1033 39.6784 31.1033 39.093C31.1033 38.8525 31.0216 38.6307 30.8862 38.4517C31.0736 38.282 31.1923 38.0397 31.1923 37.7675Z" fill="url(#paint70_radial_1_3153)"/>
<path d="M30.1755 33.9793L30.1718 46.4829L36.8042 42.6612L40.7039 27.8161L30.1755 33.9793Z" fill="url(#paint71_linear_1_3153)"/>
<path d="M40.2419 28.1032L36.513 42.829L36.8042 42.6612L40.7039 27.8161L40.2419 28.1032Z" fill="url(#paint72_linear_1_3153)"/>
<path d="M38.7096 28.998L35.5483 43.3826L35.8395 43.2167L39.1715 28.7109L38.7096 28.998Z" fill="url(#paint73_linear_1_3153)"/>
<path d="M37.179 29.8929L34.5836 43.9382L34.8749 43.7704L37.6391 29.6058L37.179 29.8929Z" fill="url(#paint74_linear_1_3153)"/>
<path d="M35.6464 30.7878L33.6186 44.4919L33.9081 44.3241L36.1083 30.5007L35.6464 30.7878Z" fill="url(#paint75_linear_1_3153)"/>
<path d="M34.1141 31.6826L32.6521 45.0475L32.9434 44.8797L34.576 31.3955L34.1141 31.6826Z" fill="url(#paint76_linear_1_3153)"/>
<path d="M32.5817 32.5774L31.6875 45.6011L31.9787 45.4333L33.0436 32.2903L32.5817 32.5774Z" fill="url(#paint77_linear_1_3153)"/>
<path d="M31.0511 33.4722L30.7228 46.1566L31.014 45.9888L31.5131 33.1851L31.0511 33.4722Z" fill="url(#paint78_linear_1_3153)"/>
<path d="M30.1682 33.9793L30.1719 46.4829L23.5246 42.5493L19.625 27.8161L30.1682 33.9793Z" fill="url(#paint79_linear_1_3153)"/>
<path d="M20.4078 28.3679L24.018 42.8289L23.7268 42.6612L19.9458 28.0808L20.4078 28.3679Z" fill="url(#paint80_linear_1_3153)"/>
<path d="M21.9402 29.2498L24.9828 43.4013L24.6934 43.2354L21.4783 28.9608L21.9402 29.2498Z" fill="url(#paint81_linear_1_3153)"/>
<path d="M23.4726 30.1297L25.9493 43.9755L25.6581 43.8077L23.0107 29.8426L23.4726 30.1297Z" fill="url(#paint82_linear_1_3153)"/>
<path d="M25.005 31.0096L26.9141 44.5479L26.6228 44.3801L24.5431 30.7225L25.005 31.0096Z" fill="url(#paint83_linear_1_3153)"/>
<path d="M26.5356 31.8895L27.8788 45.122L27.5876 44.9542L26.0737 31.6024L26.5356 31.8895Z" fill="url(#paint84_linear_1_3153)"/>
<path d="M28.0681 32.7695L28.8435 45.6943L28.5523 45.5266L27.6061 32.4824L28.0681 32.7695Z" fill="url(#paint85_linear_1_3153)"/>
<path d="M29.6005 33.6493L29.8082 46.2666L29.517 46.0988L29.1385 33.3622L29.6005 33.6493Z" fill="url(#paint86_linear_1_3153)"/>
<path d="M37.2106 36.2257C37.2106 37.9147 35.847 40.0754 34.1662 41.0504C32.4853 42.0254 31.1218 41.4475 31.1218 39.7566C31.1218 38.0676 32.4853 35.9069 34.1662 34.9319C35.847 33.9569 37.2106 34.5367 37.2106 36.2257Z" fill="url(#paint87_linear_1_3153)"/>
<path d="M36.9656 36.4178C36.9656 37.9558 35.7244 39.9207 34.1957 40.8081C32.6652 41.6955 31.4259 41.1698 31.4259 39.6318C31.4259 38.0937 32.667 36.1288 34.1957 35.2414C35.7244 34.3541 36.9656 34.8798 36.9656 36.4178Z" fill="url(#paint88_linear_1_3153)"/>
<path d="M33.0399 37.9875C33.1049 38.1012 33.1104 38.2336 33.0566 38.3846C33.0028 38.5356 32.8952 38.694 32.732 38.8599L32.6299 38.9643L32.8229 39.3018L32.4592 39.6709L31.8786 38.6549L32.3442 38.1832C32.5149 38.0117 32.6578 37.9092 32.7746 37.8793C32.8915 37.8495 32.9806 37.8849 33.0399 37.9875ZM32.5019 38.7425L32.5687 38.6754C32.6225 38.6195 32.6596 38.5635 32.68 38.5095C32.6986 38.4535 32.6967 38.4051 32.6726 38.3641C32.6336 38.2951 32.5631 38.3119 32.463 38.4144L32.3683 38.5095L32.5019 38.7425Z" fill="url(#paint89_linear_1_3153)"/>
<path d="M34.4759 36.8204C34.5742 36.9919 34.5928 37.1765 34.5315 37.3797C34.4722 37.581 34.3349 37.7898 34.1197 38.0079C33.9082 38.2223 33.7208 38.3416 33.5575 38.3659C33.3943 38.3901 33.2626 38.3174 33.1661 38.1478C33.0696 37.9781 33.0511 37.7936 33.1123 37.5903C33.1735 37.3871 33.3108 37.1783 33.5241 36.9621C33.7375 36.7458 33.9267 36.6247 34.0863 36.6004C34.2495 36.5762 34.3775 36.6489 34.4759 36.8204ZM33.5501 37.76C33.6633 37.9557 33.8098 37.9632 33.9898 37.7786C34.0826 37.6854 34.1364 37.5922 34.1531 37.499C34.1698 37.4058 34.1494 37.3088 34.0918 37.2082C34.0343 37.1075 33.9675 37.0553 33.8952 37.0516C33.8228 37.0497 33.7412 37.0926 33.6522 37.1839C33.4722 37.3704 33.4369 37.5624 33.5501 37.76Z" fill="url(#paint90_linear_1_3153)"/>
<path d="M35.4498 35.5453C35.5148 35.659 35.5203 35.7914 35.4665 35.9424C35.4127 36.0934 35.3051 36.2518 35.1419 36.4178L35.0398 36.5222L35.2328 36.8596L34.8692 37.2287L34.2885 36.2127L34.7541 35.741C34.9248 35.5695 35.0677 35.467 35.1845 35.4372C35.3014 35.4055 35.3905 35.4409 35.4498 35.5453ZM34.9118 36.2984L34.9786 36.2313C35.0324 36.1754 35.0695 36.1195 35.0899 36.0654C35.1085 36.0095 35.1066 35.961 35.0825 35.92C35.0436 35.851 34.9731 35.8678 34.8729 35.9703L34.7783 36.0654L34.9118 36.2984Z" fill="url(#paint91_linear_1_3153)"/>
<path d="M32.9008 39.9263C32.8321 39.9953 32.7913 40.0698 32.7765 40.1519C32.7616 40.232 32.7765 40.3103 32.8192 40.3849C32.9082 40.5396 33.0288 40.5378 33.1846 40.3793C33.231 40.3308 33.2737 40.2805 33.3127 40.2264C33.3516 40.1724 33.3887 40.1146 33.4258 40.0568L33.5297 40.2395C33.4574 40.3588 33.3665 40.4744 33.2551 40.5881C33.0956 40.7503 32.9527 40.8398 32.8266 40.8566C32.7004 40.8733 32.6002 40.8155 32.5242 40.6832C32.4759 40.6011 32.4555 40.5061 32.4611 40.4017C32.4667 40.2973 32.4982 40.1891 32.5576 40.0754C32.6151 39.9636 32.6967 39.8536 32.8025 39.7473C32.9175 39.6317 33.0381 39.5385 33.1642 39.4695L33.1735 39.7287C33.1271 39.7548 33.0807 39.7827 33.0362 39.8126C32.9917 39.8443 32.9472 39.8815 32.9008 39.9263Z" fill="url(#paint92_linear_1_3153)"/>
<path d="M34.409 38.7668C34.4869 38.901 34.5018 39.0483 34.4535 39.2067C34.4053 39.3652 34.2977 39.5311 34.1289 39.7026C33.9619 39.8723 33.8153 39.9655 33.6855 39.986C33.5556 40.0065 33.4536 39.9487 33.3757 39.8126C33.2996 39.6802 33.2848 39.533 33.333 39.3726C33.3812 39.2123 33.4888 39.0483 33.6576 38.8767C33.8265 38.7052 33.9749 38.6102 34.101 38.5915C34.2291 38.5747 34.3311 38.6325 34.409 38.7668ZM33.6781 39.5087C33.7671 39.6635 33.8821 39.6691 34.025 39.5236C34.0973 39.4509 34.14 39.3764 34.1548 39.3037C34.1678 39.231 34.153 39.1545 34.1066 39.0744C34.0602 38.9942 34.0101 38.9532 33.9526 38.9513C33.8951 38.9495 33.832 38.9849 33.7597 39.0557C33.6168 39.2011 33.589 39.3521 33.6781 39.5087Z" fill="url(#paint93_linear_1_3153)"/>
<path d="M34.8394 38.5057L35.0064 38.7965L34.7189 39.0874L34.2606 38.2857L34.6075 37.9334C34.8951 37.6407 35.0862 37.5736 35.1752 37.732C35.229 37.8253 35.2086 37.9576 35.1177 38.1291L35.6261 38.1646L35.3014 38.4945L34.9099 38.4311L34.8394 38.5057ZM34.7467 38.3435L34.8005 38.2895C34.9007 38.1888 34.9322 38.103 34.8933 38.0378C34.8617 37.9819 34.7968 38.0042 34.6985 38.1049L34.6409 38.1627L34.7467 38.3435Z" fill="url(#paint94_linear_1_3153)"/>
<path d="M36.6243 37.156L36.2477 37.5382L35.5371 37.3667L35.5297 37.3741C35.5891 37.4543 35.6336 37.5158 35.6596 37.5624L35.8655 37.9241L35.6113 38.1813L35.1531 37.3797L35.5278 36.9994L36.2328 37.1635L36.2365 37.1597C36.1827 37.0852 36.1438 37.0236 36.1159 36.9752L35.9082 36.6135L36.1642 36.3544L36.6243 37.156Z" fill="url(#paint95_linear_1_3153)"/>
<path d="M30.1423 26.7553C30.3185 27.186 30.1312 27.6707 29.7249 27.8384C29.3186 28.0062 28.8473 27.7937 28.6711 27.3631C28.4949 26.9324 28.6822 26.4477 29.0885 26.2799C29.493 26.1121 29.966 26.3247 30.1423 26.7553Z" fill="url(#paint96_radial_1_3153)"/>
<path d="M36.6243 26.1178C36.8005 26.5484 36.6131 27.0331 36.2068 27.2009C35.8006 27.3687 35.3293 27.1562 35.1531 26.7255C34.9768 26.2949 35.1642 25.8102 35.5705 25.6424C35.9749 25.4727 36.448 25.6871 36.6243 26.1178Z" fill="url(#paint97_radial_1_3153)"/>
<path d="M26.8546 25.8885C27.0309 26.3191 26.8435 26.8038 26.4372 26.9716C26.0309 27.1394 25.5597 26.9269 25.3834 26.4962C25.2072 26.0656 25.3946 25.5809 25.8008 25.4131C26.2071 25.2434 26.6784 25.4578 26.8546 25.8885Z" fill="url(#paint98_radial_1_3153)"/>
<path d="M30.0048 24.9433C30.1811 25.3739 29.9937 25.8587 29.5874 26.0264C29.1811 26.1942 28.7099 25.9817 28.5336 25.551C28.3574 25.1204 28.5448 24.6357 28.951 24.4679C29.3573 24.3001 29.8286 24.5127 30.0048 24.9433Z" fill="url(#paint99_radial_1_3153)"/>
<path d="M31.3221 27.4563C31.4983 27.8869 31.311 28.3717 30.9047 28.5394C30.4984 28.7072 30.0272 28.4947 29.8509 28.064C29.6747 27.6334 29.862 27.1487 30.2683 26.9809C30.6746 26.8131 31.1477 27.0257 31.3221 27.4563Z" fill="url(#paint100_radial_1_3153)"/>
<path d="M35.2311 28.8862C35.4074 29.3169 35.22 29.8016 34.8137 29.9694C34.4074 30.1371 33.9362 29.9246 33.76 29.494C33.5837 29.0633 33.7711 28.5786 34.1774 28.4108C34.5818 28.2431 35.0549 28.4556 35.2311 28.8862Z" fill="url(#paint101_radial_1_3153)"/>
<path d="M33.3221 30.9574C33.4984 31.388 33.311 31.8727 32.9047 32.0405C32.4984 32.2083 32.0272 31.9958 31.851 31.5651C31.6747 31.1345 31.8621 30.6498 32.2684 30.482C32.6747 30.3123 33.1459 30.5267 33.3221 30.9574Z" fill="url(#paint102_radial_1_3153)"/>
<path d="M31.3832 32.0349C31.643 32.6688 31.3684 33.3847 30.7692 33.6307C30.1699 33.8787 29.4742 33.5636 29.2145 32.9298C28.9548 32.2959 29.2293 31.5801 29.8286 31.334C30.4278 31.086 31.1235 31.4011 31.3832 32.0349Z" fill="url(#paint103_radial_1_3153)"/>
<path d="M34.9583 26.5261C35.218 27.1599 34.9434 27.8758 34.3442 28.1219C33.745 28.368 33.0492 28.0548 32.7895 27.4209C32.5298 26.7871 32.8044 26.0712 33.4036 25.8251C34.0028 25.5772 34.6985 25.8904 34.9583 26.5261Z" fill="url(#paint104_radial_1_3153)"/>
<path d="M32.4743 25.1428C32.6506 25.5734 32.4632 26.0581 32.0569 26.2259C31.6506 26.3937 31.1794 26.1812 31.0031 25.7505C30.8269 25.3199 31.0142 24.8352 31.4205 24.6674C31.8268 24.4996 32.2981 24.7121 32.4743 25.1428Z" fill="url(#paint105_radial_1_3153)"/>
<path d="M26.6952 29.0223C26.9159 29.5648 26.6822 30.1744 26.1701 30.3851C25.6581 30.5957 25.0644 30.3273 24.8436 29.7867C24.6229 29.2442 24.8566 28.6346 25.3687 28.4239C25.8807 28.2132 26.4744 28.4817 26.6952 29.0223Z" fill="url(#paint106_radial_1_3153)"/>
<path d="M31.1051 30.1912C31.2053 30.4373 31.0996 30.7132 30.8677 30.8083C30.6358 30.9033 30.3668 30.7822 30.2666 30.5361C30.1664 30.29 30.2721 30.0141 30.504 29.919C30.7359 29.8239 31.005 29.947 31.1051 30.1912Z" fill="url(#paint107_radial_1_3153)"/>
<path d="M32.8155 28.4463C32.9157 28.6923 32.81 28.9682 32.578 29.0633C32.3461 29.1584 32.0771 29.0372 31.977 28.7911C31.8768 28.5451 31.9825 28.2692 32.2144 28.1722C32.4463 28.079 32.7153 28.202 32.8155 28.4463Z" fill="url(#paint108_radial_1_3153)"/>
<path d="M36.4331 27.9578C36.5333 28.2039 36.4275 28.4798 36.1956 28.5748C35.9637 28.6699 35.6947 28.5487 35.5945 28.3027C35.4944 28.0566 35.6001 27.7807 35.832 27.6837C36.0639 27.5905 36.3329 27.7117 36.4331 27.9578Z" fill="url(#paint109_radial_1_3153)"/>
<path d="M31.2385 25.8363C31.3387 26.0824 31.2329 26.3583 31.001 26.4533C30.7691 26.5484 30.5001 26.4272 30.3999 26.1812C30.2997 25.9351 30.4055 25.6592 30.6374 25.5622C30.8693 25.469 31.1383 25.5921 31.2385 25.8363Z" fill="url(#paint110_radial_1_3153)"/>
<path d="M28.658 26.1551C28.8844 26.7106 28.645 27.3351 28.1219 27.5514C27.5987 27.7676 26.9902 27.4936 26.7638 26.9381C26.5375 26.3825 26.7768 25.758 27.3 25.5417C27.8232 25.3255 28.4317 25.5995 28.658 26.1551Z" fill="url(#paint111_radial_1_3153)"/>
<path d="M28.7489 30.9574C28.9252 31.388 28.7378 31.8727 28.3315 32.0405C27.9252 32.2083 27.454 31.9958 27.2777 31.5651C27.1015 31.1345 27.2888 30.6498 27.6951 30.482C28.0996 30.3123 28.5727 30.5267 28.7489 30.9574Z" fill="url(#paint112_radial_1_3153)"/>
<path d="M24.3854 27.8217C24.5616 28.2524 24.3742 28.7371 23.9679 28.9049C23.5617 29.0726 23.0904 28.8601 22.9142 28.4295C22.7379 27.9988 22.9253 27.5141 23.3316 27.3463C23.7379 27.1786 24.2091 27.3911 24.3854 27.8217Z" fill="url(#paint113_radial_1_3153)"/>
<path d="M19.625 27.8161L30.1682 33.9793L40.7039 27.8161L30.1181 33.6195L19.625 27.8161Z" fill="url(#paint114_radial_1_3153)"/>
<path d="M30.1755 33.9793L30.1718 46.4829L36.8042 42.6612L40.7039 27.8161L30.1755 33.9793Z" fill="url(#paint115_linear_1_3153)"/>
<defs>
<filter id="filter0_f_1_3153" x="37.5384" y="25.0541" width="49.204" height="26.7531" filterUnits="userSpaceOnUse" color-interpolation-filters="sRGB">
<feFlood flood-opacity="0" result="BackgroundImageFix"/>
<feBlend mode="normal" in="SourceGraphic" in2="BackgroundImageFix" result="shape"/>
<feGaussianBlur stdDeviation="2" result="effect1_foregroundBlur_1_3153"/>
</filter>
<filter id="filter1_f_1_3153" x="35.3688" y="42.7582" width="33.5039" height="16.8112" filterUnits="userSpaceOnUse" color-interpolation-filters="sRGB">
<feFlood flood-opacity="0" result="BackgroundImageFix"/>
<feBlend mode="normal" in="SourceGraphic" in2="BackgroundImageFix" result="shape"/>
<feGaussianBlur stdDeviation="2" result="effect1_foregroundBlur_1_3153"/>
</filter>
<filter id="filter2_f_1_3153" x="19.3135" y="30.8649" width="27.9807" height="19.7057" filterUnits="userSpaceOnUse" color-interpolation-filters="sRGB">
<feFlood flood-opacity="0" result="BackgroundImageFix"/>
<feBlend mode="normal" in="SourceGraphic" in2="BackgroundImageFix" result="shape"/>
<feGaussianBlur stdDeviation="2" result="effect1_foregroundBlur_1_3153"/>
</filter>
<linearGradient id="paint0_linear_1_3153" x1="15.9383" y1="55.5805" x2="42.7618" y2="81.421" gradientUnits="userSpaceOnUse">
<stop stop-color="#374ABD"/>
<stop offset="1" stop-color="#C743A9"/>
</linearGradient>
<linearGradient id="paint1_linear_1_3153" x1="71.2251" y1="37.4701" x2="84.9613" y2="33.377" gradientUnits="userSpaceOnUse">
<stop stop-color="#1A103D"/>
<stop offset="0.2692" stop-color="#251B4C"/>
<stop offset="0.7839" stop-color="#403873"/>
<stop offset="1" stop-color="#4D4685"/>
</linearGradient>
<linearGradient id="paint2_linear_1_3153" x1="9.2258" y1="39.1368" x2="107.251" y2="17.2692" gradientUnits="userSpaceOnUse">
<stop stop-color="#1A103D"/>
<stop offset="0.2692" stop-color="#251B4C"/>
<stop offset="0.7839" stop-color="#403873"/>
<stop offset="1" stop-color="#4D4685"/>
</linearGradient>
<linearGradient id="paint3_linear_1_3153" x1="60.5386" y1="12.4758" x2="57.4464" y2="18.3404" gradientUnits="userSpaceOnUse">
<stop stop-color="#1A103D"/>
<stop offset="0.2692" stop-color="#251B4C"/>
<stop offset="0.7839" stop-color="#403873"/>
<stop offset="1" stop-color="#4D4685"/>
</linearGradient>
<linearGradient id="paint4_linear_1_3153" x1="72.2392" y1="24.8211" x2="79.0246" y2="22.7991" gradientUnits="userSpaceOnUse">
<stop stop-color="#1A103D"/>
<stop offset="0.3316" stop-color="#241B4C"/>
<stop offset="0.9663" stop-color="#3F3873"/>
<stop offset="1" stop-color="#413A75"/>
</linearGradient>
<linearGradient id="paint5_linear_1_3153" x1="14.4675" y1="25.7521" x2="101.098" y2="6.42653" gradientUnits="userSpaceOnUse">
<stop stop-color="#1A103D"/>
<stop offset="0.3316" stop-color="#241B4C"/>
<stop offset="0.9663" stop-color="#3F3873"/>
<stop offset="1" stop-color="#413A75"/>
</linearGradient>
<linearGradient id="paint6_linear_1_3153" x1="47.8832" y1="-3.75334" x2="61.6836" y2="19.552" gradientUnits="userSpaceOnUse">
<stop stop-color="#251C4D"/>
<stop offset="0.5939" stop-color="#3C346D"/>
<stop offset="1" stop-color="#4D4685"/>
</linearGradient>
<linearGradient id="paint7_linear_1_3153" x1="51.4119" y1="8.58018" x2="47.6731" y2="15.0456" gradientUnits="userSpaceOnUse">
<stop stop-color="white"/>
<stop offset="1" stop-color="#BCBCD6"/>
</linearGradient>
<linearGradient id="paint8_linear_1_3153" x1="56.3393" y1="11.4296" x2="52.6005" y2="17.895" gradientUnits="userSpaceOnUse">
<stop stop-color="white"/>
<stop offset="1" stop-color="#BCBCD6"/>
</linearGradient>
<linearGradient id="paint9_linear_1_3153" x1="61.2669" y1="14.279" x2="57.5281" y2="20.7444" gradientUnits="userSpaceOnUse">
<stop stop-color="white"/>
<stop offset="1" stop-color="#BCBCD6"/>
</linearGradient>
<linearGradient id="paint10_linear_1_3153" x1="66.1942" y1="17.1284" x2="62.4554" y2="23.5938" gradientUnits="userSpaceOnUse">
<stop stop-color="white"/>
<stop offset="1" stop-color="#BCBCD6"/>
</linearGradient>
<linearGradient id="paint11_linear_1_3153" x1="71.1218" y1="19.9779" x2="67.383" y2="26.4434" gradientUnits="userSpaceOnUse">
<stop stop-color="white"/>
<stop offset="1" stop-color="#BCBCD6"/>
</linearGradient>
<linearGradient id="paint12_linear_1_3153" x1="72.3341" y1="15.2449" x2="78.7576" y2="13.2248" gradientUnits="userSpaceOnUse">
<stop stop-color="#1A103D"/>
<stop offset="0.3316" stop-color="#241B4C"/>
<stop offset="0.9663" stop-color="#3F3873"/>
<stop offset="1" stop-color="#413A75"/>
</linearGradient>
<linearGradient id="paint13_linear_1_3153" x1="14.8359" y1="26.3085" x2="103.869" y2="5.63537" gradientUnits="userSpaceOnUse">
<stop stop-color="#1A103D"/>
<stop offset="0.3316" stop-color="#241B4C"/>
<stop offset="0.9663" stop-color="#3F3873"/>
<stop offset="1" stop-color="#413A75"/>
</linearGradient>
<linearGradient id="paint14_linear_1_3153" x1="60.4975" y1="1.49732" x2="57.6473" y2="9.61024" gradientUnits="userSpaceOnUse">
<stop stop-color="#251C4D"/>
<stop offset="0.5939" stop-color="#3C346D"/>
<stop offset="1" stop-color="#4D4685"/>
</linearGradient>
<linearGradient id="paint15_linear_1_3153" x1="48.6409" y1="7.00028" x2="52.4912" y2="7.00028" gradientUnits="userSpaceOnUse">
<stop stop-color="white"/>
<stop offset="1" stop-color="#BCBCD6"/>
</linearGradient>
<linearGradient id="paint16_linear_1_3153" x1="53.5606" y1="8.95964" x2="57.4108" y2="8.95964" gradientUnits="userSpaceOnUse">
<stop stop-color="white"/>
<stop offset="1" stop-color="#BCBCD6"/>
</linearGradient>
<linearGradient id="paint17_linear_1_3153" x1="58.4801" y1="10.919" x2="62.3304" y2="10.919" gradientUnits="userSpaceOnUse">
<stop stop-color="white"/>
<stop offset="1" stop-color="#BCBCD6"/>
</linearGradient>
<linearGradient id="paint18_linear_1_3153" x1="63.4001" y1="12.8782" x2="67.2503" y2="12.8782" gradientUnits="userSpaceOnUse">
<stop stop-color="white"/>
<stop offset="1" stop-color="#BCBCD6"/>
</linearGradient>
<linearGradient id="paint19_linear_1_3153" x1="68.3199" y1="14.8375" x2="72.1701" y2="14.8375" gradientUnits="userSpaceOnUse">
<stop stop-color="white"/>
<stop offset="1" stop-color="#BCBCD6"/>
</linearGradient>
<linearGradient id="paint20_linear_1_3153" x1="45.7308" y1="6.83157" x2="51.9881" y2="5.50101" gradientUnits="userSpaceOnUse">
<stop stop-color="#1A103D"/>
<stop offset="0.3316" stop-color="#241B4C"/>
<stop offset="0.9663" stop-color="#3F3873"/>
<stop offset="1" stop-color="#413A75"/>
</linearGradient>
<linearGradient id="paint21_linear_1_3153" x1="38.5473" y1="10.3549" x2="45.8062" y2="6.10567" gradientUnits="userSpaceOnUse">
<stop stop-color="#1A103D"/>
<stop offset="0.2692" stop-color="#251B4C"/>
<stop offset="0.7839" stop-color="#403873"/>
<stop offset="1" stop-color="#4D4685"/>
</linearGradient>
<linearGradient id="paint22_linear_1_3153" x1="42.1603" y1="3.98998" x2="42.6379" y2="5.66532" gradientUnits="userSpaceOnUse">
<stop stop-color="white"/>
<stop offset="1" stop-color="#BCBCD6"/>
</linearGradient>
<linearGradient id="paint23_linear_1_3153" x1="42.1603" y1="8.06015" x2="42.6379" y2="9.73549" gradientUnits="userSpaceOnUse">
<stop stop-color="white"/>
<stop offset="1" stop-color="#BCBCD6"/>
</linearGradient>
<linearGradient id="paint24_linear_1_3153" x1="45.0498" y1="9.61819" x2="45.5273" y2="11.2935" gradientUnits="userSpaceOnUse">
<stop stop-color="white"/>
<stop offset="1" stop-color="#BCBCD6"/>
</linearGradient>
<radialGradient id="paint25_radial_1_3153" cx="0" cy="0" r="1" gradientUnits="userSpaceOnUse" gradientTransform="translate(68.5829 16.8688) scale(11.3267 11.3819)">
<stop stop-color="white"/>
<stop offset="1"/>
</radialGradient>
<radialGradient id="paint26_radial_1_3153" cx="0" cy="0" r="1" gradientUnits="userSpaceOnUse" gradientTransform="translate(67.751 9.7079) scale(10.3262 10.3765)">
<stop stop-color="white"/>
<stop offset="1"/>
</radialGradient>
<linearGradient id="paint27_linear_1_3153" x1="42.6999" y1="26.8442" x2="71.5091" y2="26.8442" gradientUnits="userSpaceOnUse">
<stop stop-color="white"/>
<stop offset="1" stop-color="#BCBCD6"/>
</linearGradient>
<linearGradient id="paint28_linear_1_3153" x1="42.6998" y1="36.3358" x2="71.509" y2="36.3358" gradientUnits="userSpaceOnUse">
<stop stop-color="white"/>
<stop offset="1" stop-color="#BCBCD6"/>
</linearGradient>
<radialGradient id="paint29_radial_1_3153" cx="0" cy="0" r="1" gradientUnits="userSpaceOnUse" gradientTransform="translate(75.2285 35.7252) scale(10.5743 10.6259)">
<stop stop-color="white"/>
<stop offset="1"/>
</radialGradient>
<linearGradient id="paint30_linear_1_3153" x1="52.2765" y1="35.6869" x2="38.881" y2="44.0298" gradientUnits="userSpaceOnUse">
<stop stop-color="#DACEEB"/>
<stop offset="1" stop-color="#9F9FC4"/>
</linearGradient>
<linearGradient id="paint31_linear_1_3153" x1="44.689" y1="49.8821" x2="39.9368" y2="44.3344" gradientUnits="userSpaceOnUse">
<stop offset="0.0354" stop-color="#138BBD"/>
<stop offset="0.2257" stop-color="#169AC7"/>
<stop offset="0.5946" stop-color="#1FC3DF"/>
<stop offset="1" stop-color="#2AF6FF"/>
</linearGradient>
<linearGradient id="paint32_linear_1_3153" x1="44.123" y1="50.3657" x2="39.3723" y2="44.8197" gradientUnits="userSpaceOnUse">
<stop offset="0.0354" stop-color="#138BBD"/>
<stop offset="0.2257" stop-color="#169AC7"/>
<stop offset="0.5946" stop-color="#1FC3DF"/>
<stop offset="1" stop-color="#2AF6FF"/>
</linearGradient>
<linearGradient id="paint33_linear_1_3153" x1="52.3743" y1="54.7026" x2="47.4355" y2="47.8764" gradientUnits="userSpaceOnUse">
<stop offset="0.0354" stop-color="#9F19AB"/>
<stop offset="0.2438" stop-color="#AE25B1"/>
<stop offset="0.6455" stop-color="#D744BF"/>
<stop offset="1" stop-color="#FF63CE"/>
</linearGradient>
<linearGradient id="paint34_linear_1_3153" x1="51.8465" y1="55.0832" x2="46.9093" y2="48.2592" gradientUnits="userSpaceOnUse">
<stop offset="0.0354" stop-color="#9F19AB"/>
<stop offset="0.2438" stop-color="#AE25B1"/>
<stop offset="0.6455" stop-color="#D744BF"/>
<stop offset="1" stop-color="#FF63CE"/>
</linearGradient>
<linearGradient id="paint35_linear_1_3153" x1="51.4504" y1="47.9244" x2="33.5877" y2="51.0906" gradientUnits="userSpaceOnUse">
<stop stop-color="#DACEEB"/>
<stop offset="1" stop-color="#9F9FC4"/>
</linearGradient>
<linearGradient id="paint36_linear_1_3153" x1="67.024" y1="42.2832" x2="53.6524" y2="54.3184" gradientUnits="userSpaceOnUse">
<stop stop-color="#DACEEB"/>
<stop offset="1" stop-color="#9F9FC4"/>
</linearGradient>
<linearGradient id="paint37_linear_1_3153" x1="27.9856" y1="41.1721" x2="39.9212" y2="21.7555" gradientUnits="userSpaceOnUse">
<stop offset="0.0354" stop-color="#9F19AB"/>
<stop offset="0.2438" stop-color="#AE25B1"/>
<stop offset="0.6455" stop-color="#D744BF"/>
<stop offset="1" stop-color="#FF63CE"/>
</linearGradient>
<linearGradient id="paint38_linear_1_3153" x1="19.7535" y1="29.8151" x2="54.114" y2="40.8194" gradientUnits="userSpaceOnUse">
<stop offset="0.0354" stop-color="#9F19AB"/>
<stop offset="0.2438" stop-color="#AE25B1"/>
<stop offset="0.6455" stop-color="#D744BF"/>
<stop offset="1" stop-color="#FF63CE"/>
</linearGradient>
<radialGradient id="paint39_radial_1_3153" cx="0" cy="0" r="1" gradientUnits="userSpaceOnUse" gradientTransform="translate(29.0259 23.3268) scale(2.827 2.84077)">
<stop offset="0.1515" stop-color="#FFFAE9"/>
<stop offset="0.3884" stop-color="#FFEAB9"/>
<stop offset="0.473" stop-color="#FFE4A7"/>
<stop offset="0.5588" stop-color="#FCE0A2"/>
<stop offset="0.6609" stop-color="#F3D494"/>
<stop offset="0.7712" stop-color="#E4C07C"/>
<stop offset="0.8866" stop-color="#CFA45A"/>
<stop offset="0.9091" stop-color="#CA9E53"/>
</radialGradient>
<radialGradient id="paint40_radial_1_3153" cx="0" cy="0" r="1" gradientUnits="userSpaceOnUse" gradientTransform="translate(31.6223 23.8506) scale(2.63942 2.65228)">
<stop offset="0.2323" stop-color="#FFFAE9"/>
<stop offset="0.3836" stop-color="#FFEAB9"/>
<stop offset="0.4377" stop-color="#FFE4A7"/>
<stop offset="0.4847" stop-color="#FCE0A2"/>
<stop offset="0.5407" stop-color="#F3D494"/>
<stop offset="0.6012" stop-color="#E4C07C"/>
<stop offset="0.6644" stop-color="#CFA45A"/>
<stop offset="0.6768" stop-color="#CA9E53"/>
<stop offset="0.9545" stop-color="#785E32"/>
</radialGradient>
<radialGradient id="paint41_radial_1_3153" cx="0" cy="0" r="1" gradientUnits="userSpaceOnUse" gradientTransform="translate(28.7094 24.8435) scale(2.63942 2.65228)">
<stop offset="0.1515" stop-color="#FFFAE9"/>
<stop offset="0.3884" stop-color="#FFEAB9"/>
<stop offset="0.473" stop-color="#FFE4A7"/>
<stop offset="0.5588" stop-color="#FCE0A2"/>
<stop offset="0.6609" stop-color="#F3D494"/>
<stop offset="0.7712" stop-color="#E4C07C"/>
<stop offset="0.8866" stop-color="#CFA45A"/>
<stop offset="0.9091" stop-color="#CA9E53"/>
</radialGradient>
<radialGradient id="paint42_radial_1_3153" cx="0" cy="0" r="1" gradientUnits="userSpaceOnUse" gradientTransform="translate(30.9393 26.1938) scale(2.82702 2.84079)">
<stop offset="0.1515" stop-color="#FFFAE9"/>
<stop offset="0.3884" stop-color="#FFEAB9"/>
<stop offset="0.473" stop-color="#FFE4A7"/>
<stop offset="0.5588" stop-color="#FCE0A2"/>
<stop offset="0.6609" stop-color="#F3D494"/>
<stop offset="0.7712" stop-color="#E4C07C"/>
<stop offset="0.8866" stop-color="#CFA45A"/>
<stop offset="0.9091" stop-color="#CA9E53"/>
</radialGradient>
<radialGradient id="paint43_radial_1_3153" cx="0" cy="0" r="1" gradientUnits="userSpaceOnUse" gradientTransform="translate(26.0136 24.1885) scale(2.827 2.84077)">
<stop offset="0.2323" stop-color="#FFFAE9"/>
<stop offset="0.3836" stop-color="#FFEAB9"/>
<stop offset="0.4377" stop-color="#FFE4A7"/>
<stop offset="0.4847" stop-color="#FCE0A2"/>
<stop offset="0.5407" stop-color="#F3D494"/>
<stop offset="0.6012" stop-color="#E4C07C"/>
<stop offset="0.6644" stop-color="#CFA45A"/>
<stop offset="0.6768" stop-color="#CA9E53"/>
<stop offset="0.9545" stop-color="#785E32"/>
</radialGradient>
<radialGradient id="paint44_radial_1_3153" cx="0" cy="0" r="1" gradientUnits="userSpaceOnUse" gradientTransform="translate(29.0467 25.1513) scale(2.63942 2.65228)">
<stop offset="0.1515" stop-color="#FFFAE9"/>
<stop offset="0.3884" stop-color="#FFEAB9"/>
<stop offset="0.473" stop-color="#FFE4A7"/>
<stop offset="0.5588" stop-color="#FCE0A2"/>
<stop offset="0.6609" stop-color="#F3D494"/>
<stop offset="0.7712" stop-color="#E4C07C"/>
<stop offset="0.8866" stop-color="#CFA45A"/>
<stop offset="0.9091" stop-color="#CA9E53"/>
</radialGradient>
<radialGradient id="paint45_radial_1_3153" cx="0" cy="0" r="1" gradientUnits="userSpaceOnUse" gradientTransform="translate(24.3115 26.0146) scale(2.63942 2.65228)">
<stop offset="0.2323" stop-color="#FFFAE9"/>
<stop offset="0.3836" stop-color="#FFEAB9"/>
<stop offset="0.4377" stop-color="#FFE4A7"/>
<stop offset="0.4847" stop-color="#FCE0A2"/>
<stop offset="0.5407" stop-color="#F3D494"/>
<stop offset="0.6012" stop-color="#E4C07C"/>
<stop offset="0.6644" stop-color="#CFA45A"/>
<stop offset="0.6768" stop-color="#CA9E53"/>
<stop offset="0.9545" stop-color="#785E32"/>
</radialGradient>
<radialGradient id="paint46_radial_1_3153" cx="0" cy="0" r="1" gradientUnits="userSpaceOnUse" gradientTransform="translate(26.1898 25.3984) scale(2.82702 2.84079)">
<stop offset="0.2323" stop-color="#FFFAE9"/>
<stop offset="0.5026" stop-color="#FFEAB9"/>
<stop offset="0.5993" stop-color="#FFE4A7"/>
<stop offset="0.6782" stop-color="#FCE0A2"/>
<stop offset="0.7719" stop-color="#F3D494"/>
<stop offset="0.8733" stop-color="#E4C07C"/>
<stop offset="0.9793" stop-color="#CFA45A"/>
<stop offset="1" stop-color="#CA9E53"/>
</radialGradient>
<radialGradient id="paint47_radial_1_3153" cx="0" cy="0" r="1" gradientUnits="userSpaceOnUse" gradientTransform="translate(27.3771 27.3649) scale(2.82702 2.84079)">
<stop stop-color="#FFFAE9"/>
<stop offset="0.1699" stop-color="#FFEAB9"/>
<stop offset="0.2306" stop-color="#FFE4A7"/>
<stop offset="0.2767" stop-color="#FCE0A2"/>
<stop offset="0.3314" stop-color="#F3D494"/>
<stop offset="0.3906" stop-color="#E4C07C"/>
<stop offset="0.4526" stop-color="#CFA45A"/>
<stop offset="0.4646" stop-color="#CA9E53"/>
<stop offset="0.9545" stop-color="#785E32"/>
</radialGradient>
<radialGradient id="paint48_radial_1_3153" cx="0" cy="0" r="1" gradientUnits="userSpaceOnUse" gradientTransform="translate(22.4076 27.1714) scale(2.827 2.84077)">
<stop offset="0.1515" stop-color="#FFFAE9"/>
<stop offset="0.3884" stop-color="#FFEAB9"/>
<stop offset="0.473" stop-color="#FFE4A7"/>
<stop offset="0.5588" stop-color="#FCE0A2"/>
<stop offset="0.6609" stop-color="#F3D494"/>
<stop offset="0.7712" stop-color="#E4C07C"/>
<stop offset="0.8866" stop-color="#CFA45A"/>
<stop offset="0.9091" stop-color="#CA9E53"/>
</radialGradient>
<radialGradient id="paint49_radial_1_3153" cx="0" cy="0" r="1" gradientUnits="userSpaceOnUse" gradientTransform="translate(25.0037 27.6952) scale(2.63942 2.65228)">
<stop offset="0.1515" stop-color="#FFFAE9"/>
<stop offset="0.3884" stop-color="#FFEAB9"/>
<stop offset="0.473" stop-color="#FFE4A7"/>
<stop offset="0.5588" stop-color="#FCE0A2"/>
<stop offset="0.6609" stop-color="#F3D494"/>
<stop offset="0.7712" stop-color="#E4C07C"/>
<stop offset="0.8866" stop-color="#CFA45A"/>
<stop offset="0.9091" stop-color="#CA9E53"/>
</radialGradient>
<radialGradient id="paint50_radial_1_3153" cx="0" cy="0" r="1" gradientUnits="userSpaceOnUse" gradientTransform="translate(22.0908 28.6881) scale(2.63942 2.65228)">
<stop offset="0.2323" stop-color="#FFFAE9"/>
<stop offset="0.3836" stop-color="#FFEAB9"/>
<stop offset="0.4377" stop-color="#FFE4A7"/>
<stop offset="0.4847" stop-color="#FCE0A2"/>
<stop offset="0.5407" stop-color="#F3D494"/>
<stop offset="0.6012" stop-color="#E4C07C"/>
<stop offset="0.6644" stop-color="#CFA45A"/>
<stop offset="0.6768" stop-color="#CA9E53"/>
<stop offset="0.9545" stop-color="#785E32"/>
</radialGradient>
<radialGradient id="paint51_radial_1_3153" cx="0" cy="0" r="1" gradientUnits="userSpaceOnUse" gradientTransform="translate(24.3207 30.0384) scale(2.827 2.84077)">
<stop offset="0.1515" stop-color="#FFFAE9"/>
<stop offset="0.3884" stop-color="#FFEAB9"/>
<stop offset="0.473" stop-color="#FFE4A7"/>
<stop offset="0.5588" stop-color="#FCE0A2"/>
<stop offset="0.6609" stop-color="#F3D494"/>
<stop offset="0.7712" stop-color="#E4C07C"/>
<stop offset="0.8866" stop-color="#CFA45A"/>
<stop offset="0.9091" stop-color="#CA9E53"/>
</radialGradient>
<radialGradient id="paint52_radial_1_3153" cx="0" cy="0" r="1" gradientUnits="userSpaceOnUse" gradientTransform="translate(33.0499 25.5142) scale(2.827 2.84077)">
<stop offset="0.1515" stop-color="#FFFAE9"/>
<stop offset="0.3884" stop-color="#FFEAB9"/>
<stop offset="0.473" stop-color="#FFE4A7"/>
<stop offset="0.5588" stop-color="#FCE0A2"/>
<stop offset="0.6609" stop-color="#F3D494"/>
<stop offset="0.7712" stop-color="#E4C07C"/>
<stop offset="0.8866" stop-color="#CFA45A"/>
<stop offset="0.9091" stop-color="#CA9E53"/>
</radialGradient>
<radialGradient id="paint53_radial_1_3153" cx="0" cy="0" r="1" gradientUnits="userSpaceOnUse" gradientTransform="translate(35.646 26.0381) scale(2.63942 2.65228)">
<stop offset="0.2323" stop-color="#FFFAE9"/>
<stop offset="0.3836" stop-color="#FFEAB9"/>
<stop offset="0.4377" stop-color="#FFE4A7"/>
<stop offset="0.4847" stop-color="#FCE0A2"/>
<stop offset="0.5407" stop-color="#F3D494"/>
<stop offset="0.6012" stop-color="#E4C07C"/>
<stop offset="0.6644" stop-color="#CFA45A"/>
<stop offset="0.6768" stop-color="#CA9E53"/>
<stop offset="0.9545" stop-color="#785E32"/>
</radialGradient>
<radialGradient id="paint54_radial_1_3153" cx="0" cy="0" r="1" gradientUnits="userSpaceOnUse" gradientTransform="translate(32.7331 27.031) scale(2.63942 2.65228)">
<stop offset="0.1515" stop-color="#FFFAE9"/>
<stop offset="0.3884" stop-color="#FFEAB9"/>
<stop offset="0.473" stop-color="#FFE4A7"/>
<stop offset="0.5588" stop-color="#FCE0A2"/>
<stop offset="0.6609" stop-color="#F3D494"/>
<stop offset="0.7712" stop-color="#E4C07C"/>
<stop offset="0.8866" stop-color="#CFA45A"/>
<stop offset="0.9091" stop-color="#CA9E53"/>
</radialGradient>
<radialGradient id="paint55_radial_1_3153" cx="0" cy="0" r="1" gradientUnits="userSpaceOnUse" gradientTransform="translate(34.9631 28.3812) scale(2.82702 2.84079)">
<stop offset="0.2323" stop-color="#FFFAE9"/>
<stop offset="0.3836" stop-color="#FFEAB9"/>
<stop offset="0.4377" stop-color="#FFE4A7"/>
<stop offset="0.4847" stop-color="#FCE0A2"/>
<stop offset="0.5407" stop-color="#F3D494"/>
<stop offset="0.6012" stop-color="#E4C07C"/>
<stop offset="0.6644" stop-color="#CFA45A"/>
<stop offset="0.6768" stop-color="#CA9E53"/>
<stop offset="0.9545" stop-color="#785E32"/>
</radialGradient>
<radialGradient id="paint56_radial_1_3153" cx="0" cy="0" r="1" gradientUnits="userSpaceOnUse" gradientTransform="translate(30.4112 27.1492) scale(2.82702 2.84079)">
<stop offset="0.2323" stop-color="#FFFAE9"/>
<stop offset="0.3836" stop-color="#FFEAB9"/>
<stop offset="0.4377" stop-color="#FFE4A7"/>
<stop offset="0.4847" stop-color="#FCE0A2"/>
<stop offset="0.5407" stop-color="#F3D494"/>
<stop offset="0.6012" stop-color="#E4C07C"/>
<stop offset="0.6644" stop-color="#CFA45A"/>
<stop offset="0.6768" stop-color="#CA9E53"/>
<stop offset="0.9545" stop-color="#785E32"/>
</radialGradient>
<radialGradient id="paint57_radial_1_3153" cx="0" cy="0" r="1" gradientUnits="userSpaceOnUse" gradientTransform="translate(33.0264 28.1783) scale(2.63942 2.65228)">
<stop offset="0.2323" stop-color="#FFFAE9"/>
<stop offset="0.5026" stop-color="#FFEAB9"/>
<stop offset="0.5993" stop-color="#FFE4A7"/>
<stop offset="0.6782" stop-color="#FCE0A2"/>
<stop offset="0.7719" stop-color="#F3D494"/>
<stop offset="0.8733" stop-color="#E4C07C"/>
<stop offset="0.9793" stop-color="#CFA45A"/>
<stop offset="1" stop-color="#CA9E53"/>
</radialGradient>
<radialGradient id="paint58_radial_1_3153" cx="0" cy="0" r="1" gradientUnits="userSpaceOnUse" gradientTransform="translate(28.8852 28.4893) scale(2.63942 2.65228)">
<stop offset="0.1515" stop-color="#FFFAE9"/>
<stop offset="0.3884" stop-color="#FFEAB9"/>
<stop offset="0.473" stop-color="#FFE4A7"/>
<stop offset="0.5588" stop-color="#FCE0A2"/>
<stop offset="0.6609" stop-color="#F3D494"/>
<stop offset="0.7712" stop-color="#E4C07C"/>
<stop offset="0.8866" stop-color="#CFA45A"/>
<stop offset="0.9091" stop-color="#CA9E53"/>
</radialGradient>
<radialGradient id="paint59_radial_1_3153" cx="0" cy="0" r="1" gradientUnits="userSpaceOnUse" gradientTransform="translate(31.4011 29.5523) scale(2.82702 2.84079)">
<stop offset="0.1515" stop-color="#FFFAE9"/>
<stop offset="0.3884" stop-color="#FFEAB9"/>
<stop offset="0.473" stop-color="#FFE4A7"/>
<stop offset="0.5588" stop-color="#FCE0A2"/>
<stop offset="0.6609" stop-color="#F3D494"/>
<stop offset="0.7712" stop-color="#E4C07C"/>
<stop offset="0.8866" stop-color="#CFA45A"/>
<stop offset="0.9091" stop-color="#CA9E53"/>
</radialGradient>
<radialGradient id="paint60_radial_1_3153" cx="0" cy="0" r="1" gradientUnits="userSpaceOnUse" gradientTransform="translate(30.7561 28.256) scale(2.827 2.84077)">
<stop offset="0.1515" stop-color="#FFFAE9"/>
<stop offset="0.3884" stop-color="#FFEAB9"/>
<stop offset="0.473" stop-color="#FFE4A7"/>
<stop offset="0.5588" stop-color="#FCE0A2"/>
<stop offset="0.6609" stop-color="#F3D494"/>
<stop offset="0.7712" stop-color="#E4C07C"/>
<stop offset="0.8866" stop-color="#CFA45A"/>
<stop offset="0.9091" stop-color="#CA9E53"/>
</radialGradient>
<radialGradient id="paint61_radial_1_3153" cx="0" cy="0" r="1" gradientUnits="userSpaceOnUse" gradientTransform="translate(26.4313 29.3588) scale(2.827 2.84077)">
<stop offset="0.2323" stop-color="#FFFAE9"/>
<stop offset="0.3836" stop-color="#FFEAB9"/>
<stop offset="0.4377" stop-color="#FFE4A7"/>
<stop offset="0.4847" stop-color="#FCE0A2"/>
<stop offset="0.5407" stop-color="#F3D494"/>
<stop offset="0.6012" stop-color="#E4C07C"/>
<stop offset="0.6644" stop-color="#CFA45A"/>
<stop offset="0.6768" stop-color="#CA9E53"/>
<stop offset="0.9545" stop-color="#785E32"/>
</radialGradient>
<radialGradient id="paint62_radial_1_3153" cx="0" cy="0" r="1" gradientUnits="userSpaceOnUse" gradientTransform="translate(29.0277 29.8827) scale(2.63942 2.65228)">
<stop offset="0.2323" stop-color="#FFFAE9"/>
<stop offset="0.5026" stop-color="#FFEAB9"/>
<stop offset="0.5993" stop-color="#FFE4A7"/>
<stop offset="0.6782" stop-color="#FCE0A2"/>
<stop offset="0.7719" stop-color="#F3D494"/>
<stop offset="0.8733" stop-color="#E4C07C"/>
<stop offset="0.9793" stop-color="#CFA45A"/>
<stop offset="1" stop-color="#CA9E53"/>
</radialGradient>
<radialGradient id="paint63_radial_1_3153" cx="0" cy="0" r="1" gradientUnits="userSpaceOnUse" gradientTransform="translate(29.0863 26.7009) scale(2.63942 2.65228)">
<stop offset="0.2323" stop-color="#FFFAE9"/>
<stop offset="0.5026" stop-color="#FFEAB9"/>
<stop offset="0.5993" stop-color="#FFE4A7"/>
<stop offset="0.6782" stop-color="#FCE0A2"/>
<stop offset="0.7719" stop-color="#F3D494"/>
<stop offset="0.8733" stop-color="#E4C07C"/>
<stop offset="0.9793" stop-color="#CFA45A"/>
<stop offset="1" stop-color="#CA9E53"/>
</radialGradient>
<radialGradient id="paint64_radial_1_3153" cx="0" cy="0" r="1" gradientUnits="userSpaceOnUse" gradientTransform="translate(37.2071 27.651) scale(2.63942 2.65228)">
<stop offset="0.1515" stop-color="#FFFAE9"/>
<stop offset="0.3884" stop-color="#FFEAB9"/>
<stop offset="0.473" stop-color="#FFE4A7"/>
<stop offset="0.5588" stop-color="#FCE0A2"/>
<stop offset="0.6609" stop-color="#F3D494"/>
<stop offset="0.7712" stop-color="#E4C07C"/>
<stop offset="0.8866" stop-color="#CFA45A"/>
<stop offset="0.9091" stop-color="#CA9E53"/>
</radialGradient>
<radialGradient id="paint65_radial_1_3153" cx="0" cy="0" r="1" gradientUnits="userSpaceOnUse" gradientTransform="translate(33.796 30.0122) scale(2.63942 2.65228)">
<stop offset="0.1515" stop-color="#FFFAE9"/>
<stop offset="0.3884" stop-color="#FFEAB9"/>
<stop offset="0.473" stop-color="#FFE4A7"/>
<stop offset="0.5588" stop-color="#FCE0A2"/>
<stop offset="0.6609" stop-color="#F3D494"/>
<stop offset="0.7712" stop-color="#E4C07C"/>
<stop offset="0.8866" stop-color="#CFA45A"/>
<stop offset="0.9091" stop-color="#CA9E53"/>
</radialGradient>
<radialGradient id="paint66_radial_1_3153" cx="0" cy="0" r="1" gradientUnits="userSpaceOnUse" gradientTransform="translate(30.5889 31.4957) scale(2.63942 2.65228)">
<stop offset="0.2323" stop-color="#FFFAE9"/>
<stop offset="0.3836" stop-color="#FFEAB9"/>
<stop offset="0.4377" stop-color="#FFE4A7"/>
<stop offset="0.4847" stop-color="#FCE0A2"/>
<stop offset="0.5407" stop-color="#F3D494"/>
<stop offset="0.6012" stop-color="#E4C07C"/>
<stop offset="0.6644" stop-color="#CFA45A"/>
<stop offset="0.6768" stop-color="#CA9E53"/>
<stop offset="0.9545" stop-color="#785E32"/>
</radialGradient>
<radialGradient id="paint67_radial_1_3153" cx="0" cy="0" r="1" gradientUnits="userSpaceOnUse" gradientTransform="translate(26.1145 30.8756) scale(2.63942 2.65228)">
<stop offset="0.1515" stop-color="#FFFAE9"/>
<stop offset="0.3884" stop-color="#FFEAB9"/>
<stop offset="0.473" stop-color="#FFE4A7"/>
<stop offset="0.5588" stop-color="#FCE0A2"/>
<stop offset="0.6609" stop-color="#F3D494"/>
<stop offset="0.7712" stop-color="#E4C07C"/>
<stop offset="0.8866" stop-color="#CFA45A"/>
<stop offset="0.9091" stop-color="#CA9E53"/>
</radialGradient>
<radialGradient id="paint68_radial_1_3153" cx="0" cy="0" r="1" gradientUnits="userSpaceOnUse" gradientTransform="translate(28.3447 32.2259) scale(2.827 2.84077)">
<stop offset="0.1515" stop-color="#FFFAE9"/>
<stop offset="0.3884" stop-color="#FFEAB9"/>
<stop offset="0.473" stop-color="#FFE4A7"/>
<stop offset="0.5588" stop-color="#FCE0A2"/>
<stop offset="0.6609" stop-color="#F3D494"/>
<stop offset="0.7712" stop-color="#E4C07C"/>
<stop offset="0.8866" stop-color="#CFA45A"/>
<stop offset="0.9091" stop-color="#CA9E53"/>
</radialGradient>
<radialGradient id="paint69_radial_1_3153" cx="0" cy="0" r="1" gradientUnits="userSpaceOnUse" gradientTransform="translate(28.9806 34.7818) scale(2.827 2.84077)">
<stop offset="0.1515" stop-color="#FFFAE9"/>
<stop offset="0.3884" stop-color="#FFEAB9"/>
<stop offset="0.473" stop-color="#FFE4A7"/>
<stop offset="0.5588" stop-color="#FCE0A2"/>
<stop offset="0.6609" stop-color="#F3D494"/>
<stop offset="0.7712" stop-color="#E4C07C"/>
<stop offset="0.8866" stop-color="#CFA45A"/>
<stop offset="0.9091" stop-color="#CA9E53"/>
</radialGradient>
<radialGradient id="paint70_radial_1_3153" cx="0" cy="0" r="1" gradientUnits="userSpaceOnUse" gradientTransform="translate(29.0674 37.6491) scale(2.82702 2.84079)">
<stop offset="0.1515" stop-color="#FFFAE9"/>
<stop offset="0.3884" stop-color="#FFEAB9"/>
<stop offset="0.473" stop-color="#FFE4A7"/>
<stop offset="0.5588" stop-color="#FCE0A2"/>
<stop offset="0.6609" stop-color="#F3D494"/>
<stop offset="0.7712" stop-color="#E4C07C"/>
<stop offset="0.8866" stop-color="#CFA45A"/>
<stop offset="0.9091" stop-color="#CA9E53"/>
</radialGradient>
<linearGradient id="paint71_linear_1_3153" x1="75.945" y1="37.1496" x2="32.554" y2="37.1496" gradientUnits="userSpaceOnUse">
<stop stop-color="#E6E7E8"/>
<stop offset="1" stop-color="#A7A9AC"/>
</linearGradient>
<linearGradient id="paint72_linear_1_3153" x1="30.8385" y1="37.625" x2="51.9604" y2="31.4269" gradientUnits="userSpaceOnUse">
<stop offset="0.0354" stop-color="#9F19AB"/>
<stop offset="0.2438" stop-color="#AE25B1"/>
<stop offset="0.6455" stop-color="#D744BF"/>
<stop offset="1" stop-color="#FF63CE"/>
</linearGradient>
<linearGradient id="paint73_linear_1_3153" x1="31.4722" y1="37.792" x2="53.7823" y2="31.2452" gradientUnits="userSpaceOnUse">
<stop offset="0.0354" stop-color="#9F19AB"/>
<stop offset="0.2438" stop-color="#AE25B1"/>
<stop offset="0.6455" stop-color="#D744BF"/>
<stop offset="1" stop-color="#FF63CE"/>
</linearGradient>
<linearGradient id="paint74_linear_1_3153" x1="31.8908" y1="38.0227" x2="54.9138" y2="31.2668" gradientUnits="userSpaceOnUse">
<stop offset="0.0354" stop-color="#9F19AB"/>
<stop offset="0.2438" stop-color="#AE25B1"/>
<stop offset="0.6455" stop-color="#D744BF"/>
<stop offset="1" stop-color="#FF63CE"/>
</linearGradient>
<linearGradient id="paint75_linear_1_3153" x1="32.0939" y1="38.3173" x2="55.3546" y2="31.4916" gradientUnits="userSpaceOnUse">
<stop offset="0.0354" stop-color="#9F19AB"/>
<stop offset="0.2438" stop-color="#AE25B1"/>
<stop offset="0.6455" stop-color="#D744BF"/>
<stop offset="1" stop-color="#FF63CE"/>
</linearGradient>
<linearGradient id="paint76_linear_1_3153" x1="32.0821" y1="38.6755" x2="55.1052" y2="31.9195" gradientUnits="userSpaceOnUse">
<stop offset="0.0354" stop-color="#9F19AB"/>
<stop offset="0.2438" stop-color="#AE25B1"/>
<stop offset="0.6455" stop-color="#D744BF"/>
<stop offset="1" stop-color="#FF63CE"/>
</linearGradient>
<linearGradient id="paint77_linear_1_3153" x1="31.8552" y1="39.0974" x2="54.1653" y2="32.5507" gradientUnits="userSpaceOnUse">
<stop offset="0.0354" stop-color="#9F19AB"/>
<stop offset="0.2438" stop-color="#AE25B1"/>
<stop offset="0.6455" stop-color="#D744BF"/>
<stop offset="1" stop-color="#FF63CE"/>
</linearGradient>
<linearGradient id="paint78_linear_1_3153" x1="31.4131" y1="39.5832" x2="52.535" y2="33.3851" gradientUnits="userSpaceOnUse">
<stop offset="0.0354" stop-color="#9F19AB"/>
<stop offset="0.2438" stop-color="#AE25B1"/>
<stop offset="0.6455" stop-color="#D744BF"/>
<stop offset="1" stop-color="#FF63CE"/>
</linearGradient>
<linearGradient id="paint79_linear_1_3153" x1="28.6865" y1="37.1496" x2="-7.5091" y2="37.1496" gradientUnits="userSpaceOnUse">
<stop stop-color="#E6E7E8"/>
<stop offset="1" stop-color="#A7A9AC"/>
</linearGradient>
<linearGradient id="paint80_linear_1_3153" x1="15.7206" y1="33.9311" x2="31.3688" y2="37.703" gradientUnits="userSpaceOnUse">
<stop offset="0.0354" stop-color="#9F19AB"/>
<stop offset="0.2438" stop-color="#AE25B1"/>
<stop offset="0.6455" stop-color="#D744BF"/>
<stop offset="1" stop-color="#FF63CE"/>
</linearGradient>
<linearGradient id="paint81_linear_1_3153" x1="14.0391" y1="33.9447" x2="30.8014" y2="37.985" gradientUnits="userSpaceOnUse">
<stop offset="0.0354" stop-color="#9F19AB"/>
<stop offset="0.2438" stop-color="#AE25B1"/>
<stop offset="0.6455" stop-color="#D744BF"/>
<stop offset="1" stop-color="#FF63CE"/>
</linearGradient>
<linearGradient id="paint82_linear_1_3153" x1="12.9917" y1="34.1125" x2="30.4225" y2="38.314" gradientUnits="userSpaceOnUse">
<stop offset="0.0354" stop-color="#9F19AB"/>
<stop offset="0.2438" stop-color="#AE25B1"/>
<stop offset="0.6455" stop-color="#D744BF"/>
<stop offset="1" stop-color="#FF63CE"/>
</linearGradient>
<linearGradient id="paint83_linear_1_3153" x1="12.5785" y1="34.4346" x2="30.232" y2="38.6898" gradientUnits="userSpaceOnUse">
<stop offset="0.0354" stop-color="#9F19AB"/>
<stop offset="0.2438" stop-color="#AE25B1"/>
<stop offset="0.6455" stop-color="#D744BF"/>
<stop offset="1" stop-color="#FF63CE"/>
</linearGradient>
<linearGradient id="paint84_linear_1_3153" x1="12.7993" y1="34.911" x2="30.23" y2="39.1125" gradientUnits="userSpaceOnUse">
<stop offset="0.0354" stop-color="#9F19AB"/>
<stop offset="0.2438" stop-color="#AE25B1"/>
<stop offset="0.6455" stop-color="#D744BF"/>
<stop offset="1" stop-color="#FF63CE"/>
</linearGradient>
<linearGradient id="paint85_linear_1_3153" x1="13.6542" y1="35.5418" x2="30.4165" y2="39.5822" gradientUnits="userSpaceOnUse">
<stop offset="0.0354" stop-color="#9F19AB"/>
<stop offset="0.2438" stop-color="#AE25B1"/>
<stop offset="0.6455" stop-color="#D744BF"/>
<stop offset="1" stop-color="#FF63CE"/>
</linearGradient>
<linearGradient id="paint86_linear_1_3153" x1="15.1432" y1="36.3269" x2="30.7913" y2="40.0987" gradientUnits="userSpaceOnUse">
<stop offset="0.0354" stop-color="#9F19AB"/>
<stop offset="0.2438" stop-color="#AE25B1"/>
<stop offset="0.6455" stop-color="#D744BF"/>
<stop offset="1" stop-color="#FF63CE"/>
</linearGradient>
<linearGradient id="paint87_linear_1_3153" x1="31.4616" y1="40.9499" x2="41.8868" y2="29.6588" gradientUnits="userSpaceOnUse">
<stop offset="0.0354" stop-color="#9F19AB"/>
<stop offset="0.2438" stop-color="#AE25B1"/>
<stop offset="0.6455" stop-color="#D744BF"/>
<stop offset="1" stop-color="#FF63CE"/>
</linearGradient>
<linearGradient id="paint88_linear_1_3153" x1="39.095" y1="35.1866" x2="23.7366" y2="43.9961" gradientUnits="userSpaceOnUse">
<stop offset="0.1212" stop-color="#F1F2F2"/>
<stop offset="1" stop-color="#A7A9AC"/>
</linearGradient>
<linearGradient id="paint89_linear_1_3153" x1="55.2196" y1="-20.5292" x2="53.9537" y2="-36.2033" gradientUnits="userSpaceOnUse">
<stop offset="0.0354" stop-color="#271273"/>
<stop offset="0.421" stop-color="#321382"/>
<stop offset="1" stop-color="#4916A1"/>
</linearGradient>
<linearGradient id="paint90_linear_1_3153" x1="56.1465" y1="-20.6036" x2="54.8806" y2="-36.2775" gradientUnits="userSpaceOnUse">
<stop offset="0.0354" stop-color="#271273"/>
<stop offset="0.421" stop-color="#321382"/>
<stop offset="1" stop-color="#4916A1"/>
</linearGradient>
<linearGradient id="paint91_linear_1_3153" x1="56.7376" y1="-20.6513" x2="55.4717" y2="-36.3254" gradientUnits="userSpaceOnUse">
<stop offset="0.0354" stop-color="#271273"/>
<stop offset="0.421" stop-color="#321382"/>
<stop offset="1" stop-color="#4916A1"/>
</linearGradient>
<linearGradient id="paint92_linear_1_3153" x1="56.3126" y1="-20.3978" x2="55.0467" y2="-36.0719" gradientUnits="userSpaceOnUse">
<stop offset="0.0354" stop-color="#271273"/>
<stop offset="0.421" stop-color="#321382"/>
<stop offset="1" stop-color="#4916A1"/>
</linearGradient>
<linearGradient id="paint93_linear_1_3153" x1="56.8489" y1="-20.4412" x2="55.583" y2="-36.1153" gradientUnits="userSpaceOnUse">
<stop offset="0.0354" stop-color="#271273"/>
<stop offset="0.421" stop-color="#321382"/>
<stop offset="1" stop-color="#4916A1"/>
</linearGradient>
<linearGradient id="paint94_linear_1_3153" x1="57.5113" y1="-20.4948" x2="56.2454" y2="-36.1689" gradientUnits="userSpaceOnUse">
<stop offset="0.0354" stop-color="#271273"/>
<stop offset="0.421" stop-color="#321382"/>
<stop offset="1" stop-color="#4916A1"/>
</linearGradient>
<linearGradient id="paint95_linear_1_3153" x1="58.1067" y1="-20.5426" x2="56.8408" y2="-36.2167" gradientUnits="userSpaceOnUse">
<stop offset="0.0354" stop-color="#271273"/>
<stop offset="0.421" stop-color="#321382"/>
<stop offset="1" stop-color="#4916A1"/>
</linearGradient>
<radialGradient id="paint96_radial_1_3153" cx="0" cy="0" r="1" gradientUnits="userSpaceOnUse" gradientTransform="translate(29.2399 26.6481) scale(0.842213 0.846316)">
<stop stop-color="white"/>
<stop offset="0.0866" stop-color="#F4F4F4"/>
<stop offset="0.24" stop-color="#D6D6D6"/>
<stop offset="0.4424" stop-color="#A5A5A5"/>
<stop offset="0.686" stop-color="#616161"/>
<stop offset="0.962" stop-color="#0C0C0C"/>
<stop offset="1"/>
</radialGradient>
<radialGradient id="paint97_radial_1_3153" cx="0" cy="0" r="1" gradientUnits="userSpaceOnUse" gradientTransform="translate(35.7223 26.0089) scale(0.842213 0.846317)">
<stop stop-color="white"/>
<stop offset="0.0866" stop-color="#F4F4F4"/>
<stop offset="0.24" stop-color="#D6D6D6"/>
<stop offset="0.4424" stop-color="#A5A5A5"/>
<stop offset="0.686" stop-color="#616161"/>
<stop offset="0.962" stop-color="#0C0C0C"/>
<stop offset="1"/>
</radialGradient>
<radialGradient id="paint98_radial_1_3153" cx="0" cy="0" r="1" gradientUnits="userSpaceOnUse" gradientTransform="translate(25.9533 25.7797) scale(0.842213 0.846317)">
<stop stop-color="white"/>
<stop offset="0.0866" stop-color="#F4F4F4"/>
<stop offset="0.24" stop-color="#D6D6D6"/>
<stop offset="0.4424" stop-color="#A5A5A5"/>
<stop offset="0.686" stop-color="#616161"/>
<stop offset="0.962" stop-color="#0C0C0C"/>
<stop offset="1"/>
</radialGradient>
<radialGradient id="paint99_radial_1_3153" cx="0" cy="0" r="1" gradientUnits="userSpaceOnUse" gradientTransform="translate(29.1037 24.8361) scale(0.842213 0.846316)">
<stop stop-color="white"/>
<stop offset="0.0866" stop-color="#F4F4F4"/>
<stop offset="0.24" stop-color="#D6D6D6"/>
<stop offset="0.4424" stop-color="#A5A5A5"/>
<stop offset="0.686" stop-color="#616161"/>
<stop offset="0.962" stop-color="#0C0C0C"/>
<stop offset="1"/>
</radialGradient>
<radialGradient id="paint100_radial_1_3153" cx="0" cy="0" r="1" gradientUnits="userSpaceOnUse" gradientTransform="translate(29.9668 27.196) scale(1.76478 1.77337)">
<stop offset="0.4567" stop-color="white"/>
<stop offset="0.548" stop-color="#FDFCFA"/>
<stop offset="0.6508" stop-color="#F5F2ED"/>
<stop offset="0.7592" stop-color="#E9E3D6"/>
<stop offset="0.8715" stop-color="#D8CDB7"/>
<stop offset="0.9858" stop-color="#C3B28F"/>
<stop offset="1" stop-color="#C0AE89"/>
</radialGradient>
<radialGradient id="paint101_radial_1_3153" cx="0" cy="0" r="1" gradientUnits="userSpaceOnUse" gradientTransform="translate(33.8746 28.6267) scale(1.76478 1.77337)">
<stop offset="0.4567" stop-color="white"/>
<stop offset="0.548" stop-color="#FDFCFA"/>
<stop offset="0.6508" stop-color="#F5F2ED"/>
<stop offset="0.7592" stop-color="#E9E3D6"/>
<stop offset="0.8715" stop-color="#D8CDB7"/>
<stop offset="0.9858" stop-color="#C3B28F"/>
<stop offset="1" stop-color="#C0AE89"/>
</radialGradient>
<radialGradient id="paint102_radial_1_3153" cx="0" cy="0" r="1" gradientUnits="userSpaceOnUse" gradientTransform="translate(31.9662 30.6966) scale(1.76478 1.77337)">
<stop offset="0.4567" stop-color="white"/>
<stop offset="0.548" stop-color="#FDFCFA"/>
<stop offset="0.6508" stop-color="#F5F2ED"/>
<stop offset="0.7592" stop-color="#E9E3D6"/>
<stop offset="0.8715" stop-color="#D8CDB7"/>
<stop offset="0.9858" stop-color="#C3B28F"/>
<stop offset="1" stop-color="#C0AE89"/>
</radialGradient>
<radialGradient id="paint103_radial_1_3153" cx="0" cy="0" r="1" gradientUnits="userSpaceOnUse" gradientTransform="translate(29.3854 31.6514) scale(2.60057 2.61324)">
<stop offset="0.4567" stop-color="white"/>
<stop offset="0.548" stop-color="#FDFCFA"/>
<stop offset="0.6508" stop-color="#F5F2ED"/>
<stop offset="0.7592" stop-color="#E9E3D6"/>
<stop offset="0.8715" stop-color="#D8CDB7"/>
<stop offset="0.9858" stop-color="#C3B28F"/>
<stop offset="1" stop-color="#C0AE89"/>
</radialGradient>
<radialGradient id="paint104_radial_1_3153" cx="0" cy="0" r="1" gradientUnits="userSpaceOnUse" gradientTransform="translate(32.9599 26.1418) scale(2.60057 2.61324)">
<stop offset="0.4567" stop-color="white"/>
<stop offset="0.548" stop-color="#FDFCFA"/>
<stop offset="0.6508" stop-color="#F5F2ED"/>
<stop offset="0.7592" stop-color="#E9E3D6"/>
<stop offset="0.8715" stop-color="#D8CDB7"/>
<stop offset="0.9858" stop-color="#C3B28F"/>
<stop offset="1" stop-color="#C0AE89"/>
</radialGradient>
<radialGradient id="paint105_radial_1_3153" cx="0" cy="0" r="1" gradientUnits="userSpaceOnUse" gradientTransform="translate(31.118 24.8826) scale(1.76478 1.77337)">
<stop offset="0.4567" stop-color="white"/>
<stop offset="0.548" stop-color="#FDFCFA"/>
<stop offset="0.6508" stop-color="#F5F2ED"/>
<stop offset="0.7592" stop-color="#E9E3D6"/>
<stop offset="0.8715" stop-color="#D8CDB7"/>
<stop offset="0.9858" stop-color="#C3B28F"/>
<stop offset="1" stop-color="#C0AE89"/>
</radialGradient>
<radialGradient id="paint106_radial_1_3153" cx="0" cy="0" r="1" gradientUnits="userSpaceOnUse" gradientTransform="translate(24.9896 28.6953) scale(2.22047 2.23129)">
<stop offset="0.4567" stop-color="white"/>
<stop offset="0.548" stop-color="#FDFCFA"/>
<stop offset="0.6508" stop-color="#F5F2ED"/>
<stop offset="0.7592" stop-color="#E9E3D6"/>
<stop offset="0.8715" stop-color="#D8CDB7"/>
<stop offset="0.9858" stop-color="#C3B28F"/>
<stop offset="1" stop-color="#C0AE89"/>
</radialGradient>
<radialGradient id="paint107_radial_1_3153" cx="0" cy="0" r="1" gradientUnits="userSpaceOnUse" gradientTransform="translate(30.3316 30.0436) scale(1.00657 1.01147)">
<stop offset="0.4567" stop-color="white"/>
<stop offset="0.548" stop-color="#FDFCFA"/>
<stop offset="0.6508" stop-color="#F5F2ED"/>
<stop offset="0.7592" stop-color="#E9E3D6"/>
<stop offset="0.8715" stop-color="#D8CDB7"/>
<stop offset="0.9858" stop-color="#C3B28F"/>
<stop offset="1" stop-color="#C0AE89"/>
</radialGradient>
<radialGradient id="paint108_radial_1_3153" cx="0" cy="0" r="1" gradientUnits="userSpaceOnUse" gradientTransform="translate(32.0421 28.2986) scale(1.00655 1.01145)">
<stop offset="0.4567" stop-color="white"/>
<stop offset="0.548" stop-color="#FDFCFA"/>
<stop offset="0.6508" stop-color="#F5F2ED"/>
<stop offset="0.7592" stop-color="#E9E3D6"/>
<stop offset="0.8715" stop-color="#D8CDB7"/>
<stop offset="0.9858" stop-color="#C3B28F"/>
<stop offset="1" stop-color="#C0AE89"/>
</radialGradient>
<radialGradient id="paint109_radial_1_3153" cx="0" cy="0" r="1" gradientUnits="userSpaceOnUse" gradientTransform="translate(35.6597 27.8092) scale(1.00655 1.01145)">
<stop offset="0.4567" stop-color="white"/>
<stop offset="0.548" stop-color="#FDFCFA"/>
<stop offset="0.6508" stop-color="#F5F2ED"/>
<stop offset="0.7592" stop-color="#E9E3D6"/>
<stop offset="0.8715" stop-color="#D8CDB7"/>
<stop offset="0.9858" stop-color="#C3B28F"/>
<stop offset="1" stop-color="#C0AE89"/>
</radialGradient>
<radialGradient id="paint110_radial_1_3153" cx="0" cy="0" r="1" gradientUnits="userSpaceOnUse" gradientTransform="translate(30.4651 25.6886) scale(1.00655 1.01145)">
<stop offset="0.4567" stop-color="white"/>
<stop offset="0.548" stop-color="#FDFCFA"/>
<stop offset="0.6508" stop-color="#F5F2ED"/>
<stop offset="0.7592" stop-color="#E9E3D6"/>
<stop offset="0.8715" stop-color="#D8CDB7"/>
<stop offset="0.9858" stop-color="#C3B28F"/>
<stop offset="1" stop-color="#C0AE89"/>
</radialGradient>
<radialGradient id="paint111_radial_1_3153" cx="0" cy="0" r="1" gradientUnits="userSpaceOnUse" gradientTransform="translate(26.9102 25.8193) scale(2.27422 2.2853)">
<stop offset="0.4567" stop-color="white"/>
<stop offset="0.548" stop-color="#FDFCFA"/>
<stop offset="0.6508" stop-color="#F5F2ED"/>
<stop offset="0.7592" stop-color="#E9E3D6"/>
<stop offset="0.8715" stop-color="#D8CDB7"/>
<stop offset="0.9858" stop-color="#C3B28F"/>
<stop offset="1" stop-color="#C0AE89"/>
</radialGradient>
<radialGradient id="paint112_radial_1_3153" cx="0" cy="0" r="1" gradientUnits="userSpaceOnUse" gradientTransform="translate(27.3919 30.6966) scale(1.76478 1.77337)">
<stop offset="0.4567" stop-color="white"/>
<stop offset="0.548" stop-color="#FDFCFA"/>
<stop offset="0.6508" stop-color="#F5F2ED"/>
<stop offset="0.7592" stop-color="#E9E3D6"/>
<stop offset="0.8715" stop-color="#D8CDB7"/>
<stop offset="0.9858" stop-color="#C3B28F"/>
<stop offset="1" stop-color="#C0AE89"/>
</radialGradient>
<radialGradient id="paint113_radial_1_3153" cx="0" cy="0" r="1" gradientUnits="userSpaceOnUse" gradientTransform="translate(23.0298 27.5613) scale(1.76478 1.77337)">
<stop offset="0.4567" stop-color="white"/>
<stop offset="0.548" stop-color="#FDFCFA"/>
<stop offset="0.6508" stop-color="#F5F2ED"/>
<stop offset="0.7592" stop-color="#E9E3D6"/>
<stop offset="0.8715" stop-color="#D8CDB7"/>
<stop offset="0.9858" stop-color="#C3B28F"/>
<stop offset="1" stop-color="#C0AE89"/>
</radialGradient>
<radialGradient id="paint114_radial_1_3153" cx="0" cy="0" r="1" gradientUnits="userSpaceOnUse" gradientTransform="translate(22.008 28.8216) scale(17.177 17.2607)">
<stop offset="0.4567" stop-color="white"/>
<stop offset="0.548" stop-color="#FDFCFA"/>
<stop offset="0.6508" stop-color="#F5F2ED"/>
<stop offset="0.7592" stop-color="#E9E3D6"/>
<stop offset="0.8715" stop-color="#D8CDB7"/>
<stop offset="0.9858" stop-color="#C3B28F"/>
<stop offset="1" stop-color="#C0AE89"/>
</radialGradient>
<linearGradient id="paint115_linear_1_3153" x1="40.1323" y1="36.2791" x2="22.8905" y2="39.4453" gradientUnits="userSpaceOnUse">
<stop stop-color="white"/>
<stop offset="1" stop-color="#A7A9AC"/>
</linearGradient>
</defs>
</svg>
