<svg width="33" height="32" viewBox="0 0 33 32" fill="none" xmlns="http://www.w3.org/2000/svg">
<path d="M12.7499 18.28C12.1099 18.58 11.7699 19.21 11.9999 19.69C12.2199 20.17 12.92 20.32 13.57 20.02C14.21 19.72 14.55 19.09 14.32 18.61C14.1 18.13 13.3999 17.98 12.7499 18.28Z" fill="white" fill-opacity="0.5"/>
<path d="M14.46 14.1201C10.96 14.6101 8.37995 16.8601 8.69995 19.1301C9.01995 21.4101 12.12 22.8501 15.62 22.3601C19.12 21.8701 21.6999 19.6301 21.3799 17.3501C21.0599 15.0801 17.96 13.6301 14.46 14.1201ZM14.9699 21.7401C12.8899 22.1401 10.93 21.0701 10.59 19.3301C10.25 17.6001 11.6699 15.8601 13.7499 15.4601C15.8299 15.0601 17.7899 16.1301 18.1299 17.8701C18.4699 19.6001 17.0599 21.3401 14.9699 21.7401Z" fill="white" fill-opacity="0.5"/>
<path d="M14.4 17.9201C14.4 18.1501 14.5199 18.3601 14.7199 18.4701C14.9199 18.5801 15.16 18.5801 15.36 18.4701C15.56 18.3601 15.68 18.1401 15.68 17.9201C15.68 17.6901 15.56 17.4801 15.36 17.3701C15.16 17.2601 14.9199 17.2601 14.7199 17.3701C14.5199 17.4801 14.4 17.6901 14.4 17.9201Z" fill="white" fill-opacity="0.5"/>
<path d="M16.96 0C8.11996 0 0.959961 7.16 0.959961 16C0.959961 24.84 8.11996 32 16.96 32C25.8 32 32.96 24.84 32.96 16C32.96 7.17 25.8 0 16.96 0ZM15.36 24.32C9.87996 24.32 5.43994 21.45 5.43994 17.92C5.43994 14.39 12.09 8.8 14.64 8.8C15.71 8.8 17.8 9.6 16.34 12.12C16.24 12.3 19.6399 10.65 21.5099 11.73C23.3699 12.81 21.5099 14.54 21.5099 14.74C21.5099 14.93 25.2499 14.93 25.2499 17.92C25.2399 21.46 20.84 24.32 15.36 24.32ZM23.1599 11.24C22.5399 10.51 21.4399 10.68 21.4399 10.68C21.1199 10.68 20.85 10.46 20.81 10.15C20.85 9.84 21.1199 9.56 21.4399 9.52C21.4399 9.52 22.78 9.16 23.93 10.2C25.09 11.24 24.61 12.96 24.61 12.96C24.56 13.31 24.22 13.59 23.86 13.59H23.8C23.44 13.59 23.24 13.32 23.33 12.98C23.33 12.98 23.7699 11.97 23.1599 11.24ZM27.5399 13.45C27.4999 13.94 27.07 14.34 26.59 14.39C26.12 14.34 25.81 13.93 25.87 13.45C25.87 13.45 26.39 11.43 25.12 9.61C23.85 7.78 21.11 8.1 21.11 8.1C20.62 8.1 20.2099 7.74 20.1599 7.27C20.2099 6.79 20.62 6.41 21.11 6.41C21.11 6.41 23.96 6.12 26.08 8.13C28.21 10.12 27.5399 13.45 27.5399 13.45Z" fill="white" fill-opacity="0.5"/>
</svg>
