<svg width="18" height="18" viewBox="0 0 18 18" fill="none" xmlns="http://www.w3.org/2000/svg">
<path d="M13.6373 13.749H5.78431C5.35098 13.749 5 13.398 5 12.9647C5 12.5313 5.35098 12.1803 5.78431 12.1803H13.6373C14.0706 12.1803 14.4216 12.5313 14.4216 12.9647C14.4216 13.398 14.0706 13.749 13.6373 13.749ZM13.6373 10.7313H5.78431C5.35098 10.7313 5 10.3803 5 9.94701C5 9.51368 5.35098 9.1627 5.78431 9.1627H13.6373C14.0706 9.1627 14.4216 9.51368 14.4216 9.94701C14.4216 10.3803 14.0706 10.7313 13.6373 10.7313ZM3.09804 9.87642H0.784314C0.35098 9.87642 0 9.52544 0 9.09211C0 8.65878 0.35098 8.3078 0.784314 8.3078H3.09804C3.53137 8.3078 3.88235 8.65878 3.88235 9.09211C3.88235 9.52544 3.53137 9.87642 3.09804 9.87642ZM3.09804 13.7647H0.784314C0.35098 13.7647 0 13.4137 0 12.9803C0 12.547 0.35098 12.196 0.784314 12.196H3.09804C3.53137 12.196 3.88235 12.547 3.88235 12.9803C3.88235 13.4137 3.53137 13.7647 3.09804 13.7647ZM3.09804 5.98623H0.784314C0.35098 5.98623 0 5.63525 0 5.20192C0 4.76858 0.35098 4.4176 0.784314 4.4176H3.09804C3.53137 4.4176 3.88235 4.76858 3.88235 5.20192C3.88235 5.63525 3.53137 5.98623 3.09804 5.98623Z" fill="white"/>
<path d="M16.4404 1.41176V16.5882H2.55963V1.41176H16.4404ZM16.8303 0H2.16972C1.52443 0 1 0.474706 1 1.05882V16.9412C1 17.5253 1.52443 18 2.16972 18H16.8303C17.4756 18 18 17.5253 18 16.9412V1.05882C18 0.474706 17.4756 0 16.8303 0Z" fill="white"/>
<path d="M12.7943 5.56863V6.4902H9.5982H6.40212V5.56863H12.7943ZM13.9374 4H5.23938C4.86291 4 4.8335 4.10784 4.8335 4.23922V7.81961C4.8335 7.95098 4.86291 8.05882 5.23938 8.05882H13.9374C14.3139 8.05882 14.3629 7.95098 14.3629 7.81961V4.23922C14.3629 4.10784 14.3139 4 13.9374 4Z" fill="white"/>
</svg>
