<svg width="49" height="49" viewBox="0 0 49 49" fill="none" xmlns="http://www.w3.org/2000/svg">
<g opacity="0.25" filter="url(#filter0_f_6_1804)">
<circle cx="23.9739" cy="24.5613" r="19.855" fill="url(#paint0_linear_6_1804)"/>
</g>
<circle cx="28.7393" cy="20.855" r="19.855" fill="url(#paint1_linear_6_1804)"/>
<path d="M20.9264 11.3703C20.5366 11.3703 20.209 11.6035 20.209 11.8801V30.3649C20.209 30.6415 20.5366 30.8747 20.9264 30.8747H34.9234C35.3133 30.8747 35.6409 30.6415 35.6409 30.3649V14.9767H31.8045V11.5709L31.5609 11.3703H20.9264ZM34.9234 32.2386H20.9264C19.7785 32.2386 18.8445 31.398 18.8445 30.3622V11.8774C18.8445 10.8415 19.7785 10.0009 20.9264 10.0009H32.0482L37.0054 14.0792V30.3622C37.0054 31.398 36.0713 32.2386 34.9234 32.2386Z" fill="white"/>
<path d="M28.7129 26.9537H22.7107C22.4833 26.9537 22.3019 27.1381 22.3019 27.3632C22.3019 27.5882 22.486 27.7726 22.7107 27.7726H28.7129C28.9403 27.7726 29.1217 27.5882 29.1217 27.3632C29.1217 27.1354 28.9403 26.9537 28.7129 26.9537ZM33.4887 24.1066H22.7107C22.4833 24.1066 22.3019 24.2909 22.3019 24.516C22.3019 24.7411 22.486 24.9255 22.7107 24.9255H33.4887C33.7161 24.9255 33.8975 24.7411 33.8975 24.516C33.8975 24.2909 33.7134 24.1066 33.4887 24.1066ZM33.4887 21.395H22.7107C22.4833 21.395 22.3019 21.5794 22.3019 21.8044C22.3019 22.0322 22.486 22.2139 22.7107 22.2139H33.4887C33.7161 22.2139 33.8975 22.0295 33.8975 21.8044C33.8975 21.5794 33.7134 21.395 33.4887 21.395ZM23.5527 19.9199H24.5788C25.4289 19.9199 26.1193 19.2284 26.1193 18.3743V17.3466C26.1193 16.4952 25.4289 15.801 24.5788 15.801H23.5527C22.7026 15.801 22.0095 16.4924 22.0095 17.3466V18.3743C22.0122 19.2284 22.7026 19.9199 23.5527 19.9199ZM22.8298 17.3493C22.8298 16.9507 23.1547 16.6253 23.5527 16.6253H24.5788C24.9768 16.6253 25.3017 16.9507 25.3017 17.3493V18.377C25.3017 18.7756 24.9768 19.101 24.5788 19.101H23.5527C23.1547 19.101 22.8298 18.7756 22.8298 18.377V17.3493ZM27.5623 18.2712H33.5645C33.7919 18.2712 33.9733 18.0869 33.9733 17.8618C33.9733 17.634 33.7892 17.4523 33.5645 17.4523H27.5623C27.3349 17.4523 27.1535 17.6367 27.1535 17.8618C27.1535 18.0896 27.3376 18.2712 27.5623 18.2712Z" fill="white"/>
<defs>
<filter id="filter0_f_6_1804" x="0.118896" y="0.706268" width="47.71" height="47.7101" filterUnits="userSpaceOnUse" color-interpolation-filters="sRGB">
<feFlood flood-opacity="0" result="BackgroundImageFix"/>
<feBlend mode="normal" in="SourceGraphic" in2="BackgroundImageFix" result="shape"/>
<feGaussianBlur stdDeviation="2" result="effect1_foregroundBlur_6_1804"/>
</filter>
<linearGradient id="paint0_linear_6_1804" x1="4.75656" y1="64.4996" x2="4.75656" y2="4.70627" gradientUnits="userSpaceOnUse">
<stop stop-color="#A100DA"/>
<stop offset="1" stop-color="#FF5252"/>
</linearGradient>
<linearGradient id="paint1_linear_6_1804" x1="9.52194" y1="60.7933" x2="9.52194" y2="1" gradientUnits="userSpaceOnUse">
<stop stop-color="#A100DA"/>
<stop offset="1" stop-color="#FF5252"/>
</linearGradient>
</defs>
</svg>
