<svg width="50" height="49" viewBox="0 0 50 49" fill="none" xmlns="http://www.w3.org/2000/svg">
<g opacity="0.25" filter="url(#filter0_f_6_1793)">
<circle cx="24.7969" cy="24.5613" r="19.855" fill="url(#paint0_linear_6_1793)"/>
</g>
<circle cx="29.5621" cy="20.855" r="19.855" fill="url(#paint1_linear_6_1793)"/>
<path d="M26.2321 24.5648C26.3515 24.5648 26.4627 24.5322 26.5604 24.4751L31.2199 21.7572C31.437 21.6593 31.5889 21.4337 31.5889 21.1728C31.5889 20.9336 31.4587 20.7216 31.266 20.6102L26.7124 17.9521C26.5957 17.8162 26.422 17.7319 26.2321 17.7319C25.8766 17.7319 25.5916 18.0227 25.5916 18.3788V18.4141L25.5835 18.4195L25.5944 23.85C25.5916 23.8717 25.5916 23.8935 25.5916 23.9179C25.5916 24.2767 25.8793 24.5648 26.2321 24.5648Z" fill="white"/>
<path d="M17.8223 23.2004C17.8223 23.6822 18.2137 24.0729 18.6961 24.0729C19.1788 24.0729 19.5699 23.6822 19.5699 23.2004C19.5699 22.7187 19.1784 22.328 18.6961 22.328C18.2134 22.328 17.8223 22.7187 17.8223 23.2004Z" fill="white"/>
<path d="M42.1181 18.0907C42.1209 18.0472 42.1236 18.0037 42.1236 17.9602C42.1236 17.0089 41.3502 16.2398 40.3977 16.2398C40.0802 16.2398 39.7816 16.3267 39.5238 16.4762L39.5103 16.4681L38.6555 16.9627V15.2042C38.6527 13.2174 37.0299 11.5894 35.0435 11.5894H21.4234C19.4397 11.5894 17.8142 13.2147 17.8142 15.2042V19.7106H17.8196C17.8196 20.1917 18.2104 20.583 18.6934 20.583C19.1765 20.583 19.5673 20.1917 19.5673 19.7106H19.5727V15.0656C19.5727 14.1089 20.3542 13.3261 21.3095 13.3261H35.1548C36.11 13.3261 36.8916 14.1089 36.8916 15.0656V27.2665C36.8916 28.2232 36.11 29.006 35.1548 29.006H21.3122C20.3569 29.006 19.5754 28.2232 19.5754 27.2665V26.6848C19.5754 26.2038 19.1846 25.8124 18.7016 25.8124C18.2186 25.8124 17.8278 26.2038 17.8278 26.6848H17.8169V27.1007C17.8169 29.0902 19.4424 30.7155 21.4261 30.7155H35.0462C37.0327 30.7155 38.6555 29.0902 38.6555 27.1007V25.3585L39.5537 25.8776L39.5564 25.8749C39.8061 26.0135 40.0937 26.0923 40.3977 26.0923C41.3502 26.0923 42.1236 25.3204 42.1236 24.3719C42.1236 24.3284 42.1209 24.2849 42.1181 24.2414V18.0907ZM40.3922 23.6652C40.3841 23.8772 40.205 24.0484 39.9852 24.0484C39.9119 24.0484 39.8413 24.0294 39.7816 23.9941L38.6555 23.3499V18.955L39.7654 18.3244C39.8278 18.2837 39.9038 18.2619 39.9852 18.2619C40.2104 18.2619 40.3922 18.4413 40.3922 18.6587V23.6652Z" fill="white"/>
<defs>
<filter id="filter0_f_6_1793" x="0.941895" y="0.706268" width="47.71" height="47.7101" filterUnits="userSpaceOnUse" color-interpolation-filters="sRGB">
<feFlood flood-opacity="0" result="BackgroundImageFix"/>
<feBlend mode="normal" in="SourceGraphic" in2="BackgroundImageFix" result="shape"/>
<feGaussianBlur stdDeviation="2" result="effect1_foregroundBlur_6_1793"/>
</filter>
<linearGradient id="paint0_linear_6_1793" x1="5.57956" y1="5.09883" x2="5.57956" y2="43.5336" gradientUnits="userSpaceOnUse">
<stop stop-color="#FFA426"/>
<stop offset="1" stop-color="#FF5B21"/>
</linearGradient>
<linearGradient id="paint1_linear_6_1793" x1="10.3447" y1="1.39257" x2="10.3447" y2="39.8273" gradientUnits="userSpaceOnUse">
<stop stop-color="#FFA426"/>
<stop offset="1" stop-color="#FF5B21"/>
</linearGradient>
</defs>
</svg>
