<svg width="49" height="49" viewBox="0 0 49 49" fill="none" xmlns="http://www.w3.org/2000/svg">
<g opacity="0.25" filter="url(#filter0_f_6_1774)">
<circle cx="24.3265" cy="24.5613" r="19.855" fill="url(#paint0_linear_6_1774)"/>
</g>
<circle cx="29.0916" cy="20.855" r="19.855" fill="url(#paint1_linear_6_1774)"/>
<path d="M37.6157 20.9646H39.2836C39.2852 17.3411 37.3692 13.9878 34.2489 12.1539L33.4033 13.5936C36.0023 15.1245 37.6157 17.949 37.6157 20.9646ZM24.9604 13.4831L24.1534 12.0216C20.9045 13.8214 18.8874 17.2461 18.8855 20.9646H20.5533C20.5549 17.8537 22.2428 14.9888 24.9604 13.4831ZM29.085 29.5093C27.449 29.5115 25.8467 29.0406 24.4712 28.1533L23.5681 29.5574C26.7978 31.6356 30.9186 31.7233 34.2336 29.7845L33.3912 28.3432C32.0848 29.1078 30.5983 29.5102 29.085 29.5093Z" fill="white"/>
<path d="M37.0178 22.9438C36.3739 22.9431 35.7501 23.1678 35.2539 23.5784L33.5409 22.5879C33.7301 22.0676 33.8268 21.518 33.8265 20.9643C33.8265 18.6308 32.137 16.6848 29.9192 16.2894V14.3771C31.2266 13.9645 32.0384 12.6582 31.8301 11.301C31.6214 9.94403 30.4555 8.94202 29.0845 8.94202C27.7134 8.94202 26.5476 9.94403 26.3392 11.301C26.1308 12.6582 26.9423 13.9645 28.2501 14.3771V16.2887C26.0319 16.6848 24.3428 18.6305 24.3428 20.964C24.3421 21.5177 24.4388 22.0673 24.6284 22.5876L22.916 23.5784C21.8571 22.7061 20.3209 22.738 19.2988 23.6536C18.2767 24.5693 18.0747 26.0948 18.8229 27.2459C19.5711 28.3967 21.0459 28.8287 22.2954 28.2632C23.5449 27.6977 24.1955 26.3035 23.8274 24.9806L25.4679 24.0318C26.3672 25.0985 27.6905 25.7141 29.0845 25.7141C30.4784 25.7141 31.8018 25.0985 32.7014 24.0318L34.3422 24.9806C34.0228 26.1311 34.4723 27.3574 35.4591 28.0275C36.4458 28.6978 37.7494 28.6628 38.6987 27.9402C39.6479 27.2176 40.0309 25.9689 39.6501 24.8373C39.2694 23.7056 38.2097 22.9438 37.0178 22.9438ZM21.1518 26.8371C20.5391 26.8371 20.0426 26.3395 20.0426 25.7258C20.0426 25.1122 20.5394 24.6146 21.1521 24.6146C21.7648 24.6146 22.2614 25.1119 22.2617 25.7258C22.261 26.3392 21.7645 26.8365 21.1518 26.8371ZM29.0848 10.6131C29.6978 10.6131 30.1947 11.1108 30.1947 11.7247C30.1947 12.3387 29.6978 12.8363 29.0848 12.8363C28.4718 12.8363 27.9749 12.3387 27.9749 11.7247C27.9756 11.1108 28.4721 10.6134 29.0848 10.6131ZM29.0848 24.0433C27.3874 24.0433 26.0112 22.665 26.0112 20.9646C26.0112 19.2645 27.3874 17.8859 29.0848 17.8859C30.7825 17.8859 32.1587 19.2642 32.1587 20.9646C32.1565 22.664 30.7816 24.0411 29.0848 24.0433ZM37.0178 26.8371C36.4051 26.8371 35.9082 26.3395 35.9082 25.7258C35.9082 25.1122 36.4051 24.6146 37.0178 24.6146C37.6305 24.6146 38.1273 25.1119 38.1273 25.7258C38.127 26.3392 37.6305 26.8365 37.0178 26.8371Z" fill="white"/>
<defs>
<filter id="filter0_f_6_1774" x="0.471436" y="0.706268" width="47.71" height="47.7101" filterUnits="userSpaceOnUse" color-interpolation-filters="sRGB">
<feFlood flood-opacity="0" result="BackgroundImageFix"/>
<feBlend mode="normal" in="SourceGraphic" in2="BackgroundImageFix" result="shape"/>
<feGaussianBlur stdDeviation="2" result="effect1_foregroundBlur_6_1774"/>
</filter>
<linearGradient id="paint0_linear_6_1774" x1="7.64824" y1="44.4163" x2="56.7071" y2="32.2583" gradientUnits="userSpaceOnUse">
<stop offset="0.0833571" stop-color="#F02148"/>
<stop offset="1" stop-color="#FF5B21"/>
</linearGradient>
<linearGradient id="paint1_linear_6_1774" x1="12.4134" y1="40.7101" x2="61.4723" y2="28.552" gradientUnits="userSpaceOnUse">
<stop offset="0.0833571" stop-color="#F02148"/>
<stop offset="1" stop-color="#FF5B21"/>
</linearGradient>
</defs>
</svg>
