<svg width="20" height="20" viewBox="0 0 20 20" fill="none" xmlns="http://www.w3.org/2000/svg">
<rect x="1" y="1" width="18" height="18" rx="9" fill="url(#paint0_linear_170_8)"/>
<path d="M14.2221 6.11822C14.0113 5.93991 13.6958 5.9663 13.5175 6.17715L8.85917 11.6858L6.39554 9.57127C6.186 9.39142 5.87033 9.41549 5.69048 9.62503L5.1206 10.289C4.94075 10.4985 4.96482 10.8142 5.17436 10.9941L7.95205 13.3782C7.97247 13.404 7.99576 13.4282 8.02188 13.4503L8.69001 14.0153C8.81146 14.118 8.96763 14.1528 9.11231 14.1235C9.21893 14.1027 9.31957 14.0472 9.39581 13.9584L9.9657 13.2944C9.98727 13.2693 10.0059 13.2427 10.0216 13.2149L14.9492 7.38787C15.1275 7.17701 15.1011 6.86153 14.8903 6.68322L14.2221 6.11822Z" fill="white"/>
<defs>
<linearGradient id="paint0_linear_170_8" x1="2.44" y1="19" x2="24.6777" y2="13.4889" gradientUnits="userSpaceOnUse">
<stop offset="0.0833571" stop-color="#F02148"/>
<stop offset="1" stop-color="#FF5B21"/>
</linearGradient>
</defs>
</svg>
