<svg width="375" height="472" viewBox="0 0 375 472" fill="none" xmlns="http://www.w3.org/2000/svg">
<rect width="375" height="472" fill="#170550"/>
<g style="mix-blend-mode:overlay" opacity="0.8">
<g filter="url(#filter0_ii_15_731)">
<ellipse cx="168.023" cy="351.526" rx="107.023" ry="87.474" fill="url(#paint0_linear_15_731)" fill-opacity="0.1"/>
</g>
</g>
<g style="mix-blend-mode:soft-light" opacity="0.4">
<g filter="url(#filter1_ii_15_731)">
<ellipse cx="168.023" cy="351.526" rx="66.8479" ry="54.6376" fill="url(#paint1_linear_15_731)" fill-opacity="0.1"/>
</g>
</g>
<g style="mix-blend-mode:overlay" opacity="0.15">
<g filter="url(#filter2_ii_15_731)">
<ellipse cx="168.023" cy="351.526" rx="37.8695" ry="30.9523" fill="url(#paint2_linear_15_731)" fill-opacity="0.1"/>
</g>
</g>
<path opacity="0.2" d="M168.781 372.804L157.554 366.345L168.781 359.885L179.998 366.345L168.781 372.804Z" fill="#020134"/>
<path d="M168.781 363.013L157.554 356.554V343.625L168.781 350.095V363.013Z" fill="#B11948"/>
<path d="M179.998 356.554L168.781 363.013V350.095L179.998 343.625V356.554Z" fill="url(#paint3_linear_15_731)"/>
<path d="M168.781 350.094L157.554 343.625L168.781 337.166L179.998 343.625L168.781 350.094Z" fill="#F02148"/>
<path d="M168.781 350.095L157.554 343.625V344.185L168.781 350.655L179.998 344.185V343.625L168.781 350.095Z" fill="white"/>
<path d="M185.11 368.335L163.094 373.954L146.354 356.954L168.368 351.333L185.11 368.335Z" fill="url(#paint4_linear_15_731)"/>
<path d="M168.368 351.333L146.354 356.953L152.794 333.825L174.808 328.204L168.368 351.333Z" fill="url(#paint5_linear_15_731)"/>
<path d="M174.808 328.205L191.55 345.207L185.11 368.335L168.368 351.333L174.808 328.205Z" fill="url(#paint6_linear_15_731)"/>
<g style="mix-blend-mode:screen">
<path d="M146.84 339.12C145.028 336.397 148.374 331.838 154.317 328.935C160.261 326.033 166.545 325.887 168.36 328.61C170.171 331.334 166.825 335.892 160.882 338.795C154.938 341.697 148.654 341.843 146.84 339.12Z" fill="url(#paint7_radial_15_731)"/>
</g>
<path d="M55.612 341.691C57.868 344.019 60.46 345.849 63.388 347.181L62.542 348.711C61.618 348.267 60.778 347.805 60.022 347.325V348.945H55.864V351.645H60.922V353.301H55.864V356.145H62.56V357.819H47.458V356.145H54.136V353.301H49.06V351.645H54.136V348.945H49.978V347.325C49.21 347.793 48.346 348.267 47.386 348.747L46.558 347.253C49.69 345.753 52.3 343.899 54.388 341.691H55.612ZM59.986 347.307C58.114 346.155 56.452 344.799 55 343.239C53.656 344.715 51.994 346.071 50.014 347.307H59.986ZM67.96 355.965H75.394C76.438 353.469 77.362 350.391 78.166 346.731L79.858 347.181C79.126 350.529 78.25 353.457 77.23 355.965H80.776V357.621H67.96V355.965ZM70.192 347.613C70.888 349.461 71.53 351.651 72.118 354.183L70.498 354.597C70.042 352.353 69.448 350.181 68.716 348.081L70.192 347.613ZM73.648 346.299C74.272 348.315 74.824 350.577 75.304 353.085L73.684 353.481C73.312 351.285 72.802 349.053 72.154 346.785L73.648 346.299ZM73.738 341.583C74.062 342.171 74.344 342.753 74.584 343.329H81.064V344.985H67.87V348.765C67.81 352.773 67.228 355.965 66.124 358.341L64.684 357.063C65.62 355.083 66.106 352.317 66.142 348.765V343.329H72.676C72.424 342.813 72.142 342.339 71.83 341.907L73.738 341.583ZM86.068 348.243V350.997H90.208V348.243H86.068ZM85.978 352.581C85.762 354.849 85.096 356.721 83.98 358.197L82.666 357.027C83.746 355.479 84.304 353.517 84.34 351.141V342.321H98.146V355.875C98.146 357.231 97.456 357.909 96.076 357.909H94.006L93.556 356.235C94.336 356.295 94.99 356.325 95.518 356.325C96.106 356.325 96.4 355.971 96.4 355.263V352.581H91.936V357.711H90.208V352.581H85.978ZM96.4 350.997V348.243H91.936V350.997H96.4ZM96.4 346.677V343.977H91.936V346.677H96.4ZM90.208 343.977H86.068V346.677H90.208V343.977ZM104.5 346.533C103.78 348.165 102.874 349.515 101.782 350.583L100.666 349.161C102.286 347.445 103.384 345.141 103.96 342.249L105.706 342.555C105.526 343.383 105.328 344.157 105.112 344.877H108.46V341.853H110.17V344.877H115.948V346.533H110.17V350.259H115.588V351.915H110.17V356.019H117.1V357.711H101.134V356.019H108.46V351.915H103.312V350.259H108.46V346.533H104.5ZM127.828 341.709C127.768 342.273 127.666 342.855 127.522 343.455H134.308V345.093H128.818C129.682 346.893 131.824 348.315 135.244 349.359L134.344 350.835C130.384 349.395 127.966 347.481 127.09 345.093H127.018C126.634 346.053 126.118 346.923 125.47 347.703L125.416 347.757C126.196 348.321 127.024 348.993 127.9 349.773L126.712 350.961C125.98 350.193 125.176 349.455 124.3 348.747C123.052 349.623 121.384 350.337 119.296 350.889L118.63 349.305C121.138 348.681 122.95 347.781 124.066 346.605C124.498 346.137 124.852 345.633 125.128 345.093H119.53V343.455H125.758C125.938 342.795 126.058 342.153 126.118 341.529L127.828 341.709ZM122.05 352.563C121.618 354.435 121.024 356.055 120.268 357.423L118.792 356.505C119.524 355.185 120.052 353.745 120.376 352.185L122.05 352.563ZM127.594 351.501C128.206 352.365 128.752 353.349 129.232 354.453L127.666 355.155C127.174 353.931 126.652 352.875 126.1 351.987L127.594 351.501ZM133.012 351.897C133.864 353.241 134.602 354.669 135.226 356.181L133.66 356.883C133.012 355.275 132.25 353.787 131.374 352.419L133.012 351.897ZM124.966 357.945C123.658 357.945 123.004 357.261 123.004 355.893V352.131H124.732V355.551C124.732 356.043 124.99 356.289 125.506 356.289H129.214C129.526 356.289 129.754 356.181 129.898 355.965C130.078 355.761 130.204 355.107 130.276 354.003L131.896 354.525C131.752 356.181 131.488 357.165 131.104 357.477C130.756 357.789 130.234 357.945 129.538 357.945H124.966Z" fill="white"/>
<path d="M217.716 254.592C216.788 257.12 215.58 259.044 214.092 260.364L213.588 259.92C215.14 258.552 216.312 256.696 217.104 254.352L217.716 254.592ZM220.908 260.688C221.82 262.04 222.592 263.436 223.224 264.876L222.612 265.14C222.412 264.668 222.208 264.224 222 263.808C219.856 264.16 217.544 264.416 215.064 264.576L214.944 263.964C216 263.316 217.228 261.44 218.628 258.336L219.264 258.552C218.168 260.936 217.084 262.724 216.012 263.916C218.028 263.772 219.928 263.548 221.712 263.244C221.296 262.412 220.832 261.628 220.32 260.892L220.908 260.688ZM220.716 254.268C221.428 256.564 222.668 258.428 224.436 259.86L223.992 260.388C222.152 258.876 220.876 256.94 220.164 254.58L220.716 254.268ZM231.648 261.084H233.964V259.404H231.912L231.804 258.84C232.236 258.136 232.632 257.264 232.992 256.224H231.708V255.636H233.184C233.344 255.068 233.472 254.596 233.568 254.22L234.156 254.352L233.796 255.636H236.196V256.224H233.616C233.288 257.176 232.908 258.044 232.476 258.828H233.964V257.148H234.564V258.828H236.088V259.404H234.564V261.084H236.412V261.672H234.564V263.808H233.964V261.672H231.648V261.084ZM229.884 254.508C230.428 255.188 230.868 255.812 231.204 256.38L230.712 256.728C230.4 256.168 229.96 255.532 229.392 254.82L229.884 254.508ZM234.696 264.36C235.128 264.36 235.72 264.352 236.472 264.336L236.304 264.972H234.648C234.4 264.972 234.036 264.964 233.556 264.948C232.988 264.932 232.508 264.856 232.116 264.72C231.708 264.584 231.356 264.34 231.06 263.988C230.908 263.812 230.776 263.724 230.664 263.724C230.44 263.724 230.044 264.188 229.476 265.116L229.092 264.636C229.596 263.836 230.032 263.344 230.4 263.16V258.912H229.344V258.312H231V263.184C231.08 263.24 231.156 263.308 231.228 263.388C231.468 263.7 231.776 263.94 232.152 264.108C232.464 264.22 232.86 264.296 233.34 264.336C233.948 264.352 234.4 264.36 234.696 264.36ZM227.484 254.388C227.364 254.948 227.26 255.376 227.172 255.672H229.128V256.296H226.992C226.712 257.16 226.388 257.932 226.02 258.612L225.516 258.288C226.132 257.088 226.584 255.744 226.872 254.256L227.484 254.388ZM226.512 258.048H228.888V258.636H227.844V260.352H229.236V260.964H227.844V264.048C228.244 263.848 228.632 263.6 229.008 263.304L229.128 263.892C228.576 264.292 227.936 264.624 227.208 264.888L226.956 264.348C227.124 264.276 227.208 264.156 227.208 263.988V260.964H225.804V260.352H227.208V258.636H226.512V258.048Z" fill="white"/>
<path opacity="0.2" d="M194.484 273.82L189.207 270.784L194.484 267.748L199.757 270.784L194.484 273.82Z" fill="#020134"/>
<path d="M194.484 269.218L189.207 266.182V260.105L194.484 263.146V269.218Z" fill="url(#paint8_linear_15_731)"/>
<path d="M199.757 266.182L194.484 269.218V263.146L199.757 260.105V266.182Z" fill="#FF7E7A"/>
<path d="M194.484 263.146L189.207 260.105L194.484 257.069L199.757 260.105L194.484 263.146Z" fill="#FFD1C2"/>
<path d="M194.484 263.146L189.207 260.105V260.368L194.484 263.409L199.757 260.368V260.105L194.484 263.146Z" fill="white"/>
<path d="M202.159 271.719L191.811 274.36L183.942 266.37L194.29 263.728L202.159 271.719Z" fill="url(#paint9_linear_15_731)"/>
<path d="M194.29 263.728L183.942 266.37L186.969 255.498L197.317 252.856L194.29 263.728Z" fill="url(#paint10_linear_15_731)"/>
<path d="M197.317 252.856L205.186 260.848L202.159 271.719L194.29 263.728L197.317 252.856Z" fill="url(#paint11_linear_15_731)"/>
<g style="mix-blend-mode:screen">
<path d="M184.171 257.987C183.319 256.707 184.892 254.564 187.685 253.2C190.479 251.836 193.433 251.767 194.286 253.047C195.137 254.327 193.565 256.47 190.771 257.834C187.977 259.199 185.024 259.267 184.171 257.987Z" fill="url(#paint12_radial_15_731)"/>
</g>
<path d="M257.844 280.352C257.732 280.784 257.604 281.22 257.46 281.66H259.848V282.272H257.244C256.9 283.128 256.512 283.896 256.08 284.576L255.552 284.24C256.296 283.064 256.852 281.724 257.22 280.22L257.844 280.352ZM256.764 283.976H259.512V284.576H258.288V286.316H260.028V286.94H258.288V289.892C258.952 289.62 259.6 289.252 260.232 288.788L260.34 289.388C259.54 289.956 258.628 290.42 257.604 290.78L257.328 290.216C257.544 290.144 257.652 290.044 257.652 289.916V286.94H255.876V286.316H257.652V284.576H256.764V283.976ZM265.752 282.404L265.848 283.028L262.848 283.52C262.872 284.216 262.912 284.816 262.968 285.32L266.052 284.768L266.148 285.392L263.04 285.956C263.064 286.204 263.1 286.452 263.148 286.7C263.276 287.348 263.424 287.9 263.592 288.356C264.208 287.764 264.764 287.08 265.26 286.304L265.776 286.64C265.184 287.528 264.536 288.3 263.832 288.956C263.904 289.132 263.988 289.3 264.084 289.46C264.5 290.068 264.86 290.372 265.164 290.372C265.468 290.372 265.736 289.728 265.968 288.44L266.532 288.8C266.228 290.296 265.796 291.044 265.236 291.044C264.708 291.028 264.192 290.664 263.688 289.952C263.528 289.696 263.416 289.504 263.352 289.376C262.368 290.176 261.304 290.752 260.16 291.104L259.788 290.612C261.044 290.204 262.148 289.6 263.1 288.8C262.884 288.272 262.704 287.672 262.56 287C262.52 286.792 262.468 286.48 262.404 286.064L260.34 286.436L260.244 285.812L262.32 285.44C262.264 284.96 262.22 284.356 262.188 283.628L260.424 283.916L260.34 283.304L262.176 282.992V280.22H262.824V282.524C262.824 282.684 262.828 282.804 262.836 282.884L265.752 282.404ZM264.108 280.232C264.652 280.76 265.084 281.244 265.404 281.684L264.9 282.044C264.612 281.628 264.184 281.128 263.616 280.544L264.108 280.232ZM274.524 283.94V287.408H270.144V289.844C270.144 290.212 270.344 290.4 270.744 290.408H276.624C276.928 290.392 277.144 290.256 277.272 290C277.36 289.784 277.436 289.276 277.5 288.476L278.112 288.68C278.048 289.44 277.96 289.976 277.848 290.288C277.656 290.76 277.304 291 276.792 291.008H270.528C269.84 291.008 269.496 290.688 269.496 290.048V283.94H274.524ZM270.144 286.808H273.876V284.54H270.144V286.808ZM271.26 280.256C271.068 280.712 270.864 281.156 270.648 281.588H277.44C277.44 284.54 277.38 286.364 277.26 287.06C277.164 287.836 276.716 288.224 275.916 288.224C275.78 288.224 275.532 288.212 275.172 288.188L275.016 287.612C275.344 287.636 275.624 287.648 275.856 287.648C276.296 287.648 276.552 287.384 276.624 286.856C276.712 286.36 276.768 284.808 276.792 282.2H270.312C269.704 283.216 269.012 284.096 268.236 284.84L267.78 284.3C268.956 283.204 269.896 281.804 270.6 280.1L271.26 280.256Z" fill="white"/>
<path opacity="0.2" d="M237.844 299.943L232.567 296.907L237.844 293.871L243.116 296.907L237.844 299.943Z" fill="#020134"/>
<path d="M237.844 295.341L232.567 292.305V286.228L237.844 289.269V295.341Z" fill="url(#paint13_linear_15_731)"/>
<path d="M243.116 292.305L237.844 295.341V289.269L243.116 286.228V292.305Z" fill="#FFE27A"/>
<path d="M237.844 289.269L232.567 286.228L237.844 283.192L243.116 286.228L237.844 289.269Z" fill="#FEFFC2"/>
<path d="M237.844 289.269L232.567 286.228V286.491L237.844 289.532L243.116 286.491V286.228L237.844 289.269Z" fill="white"/>
<path d="M245.519 297.842L235.171 300.484L227.302 292.493L237.65 289.851L245.519 297.842Z" fill="url(#paint14_linear_15_731)"/>
<path d="M237.65 289.851L227.302 292.493L230.329 281.621L240.677 278.98L237.65 289.851Z" fill="url(#paint15_linear_15_731)"/>
<path d="M240.677 278.98L248.546 286.971L245.519 297.842L237.65 289.851L240.677 278.98Z" fill="url(#paint16_linear_15_731)"/>
<g style="mix-blend-mode:screen">
<path d="M227.53 284.11C226.679 282.83 228.252 280.688 231.045 279.323C233.839 277.959 236.793 277.89 237.646 279.17C238.497 280.451 236.925 282.593 234.131 283.958C231.337 285.322 228.383 285.391 227.53 284.11Z" fill="url(#paint17_radial_15_731)"/>
</g>
<path d="M286.732 321.732H291.82C291.604 321.196 291.356 320.708 291.076 320.268L291.784 320.148C292.04 320.58 292.284 321.108 292.516 321.732H297.28V322.344H286.732V321.732ZM293.836 322.872C295.18 323.952 296.296 325.024 297.184 326.088L296.704 326.556C295.912 325.564 294.804 324.48 293.38 323.304L293.836 322.872ZM294.724 325.356C294.124 326.5 293.392 327.476 292.528 328.284C293.84 329.276 295.46 330.024 297.388 330.528L297.004 331.128C295.02 330.576 293.364 329.776 292.036 328.728C290.692 329.856 289.036 330.672 287.068 331.176L286.672 330.6C288.632 330.096 290.252 329.332 291.532 328.308C290.604 327.492 289.856 326.56 289.288 325.512L289.852 325.188C290.388 326.196 291.112 327.092 292.024 327.876C292.896 327.076 293.596 326.148 294.124 325.092L294.724 325.356ZM290.572 323.304C289.668 324.48 288.54 325.516 287.188 326.412L286.768 325.872C288.088 325.024 289.196 324.024 290.092 322.872L290.572 323.304ZM300.424 324.78V320.712H307.636V324.78H302.932C302.692 325.164 302.396 325.532 302.044 325.884H308.5C308.468 327.108 308.4 328.132 308.296 328.956C308.176 329.716 307.988 330.256 307.732 330.576C307.476 330.88 307.068 331.044 306.508 331.068H305.032L304.876 330.444C305.332 330.468 305.772 330.48 306.196 330.48C306.82 330.48 307.236 330.232 307.444 329.736C307.644 329.248 307.78 328.164 307.852 326.484H306.508C305.5 328.82 303.84 330.372 301.528 331.14L301.168 330.6C303.36 329.88 304.924 328.508 305.86 326.484H304.072C303.256 327.844 301.88 328.912 299.944 329.688L299.524 329.184C301.356 328.488 302.644 327.588 303.388 326.484H301.36C300.76 326.956 300.048 327.372 299.224 327.732L298.864 327.168C300.4 326.544 301.52 325.748 302.224 324.78H300.424ZM306.988 324.204V323.016H301.06V324.204H306.988ZM301.06 322.464H306.988V321.276H301.06V322.464ZM315.22 327.144H312.064C311.92 328.68 311.536 330.012 310.912 331.14L310.456 330.684C311.136 329.42 311.5 327.928 311.548 326.208V321.288C312.948 321.12 314.084 320.772 314.956 320.244L315.376 320.736C314.512 321.24 313.428 321.588 312.124 321.78V323.352H315.22V327.144ZM312.124 324V326.364L312.112 326.532H314.608V324H312.124ZM316.984 324.636V326.52C316.96 328.568 316.684 330.116 316.156 331.164L315.568 330.864C316.096 329.832 316.372 328.384 316.396 326.52V321.18C318.052 321.124 319.468 320.84 320.644 320.328L320.968 320.904C319.784 321.384 318.456 321.66 316.984 321.732V324H321.424V324.636H319.996V331.176H319.36V324.636H316.984Z" fill="white"/>
<path opacity="0.2" d="M267.484 336.82L262.207 333.784L267.484 330.748L272.757 333.784L267.484 336.82Z" fill="#020134"/>
<path d="M267.484 332.218L262.207 329.182V323.105L267.484 326.146V332.218Z" fill="url(#paint18_linear_15_731)"/>
<path d="M272.757 329.182L267.484 332.218V326.146L272.757 323.105V329.182Z" fill="#7AFFCF"/>
<path d="M267.484 326.146L262.207 323.105L267.484 320.069L272.756 323.105L267.484 326.146Z" fill="#C2FFE5"/>
<path d="M267.484 326.146L262.207 323.105V323.368L267.484 326.409L272.757 323.368V323.105L267.484 326.146Z" fill="white"/>
<path d="M275.159 334.719L264.811 337.361L256.942 329.37L267.29 326.728L275.159 334.719Z" fill="url(#paint19_linear_15_731)"/>
<path d="M267.29 326.728L256.942 329.37L259.969 318.498L270.317 315.856L267.29 326.728Z" fill="url(#paint20_linear_15_731)"/>
<path d="M270.317 315.857L278.186 323.848L275.159 334.72L267.29 326.728L270.317 315.857Z" fill="url(#paint21_linear_15_731)"/>
<g style="mix-blend-mode:screen">
<path d="M257.171 320.987C256.319 319.707 257.892 317.564 260.685 316.2C263.479 314.836 266.433 314.767 267.286 316.047C268.137 317.327 266.565 319.47 263.771 320.834C260.977 322.199 258.024 322.267 257.171 320.987Z" fill="url(#paint22_radial_15_731)"/>
</g>
<path d="M292.004 367.264C292.94 367.264 293.684 367.492 294.236 367.948C294.804 368.404 295.124 369.076 295.196 369.964H294.464C294.368 369.3 294.116 368.792 293.708 368.44C293.308 368.096 292.732 367.924 291.98 367.924C291.292 367.924 290.748 368.044 290.348 368.284C289.9 368.54 289.676 368.944 289.676 369.496C289.676 369.968 289.944 370.348 290.48 370.636C290.768 370.772 291.316 370.956 292.124 371.188C293.236 371.508 293.972 371.78 294.332 372.004C295.044 372.428 295.4 373.028 295.4 373.804C295.4 374.54 295.092 375.124 294.476 375.556C293.892 375.964 293.112 376.168 292.136 376.168C291.152 376.168 290.376 375.944 289.808 375.496C289.16 374.984 288.8 374.208 288.728 373.168H289.448C289.536 373.976 289.816 374.576 290.288 374.968C290.728 375.32 291.34 375.496 292.124 375.496C292.868 375.496 293.48 375.348 293.96 375.052C294.424 374.748 294.656 374.344 294.656 373.84C294.656 373.256 294.364 372.8 293.78 372.472C293.46 372.288 292.832 372.068 291.896 371.812C290.872 371.524 290.216 371.296 289.928 371.128C289.272 370.76 288.944 370.224 288.944 369.52C288.944 368.776 289.252 368.208 289.868 367.816C290.412 367.448 291.124 367.264 292.004 367.264ZM300.381 367.264C301.637 367.264 302.637 367.696 303.381 368.56C304.077 369.376 304.425 370.428 304.425 371.716C304.425 373.012 304.077 374.068 303.381 374.884C302.637 375.74 301.633 376.168 300.369 376.168C299.097 376.168 298.093 375.736 297.357 374.872C296.661 374.056 296.313 373.004 296.313 371.716C296.313 370.428 296.661 369.376 297.357 368.56C298.101 367.696 299.109 367.264 300.381 367.264ZM300.381 367.936C299.333 367.936 298.509 368.296 297.909 369.016C297.333 369.712 297.045 370.612 297.045 371.716C297.045 372.844 297.329 373.744 297.897 374.416C298.497 375.136 299.321 375.496 300.369 375.496C301.409 375.496 302.229 375.14 302.829 374.428C303.405 373.74 303.693 372.836 303.693 371.716C303.693 370.58 303.405 369.676 302.829 369.004C302.237 368.292 301.421 367.936 300.381 367.936ZM309.51 367.264C310.422 367.264 311.198 367.512 311.838 368.008C312.502 368.512 312.89 369.184 313.002 370.024H312.294C312.19 369.36 311.866 368.844 311.322 368.476C310.81 368.116 310.202 367.936 309.498 367.936C308.45 367.936 307.626 368.308 307.026 369.052C306.466 369.74 306.186 370.64 306.186 371.752C306.186 372.864 306.462 373.756 307.014 374.428C307.59 375.14 308.394 375.496 309.426 375.496C310.146 375.496 310.774 375.3 311.31 374.908C311.878 374.476 312.246 373.864 312.414 373.072H313.122C312.938 374.064 312.49 374.84 311.778 375.4C311.106 375.912 310.326 376.168 309.438 376.168C308.158 376.168 307.158 375.728 306.438 374.848C305.782 374.048 305.454 373.016 305.454 371.752C305.454 370.488 305.79 369.444 306.462 368.62C307.19 367.716 308.206 367.264 309.51 367.264ZM314.617 367.432H315.349V376H314.617V367.432ZM319.76 367.432H320.624L324.056 376H323.252L322.256 373.444H318.128L317.132 376H316.328L319.76 367.432ZM318.368 372.82H322.016L320.216 368.224H320.18L318.368 372.82ZM324.927 367.432H325.659V375.352H330.807V376H324.927V367.432ZM331.958 367.432H337.634V368.08H332.69V371.26H337.382V371.908H332.69V376H331.958V367.432ZM338.957 367.432H339.689V376H338.957V367.432Z" fill="white"/>
<path opacity="0.2" d="M271.484 382.82L266.207 379.784L271.484 376.748L276.757 379.784L271.484 382.82Z" fill="#020134"/>
<path d="M271.484 378.218L266.207 375.182V369.105L271.484 372.146V378.218Z" fill="url(#paint23_linear_15_731)"/>
<path d="M276.757 375.182L271.484 378.218V372.146L276.757 369.105V375.182Z" fill="#7ABFFF"/>
<path d="M271.484 372.146L266.207 369.105L271.484 366.069L276.756 369.105L271.484 372.146Z" fill="#C2DAFF"/>
<path d="M271.484 372.146L266.207 369.105V369.368L271.484 372.409L276.757 369.368V369.105L271.484 372.146Z" fill="white"/>
<path d="M279.159 380.719L268.811 383.361L260.942 375.37L271.29 372.728L279.159 380.719Z" fill="url(#paint24_linear_15_731)"/>
<path d="M271.29 372.727L260.942 375.369L263.969 364.498L274.317 361.856L271.29 372.727Z" fill="url(#paint25_linear_15_731)"/>
<path d="M274.317 361.857L282.186 369.848L279.159 380.719L271.29 372.728L274.317 361.857Z" fill="url(#paint26_linear_15_731)"/>
<g style="mix-blend-mode:screen">
<path d="M261.171 366.987C260.319 365.707 261.892 363.564 264.685 362.2C267.479 360.836 270.433 360.767 271.286 362.047C272.137 363.327 270.565 365.47 267.771 366.834C264.977 368.199 262.024 368.267 261.171 366.987Z" fill="url(#paint27_radial_15_731)"/>
</g>
<path d="M266.869 404.264C267.925 404.264 268.769 404.532 269.401 405.068C269.985 405.572 270.357 406.284 270.517 407.204H269.773C269.637 406.5 269.333 405.952 268.861 405.56C268.365 405.144 267.701 404.936 266.869 404.936C265.869 404.936 265.073 405.296 264.481 406.016C263.905 406.712 263.617 407.628 263.617 408.764C263.617 409.876 263.905 410.764 264.481 411.428C265.097 412.148 265.977 412.508 267.121 412.508C267.617 412.508 268.105 412.436 268.585 412.292C269.073 412.14 269.461 411.964 269.749 411.764V409.328H266.821V408.68H270.481V412.112C270.065 412.44 269.573 412.696 269.005 412.88C268.381 413.072 267.733 413.168 267.061 413.168C265.717 413.168 264.669 412.732 263.917 411.86C263.229 411.068 262.885 410.036 262.885 408.764C262.885 407.492 263.225 406.444 263.905 405.62C264.633 404.716 265.621 404.264 266.869 404.264ZM274.719 404.432H275.583L279.015 413H278.211L277.215 410.444H273.087L272.091 413H271.287L274.719 404.432ZM273.327 409.82H276.975L275.175 405.224H275.139L273.327 409.82ZM279.886 404.432H280.858L284.218 412.076H284.254L287.59 404.432H288.562V413H287.83V405.644H287.794L284.578 413H283.87L280.666 405.644H280.618V413H279.886V404.432ZM290.315 404.432H296.327V405.08H291.047V408.236H296.039V408.896H291.047V412.352H296.531V413H290.315V404.432ZM297.921 404.432H303.597V405.08H298.653V408.26H303.345V408.908H298.653V413H297.921V404.432ZM304.92 404.432H305.652V413H304.92V404.432Z" fill="white"/>
<path opacity="0.2" d="M242.484 420.82L237.207 417.784L242.484 414.748L247.757 417.784L242.484 420.82Z" fill="#020134"/>
<path d="M242.484 416.218L237.207 413.182V407.105L242.484 410.146V416.218Z" fill="url(#paint28_linear_15_731)"/>
<path d="M247.757 413.182L242.484 416.218V410.146L247.757 407.105V413.182Z" fill="#FFCA7A"/>
<path d="M242.484 410.146L237.207 407.105L242.484 404.069L247.756 407.105L242.484 410.146Z" fill="#FFDFC2"/>
<path d="M242.484 410.146L237.207 407.105V407.368L242.484 410.409L247.757 407.368V407.105L242.484 410.146Z" fill="white"/>
<path d="M250.159 418.719L239.811 421.361L231.942 413.37L242.29 410.728L250.159 418.719Z" fill="url(#paint29_linear_15_731)"/>
<path d="M242.29 410.728L231.942 413.37L234.969 402.498L245.317 399.856L242.29 410.728Z" fill="url(#paint30_linear_15_731)"/>
<path d="M245.317 399.857L253.186 407.848L250.159 418.719L242.29 410.728L245.317 399.857Z" fill="url(#paint31_linear_15_731)"/>
<g style="mix-blend-mode:screen">
<path d="M232.171 404.987C231.319 403.707 232.892 401.564 235.686 400.2C238.479 398.836 241.433 398.767 242.286 400.047C243.137 401.327 241.565 403.47 238.771 404.834C235.977 406.199 233.024 406.267 232.171 404.987Z" fill="url(#paint32_radial_15_731)"/>
</g>
<path d="M223.933 436.432H224.761L229.945 443.86H229.981V436.432H230.725V445H229.909L224.701 437.512H224.665V445H223.933V436.432ZM232.476 436.432H238.152V437.08H233.208V440.26H237.9V440.908H233.208V445H232.476V436.432ZM238.706 436.432H245.726V437.08H242.582V445H241.85V437.08H238.706V436.432ZM246.675 436.732H251.763C251.547 436.196 251.299 435.708 251.019 435.268L251.727 435.148C251.983 435.58 252.227 436.108 252.459 436.732H257.223V437.344H246.675V436.732ZM253.779 437.872C255.123 438.952 256.239 440.024 257.127 441.088L256.647 441.556C255.855 440.564 254.747 439.48 253.323 438.304L253.779 437.872ZM254.667 440.356C254.067 441.5 253.335 442.476 252.471 443.284C253.783 444.276 255.403 445.024 257.331 445.528L256.947 446.128C254.963 445.576 253.307 444.776 251.979 443.728C250.635 444.856 248.979 445.672 247.011 446.176L246.615 445.6C248.575 445.096 250.195 444.332 251.475 443.308C250.547 442.492 249.799 441.56 249.231 440.512L249.795 440.188C250.331 441.196 251.055 442.092 251.967 442.876C252.839 442.076 253.539 441.148 254.067 440.092L254.667 440.356ZM250.515 438.304C249.611 439.48 248.483 440.516 247.131 441.412L246.711 440.872C248.031 440.024 249.139 439.024 250.035 437.872L250.515 438.304ZM260.367 439.78V435.712H267.579V439.78H262.875C262.635 440.164 262.339 440.532 261.987 440.884H268.443C268.411 442.108 268.343 443.132 268.239 443.956C268.119 444.716 267.931 445.256 267.675 445.576C267.419 445.88 267.011 446.044 266.451 446.068H264.975L264.819 445.444C265.275 445.468 265.715 445.48 266.139 445.48C266.763 445.48 267.179 445.232 267.387 444.736C267.587 444.248 267.723 443.164 267.795 441.484H266.451C265.443 443.82 263.783 445.372 261.471 446.14L261.111 445.6C263.303 444.88 264.867 443.508 265.803 441.484H264.015C263.199 442.844 261.823 443.912 259.887 444.688L259.467 444.184C261.299 443.488 262.587 442.588 263.331 441.484H261.303C260.703 441.956 259.991 442.372 259.167 442.732L258.807 442.168C260.343 441.544 261.463 440.748 262.167 439.78H260.367ZM266.931 439.204V438.016H261.003V439.204H266.931ZM261.003 437.464H266.931V436.276H261.003V437.464ZM275.607 435.172H276.279V437.392H280.623V442.912H279.963V442.108H276.279V446.26H275.607V442.108H271.935V442.912H271.275V437.392H275.607V435.172ZM271.935 441.472H275.607V438.04H271.935V441.472ZM276.279 441.472H279.963V438.04H276.279V441.472ZM286.755 445.78C285.995 445.78 285.615 445.42 285.615 444.7V437.74H286.275V444.556C286.275 444.94 286.499 445.132 286.947 445.132H289.323C289.651 445.132 289.883 445.016 290.019 444.784C290.195 444.472 290.311 443.592 290.367 442.144L290.979 442.348C290.907 443.94 290.743 444.932 290.487 445.324C290.271 445.628 289.927 445.78 289.455 445.78H286.755ZM284.511 439.204C284.167 441.196 283.675 442.924 283.035 444.388L282.471 444.028C283.103 442.564 283.571 440.912 283.875 439.072L284.511 439.204ZM291.351 438.664C292.183 440.224 292.895 441.852 293.487 443.548L292.887 443.812C292.255 441.988 291.531 440.344 290.715 438.88L291.351 438.664ZM286.983 435.316C288.119 436.444 288.999 437.44 289.623 438.304L289.071 438.676C288.439 437.764 287.563 436.756 286.443 435.652L286.983 435.316Z" fill="white"/>
<path opacity="0.2" d="M201.484 448.82L196.207 445.784L201.484 442.748L206.757 445.784L201.484 448.82Z" fill="#020134"/>
<path d="M201.484 444.218L196.207 441.182V435.105L201.484 438.146V444.218Z" fill="url(#paint33_linear_15_731)"/>
<path d="M206.757 441.182L201.484 444.218V438.146L206.757 435.105V441.182Z" fill="#B57AFF"/>
<path d="M201.484 438.146L196.207 435.105L201.484 432.069L206.757 435.105L201.484 438.146Z" fill="#E8C2FF"/>
<path d="M201.484 438.146L196.207 435.105V435.368L201.484 438.409L206.757 435.368V435.105L201.484 438.146Z" fill="white"/>
<path d="M209.16 446.719L198.811 449.361L190.943 441.37L201.29 438.728L209.16 446.719Z" fill="url(#paint34_linear_15_731)"/>
<path d="M201.29 438.727L190.942 441.369L193.97 430.498L204.317 427.856L201.29 438.727Z" fill="url(#paint35_linear_15_731)"/>
<path d="M204.317 427.857L212.186 435.848L209.159 446.719L201.29 438.728L204.317 427.857Z" fill="url(#paint36_linear_15_731)"/>
<g style="mix-blend-mode:screen">
<path d="M191.171 432.987C190.319 431.707 191.892 429.564 194.686 428.2C197.48 426.836 200.433 426.767 201.286 428.047C202.138 429.327 200.565 431.47 197.771 432.834C194.978 434.199 192.024 434.267 191.171 432.987Z" fill="url(#paint37_radial_15_731)"/>
</g>
<defs>
<filter id="filter0_ii_15_731" x="9.77528" y="251.28" width="316.494" height="200.492" filterUnits="userSpaceOnUse" color-interpolation-filters="sRGB">
<feFlood flood-opacity="0" result="BackgroundImageFix"/>
<feBlend mode="normal" in="SourceGraphic" in2="BackgroundImageFix" result="shape"/>
<feColorMatrix in="SourceAlpha" type="matrix" values="0 0 0 0 0 0 0 0 0 0 0 0 0 0 0 0 0 0 127 0" result="hardAlpha"/>
<feOffset dx="-51.2247" dy="12.7718"/>
<feGaussianBlur stdDeviation="26.3964"/>
<feComposite in2="hardAlpha" operator="arithmetic" k2="-1" k3="1"/>
<feColorMatrix type="matrix" values="0 0 0 0 0.943875 0 0 0 0 0.943875 0 0 0 0 0.943875 0 0 0 1 0"/>
<feBlend mode="normal" in2="shape" result="effect1_innerShadow_15_731"/>
<feColorMatrix in="SourceAlpha" type="matrix" values="0 0 0 0 0 0 0 0 0 0 0 0 0 0 0 0 0 0 127 0" result="hardAlpha"/>
<feOffset dx="51.2247" dy="-12.7718"/>
<feGaussianBlur stdDeviation="26.3964"/>
<feComposite in2="hardAlpha" operator="arithmetic" k2="-1" k3="1"/>
<feColorMatrix type="matrix" values="0 0 0 0 0.549569 0 0 0 0 0.549569 0 0 0 0 0.549569 0 0 0 1 0"/>
<feBlend mode="normal" in2="effect1_innerShadow_15_731" result="effect2_innerShadow_15_731"/>
</filter>
<filter id="filter1_ii_15_731" x="49.9501" y="284.117" width="236.145" height="134.819" filterUnits="userSpaceOnUse" color-interpolation-filters="sRGB">
<feFlood flood-opacity="0" result="BackgroundImageFix"/>
<feBlend mode="normal" in="SourceGraphic" in2="BackgroundImageFix" result="shape"/>
<feColorMatrix in="SourceAlpha" type="matrix" values="0 0 0 0 0 0 0 0 0 0 0 0 0 0 0 0 0 0 127 0" result="hardAlpha"/>
<feOffset dx="-51.2247" dy="12.7718"/>
<feGaussianBlur stdDeviation="26.3964"/>
<feComposite in2="hardAlpha" operator="arithmetic" k2="-1" k3="1"/>
<feColorMatrix type="matrix" values="0 0 0 0 0.943875 0 0 0 0 0.943875 0 0 0 0 0.943875 0 0 0 1 0"/>
<feBlend mode="normal" in2="shape" result="effect1_innerShadow_15_731"/>
<feColorMatrix in="SourceAlpha" type="matrix" values="0 0 0 0 0 0 0 0 0 0 0 0 0 0 0 0 0 0 127 0" result="hardAlpha"/>
<feOffset dx="51.2247" dy="-12.7718"/>
<feGaussianBlur stdDeviation="26.3964"/>
<feComposite in2="hardAlpha" operator="arithmetic" k2="-1" k3="1"/>
<feColorMatrix type="matrix" values="0 0 0 0 0.549569 0 0 0 0 0.549569 0 0 0 0 0.549569 0 0 0 1 0"/>
<feBlend mode="normal" in2="effect1_innerShadow_15_731" result="effect2_innerShadow_15_731"/>
</filter>
<filter id="filter2_ii_15_731" x="78.9284" y="307.802" width="178.188" height="87.4482" filterUnits="userSpaceOnUse" color-interpolation-filters="sRGB">
<feFlood flood-opacity="0" result="BackgroundImageFix"/>
<feBlend mode="normal" in="SourceGraphic" in2="BackgroundImageFix" result="shape"/>
<feColorMatrix in="SourceAlpha" type="matrix" values="0 0 0 0 0 0 0 0 0 0 0 0 0 0 0 0 0 0 127 0" result="hardAlpha"/>
<feOffset dx="-51.2247" dy="12.7718"/>
<feGaussianBlur stdDeviation="26.3964"/>
<feComposite in2="hardAlpha" operator="arithmetic" k2="-1" k3="1"/>
<feColorMatrix type="matrix" values="0 0 0 0 0.943875 0 0 0 0 0.943875 0 0 0 0 0.943875 0 0 0 1 0"/>
<feBlend mode="normal" in2="shape" result="effect1_innerShadow_15_731"/>
<feColorMatrix in="SourceAlpha" type="matrix" values="0 0 0 0 0 0 0 0 0 0 0 0 0 0 0 0 0 0 127 0" result="hardAlpha"/>
<feOffset dx="51.2247" dy="-12.7718"/>
<feGaussianBlur stdDeviation="26.3964"/>
<feComposite in2="hardAlpha" operator="arithmetic" k2="-1" k3="1"/>
<feColorMatrix type="matrix" values="0 0 0 0 0.549569 0 0 0 0 0.549569 0 0 0 0 0.549569 0 0 0 1 0"/>
<feBlend mode="normal" in2="effect1_innerShadow_15_731" result="effect2_innerShadow_15_731"/>
</filter>
<linearGradient id="paint0_linear_15_731" x1="288.409" y1="307.861" x2="86.5911" y2="369.425" gradientUnits="userSpaceOnUse">
<stop stop-color="#979797"/>
<stop offset="1" stop-color="#E6E6E6"/>
</linearGradient>
<linearGradient id="paint1_linear_15_731" x1="243.218" y1="324.252" x2="117.159" y2="362.706" gradientUnits="userSpaceOnUse">
<stop stop-color="#979797"/>
<stop offset="1" stop-color="#E6E6E6"/>
</linearGradient>
<linearGradient id="paint2_linear_15_731" x1="210.621" y1="336.075" x2="139.208" y2="357.859" gradientUnits="userSpaceOnUse">
<stop stop-color="#979797"/>
<stop offset="1" stop-color="#E6E6E6"/>
</linearGradient>
<linearGradient id="paint3_linear_15_731" x1="174.39" y1="339.969" x2="174.39" y2="365.224" gradientUnits="userSpaceOnUse">
<stop stop-color="#E606B4"/>
<stop offset="0.296296" stop-color="#F7773D" stop-opacity="0.97"/>
<stop offset="0.414141" stop-color="#E26E7B" stop-opacity="0.659487"/>
<stop offset="0.707071" stop-color="#967FD7" stop-opacity="0.22"/>
</linearGradient>
<linearGradient id="paint4_linear_15_731" x1="179.475" y1="377.128" x2="152.202" y2="347.231" gradientUnits="userSpaceOnUse">
<stop offset="0.142045" stop-color="#575AFF" stop-opacity="0.13"/>
<stop offset="0.535729" stop-color="#C82B76" stop-opacity="0.3099"/>
<stop offset="0.941381" stop-color="white" stop-opacity="0.8199"/>
</linearGradient>
<linearGradient id="paint5_linear_15_731" x1="169.388" y1="352.492" x2="150.795" y2="333.104" gradientUnits="userSpaceOnUse">
<stop offset="0.142045" stop-color="#575AFF" stop-opacity="0.13"/>
<stop offset="0.535729" stop-color="#C82B76" stop-opacity="0.3099"/>
<stop offset="0.941381" stop-color="white" stop-opacity="0.8199"/>
</linearGradient>
<linearGradient id="paint6_linear_15_731" x1="193.915" y1="362.997" x2="166.156" y2="332.653" gradientUnits="userSpaceOnUse">
<stop offset="0.142045" stop-color="#575AFF" stop-opacity="0.13"/>
<stop offset="0.535729" stop-color="#C82B76" stop-opacity="0.3099"/>
<stop offset="0.941381" stop-color="white" stop-opacity="0.8199"/>
</linearGradient>
<radialGradient id="paint7_radial_15_731" cx="0" cy="0" r="1" gradientUnits="userSpaceOnUse" gradientTransform="translate(157.609 333.864) rotate(153.935) scale(11.9729 5.87111)">
<stop offset="0.1273" stop-color="#D065D6"/>
<stop offset="0.4214" stop-color="#803E84" stop-opacity="0.663"/>
<stop offset="0.7002" stop-color="#3B1D3D" stop-opacity="0.3435"/>
<stop offset="0.8994" stop-color="#100811" stop-opacity="0.1153"/>
<stop offset="1" stop-opacity="0"/>
</radialGradient>
<linearGradient id="paint8_linear_15_731" x1="189.629" y1="269.218" x2="196.41" y2="268.245" gradientUnits="userSpaceOnUse">
<stop offset="0.0833571" stop-color="#F02148"/>
<stop offset="1" stop-color="#FF5B21"/>
</linearGradient>
<linearGradient id="paint9_linear_15_731" x1="199.51" y1="275.852" x2="186.691" y2="261.8" gradientUnits="userSpaceOnUse">
<stop offset="0.142045" stop-color="#575AFF" stop-opacity="0.13"/>
<stop offset="0.535729" stop-color="#C82B76" stop-opacity="0.3099"/>
<stop offset="0.941381" stop-color="white" stop-opacity="0.8199"/>
</linearGradient>
<linearGradient id="paint10_linear_15_731" x1="194.769" y1="264.273" x2="186.03" y2="255.159" gradientUnits="userSpaceOnUse">
<stop offset="0.142045" stop-color="#575AFF" stop-opacity="0.13"/>
<stop offset="0.535729" stop-color="#C82B76" stop-opacity="0.3099"/>
<stop offset="0.941381" stop-color="white" stop-opacity="0.8199"/>
</linearGradient>
<linearGradient id="paint11_linear_15_731" x1="206.298" y1="269.211" x2="193.25" y2="254.947" gradientUnits="userSpaceOnUse">
<stop offset="0.142045" stop-color="#575AFF" stop-opacity="0.13"/>
<stop offset="0.535729" stop-color="#C82B76" stop-opacity="0.3099"/>
<stop offset="0.941381" stop-color="white" stop-opacity="0.8199"/>
</linearGradient>
<radialGradient id="paint12_radial_15_731" cx="0" cy="0" r="1" gradientUnits="userSpaceOnUse" gradientTransform="translate(189.233 255.517) rotate(153.935) scale(5.62779 2.75968)">
<stop offset="0.1273" stop-color="#D065D6"/>
<stop offset="0.4214" stop-color="#803E84" stop-opacity="0.663"/>
<stop offset="0.7002" stop-color="#3B1D3D" stop-opacity="0.3435"/>
<stop offset="0.8994" stop-color="#100811" stop-opacity="0.1153"/>
<stop offset="1" stop-opacity="0"/>
</radialGradient>
<linearGradient id="paint13_linear_15_731" x1="232.989" y1="295.341" x2="239.769" y2="294.368" gradientUnits="userSpaceOnUse">
<stop offset="0.0833571" stop-color="#FFD600"/>
<stop offset="1" stop-color="#FFC121"/>
</linearGradient>
<linearGradient id="paint14_linear_15_731" x1="242.87" y1="301.976" x2="230.051" y2="287.923" gradientUnits="userSpaceOnUse">
<stop offset="0.142045" stop-color="#575AFF" stop-opacity="0.13"/>
<stop offset="0.535729" stop-color="#C82B76" stop-opacity="0.3099"/>
<stop offset="0.941381" stop-color="white" stop-opacity="0.8199"/>
</linearGradient>
<linearGradient id="paint15_linear_15_731" x1="238.129" y1="290.396" x2="229.39" y2="281.282" gradientUnits="userSpaceOnUse">
<stop offset="0.142045" stop-color="#575AFF" stop-opacity="0.13"/>
<stop offset="0.535729" stop-color="#C82B76" stop-opacity="0.3099"/>
<stop offset="0.941381" stop-color="white" stop-opacity="0.8199"/>
</linearGradient>
<linearGradient id="paint16_linear_15_731" x1="249.658" y1="295.334" x2="236.61" y2="281.071" gradientUnits="userSpaceOnUse">
<stop offset="0.142045" stop-color="#575AFF" stop-opacity="0.13"/>
<stop offset="0.535729" stop-color="#C82B76" stop-opacity="0.3099"/>
<stop offset="0.941381" stop-color="white" stop-opacity="0.8199"/>
</linearGradient>
<radialGradient id="paint17_radial_15_731" cx="0" cy="0" r="1" gradientUnits="userSpaceOnUse" gradientTransform="translate(232.593 281.64) rotate(153.935) scale(5.62779 2.75968)">
<stop offset="0.1273" stop-color="#D065D6"/>
<stop offset="0.4214" stop-color="#803E84" stop-opacity="0.663"/>
<stop offset="0.7002" stop-color="#3B1D3D" stop-opacity="0.3435"/>
<stop offset="0.8994" stop-color="#100811" stop-opacity="0.1153"/>
<stop offset="1" stop-opacity="0"/>
</radialGradient>
<linearGradient id="paint18_linear_15_731" x1="262.629" y1="332.218" x2="269.409" y2="331.245" gradientUnits="userSpaceOnUse">
<stop offset="0.0833571" stop-color="#21E4F0"/>
<stop offset="1" stop-color="#21FF6C"/>
</linearGradient>
<linearGradient id="paint19_linear_15_731" x1="272.51" y1="338.853" x2="259.691" y2="324.8" gradientUnits="userSpaceOnUse">
<stop offset="0.142045" stop-color="#575AFF" stop-opacity="0.13"/>
<stop offset="0.535729" stop-color="#C82B76" stop-opacity="0.3099"/>
<stop offset="0.941381" stop-color="white" stop-opacity="0.8199"/>
</linearGradient>
<linearGradient id="paint20_linear_15_731" x1="267.769" y1="327.273" x2="259.03" y2="318.159" gradientUnits="userSpaceOnUse">
<stop offset="0.142045" stop-color="#575AFF" stop-opacity="0.13"/>
<stop offset="0.535729" stop-color="#C82B76" stop-opacity="0.3099"/>
<stop offset="0.941381" stop-color="white" stop-opacity="0.8199"/>
</linearGradient>
<linearGradient id="paint21_linear_15_731" x1="279.298" y1="332.211" x2="266.25" y2="317.948" gradientUnits="userSpaceOnUse">
<stop offset="0.142045" stop-color="#575AFF" stop-opacity="0.13"/>
<stop offset="0.535729" stop-color="#C82B76" stop-opacity="0.3099"/>
<stop offset="0.941381" stop-color="white" stop-opacity="0.8199"/>
</linearGradient>
<radialGradient id="paint22_radial_15_731" cx="0" cy="0" r="1" gradientUnits="userSpaceOnUse" gradientTransform="translate(262.233 318.517) rotate(153.935) scale(5.62779 2.75968)">
<stop offset="0.1273" stop-color="#D065D6"/>
<stop offset="0.4214" stop-color="#803E84" stop-opacity="0.663"/>
<stop offset="0.7002" stop-color="#3B1D3D" stop-opacity="0.3435"/>
<stop offset="0.8994" stop-color="#100811" stop-opacity="0.1153"/>
<stop offset="1" stop-opacity="0"/>
</radialGradient>
<linearGradient id="paint23_linear_15_731" x1="266.629" y1="378.218" x2="273.41" y2="377.245" gradientUnits="userSpaceOnUse">
<stop offset="0.0833571" stop-color="#2180F0"/>
<stop offset="1" stop-color="#2194FF"/>
</linearGradient>
<linearGradient id="paint24_linear_15_731" x1="276.51" y1="384.853" x2="263.691" y2="370.8" gradientUnits="userSpaceOnUse">
<stop offset="0.142045" stop-color="#575AFF" stop-opacity="0.13"/>
<stop offset="0.535729" stop-color="#C82B76" stop-opacity="0.3099"/>
<stop offset="0.941381" stop-color="white" stop-opacity="0.8199"/>
</linearGradient>
<linearGradient id="paint25_linear_15_731" x1="271.769" y1="373.272" x2="263.03" y2="364.159" gradientUnits="userSpaceOnUse">
<stop offset="0.142045" stop-color="#575AFF" stop-opacity="0.13"/>
<stop offset="0.535729" stop-color="#C82B76" stop-opacity="0.3099"/>
<stop offset="0.941381" stop-color="white" stop-opacity="0.8199"/>
</linearGradient>
<linearGradient id="paint26_linear_15_731" x1="283.298" y1="378.211" x2="270.25" y2="363.948" gradientUnits="userSpaceOnUse">
<stop offset="0.142045" stop-color="#575AFF" stop-opacity="0.13"/>
<stop offset="0.535729" stop-color="#C82B76" stop-opacity="0.3099"/>
<stop offset="0.941381" stop-color="white" stop-opacity="0.8199"/>
</linearGradient>
<radialGradient id="paint27_radial_15_731" cx="0" cy="0" r="1" gradientUnits="userSpaceOnUse" gradientTransform="translate(266.233 364.517) rotate(153.935) scale(5.62779 2.75968)">
<stop offset="0.1273" stop-color="#D065D6"/>
<stop offset="0.4214" stop-color="#803E84" stop-opacity="0.663"/>
<stop offset="0.7002" stop-color="#3B1D3D" stop-opacity="0.3435"/>
<stop offset="0.8994" stop-color="#100811" stop-opacity="0.1153"/>
<stop offset="1" stop-opacity="0"/>
</radialGradient>
<linearGradient id="paint28_linear_15_731" x1="237.629" y1="416.218" x2="244.41" y2="415.245" gradientUnits="userSpaceOnUse">
<stop offset="0.0104167" stop-color="#F05321"/>
<stop offset="1" stop-color="#FF8C21"/>
</linearGradient>
<linearGradient id="paint29_linear_15_731" x1="247.51" y1="422.853" x2="234.691" y2="408.8" gradientUnits="userSpaceOnUse">
<stop offset="0.142045" stop-color="#575AFF" stop-opacity="0.13"/>
<stop offset="0.535729" stop-color="#C82B76" stop-opacity="0.3099"/>
<stop offset="0.941381" stop-color="white" stop-opacity="0.8199"/>
</linearGradient>
<linearGradient id="paint30_linear_15_731" x1="242.769" y1="411.273" x2="234.03" y2="402.159" gradientUnits="userSpaceOnUse">
<stop offset="0.142045" stop-color="#575AFF" stop-opacity="0.13"/>
<stop offset="0.535729" stop-color="#C82B76" stop-opacity="0.3099"/>
<stop offset="0.941381" stop-color="white" stop-opacity="0.8199"/>
</linearGradient>
<linearGradient id="paint31_linear_15_731" x1="254.298" y1="416.211" x2="241.25" y2="401.948" gradientUnits="userSpaceOnUse">
<stop offset="0.142045" stop-color="#575AFF" stop-opacity="0.13"/>
<stop offset="0.535729" stop-color="#C82B76" stop-opacity="0.3099"/>
<stop offset="0.941381" stop-color="white" stop-opacity="0.8199"/>
</linearGradient>
<radialGradient id="paint32_radial_15_731" cx="0" cy="0" r="1" gradientUnits="userSpaceOnUse" gradientTransform="translate(237.233 402.517) rotate(153.935) scale(5.62779 2.75968)">
<stop offset="0.1273" stop-color="#D065D6"/>
<stop offset="0.4214" stop-color="#803E84" stop-opacity="0.663"/>
<stop offset="0.7002" stop-color="#3B1D3D" stop-opacity="0.3435"/>
<stop offset="0.8994" stop-color="#100811" stop-opacity="0.1153"/>
<stop offset="1" stop-opacity="0"/>
</radialGradient>
<linearGradient id="paint33_linear_15_731" x1="196.044" y1="447.317" x2="202.129" y2="446.273" gradientUnits="userSpaceOnUse">
<stop stop-color="#DE5DFE"/>
<stop offset="1" stop-color="#AB21FF"/>
</linearGradient>
<linearGradient id="paint34_linear_15_731" x1="206.511" y1="450.852" x2="193.691" y2="436.8" gradientUnits="userSpaceOnUse">
<stop offset="0.142045" stop-color="#575AFF" stop-opacity="0.13"/>
<stop offset="0.535729" stop-color="#C82B76" stop-opacity="0.3099"/>
<stop offset="0.941381" stop-color="white" stop-opacity="0.8199"/>
</linearGradient>
<linearGradient id="paint35_linear_15_731" x1="201.77" y1="439.272" x2="193.03" y2="430.159" gradientUnits="userSpaceOnUse">
<stop offset="0.142045" stop-color="#575AFF" stop-opacity="0.13"/>
<stop offset="0.535729" stop-color="#C82B76" stop-opacity="0.3099"/>
<stop offset="0.941381" stop-color="white" stop-opacity="0.8199"/>
</linearGradient>
<linearGradient id="paint36_linear_15_731" x1="213.298" y1="444.211" x2="200.25" y2="429.948" gradientUnits="userSpaceOnUse">
<stop offset="0.142045" stop-color="#575AFF" stop-opacity="0.13"/>
<stop offset="0.535729" stop-color="#C82B76" stop-opacity="0.3099"/>
<stop offset="0.941381" stop-color="white" stop-opacity="0.8199"/>
</linearGradient>
<radialGradient id="paint37_radial_15_731" cx="0" cy="0" r="1" gradientUnits="userSpaceOnUse" gradientTransform="translate(196.233 430.517) rotate(153.935) scale(5.62779 2.75968)">
<stop offset="0.1273" stop-color="#D065D6"/>
<stop offset="0.4214" stop-color="#803E84" stop-opacity="0.663"/>
<stop offset="0.7002" stop-color="#3B1D3D" stop-opacity="0.3435"/>
<stop offset="0.8994" stop-color="#100811" stop-opacity="0.1153"/>
<stop offset="1" stop-opacity="0"/>
</radialGradient>
</defs>
</svg>
