<svg width="295" height="206" viewBox="0 0 295 206" fill="none" xmlns="http://www.w3.org/2000/svg">
<g style="mix-blend-mode:overlay" opacity="0.8">
<g filter="url(#filter0_ii_6_1538)">
<ellipse cx="122.023" cy="103.526" rx="107.023" ry="87.474" fill="url(#paint0_linear_6_1538)" fill-opacity="0.1"/>
</g>
</g>
<g style="mix-blend-mode:soft-light" opacity="0.4">
<g filter="url(#filter1_ii_6_1538)">
<ellipse cx="122.023" cy="103.526" rx="66.8479" ry="54.6376" fill="url(#paint1_linear_6_1538)" fill-opacity="0.1"/>
</g>
</g>
<g style="mix-blend-mode:overlay" opacity="0.15">
<g filter="url(#filter2_ii_6_1538)">
<ellipse cx="122.023" cy="103.526" rx="37.8695" ry="30.9523" fill="url(#paint2_linear_6_1538)" fill-opacity="0.1"/>
</g>
</g>
<path opacity="0.2" d="M122.781 124.804L111.554 118.345L122.781 111.885L133.998 118.345L122.781 124.804Z" fill="#020134"/>
<path d="M122.781 115.013L111.554 108.554V95.6251L122.781 102.095V115.013Z" fill="#B11948"/>
<path d="M133.998 108.554L122.781 115.013V102.095L133.998 95.6251V108.554Z" fill="url(#paint3_linear_6_1538)"/>
<path d="M122.781 102.094L111.554 95.625L122.781 89.1657L133.998 95.625L122.781 102.094Z" fill="#F02148"/>
<path d="M122.781 102.095L111.554 95.6251V96.1854L122.781 102.655L133.998 96.1854V95.6251L122.781 102.095Z" fill="white"/>
<path d="M139.11 120.335L117.094 125.954L100.354 108.953L122.368 103.333L139.11 120.335Z" fill="url(#paint4_linear_6_1538)"/>
<path d="M122.368 103.333L100.354 108.953L106.794 85.8252L128.808 80.2044L122.368 103.333Z" fill="url(#paint5_linear_6_1538)"/>
<path d="M128.808 80.2047L145.55 97.2065L139.11 120.335L122.368 103.333L128.808 80.2047Z" fill="url(#paint6_linear_6_1538)"/>
<g style="mix-blend-mode:screen">
<path d="M100.84 91.12C99.028 88.3965 102.374 83.8382 108.317 80.9355C114.261 78.0328 120.545 77.8869 122.36 80.6103C124.171 83.3338 120.825 87.8922 114.882 90.7949C108.938 93.6975 102.654 93.8435 100.84 91.12Z" fill="url(#paint7_radial_6_1538)"/>
</g>
<path d="M9.612 93.6905C11.868 96.0185 14.46 97.8485 17.388 99.1805L16.542 100.711C15.618 100.267 14.778 99.8045 14.022 99.3245V100.945H9.864V103.645H14.922V105.301H9.864V108.145H16.56V109.819H1.458V108.145H8.136V105.301H3.06V103.645H8.136V100.945H3.978V99.3245C3.21 99.7925 2.346 100.267 1.386 100.747L0.558 99.2525C3.69 97.7525 6.3 95.8985 8.388 93.6905H9.612ZM13.986 99.3065C12.114 98.1545 10.452 96.7985 9 95.2385C7.656 96.7145 5.994 98.0705 4.014 99.3065H13.986ZM21.96 107.965H29.394C30.438 105.469 31.362 102.391 32.166 98.7305L33.858 99.1805C33.126 102.529 32.25 105.457 31.23 107.965H34.776V109.621H21.96V107.965ZM24.192 99.6125C24.888 101.461 25.53 103.651 26.118 106.183L24.498 106.597C24.042 104.353 23.448 102.181 22.716 100.081L24.192 99.6125ZM27.648 98.2985C28.272 100.315 28.824 102.577 29.304 105.085L27.684 105.481C27.312 103.285 26.802 101.053 26.154 98.7845L27.648 98.2985ZM27.738 93.5825C28.062 94.1705 28.344 94.7525 28.584 95.3285H35.064V96.9845H21.87V100.765C21.81 104.773 21.228 107.965 20.124 110.341L18.684 109.063C19.62 107.083 20.106 104.317 20.142 100.765V95.3285H26.676C26.424 94.8125 26.142 94.3385 25.83 93.9065L27.738 93.5825ZM40.068 100.243V102.997H44.208V100.243H40.068ZM39.978 104.581C39.762 106.849 39.096 108.721 37.98 110.197L36.666 109.027C37.746 107.479 38.304 105.517 38.34 103.141V94.3205H52.146V107.875C52.146 109.231 51.456 109.909 50.076 109.909H48.006L47.556 108.235C48.336 108.295 48.99 108.325 49.518 108.325C50.106 108.325 50.4 107.971 50.4 107.263V104.581H45.936V109.711H44.208V104.581H39.978ZM50.4 102.997V100.243H45.936V102.997H50.4ZM50.4 98.6765V95.9765H45.936V98.6765H50.4ZM44.208 95.9765H40.068V98.6765H44.208V95.9765ZM58.5 98.5325C57.78 100.165 56.874 101.515 55.782 102.583L54.666 101.161C56.286 99.4445 57.384 97.1405 57.96 94.2485L59.706 94.5545C59.526 95.3825 59.328 96.1565 59.112 96.8765H62.46V93.8525H64.17V96.8765H69.948V98.5325H64.17V102.259H69.588V103.915H64.17V108.019H71.1V109.711H55.134V108.019H62.46V103.915H57.312V102.259H62.46V98.5325H58.5ZM81.828 93.7085C81.768 94.2725 81.666 94.8545 81.522 95.4545H88.308V97.0925H82.818C83.682 98.8925 85.824 100.315 89.244 101.359L88.344 102.835C84.384 101.395 81.966 99.4805 81.09 97.0925H81.018C80.634 98.0525 80.118 98.9225 79.47 99.7025L79.416 99.7565C80.196 100.321 81.024 100.993 81.9 101.773L80.712 102.961C79.98 102.193 79.176 101.455 78.3 100.747C77.052 101.623 75.384 102.337 73.296 102.889L72.63 101.305C75.138 100.681 76.95 99.7805 78.066 98.6045C78.498 98.1365 78.852 97.6325 79.128 97.0925H73.53V95.4545H79.758C79.938 94.7945 80.058 94.1525 80.118 93.5285L81.828 93.7085ZM76.05 104.563C75.618 106.435 75.024 108.055 74.268 109.423L72.792 108.505C73.524 107.185 74.052 105.745 74.376 104.185L76.05 104.563ZM81.594 103.501C82.206 104.365 82.752 105.349 83.232 106.453L81.666 107.155C81.174 105.931 80.652 104.875 80.1 103.987L81.594 103.501ZM87.012 103.897C87.864 105.241 88.602 106.669 89.226 108.181L87.66 108.883C87.012 107.275 86.25 105.787 85.374 104.419L87.012 103.897ZM78.966 109.945C77.658 109.945 77.004 109.261 77.004 107.893V104.131H78.732V107.551C78.732 108.043 78.99 108.289 79.506 108.289H83.214C83.526 108.289 83.754 108.181 83.898 107.965C84.078 107.761 84.204 107.107 84.276 106.003L85.896 106.525C85.752 108.181 85.488 109.165 85.104 109.477C84.756 109.789 84.234 109.945 83.538 109.945H78.966Z" fill="white"/>
<path d="M171.716 6.592C170.788 9.12 169.58 11.044 168.092 12.364L167.588 11.92C169.14 10.552 170.312 8.696 171.104 6.352L171.716 6.592ZM174.908 12.688C175.82 14.04 176.592 15.436 177.224 16.876L176.612 17.14C176.412 16.668 176.208 16.224 176 15.808C173.856 16.16 171.544 16.416 169.064 16.576L168.944 15.964C170 15.316 171.228 13.44 172.628 10.336L173.264 10.552C172.168 12.936 171.084 14.724 170.012 15.916C172.028 15.772 173.928 15.548 175.712 15.244C175.296 14.412 174.832 13.628 174.32 12.892L174.908 12.688ZM174.716 6.268C175.428 8.564 176.668 10.428 178.436 11.86L177.992 12.388C176.152 10.876 174.876 8.94 174.164 6.58L174.716 6.268ZM185.648 13.084H187.964V11.404H185.912L185.804 10.84C186.236 10.136 186.632 9.264 186.992 8.224H185.708V7.636H187.184C187.344 7.068 187.472 6.596 187.568 6.22L188.156 6.352L187.796 7.636H190.196V8.224H187.616C187.288 9.176 186.908 10.044 186.476 10.828H187.964V9.148H188.564V10.828H190.088V11.404H188.564V13.084H190.412V13.672H188.564V15.808H187.964V13.672H185.648V13.084ZM183.884 6.508C184.428 7.188 184.868 7.812 185.204 8.38L184.712 8.728C184.4 8.168 183.96 7.532 183.392 6.82L183.884 6.508ZM188.696 16.36C189.128 16.36 189.72 16.352 190.472 16.336L190.304 16.972H188.648C188.4 16.972 188.036 16.964 187.556 16.948C186.988 16.932 186.508 16.856 186.116 16.72C185.708 16.584 185.356 16.34 185.06 15.988C184.908 15.812 184.776 15.724 184.664 15.724C184.44 15.724 184.044 16.188 183.476 17.116L183.092 16.636C183.596 15.836 184.032 15.344 184.4 15.16V10.912H183.344V10.312H185V15.184C185.08 15.24 185.156 15.308 185.228 15.388C185.468 15.7 185.776 15.94 186.152 16.108C186.464 16.22 186.86 16.296 187.34 16.336C187.948 16.352 188.4 16.36 188.696 16.36ZM181.484 6.388C181.364 6.948 181.26 7.376 181.172 7.672H183.128V8.296H180.992C180.712 9.16 180.388 9.932 180.02 10.612L179.516 10.288C180.132 9.088 180.584 7.744 180.872 6.256L181.484 6.388ZM180.512 10.048H182.888V10.636H181.844V12.352H183.236V12.964H181.844V16.048C182.244 15.848 182.632 15.6 183.008 15.304L183.128 15.892C182.576 16.292 181.936 16.624 181.208 16.888L180.956 16.348C181.124 16.276 181.208 16.156 181.208 15.988V12.964H179.804V12.352H181.208V10.636H180.512V10.048Z" fill="white"/>
<path opacity="0.2" d="M148.484 25.8201L143.207 22.7839L148.484 19.7478L153.757 22.7839L148.484 25.8201Z" fill="#020134"/>
<path d="M148.484 21.218L143.207 18.1819V12.1048L148.484 15.1457V21.218Z" fill="url(#paint8_linear_6_1538)"/>
<path d="M153.757 18.1819L148.484 21.218V15.1457L153.757 12.1048V18.1819Z" fill="#FF7E7A"/>
<path d="M148.484 15.1457L143.207 12.1047L148.484 9.0686L153.757 12.1047L148.484 15.1457Z" fill="#FFD1C2"/>
<path d="M148.484 15.1457L143.207 12.1048V12.3682L148.484 15.4091L153.757 12.3682V12.1048L148.484 15.1457Z" fill="white"/>
<path d="M156.159 23.7192L145.811 26.3604L137.942 18.3696L148.29 15.7276L156.159 23.7192Z" fill="url(#paint9_linear_6_1538)"/>
<path d="M148.29 15.7276L137.942 18.3695L140.969 7.49836L151.317 4.85638L148.29 15.7276Z" fill="url(#paint10_linear_6_1538)"/>
<path d="M151.317 4.85646L159.186 12.8481L156.159 23.7193L148.29 15.7277L151.317 4.85646Z" fill="url(#paint11_linear_6_1538)"/>
<g style="mix-blend-mode:screen">
<path d="M138.171 9.98728C137.319 8.70712 138.892 6.56448 141.685 5.20011C144.479 3.83574 147.433 3.76714 148.286 5.04727C149.137 6.32743 147.565 8.47007 144.771 9.83444C141.977 11.1988 139.024 11.2674 138.171 9.98728Z" fill="url(#paint12_radial_6_1538)"/>
</g>
<path d="M211.844 32.352C211.732 32.784 211.604 33.22 211.46 33.66H213.848V34.272H211.244C210.9 35.128 210.512 35.896 210.08 36.576L209.552 36.24C210.296 35.064 210.852 33.724 211.22 32.22L211.844 32.352ZM210.764 35.976H213.512V36.576H212.288V38.316H214.028V38.94H212.288V41.892C212.952 41.62 213.6 41.252 214.232 40.788L214.34 41.388C213.54 41.956 212.628 42.42 211.604 42.78L211.328 42.216C211.544 42.144 211.652 42.044 211.652 41.916V38.94H209.876V38.316H211.652V36.576H210.764V35.976ZM219.752 34.404L219.848 35.028L216.848 35.52C216.872 36.216 216.912 36.816 216.968 37.32L220.052 36.768L220.148 37.392L217.04 37.956C217.064 38.204 217.1 38.452 217.148 38.7C217.276 39.348 217.424 39.9 217.592 40.356C218.208 39.764 218.764 39.08 219.26 38.304L219.776 38.64C219.184 39.528 218.536 40.3 217.832 40.956C217.904 41.132 217.988 41.3 218.084 41.46C218.5 42.068 218.86 42.372 219.164 42.372C219.468 42.372 219.736 41.728 219.968 40.44L220.532 40.8C220.228 42.296 219.796 43.044 219.236 43.044C218.708 43.028 218.192 42.664 217.688 41.952C217.528 41.696 217.416 41.504 217.352 41.376C216.368 42.176 215.304 42.752 214.16 43.104L213.788 42.612C215.044 42.204 216.148 41.6 217.1 40.8C216.884 40.272 216.704 39.672 216.56 39C216.52 38.792 216.468 38.48 216.404 38.064L214.34 38.436L214.244 37.812L216.32 37.44C216.264 36.96 216.22 36.356 216.188 35.628L214.424 35.916L214.34 35.304L216.176 34.992V32.22H216.824V34.524C216.824 34.684 216.828 34.804 216.836 34.884L219.752 34.404ZM218.108 32.232C218.652 32.76 219.084 33.244 219.404 33.684L218.9 34.044C218.612 33.628 218.184 33.128 217.616 32.544L218.108 32.232ZM228.524 35.94V39.408H224.144V41.844C224.144 42.212 224.344 42.4 224.744 42.408H230.624C230.928 42.392 231.144 42.256 231.272 42C231.36 41.784 231.436 41.276 231.5 40.476L232.112 40.68C232.048 41.44 231.96 41.976 231.848 42.288C231.656 42.76 231.304 43 230.792 43.008H224.528C223.84 43.008 223.496 42.688 223.496 42.048V35.94H228.524ZM224.144 38.808H227.876V36.54H224.144V38.808ZM225.26 32.256C225.068 32.712 224.864 33.156 224.648 33.588H231.44C231.44 36.54 231.38 38.364 231.26 39.06C231.164 39.836 230.716 40.224 229.916 40.224C229.78 40.224 229.532 40.212 229.172 40.188L229.016 39.612C229.344 39.636 229.624 39.648 229.856 39.648C230.296 39.648 230.552 39.384 230.624 38.856C230.712 38.36 230.768 36.808 230.792 34.2H224.312C223.704 35.216 223.012 36.096 222.236 36.84L221.78 36.3C222.956 35.204 223.896 33.804 224.6 32.1L225.26 32.256Z" fill="white"/>
<path opacity="0.2" d="M191.844 51.9434L186.567 48.9072L191.844 45.8711L197.116 48.9072L191.844 51.9434Z" fill="#020134"/>
<path d="M191.844 47.3412L186.567 44.3051V38.228L191.844 41.269V47.3412Z" fill="url(#paint13_linear_6_1538)"/>
<path d="M197.117 44.3051L191.844 47.3412V41.269L197.117 38.228V44.3051Z" fill="#FFE27A"/>
<path d="M191.844 41.2688L186.567 38.2279L191.844 35.1918L197.116 38.2279L191.844 41.2688Z" fill="#FEFFC2"/>
<path d="M191.844 41.269L186.567 38.228V38.4914L191.844 41.5323L197.116 38.4914V38.228L191.844 41.269Z" fill="white"/>
<path d="M199.519 49.8424L189.171 52.4836L181.302 44.4928L191.65 41.8508L199.519 49.8424Z" fill="url(#paint14_linear_6_1538)"/>
<path d="M191.65 41.8507L181.302 44.4927L184.329 33.6215L194.677 30.9795L191.65 41.8507Z" fill="url(#paint15_linear_6_1538)"/>
<path d="M194.677 30.9796L202.546 38.9712L199.519 49.8424L191.65 41.8508L194.677 30.9796Z" fill="url(#paint16_linear_6_1538)"/>
<g style="mix-blend-mode:screen">
<path d="M181.53 36.1105C180.679 34.8304 182.252 32.6877 185.045 31.3233C187.839 29.959 190.793 29.8904 191.646 31.1705C192.497 32.4507 190.925 34.5933 188.131 35.9577C185.337 37.322 182.383 37.3906 181.53 36.1105Z" fill="url(#paint17_radial_6_1538)"/>
</g>
<path d="M240.732 73.732H245.82C245.604 73.196 245.356 72.708 245.076 72.268L245.784 72.148C246.04 72.58 246.284 73.108 246.516 73.732H251.28V74.344H240.732V73.732ZM247.836 74.872C249.18 75.952 250.296 77.024 251.184 78.088L250.704 78.556C249.912 77.564 248.804 76.48 247.38 75.304L247.836 74.872ZM248.724 77.356C248.124 78.5 247.392 79.476 246.528 80.284C247.84 81.276 249.46 82.024 251.388 82.528L251.004 83.128C249.02 82.576 247.364 81.776 246.036 80.728C244.692 81.856 243.036 82.672 241.068 83.176L240.672 82.6C242.632 82.096 244.252 81.332 245.532 80.308C244.604 79.492 243.856 78.56 243.288 77.512L243.852 77.188C244.388 78.196 245.112 79.092 246.024 79.876C246.896 79.076 247.596 78.148 248.124 77.092L248.724 77.356ZM244.572 75.304C243.668 76.48 242.54 77.516 241.188 78.412L240.768 77.872C242.088 77.024 243.196 76.024 244.092 74.872L244.572 75.304ZM254.424 76.78V72.712H261.636V76.78H256.932C256.692 77.164 256.396 77.532 256.044 77.884H262.5C262.468 79.108 262.4 80.132 262.296 80.956C262.176 81.716 261.988 82.256 261.732 82.576C261.476 82.88 261.068 83.044 260.508 83.068H259.032L258.876 82.444C259.332 82.468 259.772 82.48 260.196 82.48C260.82 82.48 261.236 82.232 261.444 81.736C261.644 81.248 261.78 80.164 261.852 78.484H260.508C259.5 80.82 257.84 82.372 255.528 83.14L255.168 82.6C257.36 81.88 258.924 80.508 259.86 78.484H258.072C257.256 79.844 255.88 80.912 253.944 81.688L253.524 81.184C255.356 80.488 256.644 79.588 257.388 78.484H255.36C254.76 78.956 254.048 79.372 253.224 79.732L252.864 79.168C254.4 78.544 255.52 77.748 256.224 76.78H254.424ZM260.988 76.204V75.016H255.06V76.204H260.988ZM255.06 74.464H260.988V73.276H255.06V74.464ZM269.22 79.144H266.064C265.92 80.68 265.536 82.012 264.912 83.14L264.456 82.684C265.136 81.42 265.5 79.928 265.548 78.208V73.288C266.948 73.12 268.084 72.772 268.956 72.244L269.376 72.736C268.512 73.24 267.428 73.588 266.124 73.78V75.352H269.22V79.144ZM266.124 76V78.364L266.112 78.532H268.608V76H266.124ZM270.984 76.636V78.52C270.96 80.568 270.684 82.116 270.156 83.164L269.568 82.864C270.096 81.832 270.372 80.384 270.396 78.52V73.18C272.052 73.124 273.468 72.84 274.644 72.328L274.968 72.904C273.784 73.384 272.456 73.66 270.984 73.732V76H275.424V76.636H273.996V83.176H273.36V76.636H270.984Z" fill="white"/>
<path opacity="0.2" d="M221.484 88.8203L216.207 85.7841L221.484 82.748L226.756 85.7841L221.484 88.8203Z" fill="#020134"/>
<path d="M221.484 84.2181L216.207 81.182V75.1049L221.484 78.1458V84.2181Z" fill="url(#paint18_linear_6_1538)"/>
<path d="M226.757 81.182L221.484 84.2181V78.1458L226.757 75.1049V81.182Z" fill="#7AFFCF"/>
<path d="M221.484 78.1458L216.207 75.1049L221.484 72.0687L226.756 75.1049L221.484 78.1458Z" fill="#C2FFE5"/>
<path d="M221.484 78.1458L216.207 75.1049V75.3683L221.484 78.4092L226.756 75.3683V75.1049L221.484 78.1458Z" fill="white"/>
<path d="M229.159 86.7193L218.811 89.3605L210.942 81.3697L221.29 78.7277L229.159 86.7193Z" fill="url(#paint19_linear_6_1538)"/>
<path d="M221.29 78.7276L210.942 81.3696L213.969 70.4984L224.317 67.8564L221.29 78.7276Z" fill="url(#paint20_linear_6_1538)"/>
<path d="M224.317 67.8566L232.186 75.8482L229.159 86.7195L221.29 78.7279L224.317 67.8566Z" fill="url(#paint21_linear_6_1538)"/>
<g style="mix-blend-mode:screen">
<path d="M211.171 72.9872C210.319 71.707 211.892 69.5644 214.685 68.2C217.479 66.8356 220.433 66.767 221.286 68.0471C222.137 69.3273 220.565 71.4699 217.771 72.8343C214.977 74.1987 212.024 74.2673 211.171 72.9872Z" fill="url(#paint22_radial_6_1538)"/>
</g>
<path d="M246.004 119.264C246.94 119.264 247.684 119.492 248.236 119.948C248.804 120.404 249.124 121.076 249.196 121.964H248.464C248.368 121.3 248.116 120.792 247.708 120.44C247.308 120.096 246.732 119.924 245.98 119.924C245.292 119.924 244.748 120.044 244.348 120.284C243.9 120.54 243.676 120.944 243.676 121.496C243.676 121.968 243.944 122.348 244.48 122.636C244.768 122.772 245.316 122.956 246.124 123.188C247.236 123.508 247.972 123.78 248.332 124.004C249.044 124.428 249.4 125.028 249.4 125.804C249.4 126.54 249.092 127.124 248.476 127.556C247.892 127.964 247.112 128.168 246.136 128.168C245.152 128.168 244.376 127.944 243.808 127.496C243.16 126.984 242.8 126.208 242.728 125.168H243.448C243.536 125.976 243.816 126.576 244.288 126.968C244.728 127.32 245.34 127.496 246.124 127.496C246.868 127.496 247.48 127.348 247.96 127.052C248.424 126.748 248.656 126.344 248.656 125.84C248.656 125.256 248.364 124.8 247.78 124.472C247.46 124.288 246.832 124.068 245.896 123.812C244.872 123.524 244.216 123.296 243.928 123.128C243.272 122.76 242.944 122.224 242.944 121.52C242.944 120.776 243.252 120.208 243.868 119.816C244.412 119.448 245.124 119.264 246.004 119.264ZM254.381 119.264C255.637 119.264 256.637 119.696 257.381 120.56C258.077 121.376 258.425 122.428 258.425 123.716C258.425 125.012 258.077 126.068 257.381 126.884C256.637 127.74 255.633 128.168 254.369 128.168C253.097 128.168 252.093 127.736 251.357 126.872C250.661 126.056 250.313 125.004 250.313 123.716C250.313 122.428 250.661 121.376 251.357 120.56C252.101 119.696 253.109 119.264 254.381 119.264ZM254.381 119.936C253.333 119.936 252.509 120.296 251.909 121.016C251.333 121.712 251.045 122.612 251.045 123.716C251.045 124.844 251.329 125.744 251.897 126.416C252.497 127.136 253.321 127.496 254.369 127.496C255.409 127.496 256.229 127.14 256.829 126.428C257.405 125.74 257.693 124.836 257.693 123.716C257.693 122.58 257.405 121.676 256.829 121.004C256.237 120.292 255.421 119.936 254.381 119.936ZM263.51 119.264C264.422 119.264 265.198 119.512 265.838 120.008C266.502 120.512 266.89 121.184 267.002 122.024H266.294C266.19 121.36 265.866 120.844 265.322 120.476C264.81 120.116 264.202 119.936 263.498 119.936C262.45 119.936 261.626 120.308 261.026 121.052C260.466 121.74 260.186 122.64 260.186 123.752C260.186 124.864 260.462 125.756 261.014 126.428C261.59 127.14 262.394 127.496 263.426 127.496C264.146 127.496 264.774 127.3 265.31 126.908C265.878 126.476 266.246 125.864 266.414 125.072H267.122C266.938 126.064 266.49 126.84 265.778 127.4C265.106 127.912 264.326 128.168 263.438 128.168C262.158 128.168 261.158 127.728 260.438 126.848C259.782 126.048 259.454 125.016 259.454 123.752C259.454 122.488 259.79 121.444 260.462 120.62C261.19 119.716 262.206 119.264 263.51 119.264ZM268.617 119.432H269.349V128H268.617V119.432ZM273.76 119.432H274.624L278.056 128H277.252L276.256 125.444H272.128L271.132 128H270.328L273.76 119.432ZM272.368 124.82H276.016L274.216 120.224H274.18L272.368 124.82ZM278.927 119.432H279.659V127.352H284.807V128H278.927V119.432ZM285.958 119.432H291.634V120.08H286.69V123.26H291.382V123.908H286.69V128H285.958V119.432ZM292.957 119.432H293.689V128H292.957V119.432Z" fill="white"/>
<path opacity="0.2" d="M225.484 134.82L220.207 131.784L225.484 128.748L230.756 131.784L225.484 134.82Z" fill="#020134"/>
<path d="M225.484 130.218L220.207 127.182V121.105L225.484 124.146V130.218Z" fill="url(#paint23_linear_6_1538)"/>
<path d="M230.757 127.182L225.484 130.218V124.146L230.757 121.105V127.182Z" fill="#7ABFFF"/>
<path d="M225.484 124.146L220.207 121.105L225.484 118.069L230.756 121.105L225.484 124.146Z" fill="#C2DAFF"/>
<path d="M225.484 124.146L220.207 121.105V121.368L225.484 124.409L230.756 121.368V121.105L225.484 124.146Z" fill="white"/>
<path d="M233.159 132.719L222.811 135.361L214.942 127.37L225.29 124.728L233.159 132.719Z" fill="url(#paint24_linear_6_1538)"/>
<path d="M225.29 124.727L214.942 127.369L217.969 116.498L228.317 113.856L225.29 124.727Z" fill="url(#paint25_linear_6_1538)"/>
<path d="M228.317 113.857L236.186 121.848L233.159 132.72L225.29 124.728L228.317 113.857Z" fill="url(#paint26_linear_6_1538)"/>
<g style="mix-blend-mode:screen">
<path d="M215.171 118.987C214.319 117.707 215.892 115.564 218.685 114.2C221.479 112.836 224.433 112.767 225.286 114.047C226.137 115.327 224.565 117.47 221.771 118.834C218.977 120.199 216.024 120.267 215.171 118.987Z" fill="url(#paint27_radial_6_1538)"/>
</g>
<path d="M220.869 156.264C221.925 156.264 222.769 156.532 223.401 157.068C223.985 157.572 224.357 158.284 224.517 159.204H223.773C223.637 158.5 223.333 157.952 222.861 157.56C222.365 157.144 221.701 156.936 220.869 156.936C219.869 156.936 219.073 157.296 218.481 158.016C217.905 158.712 217.617 159.628 217.617 160.764C217.617 161.876 217.905 162.764 218.481 163.428C219.097 164.148 219.977 164.508 221.121 164.508C221.617 164.508 222.105 164.436 222.585 164.292C223.073 164.14 223.461 163.964 223.749 163.764V161.328H220.821V160.68H224.481V164.112C224.065 164.44 223.573 164.696 223.005 164.88C222.381 165.072 221.733 165.168 221.061 165.168C219.717 165.168 218.669 164.732 217.917 163.86C217.229 163.068 216.885 162.036 216.885 160.764C216.885 159.492 217.225 158.444 217.905 157.62C218.633 156.716 219.621 156.264 220.869 156.264ZM228.719 156.432H229.583L233.015 165H232.211L231.215 162.444H227.087L226.091 165H225.287L228.719 156.432ZM227.327 161.82H230.975L229.175 157.224H229.139L227.327 161.82ZM233.886 156.432H234.858L238.218 164.076H238.254L241.59 156.432H242.562V165H241.83V157.644H241.794L238.578 165H237.87L234.666 157.644H234.618V165H233.886V156.432ZM244.315 156.432H250.327V157.08H245.047V160.236H250.039V160.896H245.047V164.352H250.531V165H244.315V156.432ZM251.921 156.432H257.597V157.08H252.653V160.26H257.345V160.908H252.653V165H251.921V156.432ZM258.92 156.432H259.652V165H258.92V156.432Z" fill="white"/>
<path opacity="0.2" d="M196.484 172.82L191.207 169.784L196.484 166.748L201.756 169.784L196.484 172.82Z" fill="#020134"/>
<path d="M196.484 168.218L191.207 165.182V159.105L196.484 162.146V168.218Z" fill="url(#paint28_linear_6_1538)"/>
<path d="M201.757 165.182L196.484 168.218V162.146L201.757 159.105V165.182Z" fill="#FFCA7A"/>
<path d="M196.484 162.146L191.207 159.105L196.484 156.069L201.756 159.105L196.484 162.146Z" fill="#FFDFC2"/>
<path d="M196.484 162.146L191.207 159.105V159.368L196.484 162.409L201.756 159.368V159.105L196.484 162.146Z" fill="white"/>
<path d="M204.159 170.719L193.811 173.361L185.942 165.37L196.29 162.728L204.159 170.719Z" fill="url(#paint29_linear_6_1538)"/>
<path d="M196.29 162.728L185.942 165.37L188.969 154.498L199.317 151.856L196.29 162.728Z" fill="url(#paint30_linear_6_1538)"/>
<path d="M199.317 151.857L207.186 159.848L204.159 170.719L196.29 162.728L199.317 151.857Z" fill="url(#paint31_linear_6_1538)"/>
<g style="mix-blend-mode:screen">
<path d="M186.171 156.987C185.319 155.707 186.892 153.564 189.686 152.2C192.479 150.836 195.433 150.767 196.286 152.047C197.138 153.327 195.565 155.47 192.771 156.834C189.978 158.199 187.024 158.267 186.171 156.987Z" fill="url(#paint32_radial_6_1538)"/>
</g>
<path d="M177.933 188.432H178.761L183.945 195.86H183.981V188.432H184.725V197H183.909L178.701 189.512H178.665V197H177.933V188.432ZM186.476 188.432H192.152V189.08H187.208V192.26H191.9V192.908H187.208V197H186.476V188.432ZM192.706 188.432H199.726V189.08H196.582V197H195.85V189.08H192.706V188.432ZM200.675 188.732H205.763C205.547 188.196 205.299 187.708 205.019 187.268L205.727 187.148C205.983 187.58 206.227 188.108 206.459 188.732H211.223V189.344H200.675V188.732ZM207.779 189.872C209.123 190.952 210.239 192.024 211.127 193.088L210.647 193.556C209.855 192.564 208.747 191.48 207.323 190.304L207.779 189.872ZM208.667 192.356C208.067 193.5 207.335 194.476 206.471 195.284C207.783 196.276 209.403 197.024 211.331 197.528L210.947 198.128C208.963 197.576 207.307 196.776 205.979 195.728C204.635 196.856 202.979 197.672 201.011 198.176L200.615 197.6C202.575 197.096 204.195 196.332 205.475 195.308C204.547 194.492 203.799 193.56 203.231 192.512L203.795 192.188C204.331 193.196 205.055 194.092 205.967 194.876C206.839 194.076 207.539 193.148 208.067 192.092L208.667 192.356ZM204.515 190.304C203.611 191.48 202.483 192.516 201.131 193.412L200.711 192.872C202.031 192.024 203.139 191.024 204.035 189.872L204.515 190.304ZM214.367 191.78V187.712H221.579V191.78H216.875C216.635 192.164 216.339 192.532 215.987 192.884H222.443C222.411 194.108 222.343 195.132 222.239 195.956C222.119 196.716 221.931 197.256 221.675 197.576C221.419 197.88 221.011 198.044 220.451 198.068H218.975L218.819 197.444C219.275 197.468 219.715 197.48 220.139 197.48C220.763 197.48 221.179 197.232 221.387 196.736C221.587 196.248 221.723 195.164 221.795 193.484H220.451C219.443 195.82 217.783 197.372 215.471 198.14L215.111 197.6C217.303 196.88 218.867 195.508 219.803 193.484H218.015C217.199 194.844 215.823 195.912 213.887 196.688L213.467 196.184C215.299 195.488 216.587 194.588 217.331 193.484H215.303C214.703 193.956 213.991 194.372 213.167 194.732L212.807 194.168C214.343 193.544 215.463 192.748 216.167 191.78H214.367ZM220.931 191.204V190.016H215.003V191.204H220.931ZM215.003 189.464H220.931V188.276H215.003V189.464ZM229.607 187.172H230.279V189.392H234.623V194.912H233.963V194.108H230.279V198.26H229.607V194.108H225.935V194.912H225.275V189.392H229.607V187.172ZM225.935 193.472H229.607V190.04H225.935V193.472ZM230.279 193.472H233.963V190.04H230.279V193.472ZM240.755 197.78C239.995 197.78 239.615 197.42 239.615 196.7V189.74H240.275V196.556C240.275 196.94 240.499 197.132 240.947 197.132H243.323C243.651 197.132 243.883 197.016 244.019 196.784C244.195 196.472 244.311 195.592 244.367 194.144L244.979 194.348C244.907 195.94 244.743 196.932 244.487 197.324C244.271 197.628 243.927 197.78 243.455 197.78H240.755ZM238.511 191.204C238.167 193.196 237.675 194.924 237.035 196.388L236.471 196.028C237.103 194.564 237.571 192.912 237.875 191.072L238.511 191.204ZM245.351 190.664C246.183 192.224 246.895 193.852 247.487 195.548L246.887 195.812C246.255 193.988 245.531 192.344 244.715 190.88L245.351 190.664ZM240.983 187.316C242.119 188.444 242.999 189.44 243.623 190.304L243.071 190.676C242.439 189.764 241.563 188.756 240.443 187.652L240.983 187.316Z" fill="white"/>
<path opacity="0.2" d="M155.484 200.82L150.207 197.784L155.484 194.748L160.757 197.784L155.484 200.82Z" fill="#020134"/>
<path d="M155.484 196.218L150.207 193.182V187.105L155.484 190.146V196.218Z" fill="url(#paint33_linear_6_1538)"/>
<path d="M160.757 193.182L155.484 196.218V190.146L160.757 187.105V193.182Z" fill="#B57AFF"/>
<path d="M155.484 190.146L150.207 187.105L155.484 184.069L160.757 187.105L155.484 190.146Z" fill="#E8C2FF"/>
<path d="M155.484 190.146L150.207 187.105V187.368L155.484 190.409L160.757 187.368V187.105L155.484 190.146Z" fill="white"/>
<path d="M163.16 198.719L152.811 201.361L144.943 193.37L155.29 190.728L163.16 198.719Z" fill="url(#paint34_linear_6_1538)"/>
<path d="M155.29 190.727L144.942 193.369L147.969 182.498L158.317 179.856L155.29 190.727Z" fill="url(#paint35_linear_6_1538)"/>
<path d="M158.317 179.857L166.186 187.848L163.159 198.719L155.29 190.728L158.317 179.857Z" fill="url(#paint36_linear_6_1538)"/>
<g style="mix-blend-mode:screen">
<path d="M145.171 184.987C144.319 183.707 145.892 181.564 148.686 180.2C151.479 178.836 154.433 178.767 155.286 180.047C156.138 181.327 154.565 183.47 151.771 184.834C148.978 186.199 146.024 186.267 145.171 184.987Z" fill="url(#paint37_radial_6_1538)"/>
</g>
<defs>
<filter id="filter0_ii_6_1538" x="-36.2247" y="3.28025" width="316.494" height="200.492" filterUnits="userSpaceOnUse" color-interpolation-filters="sRGB">
<feFlood flood-opacity="0" result="BackgroundImageFix"/>
<feBlend mode="normal" in="SourceGraphic" in2="BackgroundImageFix" result="shape"/>
<feColorMatrix in="SourceAlpha" type="matrix" values="0 0 0 0 0 0 0 0 0 0 0 0 0 0 0 0 0 0 127 0" result="hardAlpha"/>
<feOffset dx="-51.2247" dy="12.7718"/>
<feGaussianBlur stdDeviation="26.3964"/>
<feComposite in2="hardAlpha" operator="arithmetic" k2="-1" k3="1"/>
<feColorMatrix type="matrix" values="0 0 0 0 0.943875 0 0 0 0 0.943875 0 0 0 0 0.943875 0 0 0 1 0"/>
<feBlend mode="normal" in2="shape" result="effect1_innerShadow_6_1538"/>
<feColorMatrix in="SourceAlpha" type="matrix" values="0 0 0 0 0 0 0 0 0 0 0 0 0 0 0 0 0 0 127 0" result="hardAlpha"/>
<feOffset dx="51.2247" dy="-12.7718"/>
<feGaussianBlur stdDeviation="26.3964"/>
<feComposite in2="hardAlpha" operator="arithmetic" k2="-1" k3="1"/>
<feColorMatrix type="matrix" values="0 0 0 0 0.549569 0 0 0 0 0.549569 0 0 0 0 0.549569 0 0 0 1 0"/>
<feBlend mode="normal" in2="effect1_innerShadow_6_1538" result="effect2_innerShadow_6_1538"/>
</filter>
<filter id="filter1_ii_6_1538" x="3.95009" y="36.1165" width="236.145" height="134.819" filterUnits="userSpaceOnUse" color-interpolation-filters="sRGB">
<feFlood flood-opacity="0" result="BackgroundImageFix"/>
<feBlend mode="normal" in="SourceGraphic" in2="BackgroundImageFix" result="shape"/>
<feColorMatrix in="SourceAlpha" type="matrix" values="0 0 0 0 0 0 0 0 0 0 0 0 0 0 0 0 0 0 127 0" result="hardAlpha"/>
<feOffset dx="-51.2247" dy="12.7718"/>
<feGaussianBlur stdDeviation="26.3964"/>
<feComposite in2="hardAlpha" operator="arithmetic" k2="-1" k3="1"/>
<feColorMatrix type="matrix" values="0 0 0 0 0.943875 0 0 0 0 0.943875 0 0 0 0 0.943875 0 0 0 1 0"/>
<feBlend mode="normal" in2="shape" result="effect1_innerShadow_6_1538"/>
<feColorMatrix in="SourceAlpha" type="matrix" values="0 0 0 0 0 0 0 0 0 0 0 0 0 0 0 0 0 0 127 0" result="hardAlpha"/>
<feOffset dx="51.2247" dy="-12.7718"/>
<feGaussianBlur stdDeviation="26.3964"/>
<feComposite in2="hardAlpha" operator="arithmetic" k2="-1" k3="1"/>
<feColorMatrix type="matrix" values="0 0 0 0 0.549569 0 0 0 0 0.549569 0 0 0 0 0.549569 0 0 0 1 0"/>
<feBlend mode="normal" in2="effect1_innerShadow_6_1538" result="effect2_innerShadow_6_1538"/>
</filter>
<filter id="filter2_ii_6_1538" x="32.9284" y="59.8018" width="178.188" height="87.4482" filterUnits="userSpaceOnUse" color-interpolation-filters="sRGB">
<feFlood flood-opacity="0" result="BackgroundImageFix"/>
<feBlend mode="normal" in="SourceGraphic" in2="BackgroundImageFix" result="shape"/>
<feColorMatrix in="SourceAlpha" type="matrix" values="0 0 0 0 0 0 0 0 0 0 0 0 0 0 0 0 0 0 127 0" result="hardAlpha"/>
<feOffset dx="-51.2247" dy="12.7718"/>
<feGaussianBlur stdDeviation="26.3964"/>
<feComposite in2="hardAlpha" operator="arithmetic" k2="-1" k3="1"/>
<feColorMatrix type="matrix" values="0 0 0 0 0.943875 0 0 0 0 0.943875 0 0 0 0 0.943875 0 0 0 1 0"/>
<feBlend mode="normal" in2="shape" result="effect1_innerShadow_6_1538"/>
<feColorMatrix in="SourceAlpha" type="matrix" values="0 0 0 0 0 0 0 0 0 0 0 0 0 0 0 0 0 0 127 0" result="hardAlpha"/>
<feOffset dx="51.2247" dy="-12.7718"/>
<feGaussianBlur stdDeviation="26.3964"/>
<feComposite in2="hardAlpha" operator="arithmetic" k2="-1" k3="1"/>
<feColorMatrix type="matrix" values="0 0 0 0 0.549569 0 0 0 0 0.549569 0 0 0 0 0.549569 0 0 0 1 0"/>
<feBlend mode="normal" in2="effect1_innerShadow_6_1538" result="effect2_innerShadow_6_1538"/>
</filter>
<linearGradient id="paint0_linear_6_1538" x1="242.409" y1="59.8611" x2="40.5911" y2="121.425" gradientUnits="userSpaceOnUse">
<stop stop-color="#979797"/>
<stop offset="1" stop-color="#E6E6E6"/>
</linearGradient>
<linearGradient id="paint1_linear_6_1538" x1="197.218" y1="76.2521" x2="71.1594" y2="114.706" gradientUnits="userSpaceOnUse">
<stop stop-color="#979797"/>
<stop offset="1" stop-color="#E6E6E6"/>
</linearGradient>
<linearGradient id="paint2_linear_6_1538" x1="164.621" y1="88.0752" x2="93.2084" y2="109.859" gradientUnits="userSpaceOnUse">
<stop stop-color="#979797"/>
<stop offset="1" stop-color="#E6E6E6"/>
</linearGradient>
<linearGradient id="paint3_linear_6_1538" x1="128.39" y1="91.9685" x2="128.39" y2="117.224" gradientUnits="userSpaceOnUse">
<stop stop-color="#E606B4"/>
<stop offset="0.296296" stop-color="#F7773D" stop-opacity="0.97"/>
<stop offset="0.414141" stop-color="#E26E7B" stop-opacity="0.659487"/>
<stop offset="0.707071" stop-color="#967FD7" stop-opacity="0.22"/>
</linearGradient>
<linearGradient id="paint4_linear_6_1538" x1="133.475" y1="129.128" x2="106.202" y2="99.231" gradientUnits="userSpaceOnUse">
<stop offset="0.142045" stop-color="#575AFF" stop-opacity="0.13"/>
<stop offset="0.535729" stop-color="#C82B76" stop-opacity="0.3099"/>
<stop offset="0.941381" stop-color="white" stop-opacity="0.8199"/>
</linearGradient>
<linearGradient id="paint5_linear_6_1538" x1="123.388" y1="104.492" x2="104.795" y2="85.1039" gradientUnits="userSpaceOnUse">
<stop offset="0.142045" stop-color="#575AFF" stop-opacity="0.13"/>
<stop offset="0.535729" stop-color="#C82B76" stop-opacity="0.3099"/>
<stop offset="0.941381" stop-color="white" stop-opacity="0.8199"/>
</linearGradient>
<linearGradient id="paint6_linear_6_1538" x1="147.915" y1="114.997" x2="120.156" y2="84.6532" gradientUnits="userSpaceOnUse">
<stop offset="0.142045" stop-color="#575AFF" stop-opacity="0.13"/>
<stop offset="0.535729" stop-color="#C82B76" stop-opacity="0.3099"/>
<stop offset="0.941381" stop-color="white" stop-opacity="0.8199"/>
</linearGradient>
<radialGradient id="paint7_radial_6_1538" cx="0" cy="0" r="1" gradientUnits="userSpaceOnUse" gradientTransform="translate(111.609 85.8645) rotate(153.935) scale(11.9729 5.87111)">
<stop offset="0.1273" stop-color="#D065D6"/>
<stop offset="0.4214" stop-color="#803E84" stop-opacity="0.663"/>
<stop offset="0.7002" stop-color="#3B1D3D" stop-opacity="0.3435"/>
<stop offset="0.8994" stop-color="#100811" stop-opacity="0.1153"/>
<stop offset="1" stop-opacity="0"/>
</radialGradient>
<linearGradient id="paint8_linear_6_1538" x1="143.629" y1="21.218" x2="150.41" y2="20.245" gradientUnits="userSpaceOnUse">
<stop offset="0.0833571" stop-color="#F02148"/>
<stop offset="1" stop-color="#FF5B21"/>
</linearGradient>
<linearGradient id="paint9_linear_6_1538" x1="153.51" y1="27.8524" x2="140.691" y2="13.7997" gradientUnits="userSpaceOnUse">
<stop offset="0.142045" stop-color="#575AFF" stop-opacity="0.13"/>
<stop offset="0.535729" stop-color="#C82B76" stop-opacity="0.3099"/>
<stop offset="0.941381" stop-color="white" stop-opacity="0.8199"/>
</linearGradient>
<linearGradient id="paint10_linear_6_1538" x1="148.769" y1="16.2726" x2="140.03" y2="7.15931" gradientUnits="userSpaceOnUse">
<stop offset="0.142045" stop-color="#575AFF" stop-opacity="0.13"/>
<stop offset="0.535729" stop-color="#C82B76" stop-opacity="0.3099"/>
<stop offset="0.941381" stop-color="white" stop-opacity="0.8199"/>
</linearGradient>
<linearGradient id="paint11_linear_6_1538" x1="160.298" y1="21.2105" x2="147.25" y2="6.94747" gradientUnits="userSpaceOnUse">
<stop offset="0.142045" stop-color="#575AFF" stop-opacity="0.13"/>
<stop offset="0.535729" stop-color="#C82B76" stop-opacity="0.3099"/>
<stop offset="0.941381" stop-color="white" stop-opacity="0.8199"/>
</linearGradient>
<radialGradient id="paint12_radial_6_1538" cx="0" cy="0" r="1" gradientUnits="userSpaceOnUse" gradientTransform="translate(143.233 7.51694) rotate(153.935) scale(5.62779 2.75968)">
<stop offset="0.1273" stop-color="#D065D6"/>
<stop offset="0.4214" stop-color="#803E84" stop-opacity="0.663"/>
<stop offset="0.7002" stop-color="#3B1D3D" stop-opacity="0.3435"/>
<stop offset="0.8994" stop-color="#100811" stop-opacity="0.1153"/>
<stop offset="1" stop-opacity="0"/>
</radialGradient>
<linearGradient id="paint13_linear_6_1538" x1="186.989" y1="47.3412" x2="193.769" y2="46.3682" gradientUnits="userSpaceOnUse">
<stop offset="0.0833571" stop-color="#FFD600"/>
<stop offset="1" stop-color="#FFC121"/>
</linearGradient>
<linearGradient id="paint14_linear_6_1538" x1="196.87" y1="53.9756" x2="184.051" y2="39.9228" gradientUnits="userSpaceOnUse">
<stop offset="0.142045" stop-color="#575AFF" stop-opacity="0.13"/>
<stop offset="0.535729" stop-color="#C82B76" stop-opacity="0.3099"/>
<stop offset="0.941381" stop-color="white" stop-opacity="0.8199"/>
</linearGradient>
<linearGradient id="paint15_linear_6_1538" x1="192.129" y1="42.3957" x2="183.39" y2="33.2824" gradientUnits="userSpaceOnUse">
<stop offset="0.142045" stop-color="#575AFF" stop-opacity="0.13"/>
<stop offset="0.535729" stop-color="#C82B76" stop-opacity="0.3099"/>
<stop offset="0.941381" stop-color="white" stop-opacity="0.8199"/>
</linearGradient>
<linearGradient id="paint16_linear_6_1538" x1="203.658" y1="47.3337" x2="190.61" y2="33.0706" gradientUnits="userSpaceOnUse">
<stop offset="0.142045" stop-color="#575AFF" stop-opacity="0.13"/>
<stop offset="0.535729" stop-color="#C82B76" stop-opacity="0.3099"/>
<stop offset="0.941381" stop-color="white" stop-opacity="0.8199"/>
</linearGradient>
<radialGradient id="paint17_radial_6_1538" cx="0" cy="0" r="1" gradientUnits="userSpaceOnUse" gradientTransform="translate(186.593 33.6402) rotate(153.935) scale(5.62779 2.75968)">
<stop offset="0.1273" stop-color="#D065D6"/>
<stop offset="0.4214" stop-color="#803E84" stop-opacity="0.663"/>
<stop offset="0.7002" stop-color="#3B1D3D" stop-opacity="0.3435"/>
<stop offset="0.8994" stop-color="#100811" stop-opacity="0.1153"/>
<stop offset="1" stop-opacity="0"/>
</radialGradient>
<linearGradient id="paint18_linear_6_1538" x1="216.629" y1="84.2181" x2="223.409" y2="83.2451" gradientUnits="userSpaceOnUse">
<stop offset="0.0833571" stop-color="#21E4F0"/>
<stop offset="1" stop-color="#21FF6C"/>
</linearGradient>
<linearGradient id="paint19_linear_6_1538" x1="226.511" y1="90.8525" x2="213.691" y2="76.7997" gradientUnits="userSpaceOnUse">
<stop offset="0.142045" stop-color="#575AFF" stop-opacity="0.13"/>
<stop offset="0.535729" stop-color="#C82B76" stop-opacity="0.3099"/>
<stop offset="0.941381" stop-color="white" stop-opacity="0.8199"/>
</linearGradient>
<linearGradient id="paint20_linear_6_1538" x1="221.769" y1="79.2726" x2="213.03" y2="70.1594" gradientUnits="userSpaceOnUse">
<stop offset="0.142045" stop-color="#575AFF" stop-opacity="0.13"/>
<stop offset="0.535729" stop-color="#C82B76" stop-opacity="0.3099"/>
<stop offset="0.941381" stop-color="white" stop-opacity="0.8199"/>
</linearGradient>
<linearGradient id="paint21_linear_6_1538" x1="233.298" y1="84.2107" x2="220.25" y2="69.9477" gradientUnits="userSpaceOnUse">
<stop offset="0.142045" stop-color="#575AFF" stop-opacity="0.13"/>
<stop offset="0.535729" stop-color="#C82B76" stop-opacity="0.3099"/>
<stop offset="0.941381" stop-color="white" stop-opacity="0.8199"/>
</linearGradient>
<radialGradient id="paint22_radial_6_1538" cx="0" cy="0" r="1" gradientUnits="userSpaceOnUse" gradientTransform="translate(216.233 70.5168) rotate(153.935) scale(5.62779 2.75968)">
<stop offset="0.1273" stop-color="#D065D6"/>
<stop offset="0.4214" stop-color="#803E84" stop-opacity="0.663"/>
<stop offset="0.7002" stop-color="#3B1D3D" stop-opacity="0.3435"/>
<stop offset="0.8994" stop-color="#100811" stop-opacity="0.1153"/>
<stop offset="1" stop-opacity="0"/>
</radialGradient>
<linearGradient id="paint23_linear_6_1538" x1="220.629" y1="130.218" x2="227.409" y2="129.245" gradientUnits="userSpaceOnUse">
<stop offset="0.0833571" stop-color="#2180F0"/>
<stop offset="1" stop-color="#2194FF"/>
</linearGradient>
<linearGradient id="paint24_linear_6_1538" x1="230.511" y1="136.853" x2="217.691" y2="122.8" gradientUnits="userSpaceOnUse">
<stop offset="0.142045" stop-color="#575AFF" stop-opacity="0.13"/>
<stop offset="0.535729" stop-color="#C82B76" stop-opacity="0.3099"/>
<stop offset="0.941381" stop-color="white" stop-opacity="0.8199"/>
</linearGradient>
<linearGradient id="paint25_linear_6_1538" x1="225.77" y1="125.272" x2="217.03" y2="116.159" gradientUnits="userSpaceOnUse">
<stop offset="0.142045" stop-color="#575AFF" stop-opacity="0.13"/>
<stop offset="0.535729" stop-color="#C82B76" stop-opacity="0.3099"/>
<stop offset="0.941381" stop-color="white" stop-opacity="0.8199"/>
</linearGradient>
<linearGradient id="paint26_linear_6_1538" x1="237.298" y1="130.211" x2="224.25" y2="115.948" gradientUnits="userSpaceOnUse">
<stop offset="0.142045" stop-color="#575AFF" stop-opacity="0.13"/>
<stop offset="0.535729" stop-color="#C82B76" stop-opacity="0.3099"/>
<stop offset="0.941381" stop-color="white" stop-opacity="0.8199"/>
</linearGradient>
<radialGradient id="paint27_radial_6_1538" cx="0" cy="0" r="1" gradientUnits="userSpaceOnUse" gradientTransform="translate(220.233 116.517) rotate(153.935) scale(5.62779 2.75968)">
<stop offset="0.1273" stop-color="#D065D6"/>
<stop offset="0.4214" stop-color="#803E84" stop-opacity="0.663"/>
<stop offset="0.7002" stop-color="#3B1D3D" stop-opacity="0.3435"/>
<stop offset="0.8994" stop-color="#100811" stop-opacity="0.1153"/>
<stop offset="1" stop-opacity="0"/>
</radialGradient>
<linearGradient id="paint28_linear_6_1538" x1="191.629" y1="168.218" x2="198.409" y2="167.245" gradientUnits="userSpaceOnUse">
<stop offset="0.0104167" stop-color="#F05321"/>
<stop offset="1" stop-color="#FF8C21"/>
</linearGradient>
<linearGradient id="paint29_linear_6_1538" x1="201.511" y1="174.853" x2="188.691" y2="160.8" gradientUnits="userSpaceOnUse">
<stop offset="0.142045" stop-color="#575AFF" stop-opacity="0.13"/>
<stop offset="0.535729" stop-color="#C82B76" stop-opacity="0.3099"/>
<stop offset="0.941381" stop-color="white" stop-opacity="0.8199"/>
</linearGradient>
<linearGradient id="paint30_linear_6_1538" x1="196.769" y1="163.273" x2="188.03" y2="154.159" gradientUnits="userSpaceOnUse">
<stop offset="0.142045" stop-color="#575AFF" stop-opacity="0.13"/>
<stop offset="0.535729" stop-color="#C82B76" stop-opacity="0.3099"/>
<stop offset="0.941381" stop-color="white" stop-opacity="0.8199"/>
</linearGradient>
<linearGradient id="paint31_linear_6_1538" x1="208.298" y1="168.211" x2="195.25" y2="153.948" gradientUnits="userSpaceOnUse">
<stop offset="0.142045" stop-color="#575AFF" stop-opacity="0.13"/>
<stop offset="0.535729" stop-color="#C82B76" stop-opacity="0.3099"/>
<stop offset="0.941381" stop-color="white" stop-opacity="0.8199"/>
</linearGradient>
<radialGradient id="paint32_radial_6_1538" cx="0" cy="0" r="1" gradientUnits="userSpaceOnUse" gradientTransform="translate(191.233 154.517) rotate(153.935) scale(5.62779 2.75968)">
<stop offset="0.1273" stop-color="#D065D6"/>
<stop offset="0.4214" stop-color="#803E84" stop-opacity="0.663"/>
<stop offset="0.7002" stop-color="#3B1D3D" stop-opacity="0.3435"/>
<stop offset="0.8994" stop-color="#100811" stop-opacity="0.1153"/>
<stop offset="1" stop-opacity="0"/>
</radialGradient>
<linearGradient id="paint33_linear_6_1538" x1="150.044" y1="199.317" x2="156.129" y2="198.273" gradientUnits="userSpaceOnUse">
<stop stop-color="#DE5DFE"/>
<stop offset="1" stop-color="#AB21FF"/>
</linearGradient>
<linearGradient id="paint34_linear_6_1538" x1="160.511" y1="202.852" x2="147.691" y2="188.8" gradientUnits="userSpaceOnUse">
<stop offset="0.142045" stop-color="#575AFF" stop-opacity="0.13"/>
<stop offset="0.535729" stop-color="#C82B76" stop-opacity="0.3099"/>
<stop offset="0.941381" stop-color="white" stop-opacity="0.8199"/>
</linearGradient>
<linearGradient id="paint35_linear_6_1538" x1="155.77" y1="191.272" x2="147.03" y2="182.159" gradientUnits="userSpaceOnUse">
<stop offset="0.142045" stop-color="#575AFF" stop-opacity="0.13"/>
<stop offset="0.535729" stop-color="#C82B76" stop-opacity="0.3099"/>
<stop offset="0.941381" stop-color="white" stop-opacity="0.8199"/>
</linearGradient>
<linearGradient id="paint36_linear_6_1538" x1="167.298" y1="196.211" x2="154.25" y2="181.948" gradientUnits="userSpaceOnUse">
<stop offset="0.142045" stop-color="#575AFF" stop-opacity="0.13"/>
<stop offset="0.535729" stop-color="#C82B76" stop-opacity="0.3099"/>
<stop offset="0.941381" stop-color="white" stop-opacity="0.8199"/>
</linearGradient>
<radialGradient id="paint37_radial_6_1538" cx="0" cy="0" r="1" gradientUnits="userSpaceOnUse" gradientTransform="translate(150.233 182.517) rotate(153.935) scale(5.62779 2.75968)">
<stop offset="0.1273" stop-color="#D065D6"/>
<stop offset="0.4214" stop-color="#803E84" stop-opacity="0.663"/>
<stop offset="0.7002" stop-color="#3B1D3D" stop-opacity="0.3435"/>
<stop offset="0.8994" stop-color="#100811" stop-opacity="0.1153"/>
<stop offset="1" stop-opacity="0"/>
</radialGradient>
</defs>
</svg>
