<svg width="24" height="24" viewBox="0 0 24 24" fill="none" xmlns="http://www.w3.org/2000/svg">
<path d="M12.2667 10.2427C11.1447 10.2427 10.2354 11.152 10.2354 12.274C10.2354 13.396 11.1447 14.3053 12.2667 14.3053C13.3887 14.3053 14.298 13.396 14.298 12.274C14.298 11.1447 13.3887 10.2427 12.2667 10.2427Z" fill="white" fill-opacity="0.5"/>
<path d="M14.7014 7.3167C14.7014 7.3167 13.33 7.28003 12.2667 7.28003C11.2034 7.28003 9.87603 7.3167 9.87603 7.3167C8.32136 7.3167 7.3167 8.27736 7.3167 9.83936C7.3167 9.83936 7.28003 11.1374 7.28003 12.1714C7.28003 13.2714 7.3167 14.672 7.3167 14.672C7.3167 16.2267 8.32136 17.2314 9.87603 17.2314C9.87603 17.2314 11.13 17.268 12.164 17.268C13.264 17.268 14.7014 17.2314 14.7014 17.2314C16.256 17.2314 17.224 16.2707 17.224 14.7087C17.224 14.7087 17.2607 13.3154 17.2607 12.2374C17.2607 11.1814 17.224 9.83936 17.224 9.83936C17.224 8.27736 16.256 7.3167 14.7014 7.3167ZM12.2667 15.3834C10.5434 15.3834 9.15003 13.99 9.15003 12.2667C9.15003 10.5434 10.5434 9.15003 12.2667 9.15003C13.99 9.15003 15.3834 10.5434 15.3834 12.2667C15.3834 13.99 13.99 15.3834 12.2667 15.3834ZM15.53 9.8027C15.112 9.8027 14.7747 9.46536 14.7747 9.04736C14.7747 8.62936 15.112 8.29203 15.53 8.29203C15.948 8.29203 16.2854 8.62936 16.2854 9.04736C16.2854 9.45803 15.948 9.8027 15.53 9.8027Z" fill="white" fill-opacity="0.5"/>
<path d="M12.2668 0.533447C5.78411 0.533447 0.533447 5.78411 0.533447 12.2668C0.533447 18.7494 5.78411 24.0001 12.2668 24.0001C18.7494 24.0001 24.0001 18.7494 24.0001 12.2668C24.0001 5.78411 18.7494 0.533447 12.2668 0.533447ZM18.3095 14.9141C18.3095 16.8134 16.8134 18.3094 14.9141 18.3094C14.9141 18.3094 13.4841 18.3534 12.1421 18.3534C10.8881 18.3534 9.67078 18.3094 9.67078 18.3094C7.77145 18.3094 6.23145 16.7694 6.23145 14.8701C6.23145 14.8701 6.18745 13.4841 6.18745 12.1421C6.18745 10.8881 6.23145 9.67078 6.23145 9.67078C6.23145 7.77145 7.77145 6.23145 9.67078 6.23145C9.67078 6.23145 10.9688 6.18745 12.2741 6.18745C13.5794 6.18745 14.9214 6.23145 14.9214 6.23145C16.8208 6.23145 18.3168 7.72745 18.3168 9.62678C18.3168 9.62678 18.3608 10.9394 18.3608 12.2301C18.3535 13.5428 18.3095 14.9141 18.3095 14.9141Z" fill="white" fill-opacity="0.5"/>
</svg>
