<svg width="22" height="22" viewBox="0 0 22 22" fill="none" xmlns="http://www.w3.org/2000/svg">
<mask id="path-1-inside-1_6_1653" fill="white">
<path d="M10.4107 8.64286C8.99643 8.64286 7.85714 7.50357 7.85714 6.08929C7.85714 4.675 8.99643 3.53571 10.4107 3.53571C11.825 3.53571 12.9643 4.675 12.9643 6.08929C12.9643 7.50357 11.825 8.64286 10.4107 8.64286ZM10.4107 5.10714C9.86071 5.10714 9.42857 5.53929 9.42857 6.08929C9.42857 6.63929 9.86071 7.07143 10.4107 7.07143C10.9607 7.07143 11.3929 6.63929 11.3929 6.08929C11.3929 5.53929 10.9607 5.10714 10.4107 5.10714ZM6.08929 14.1429C4.675 14.1429 3.53571 13.0036 3.53571 11.5893C3.53571 10.175 4.675 9.03571 6.08929 9.03571C7.50357 9.03571 8.64286 10.175 8.64286 11.5893C8.64286 13.0036 7.50357 14.1429 6.08929 14.1429ZM6.08929 10.6071C5.53929 10.6071 5.10714 11.0393 5.10714 11.5893C5.10714 12.1393 5.53929 12.5714 6.08929 12.5714C6.63929 12.5714 7.07143 12.1393 7.07143 11.5893C7.07143 11.0393 6.63929 10.6071 6.08929 10.6071ZM11.5893 18.4643C10.175 18.4643 9.03571 17.325 9.03571 15.9107C9.03571 14.4964 10.175 13.3571 11.5893 13.3571C13.0036 13.3571 14.1429 14.4964 14.1429 15.9107C14.1429 17.325 13.0036 18.4643 11.5893 18.4643ZM11.5893 14.9286C11.0393 14.9286 10.6071 15.3607 10.6071 15.9107C10.6071 16.4607 11.0393 16.8929 11.5893 16.8929C12.1393 16.8929 12.5714 16.4607 12.5714 15.9107C12.5714 15.3607 12.1393 14.9286 11.5893 14.9286ZM15.9107 12.9643C14.4964 12.9643 13.3571 11.825 13.3571 10.4107C13.3571 8.99643 14.4964 7.85714 15.9107 7.85714C17.325 7.85714 18.4643 8.99643 18.4643 10.4107C18.4643 11.825 17.325 12.9643 15.9107 12.9643ZM15.9107 9.42857C15.3607 9.42857 14.9286 9.86071 14.9286 10.4107C14.9286 10.9607 15.3607 11.3929 15.9107 11.3929C16.4607 11.3929 16.8929 10.9607 16.8929 10.4107C16.8929 9.86071 16.4607 9.42857 15.9107 9.42857ZM21.2143 22H11C4.95 22 0 17.05 0 11C0 4.95 4.95 0 11 0C17.05 0 22 4.95 22 11C22 13.9857 20.8214 16.775 18.7 18.8571C18.3857 19.1714 17.875 19.1714 17.6 18.8571C17.2857 18.5429 17.2857 18.0321 17.6 17.7571C19.4071 15.95 20.4286 13.5536 20.4286 11C20.4286 5.81429 16.1857 1.57143 11 1.57143C5.81429 1.57143 1.57143 5.81429 1.57143 11C1.57143 16.1857 5.81429 20.4286 11 20.4286H21.2143C21.6464 20.4286 22 20.7821 22 21.2143C22 21.6464 21.6464 22 21.2143 22Z"/>
</mask>
<path d="M10.4107 8.64286C8.99643 8.64286 7.85714 7.50357 7.85714 6.08929C7.85714 4.675 8.99643 3.53571 10.4107 3.53571C11.825 3.53571 12.9643 4.675 12.9643 6.08929C12.9643 7.50357 11.825 8.64286 10.4107 8.64286ZM10.4107 5.10714C9.86071 5.10714 9.42857 5.53929 9.42857 6.08929C9.42857 6.63929 9.86071 7.07143 10.4107 7.07143C10.9607 7.07143 11.3929 6.63929 11.3929 6.08929C11.3929 5.53929 10.9607 5.10714 10.4107 5.10714ZM6.08929 14.1429C4.675 14.1429 3.53571 13.0036 3.53571 11.5893C3.53571 10.175 4.675 9.03571 6.08929 9.03571C7.50357 9.03571 8.64286 10.175 8.64286 11.5893C8.64286 13.0036 7.50357 14.1429 6.08929 14.1429ZM6.08929 10.6071C5.53929 10.6071 5.10714 11.0393 5.10714 11.5893C5.10714 12.1393 5.53929 12.5714 6.08929 12.5714C6.63929 12.5714 7.07143 12.1393 7.07143 11.5893C7.07143 11.0393 6.63929 10.6071 6.08929 10.6071ZM11.5893 18.4643C10.175 18.4643 9.03571 17.325 9.03571 15.9107C9.03571 14.4964 10.175 13.3571 11.5893 13.3571C13.0036 13.3571 14.1429 14.4964 14.1429 15.9107C14.1429 17.325 13.0036 18.4643 11.5893 18.4643ZM11.5893 14.9286C11.0393 14.9286 10.6071 15.3607 10.6071 15.9107C10.6071 16.4607 11.0393 16.8929 11.5893 16.8929C12.1393 16.8929 12.5714 16.4607 12.5714 15.9107C12.5714 15.3607 12.1393 14.9286 11.5893 14.9286ZM15.9107 12.9643C14.4964 12.9643 13.3571 11.825 13.3571 10.4107C13.3571 8.99643 14.4964 7.85714 15.9107 7.85714C17.325 7.85714 18.4643 8.99643 18.4643 10.4107C18.4643 11.825 17.325 12.9643 15.9107 12.9643ZM15.9107 9.42857C15.3607 9.42857 14.9286 9.86071 14.9286 10.4107C14.9286 10.9607 15.3607 11.3929 15.9107 11.3929C16.4607 11.3929 16.8929 10.9607 16.8929 10.4107C16.8929 9.86071 16.4607 9.42857 15.9107 9.42857ZM21.2143 22H11C4.95 22 0 17.05 0 11C0 4.95 4.95 0 11 0C17.05 0 22 4.95 22 11C22 13.9857 20.8214 16.775 18.7 18.8571C18.3857 19.1714 17.875 19.1714 17.6 18.8571C17.2857 18.5429 17.2857 18.0321 17.6 17.7571C19.4071 15.95 20.4286 13.5536 20.4286 11C20.4286 5.81429 16.1857 1.57143 11 1.57143C5.81429 1.57143 1.57143 5.81429 1.57143 11C1.57143 16.1857 5.81429 20.4286 11 20.4286H21.2143C21.6464 20.4286 22 20.7821 22 21.2143C22 21.6464 21.6464 22 21.2143 22Z" fill="white"/>
<path d="M18.7 18.8571L17.2991 17.4298L17.2924 17.4363L17.2858 17.4429L18.7 18.8571ZM17.6 18.8571L19.1052 17.5401L19.0613 17.49L19.0142 17.4429L17.6 18.8571ZM17.6 17.7571L18.917 19.2623L18.9671 19.2184L19.0142 19.1714L17.6 17.7571ZM10.4107 6.64286C10.101 6.64286 9.85714 6.399 9.85714 6.08929H5.85714C5.85714 8.60814 7.89186 10.6429 10.4107 10.6429V6.64286ZM9.85714 6.08929C9.85714 5.77957 10.101 5.53571 10.4107 5.53571V1.53571C7.89186 1.53571 5.85714 3.57043 5.85714 6.08929H9.85714ZM10.4107 5.53571C10.7204 5.53571 10.9643 5.77957 10.9643 6.08929H14.9643C14.9643 3.57043 12.9296 1.53571 10.4107 1.53571V5.53571ZM10.9643 6.08929C10.9643 6.399 10.7204 6.64286 10.4107 6.64286V10.6429C12.9296 10.6429 14.9643 8.60814 14.9643 6.08929H10.9643ZM10.4107 3.10714C8.75615 3.10714 7.42857 4.43471 7.42857 6.08929H11.4286C11.4286 6.64386 10.9653 7.10714 10.4107 7.10714V3.10714ZM7.42857 6.08929C7.42857 7.74386 8.75615 9.07143 10.4107 9.07143V5.07143C10.9653 5.07143 11.4286 5.53471 11.4286 6.08929H7.42857ZM10.4107 9.07143C12.0653 9.07143 13.3929 7.74385 13.3929 6.08929H9.39286C9.39286 5.53472 9.85614 5.07143 10.4107 5.07143V9.07143ZM13.3929 6.08929C13.3929 4.43472 12.0653 3.10714 10.4107 3.10714V7.10714C9.85615 7.10714 9.39286 6.64386 9.39286 6.08929H13.3929ZM6.08929 12.1429C5.77957 12.1429 5.53571 11.899 5.53571 11.5893H1.53571C1.53571 14.1081 3.57043 16.1429 6.08929 16.1429V12.1429ZM5.53571 11.5893C5.53571 11.2796 5.77957 11.0357 6.08929 11.0357V7.03571C3.57043 7.03571 1.53571 9.07043 1.53571 11.5893H5.53571ZM6.08929 11.0357C6.399 11.0357 6.64286 11.2796 6.64286 11.5893H10.6429C10.6429 9.07043 8.60814 7.03571 6.08929 7.03571V11.0357ZM6.64286 11.5893C6.64286 11.899 6.399 12.1429 6.08929 12.1429V16.1429C8.60814 16.1429 10.6429 14.1081 10.6429 11.5893H6.64286ZM6.08929 8.60714C4.43472 8.60714 3.10714 9.93472 3.10714 11.5893H7.10714C7.10714 12.1439 6.64386 12.6071 6.08929 12.6071V8.60714ZM3.10714 11.5893C3.10714 13.2439 4.43471 14.5714 6.08929 14.5714V10.5714C6.64386 10.5714 7.10714 11.0347 7.10714 11.5893H3.10714ZM6.08929 14.5714C7.74386 14.5714 9.07143 13.2439 9.07143 11.5893H5.07143C5.07143 11.0347 5.53471 10.5714 6.08929 10.5714V14.5714ZM9.07143 11.5893C9.07143 9.93472 7.74385 8.60714 6.08929 8.60714V12.6071C5.53472 12.6071 5.07143 12.1439 5.07143 11.5893H9.07143ZM11.5893 16.4643C11.2796 16.4643 11.0357 16.2204 11.0357 15.9107H7.03571C7.03571 18.4296 9.07043 20.4643 11.5893 20.4643V16.4643ZM11.0357 15.9107C11.0357 15.601 11.2796 15.3571 11.5893 15.3571V11.3571C9.07043 11.3571 7.03571 13.3919 7.03571 15.9107H11.0357ZM11.5893 15.3571C11.899 15.3571 12.1429 15.601 12.1429 15.9107H16.1429C16.1429 13.3919 14.1081 11.3571 11.5893 11.3571V15.3571ZM12.1429 15.9107C12.1429 16.2204 11.899 16.4643 11.5893 16.4643V20.4643C14.1081 20.4643 16.1429 18.4296 16.1429 15.9107H12.1429ZM11.5893 12.9286C9.93471 12.9286 8.60714 14.2561 8.60714 15.9107H12.6071C12.6071 16.4653 12.1439 16.9286 11.5893 16.9286V12.9286ZM8.60714 15.9107C8.60714 17.5653 9.93471 18.8929 11.5893 18.8929V14.8929C12.1439 14.8929 12.6071 15.3561 12.6071 15.9107H8.60714ZM11.5893 18.8929C13.2439 18.8929 14.5714 17.5653 14.5714 15.9107H10.5714C10.5714 15.3561 11.0347 14.8929 11.5893 14.8929V18.8929ZM14.5714 15.9107C14.5714 14.2561 13.2439 12.9286 11.5893 12.9286V16.9286C11.0347 16.9286 10.5714 16.4653 10.5714 15.9107H14.5714ZM15.9107 10.9643C15.601 10.9643 15.3571 10.7204 15.3571 10.4107H11.3571C11.3571 12.9296 13.3919 14.9643 15.9107 14.9643V10.9643ZM15.3571 10.4107C15.3571 10.101 15.601 9.85714 15.9107 9.85714V5.85714C13.3919 5.85714 11.3571 7.89186 11.3571 10.4107H15.3571ZM15.9107 9.85714C16.2204 9.85714 16.4643 10.101 16.4643 10.4107H20.4643C20.4643 7.89186 18.4296 5.85714 15.9107 5.85714V9.85714ZM16.4643 10.4107C16.4643 10.7204 16.2204 10.9643 15.9107 10.9643V14.9643C18.4296 14.9643 20.4643 12.9296 20.4643 10.4107H16.4643ZM15.9107 7.42857C14.2561 7.42857 12.9286 8.75615 12.9286 10.4107H16.9286C16.9286 10.9653 16.4653 11.4286 15.9107 11.4286V7.42857ZM12.9286 10.4107C12.9286 12.0653 14.2561 13.3929 15.9107 13.3929V9.39286C16.4653 9.39286 16.9286 9.85614 16.9286 10.4107H12.9286ZM15.9107 13.3929C17.5653 13.3929 18.8929 12.0653 18.8929 10.4107H14.8929C14.8929 9.85614 15.3561 9.39286 15.9107 9.39286V13.3929ZM18.8929 10.4107C18.8929 8.75615 17.5653 7.42857 15.9107 7.42857V11.4286C15.3561 11.4286 14.8929 10.9653 14.8929 10.4107H18.8929ZM21.2143 20H11V24H21.2143V20ZM11 20C6.05457 20 2 15.9454 2 11H-2C-2 18.1546 3.84543 24 11 24V20ZM2 11C2 6.05457 6.05457 2 11 2V-2C3.84543 -2 -2 3.84543 -2 11H2ZM11 2C15.9454 2 20 6.05457 20 11H24C24 3.84543 18.1546 -2 11 -2V2ZM20 11C20 13.4464 19.039 15.7221 17.2991 17.4298L20.1009 20.2845C22.6039 17.8279 24 14.525 24 11H20ZM17.2858 17.4429C17.6963 17.0324 18.5341 16.8875 19.1052 17.5401L16.0948 20.1742C17.2159 21.4553 19.0751 21.3104 20.1142 20.2714L17.2858 17.4429ZM19.0142 17.4429C19.4247 17.8534 19.5696 18.6912 18.917 19.2623L16.283 16.252C15.0018 17.373 15.1467 19.2323 16.1858 20.2714L19.0142 17.4429ZM19.0142 19.1714C21.1853 17.0003 22.4286 14.0996 22.4286 11H18.4286C18.4286 13.0075 17.629 14.8997 16.1858 16.3429L19.0142 19.1714ZM22.4286 11C22.4286 4.70972 17.2903 -0.428571 11 -0.428571V3.57143C15.0811 3.57143 18.4286 6.91885 18.4286 11H22.4286ZM11 -0.428571C4.70972 -0.428571 -0.428571 4.70972 -0.428571 11H3.57143C3.57143 6.91885 6.91885 3.57143 11 3.57143V-0.428571ZM-0.428571 11C-0.428571 17.2903 4.70972 22.4286 11 22.4286V18.4286C6.91885 18.4286 3.57143 15.0811 3.57143 11H-0.428571ZM11 22.4286H21.2143V18.4286H11V22.4286ZM21.2143 22.4286C20.5419 22.4286 20 21.8867 20 21.2143H24C24 19.6776 22.751 18.4286 21.2143 18.4286V22.4286ZM20 21.2143C20 20.5419 20.5419 20 21.2143 20V24C22.751 24 24 22.751 24 21.2143H20Z" fill="white" mask="url(#path-1-inside-1_6_1653)"/>
</svg>
