<svg width="23" height="22" viewBox="0 0 23 22" fill="none" xmlns="http://www.w3.org/2000/svg">
<path d="M7.76831 22C5.77952 22 3.79107 21.2428 2.2745 19.7285C0.801246 18.2573 0 16.3143 0 14.243C0 12.1716 0.801246 10.2286 2.2745 8.75719L4.90702 6.12851C5.5221 5.51432 6.35199 5.17113 7.22483 5.17113C8.09733 5.17113 8.92722 5.51397 9.54265 6.12851L10.172 6.75699L12.2607 4.67134L11.5597 3.97136C11.1161 3.52877 10.8731 2.94284 10.8731 2.32865C10.8731 1.70017 11.1161 1.12853 11.5597 0.685595C12.4609 -0.228532 13.9488 -0.228532 14.8503 0.685595L21.3312 7.15703C22.2326 8.07116 22.2326 9.54262 21.3312 10.4428C20.8876 10.8857 20.3011 11.1285 19.6857 11.1285C19.0563 11.1285 18.4838 10.8854 18.0406 10.4428L17.3396 9.74281L15.2509 11.8285L15.8803 12.4569C17.1534 13.7282 17.1534 15.8139 15.8803 17.0998L13.2478 19.7281C11.7456 21.2428 9.7571 22 7.76831 22ZM7.23915 7.02868C6.85285 7.02868 6.49519 7.17168 6.23777 7.44302L3.59094 10.0717C2.47499 11.186 1.85991 12.6718 1.85991 14.243C1.85991 15.8142 2.47499 17.3003 3.59094 18.4143C5.89408 20.7144 9.64254 20.7144 11.946 18.4143L14.5786 15.786C15.1363 15.2286 15.1363 14.3288 14.5786 13.7718L13.2911 12.4862C12.9334 12.1291 12.9334 11.5292 13.2911 11.1721L16.6955 7.77156C17.0532 7.41442 17.6539 7.41442 18.0116 7.77156L19.3707 9.12863C19.4852 9.24302 19.6284 9.27162 19.6997 9.27162C19.7713 9.27162 19.9141 9.25732 20.0287 9.12863C20.2145 8.94308 20.2145 8.64314 20.0287 8.47155L13.5482 2.00011C13.4336 1.88571 13.2908 1.85711 13.2192 1.85711C13.1476 1.85711 13.0047 1.87141 12.8901 2.00011C12.7756 2.11451 12.7469 2.2575 12.7469 2.32865C12.7469 2.40015 12.7613 2.5428 12.8901 2.65719L14.2492 4.01426C14.6068 4.3714 14.6068 4.97129 14.2492 5.32843L10.8444 8.71394C10.4867 9.07108 9.88599 9.07108 9.52833 8.71394L8.24089 7.42837C7.9688 7.17168 7.61114 7.02868 7.23915 7.02868Z" fill="white"/>
<path d="M6.00868 17.4675C5.74396 17.4675 5.49483 17.3741 5.29211 17.172C4.90263 16.7831 4.90263 16.1299 5.29211 15.741L9.74789 11.2917C10.1374 10.9028 10.7916 10.9028 11.181 11.2917C11.5705 11.6806 11.5705 12.3338 11.181 12.7227L6.72564 17.172C6.52292 17.3741 6.25819 17.4675 6.00868 17.4675Z" fill="white"/>
</svg>
