<svg width="24" height="24" viewBox="0 0 24 24" fill="none" xmlns="http://www.w3.org/2000/svg">
<path d="M11.8373 0.533447C5.35467 0.533447 0.104004 5.78411 0.104004 12.2668C0.104004 18.7494 5.35467 24.0001 11.8373 24.0001C18.32 24.0001 23.5707 18.7494 23.5707 12.2668C23.5707 5.79145 18.32 0.533447 11.8373 0.533447ZM18.408 7.86678L11.8593 14.2834L5.24468 7.86678H18.408ZM4.79733 8.79811L8.45668 12.2961L4.79733 15.7281V8.79811ZM5.25934 16.6741L9.15333 12.8681L11.8447 15.4421L14.4993 12.8681L18.43 16.6741H5.25934ZM18.8773 15.7281L15.1153 12.2888L18.8773 8.74678V15.7281Z" fill="white" fill-opacity="0.5"/>
</svg>
