<svg width="63" height="46" viewBox="0 0 63 46" fill="none" xmlns="http://www.w3.org/2000/svg">
<g clip-path="url(#clip0_23_2383)">
<path d="M17.1761 -0.000200428C16.37 -0.00404171 15.5499 0.0484565 14.7196 0.160494C5.87372 1.35641 -0.692959 8.8911 0.0580123 16.9911C0.549057 22.2786 4.03822 26.4951 8.86736 28.4554C7.24058 30.4433 5.98512 32.7653 5.23415 35.3691C4.2162 38.9114 4.24245 42.5516 5.13747 45.9992H8.58631C7.91536 43.2021 7.89552 40.211 8.65417 37.2315C8.93202 36.1239 9.31231 35.0675 9.77583 34.0662C10.2899 33.0054 10.8091 32.2871 11.1984 31.8421L11.6523 31.3741L11.8053 31.2115L12.9731 30.0162C13.1773 29.8075 13.1491 29.4977 12.9084 29.3351C12.9084 29.3351 12.6677 29.168 10.457 27.6763C8.75148 26.5226 7.658 25.7627 6.52738 23.9137C5.03504 21.4483 4.46973 18.2696 5.24823 15.0768C6.88398 8.39493 13.5985 3.7617 20.244 4.7297C26.8888 5.69387 30.9528 11.9033 29.3126 18.5852C28.9464 20.091 28.3164 21.4905 27.4963 22.7511C27.4867 22.89 27.5565 23.0245 27.8254 23.0757C27.9457 23.0802 28.0661 23.0898 28.1871 23.0942L28.2428 23.0987C29.4202 23.1634 30.6058 23.3305 31.7877 23.6224C34.4753 24.2761 36.8806 25.4624 38.9286 27.0329C39.2065 27.1673 39.4939 27.1903 39.5125 26.755C38.864 24.8971 38.6693 22.8855 39.0541 20.9118C40.1604 15.235 45.6374 12.0326 51.286 13.7567C56.9302 15.4853 60.6095 21.4905 59.5019 27.1718C58.3943 32.853 52.9218 36.0554 47.2687 34.3313C46.4902 34.0906 45.7488 33.766 45.0446 33.3767C44.4934 33.2192 44.4191 33.5246 44.4697 33.8396C46.2251 37.5144 46.7809 41.7616 45.7732 45.9992H50.6375C50.9627 42.8839 50.5389 39.7648 49.4794 36.8332C55.3271 37.6118 60.5218 34.4331 61.815 28.789C63.3579 22.116 58.8681 14.5256 51.7963 11.838C44.7251 9.15038 37.7461 12.3758 36.2032 19.0532C35.9203 20.2908 35.8466 21.5558 35.9484 22.8254C35.1558 22.4867 34.3357 22.1768 33.4926 21.9124C32.3895 21.5648 31.2915 21.3055 30.198 21.1153C31.6622 18.5667 32.3856 15.6518 32.1071 12.6588C31.426 5.3219 24.9688 0.036932 17.1761 -0.000200428Z" fill="url(#paint0_linear_23_2383)"/>
<path d="M28.9642 35.4306C28.9738 35.4447 29.8726 36.5657 29.8861 36.5843C30.0666 36.8116 30.2011 36.8487 30.4373 36.8487C30.655 36.8487 30.9098 36.7648 30.9098 36.5241V34.8929C30.9098 34.6797 30.7709 34.5734 30.502 34.5734C30.4002 34.5734 30.2612 34.592 30.1729 34.6797C30.1172 34.7309 30.0941 34.8051 30.0941 34.8929V35.7546L30.1038 35.8705L30.1364 35.9678C30.146 35.9863 30.1364 36.0049 30.1178 36.0094C30.1038 36.0184 30.0903 36.0139 30.0762 36.0049L29.1492 34.8333C28.9635 34.606 28.8291 34.5689 28.598 34.5689C28.3803 34.5689 28.1255 34.6521 28.1255 34.8935V36.5248C28.1255 36.738 28.2599 36.8494 28.5288 36.8494C28.719 36.8494 28.9411 36.7937 28.9411 36.5248V35.6861L28.927 35.5472C28.913 35.4959 28.904 35.478 28.904 35.4639V35.4684C28.8995 35.4498 28.904 35.4268 28.9226 35.4217C28.9405 35.4121 28.959 35.4172 28.9642 35.4306Z" fill="black"/>
<path d="M32.0021 35.4306C32.0117 35.4447 32.9106 36.5657 32.924 36.5843C33.1046 36.8116 33.239 36.8487 33.4708 36.8487C33.6935 36.8487 33.9484 36.7648 33.9484 36.5241V34.8929C33.9484 34.6797 33.8094 34.5734 33.5405 34.5734C33.3549 34.5734 33.1327 34.6291 33.1327 34.8929V35.7546L33.1423 35.8705L33.175 35.9678C33.1795 35.9863 33.1705 36.0049 33.1519 36.0094C33.1378 36.0184 33.1289 36.0139 33.1148 36.0049L32.1878 34.8327C32.0021 34.6054 31.8677 34.5683 31.6365 34.5683C31.4233 34.5683 31.1641 34.6515 31.1641 34.8929V36.5241C31.1641 36.7373 31.2985 36.8487 31.5674 36.8487C31.7575 36.8487 31.9797 36.793 31.9797 36.5241V35.6854L31.9656 35.5465C31.9515 35.4953 31.9426 35.4774 31.9426 35.4633V35.4678C31.9381 35.4492 31.9426 35.4262 31.9611 35.421C31.9791 35.4121 31.997 35.4172 32.0021 35.4306Z" fill="black"/>
<path d="M24.8717 34.9021C24.8717 34.6934 24.7142 34.5685 24.4409 34.5685C24.2923 34.5685 24.1675 34.6101 24.0932 34.6844C24.0375 34.7401 24.0145 34.8144 24.0145 34.8976L24.01 35.4213C24.01 35.4443 23.9914 35.468 23.9639 35.468H23.0554C23.0279 35.468 23.0093 35.4399 23.0093 35.4168V34.8976C23.0093 34.8093 22.9767 34.7356 22.921 34.6748C22.8467 34.6057 22.7264 34.5685 22.5778 34.5685C22.3089 34.5685 22.147 34.6934 22.147 34.8976V36.4873C22.147 36.5801 22.1796 36.6544 22.2353 36.7145C22.3096 36.7837 22.4299 36.8214 22.5785 36.8214C22.8474 36.8214 23.0049 36.7011 23.0093 36.4879L23.0049 36.0289C23.0049 35.9917 23.0375 35.9597 23.0695 35.9597L23.9639 35.9552C23.9914 35.9552 24.01 35.9828 24.01 36.0065V36.4885C24.01 36.7017 24.172 36.8221 24.4409 36.8221C24.5939 36.8221 24.7142 36.785 24.784 36.7152C24.8442 36.6595 24.8724 36.5807 24.8724 36.4924L24.8717 34.9021Z" fill="black"/>
<path d="M34.719 36.8288H36.3964C36.5122 36.8288 36.6608 36.7916 36.6608 36.6111C36.6608 36.4305 36.5122 36.3934 36.3964 36.3934L35.1684 36.3979C35.1268 36.3979 35.0942 36.3608 35.0897 36.3192V35.9805C35.0942 35.9389 35.1268 35.9062 35.1684 35.9062H36.2389C36.3407 35.9062 36.4194 35.8691 36.461 35.8185C36.4886 35.7814 36.4982 35.7442 36.4982 35.693C36.4982 35.6469 36.4886 35.6098 36.461 35.5771C36.4239 35.5214 36.3407 35.4888 36.2389 35.4888H35.1729C35.1313 35.4888 35.0942 35.4561 35.0942 35.4145V35.1226C35.0942 35.081 35.1268 35.0438 35.1729 35.0438H36.4009C36.5212 35.0438 36.6653 35.0067 36.6653 34.8262C36.6653 34.6501 36.5219 34.613 36.4009 34.6085H34.719C34.3528 34.6085 34.1953 34.7244 34.1953 34.9881V36.4478C34.1953 36.7174 34.3528 36.8288 34.719 36.8288Z" fill="black"/>
<path d="M39.0238 36.4372C38.9726 36.3726 38.8849 36.3399 38.778 36.3399H37.8004C37.7587 36.3399 37.7171 36.3073 37.7171 36.2657V34.9129C37.7171 34.6997 37.55 34.5742 37.2722 34.5742C36.9892 34.5742 36.8228 34.699 36.8228 34.9078V36.4558C36.8228 36.5762 36.8554 36.6645 36.9156 36.7202C36.9943 36.7989 37.1377 36.8361 37.342 36.8361H38.7786C38.8855 36.8361 38.9732 36.8034 39.0245 36.7388C39.0571 36.7016 39.0757 36.6504 39.0757 36.5902C39.075 36.5301 39.0565 36.4795 39.0238 36.4372Z" fill="black"/>
<path d="M27.5645 36.83C27.736 36.83 27.8474 36.7929 27.9166 36.7193C27.9537 36.6776 27.9723 36.6168 27.9723 36.5522V36.5054C27.9678 36.4356 27.8839 36.2596 27.7546 36.0099L27.1477 34.8191C27.0132 34.5784 26.6938 34.5502 26.5638 34.5502H26.4434C26.1701 34.5502 25.9524 34.652 25.8596 34.8191L25.2482 36.024C25.1784 36.1584 25.0491 36.4088 25.0439 36.492C25.0394 36.5803 25.067 36.654 25.1227 36.7148C25.1925 36.789 25.3083 36.8307 25.4428 36.8307C25.5913 36.8307 25.7763 36.7839 25.8179 36.6828L25.9197 36.4696L25.9338 36.4555L25.9524 36.4414L25.9754 36.4369H27.0459L27.0689 36.4414L27.083 36.4555L27.0971 36.4696L27.1201 36.5163C27.1944 36.6597 27.1944 36.6597 27.1944 36.6552C27.2309 36.7513 27.407 36.83 27.5645 36.83ZM26.9108 36.0656L26.9012 36.079H26.1041H26.0945L26.0804 36.0701L26.0849 36.056V36.0374C26.3999 35.3287 26.4415 35.2314 26.4511 35.2173L26.4556 35.2128L26.4511 35.2173C26.4652 35.1988 26.4786 35.1898 26.4972 35.1898C26.5158 35.1898 26.5343 35.1988 26.5529 35.2218L26.9146 36.056L26.9108 36.0656Z" fill="black"/>
<path d="M21.5978 36.004C21.4448 36.004 21.3616 36.0271 21.2963 36.0969C21.1894 36.1986 21.069 36.264 20.9211 36.287C20.8609 36.3011 20.8052 36.31 20.745 36.31C20.6522 36.31 20.5594 36.287 20.4762 36.2588C20.3744 36.2217 20.286 36.166 20.2169 36.0969C20.11 35.981 20.0498 35.842 20.0498 35.698C20.0498 35.5546 20.1099 35.415 20.2117 35.3043C20.286 35.2255 20.3788 35.1698 20.4851 35.1327C20.5683 35.1 20.6567 35.086 20.7444 35.086C20.8046 35.086 20.8603 35.0956 20.9205 35.109C21.069 35.1276 21.1894 35.1922 21.3001 35.2991C21.3603 35.3638 21.4435 35.3875 21.5965 35.3875C21.8142 35.3875 21.9672 35.2716 21.9672 35.1231C21.9672 35.0347 21.9301 34.9515 21.8513 34.8683C21.6106 34.632 21.0914 34.5533 20.7162 34.5533C20.2758 34.5533 19.2335 34.6602 19.2104 35.698C19.2335 36.7358 20.2764 36.8427 20.7162 36.8427C21.0914 36.8427 21.6106 36.7595 21.8513 36.5232C21.9301 36.449 21.9672 36.3657 21.9672 36.2774C21.9685 36.1244 21.8161 36.004 21.5978 36.004Z" fill="black"/>
<path d="M15.3735 24.0613C14.127 24.0984 13.1212 24.2559 12.9035 24.4922C12.7 24.7054 12.4496 24.8859 12.4445 25.1734C12.4355 25.4563 12.7691 25.4839 12.9682 25.4794C13.1673 25.4794 13.353 25.4608 13.3485 25.3449C13.3485 25.183 13.0841 25.215 13.0841 25.0485C13.0841 24.8539 14.1129 24.8123 14.627 24.8123C19.0432 24.7982 24.122 27.8565 24.1265 30.4468C24.1355 32.4577 21.5131 32.9123 20.0669 32.9167C19.5528 32.9167 19.0522 32.8655 18.5797 32.7733C18.5611 32.1293 18.524 30.7855 18.5054 29.9327C18.6725 29.9327 18.8249 29.9282 18.9593 29.9282C20.0298 29.9237 21.4382 30.3034 21.4382 30.5582C21.4382 30.7714 21.0631 30.9148 21.0631 31.119C21.0676 31.272 21.4107 31.249 21.7116 31.2675C21.7628 31.272 22.3698 30.934 22.3698 30.4013C22.3653 29.6971 21.4843 28.8584 18.6117 28.8674C18.5701 28.8674 18.5233 28.8719 18.4817 28.8719C18.4587 28.0748 18.3428 26.8283 17.8883 26.8283C17.5131 26.8283 17.4062 28.2048 17.3742 28.9692C15.7659 29.2099 14.3299 29.868 14.3299 30.5121C14.3299 31.0358 15.4836 32.3655 17.3511 33.1767C17.3786 33.7746 17.4945 34.1869 18.0278 34.1869C18.4126 34.1869 18.5419 33.904 18.5842 33.6075C19.1866 33.7554 19.8403 33.8483 20.5349 33.8438C23.2411 33.8348 25.4146 32.393 25.405 30.4103C25.3967 27.7502 20.04 23.9313 15.3735 24.0613ZM14.6462 30.6741C14.6462 30.2106 16.0502 30.039 17.3569 29.9698C17.3428 30.6926 17.3338 31.74 17.3383 32.4353C15.7397 31.8694 14.6462 30.9705 14.6462 30.6741Z" fill="black"/>
<path d="M26.375 28.9364C25.9211 28.9409 25.907 30.7809 25.8885 31.4524C25.8609 32.9909 26.0876 33.1714 26.4954 33.1669C26.8616 33.1669 26.9864 33.1253 26.9544 31.8372C26.8987 29.4044 26.7323 28.9364 26.375 28.9364Z" fill="black"/>
<path d="M26.6127 28.2354C27.623 28.231 29.2401 27.0863 29.2357 26.1272C29.2357 25.7008 29.0135 25.4787 28.4572 25.3999C28.2254 25.1778 27.8822 24.9275 27.3726 24.9319C25.7971 24.9364 24.7727 26.1925 24.7779 26.8737C24.7779 27.1285 24.8566 27.439 25.0839 27.6983C25.0884 28.2406 25.2228 28.384 25.3989 28.384C25.6024 28.384 25.7183 28.2681 25.7926 28.1292C26.0192 28.1983 26.2926 28.2399 26.6127 28.2354ZM26.719 27.4665C26.4827 27.4665 26.2881 27.439 26.121 27.3878C26.5705 26.8827 27.6505 25.9281 28.1832 25.9236C28.5308 25.9236 28.591 26.197 28.591 26.3039C28.591 26.9429 27.2798 27.4621 26.719 27.4665ZM26.7932 25.7706C26.3067 26.0536 25.8156 26.4518 25.477 26.8455C25.4629 26.7988 25.4539 26.7437 25.4539 26.697C25.4539 26.391 25.9033 25.914 26.7932 25.7706Z" fill="black"/>
<path d="M31.8568 29.2679C31.8568 28.8415 30.7633 28.846 30.1468 28.8505C29.6833 28.8505 27.3337 28.9062 27.3433 30.2129C27.3433 31.0932 28.6544 30.88 29.5258 30.9683C30.2345 31.0426 31.1013 31.2699 31.1013 31.5061C31.1013 32.0253 29.2198 32.2334 28.8356 32.2334C28.0386 32.2379 28.02 32.0016 28.02 31.8858C28.02 31.7744 28.15 31.5708 28.4464 31.5663C28.7473 31.5663 29.3638 31.9511 29.7857 31.9459C30.2121 31.9459 30.5642 31.7603 30.5642 31.5663C30.5642 31.2187 29.1557 31.0522 28.7242 31.0522C28.2652 31.0567 27.6122 31.2423 27.6122 31.928C27.6122 32.2846 28.1961 33.1233 29.8273 33.1188C31.44 33.1143 31.8434 32.2014 31.8434 31.7289C31.8389 30.5797 30.7588 30.4498 29.8088 30.371C29.1 30.3153 28.335 30.2782 28.3401 30.1162C28.3439 29.5919 31.8568 29.9818 31.8568 29.2679Z" fill="black"/>
<path d="M34.5347 28.2967C34.4003 28.2967 34.3772 28.4401 34.3772 28.5886C34.3817 29.0381 34.9983 30.5951 34.9983 31.193C34.9983 31.3179 34.9893 31.5362 34.8965 31.5682C34.7434 31.6098 33.4509 29.2468 32.9086 29.2052C32.3574 29.168 32.0654 31.5266 32.0654 32.106C32.0654 32.6898 32.1672 33.0791 32.5981 33.0791C33.2377 33.0791 32.9086 30.7205 33.1634 30.7205C33.3535 30.7205 34.4009 32.871 34.9797 32.8659C35.6148 32.8659 35.981 31.9434 35.981 31.3505C35.9759 29.9741 35.068 28.2967 34.5347 28.2967Z" fill="black"/>
<path d="M38.881 31.9454C38.6537 31.9454 37.4027 32.2233 37.3195 32.1497C37.2363 32.0754 37.3938 31.3526 37.5513 31.3014C37.7088 31.2502 38.6864 31.2643 38.849 31.2547C39.3029 31.2316 39.2152 30.6151 38.9367 30.592C38.7933 30.5779 37.9079 30.5779 37.8573 30.4947C37.8061 30.416 37.8714 30.0037 37.9687 29.9621C38.1723 29.8788 39.5212 29.8417 39.623 29.8187C39.7901 29.777 39.9105 29.6887 39.9521 29.5408C39.9937 29.4019 39.4841 28.8129 38.8586 28.8827C37.7786 28.9985 36.3701 28.9941 36.3701 29.3462C36.3746 29.6797 37.0327 29.8097 37.0513 29.9025C37.0654 29.9954 36.9629 30.3379 36.9264 30.4403C36.8893 30.5562 36.4168 30.5933 36.3886 30.9179C36.3797 30.987 36.5 31.108 36.4815 31.1958C36.4072 31.4691 36.1851 32.03 36.1851 32.2662C36.1851 32.6228 36.4539 33.4199 37.1857 33.3968C38.3445 33.3597 39.3823 32.553 39.3964 32.4096C39.4181 32.1958 39.1032 31.9454 38.881 31.9454Z" fill="black"/>
<path d="M43.3733 29.1991C42.7427 29.2362 41.5288 30.58 40.8201 31.484C40.7785 31.3912 40.7458 31.3035 40.7458 31.2196C40.7458 30.8348 41.4642 29.6901 41.5986 29.4033C41.742 29.1024 41.5845 28.7081 41.4085 28.8521C41.0704 29.13 39.9904 30.3861 39.9904 31.5628C39.9904 31.8317 40.0595 32.1607 40.2177 32.4571C39.9673 33.2453 39.379 34.9918 39.402 36.0532C39.4065 36.6 39.9629 37.1422 40.2964 37.068C40.4264 37.0398 40.4539 36.3266 40.6165 35.8356C40.8528 35.1358 41.2286 33.8522 41.3579 33.3054C41.4181 33.3099 41.4782 33.3144 41.5435 33.3144C42.8643 33.3099 44.3285 31.9059 44.324 30.6914C44.3182 29.477 43.605 29.185 43.3733 29.1991ZM41.8483 32.1972C42.3809 31.2798 43.155 30.0563 43.4379 30.0653C43.6422 30.0653 43.7158 30.2644 43.7209 30.566C43.7209 31.4648 42.6319 32.2158 41.8483 32.1972Z" fill="black"/>
</g>
<defs>
<linearGradient id="paint0_linear_23_2383" x1="48.5526" y1="47.2779" x2="44.0373" y2="42.9514" gradientUnits="userSpaceOnUse">
<stop stop-color="#2BCBFF"/>
<stop offset="1" stop-color="#A4ECFF"/>
</linearGradient>
<clipPath id="clip0_23_2383">
<rect width="62.1183" height="46" fill="white"/>
</clipPath>
</defs>
</svg>
