<svg width="90" height="40" viewBox="0 0 90 40" fill="none" xmlns="http://www.w3.org/2000/svg">
<rect width="90" height="40" rx="4" fill="white"/>
<g clip-path="url(#clip0_94_3191)">
<path d="M55.4102 23.1467C53.0726 23.2007 51.1399 21.4028 51.0842 19.1382C51.0842 19.0646 51.0842 18.9909 51.0842 18.9123C51.0538 17.7923 51.4991 16.7067 52.3137 15.9158C53.1283 15.1102 54.2465 14.6681 55.4102 14.6975C56.5739 14.6681 57.6921 15.1544 58.446 16.0189L57.7022 16.7411C57.1507 16.0632 56.3007 15.6751 55.4102 15.6898C54.545 15.6702 53.7102 15.9944 53.0979 16.5937C52.4756 17.2126 52.1417 18.0477 52.1771 18.9123C52.1366 19.7768 52.4705 20.6218 53.0979 21.2407C53.7051 21.84 54.545 22.1691 55.4102 22.1446C56.3968 22.1396 57.3227 21.7025 57.94 20.9558L58.7192 21.6926C58.3245 22.1495 57.8287 22.513 57.2671 22.7586C56.6852 23.0189 56.0528 23.1516 55.4102 23.1467ZM60.657 14.8793V22.9698H59.5844V14.8793H60.657ZM61.5779 20.1993C61.5526 19.4182 61.8511 18.6568 62.4077 18.087C62.9592 17.5319 63.7232 17.2323 64.5125 17.2519C65.3018 17.2323 66.0607 17.5319 66.6072 18.087C67.1688 18.6519 67.4673 19.4133 67.442 20.1993C67.4724 20.9853 67.1688 21.7467 66.6072 22.3116C66.0658 22.8667 65.3018 23.1712 64.5125 23.1467C63.7232 23.1712 62.9541 22.8667 62.4077 22.3116C61.8511 21.7418 61.5526 20.9853 61.5779 20.1993ZM62.6505 20.1993C62.6252 20.7298 62.8175 21.2505 63.1868 21.6435C63.875 22.3558 65.0285 22.3853 65.7622 21.7172C65.7875 21.6926 65.8128 21.6681 65.8381 21.6435C66.2074 21.2505 66.3997 20.7298 66.3744 20.1993C66.3997 19.6688 66.2074 19.153 65.8381 18.7649C65.1652 18.0526 64.0267 18.0084 63.2931 18.6618C63.2577 18.6961 63.2223 18.7305 63.1868 18.7649C62.8175 19.1579 62.6252 19.6737 62.6505 20.1993ZM73.3618 22.9698H72.3498V22.1986H72.2992C72.1171 22.4884 71.8591 22.7193 71.5504 22.8765C71.2317 23.0533 70.8674 23.1467 70.498 23.1467C69.901 23.186 69.3141 22.9747 68.884 22.567C68.4843 22.1053 68.2819 21.5109 68.3224 20.9116V17.4386H69.39V20.8477C69.309 21.5207 69.8048 22.1249 70.4929 22.2035C70.5941 22.2133 70.7004 22.2133 70.8016 22.2035C71.2165 22.2084 71.6111 22.0267 71.8692 21.7123C72.1576 21.3733 72.3094 20.946 72.2992 20.5088V17.4386H73.3719L73.3618 22.9698ZM76.9845 23.1467C76.2458 23.1467 75.5475 22.8323 75.0669 22.2919C74.5356 21.7172 74.2472 20.9705 74.2573 20.1993C74.2421 19.433 74.5204 18.6863 75.0466 18.1116C75.5222 17.5663 76.2255 17.247 76.9642 17.2519C77.3639 17.247 77.7586 17.3354 78.1128 17.5123C78.4366 17.6695 78.7148 17.9053 78.9122 18.2H78.9577L78.9324 17.4386V14.8793H80V22.9698H78.9881V22.1986H78.9425C78.7452 22.4933 78.4669 22.7291 78.1431 22.8863C77.7839 23.0681 77.3892 23.1565 76.9845 23.1467ZM77.1615 22.1986C77.6574 22.2133 78.133 22.0119 78.4517 21.6435C78.8059 21.2456 78.9881 20.7249 78.9577 20.1993C78.983 19.6786 78.8009 19.1628 78.4517 18.7649C78.133 18.3965 77.6574 18.1902 77.1615 18.2C76.6657 18.1902 76.1952 18.4014 75.8713 18.7649C75.5222 19.1628 75.3401 19.6786 75.3654 20.1993C75.335 20.7249 75.5172 21.2358 75.8713 21.6337C76.1952 21.9972 76.6657 22.2084 77.1615 22.1986Z" fill="#5F6368"/>
<path d="M14.8016 23.1466C12.1807 23.1564 10.0405 21.1178 10 18.5732C10.0405 16.0287 12.1807 13.9901 14.8016 13.9999C16.0159 13.9802 17.1847 14.4371 18.0448 15.2623L17.129 16.1416C16.5067 15.5571 15.6668 15.2378 14.8016 15.2476C12.9346 15.2427 11.4116 16.7115 11.4066 18.5241C11.4066 18.5388 11.4066 18.5585 11.4066 18.5732C11.3863 20.3858 12.8789 21.8792 14.751 21.8988C14.7662 21.8988 14.7864 21.8988 14.8016 21.8988C15.6971 21.9332 16.5623 21.5992 17.1897 20.9802C17.6046 20.548 17.8525 19.9929 17.893 19.4034H14.8016V18.1606H19.1529C19.1984 18.416 19.2237 18.6813 19.2186 18.9416C19.2541 20.0174 18.8493 21.0687 18.0954 21.8595C17.2353 22.7241 16.0361 23.1957 14.8016 23.1466Z" fill="#4285F4"/>
<path d="M25.948 20.1993C26.0137 21.8105 24.7286 23.1663 23.069 23.2351C21.4095 23.2989 20.013 22.0512 19.9422 20.44C19.9371 20.3614 19.9371 20.2828 19.9422 20.1993C19.8764 18.5881 21.1615 17.2323 22.8211 17.1635C24.4807 17.0996 25.8771 18.3474 25.948 19.9586C25.953 20.0421 25.953 20.1207 25.948 20.1993ZM24.6324 20.1993C24.7185 19.2954 24.0354 18.4898 23.1044 18.4063C22.1735 18.3228 21.3437 18.986 21.2577 19.8898C21.2476 19.993 21.2476 20.0961 21.2577 20.1993C21.1717 21.1032 21.8547 21.9088 22.7857 21.9923C23.7167 22.0758 24.5464 21.4126 24.6324 20.5088C24.6426 20.4056 24.6426 20.3025 24.6324 20.1993Z" fill="#EA4335"/>
<path d="M32.6823 20.1993C32.7481 21.8105 31.463 23.1663 29.8034 23.2351C28.1438 23.2989 26.7474 22.0512 26.6765 20.44C26.6715 20.3614 26.6715 20.2828 26.6765 20.1993C26.6108 18.5881 27.8959 17.2323 29.5555 17.1635C31.215 17.0996 32.6115 18.3474 32.6823 19.9586C32.6874 20.0421 32.6874 20.1207 32.6823 20.1993ZM31.3668 20.1993C31.4377 19.2954 30.7394 18.4996 29.8085 18.4309C28.8775 18.3621 28.0578 19.04 27.987 19.9439C27.9819 20.0274 27.9819 20.1158 27.987 20.1993C27.9161 21.1032 28.6144 21.8989 29.5454 21.9677C30.4763 22.0365 31.296 21.3586 31.3668 20.4547C31.3719 20.3712 31.3719 20.2828 31.3668 20.1993Z" fill="#FBBC04"/>
<path d="M39.2447 17.4386V22.7242C39.2447 24.8954 37.914 25.7895 36.3455 25.7895C35.1666 25.7944 34.099 25.1067 33.6437 24.0505L34.8124 23.5593C35.0553 24.1733 35.6523 24.5909 36.3303 24.6105C37.3423 24.6105 37.9595 24.0063 37.9595 22.8814V22.4589H37.9292C37.5193 22.906 36.9274 23.1614 36.3101 23.1467C34.6353 23.1467 33.2743 21.8253 33.2743 20.1993C33.2743 18.5733 34.6353 17.2519 36.3101 17.2519C36.9274 17.2421 37.5143 17.4877 37.9292 17.9298H37.9747V17.4386H39.2447ZM38.0658 20.2189C38.1417 19.3003 37.4384 18.4996 36.4922 18.426C36.4771 18.426 36.4568 18.421 36.4366 18.421C35.4651 18.4554 34.7062 19.2463 34.7416 20.1895C34.7416 20.1993 34.7416 20.2091 34.7416 20.2189C34.6961 21.1523 35.4398 21.9481 36.4012 21.9923C36.4113 21.9923 36.4214 21.9923 36.4366 21.9923C37.3726 21.9579 38.1012 21.1965 38.0708 20.2877C38.0708 20.2632 38.0708 20.2386 38.0658 20.214V20.2189Z" fill="#4285F4"/>
<path d="M41.5873 14.3144V22.9698H40.2515V14.3144H41.5873Z" fill="#34A853"/>
<path d="M46.8493 21.1719L47.8916 21.8596C47.3249 22.68 46.3787 23.1712 45.3618 23.1663C43.7376 23.1909 42.4019 21.9284 42.3816 20.3516C42.3816 20.3074 42.3816 20.2632 42.3816 20.2189C42.2501 18.7256 43.3885 17.414 44.9216 17.2814C46.2168 17.1733 47.416 17.9446 47.8207 19.1481L47.9573 19.487L43.9096 21.113C44.1677 21.6779 44.7546 22.0316 45.3871 22.007C45.9892 21.9923 46.5457 21.6779 46.8493 21.1719ZM43.6567 20.1109L46.3787 19.0203C46.1561 18.6225 45.7109 18.3867 45.2454 18.421C44.3245 18.4603 43.6162 19.2168 43.6567 20.1109Z" fill="#EA4335"/>
</g>
<defs>
<clipPath id="clip0_94_3191">
<rect width="70" height="11.7895" fill="white" transform="translate(10 14)"/>
</clipPath>
</defs>
</svg>
