<svg width="90" height="40" viewBox="0 0 90 40" fill="none" xmlns="http://www.w3.org/2000/svg">
<rect width="90" height="40" rx="4" fill="white"/>
<path d="M40.996 15.368H41.878C41.71 14.976 41.5 14.598 41.248 14.234L42.382 13.828C42.634 14.2573 42.858 14.7707 43.054 15.368H43.558C43.7073 14.836 43.8287 14.206 43.922 13.478L45.21 13.632C45.1353 14.164 45.0187 14.7427 44.86 15.368H45.728C45.98 14.9107 46.2133 14.3693 46.428 13.744L47.618 14.192C47.394 14.668 47.1793 15.06 46.974 15.368H48.01V16.46H44.524C44.4493 16.6653 44.328 16.9547 44.16 17.328H48.402V18.434H46.428C46.988 18.994 47.758 19.442 48.738 19.778L48.178 20.94C47.6647 20.7067 47.2073 20.4453 46.806 20.156C46.722 20.856 46.624 21.4533 46.512 21.948H47.982C47.926 24.328 47.7487 25.6673 47.45 25.966C47.142 26.2553 46.512 26.4 45.56 26.4H44.958L44.622 25.28C45.0887 25.2987 45.4153 25.308 45.602 25.308C46.0313 25.308 46.316 25.238 46.456 25.098C46.596 24.958 46.68 24.258 46.708 22.998H41.5C41.7613 22.2047 41.9573 21.486 42.088 20.842L43.32 20.954L43.04 21.948H45.28C45.3733 21.6027 45.4667 21.1453 45.56 20.576H42.046V20.156C41.6167 20.5293 41.2013 20.8327 40.8 21.066L40.198 20.128V25.112C40.198 25.9613 39.764 26.386 38.896 26.386H37.986L37.678 25.168C38.0047 25.2147 38.28 25.238 38.504 25.238C38.8027 25.238 38.952 25.0467 38.952 24.664V21.85H37.622C37.538 23.6793 37.2347 25.2007 36.712 26.414L35.732 25.518C36.1707 24.2953 36.3947 22.7507 36.404 20.884V13.982H40.198V19.974C40.9447 19.5447 41.5607 19.0313 42.046 18.434H40.59V17.328H42.788C42.9373 17.0667 43.0773 16.7773 43.208 16.46H40.996V15.368ZM46.022 19.512C45.686 19.1947 45.3967 18.8353 45.154 18.434H43.544C43.3293 18.742 43.054 19.1013 42.718 19.512H46.022ZM37.65 18.56V20.59H38.952V18.56H37.65ZM38.952 17.314V15.228H37.65V17.314H38.952ZM40.702 23.642H45.798V24.762H40.702V23.642ZM53.918 18.896H55.906V15.368H54.156V14.094H60.75V18.532C60.75 21.192 60.918 23.0353 61.254 24.062C61.394 24.5007 61.5247 24.72 61.646 24.72C61.6927 24.72 61.73 24.524 61.758 24.132C61.7953 23.6093 61.814 23.138 61.814 22.718L62.85 23.208C62.794 24.5707 62.668 25.4433 62.472 25.826C62.332 26.106 62.1547 26.246 61.94 26.246C61.3707 26.2273 60.8807 25.9053 60.47 25.28C59.7793 24.1693 59.434 21.92 59.434 18.532V15.368H57.194V18.896H58.972V20.17H57.194V26.456H55.906V20.17H53.918V18.896ZM51.552 13.632C52.448 14.332 53.19 15.0227 53.778 15.704L52.868 16.628C52.3453 15.9747 51.5987 15.2793 50.628 14.542L51.552 13.632ZM49.746 17.692H52.882V23.586C53.2647 23.2313 53.6707 22.8393 54.1 22.41L54.45 23.81C53.6193 24.6313 52.7187 25.3687 51.748 26.022L51.244 24.832C51.4773 24.6173 51.594 24.3607 51.594 24.062V18.966H49.746V17.692ZM65.244 14.234H75.296V15.522H65.244V14.234ZM63.9 18.098H76.542V19.428H69.906C68.6927 21.8453 67.638 23.5673 66.742 24.594C69.0007 24.454 71.2873 24.2207 73.602 23.894C73.1353 23.054 72.6453 22.2327 72.132 21.43L73.196 20.772C74.4467 22.62 75.4313 24.2673 76.15 25.714L74.96 26.54C74.6613 25.9053 74.428 25.4293 74.26 25.112C71.4413 25.504 68.3847 25.812 65.09 26.036L64.74 24.678C64.8893 24.6313 64.9967 24.5893 65.062 24.552C65.9207 23.908 67.0407 22.2 68.422 19.428H63.9V18.098Z" fill="#161820"/>
<g clip-path="url(#clip0_95_3204)">
<path d="M30.5487 17.6804C29.6285 16.7064 28.3418 16.0921 26.9147 16.0921C25.6825 16.0921 24.6181 16.5326 23.6901 17.3167C23.2845 17.6562 22.8595 18.0684 22.3292 18.6019C22.0641 18.8686 14.3827 26.5958 14.3827 26.5958C14.7843 26.6565 15.338 26.6726 15.8332 26.6767C16.2972 26.6807 25.125 26.6807 25.4915 26.6807C26.2362 26.6807 26.7197 26.6807 27.2383 26.6403C28.4315 26.5514 29.5583 26.0987 30.4668 25.1692C32.4905 23.1121 32.5217 19.7739 30.5487 17.6804ZM29.0709 23.69C28.6771 24.0942 27.9792 24.5468 26.8328 24.5872C26.3025 24.6074 25.6825 24.6074 25.3979 24.6074C25.0899 24.6074 22.3604 24.6074 19.2333 24.6074C21.4753 22.3483 23.4327 20.3801 23.655 20.1578C23.8577 19.9517 24.3139 19.4991 24.7116 19.1313C25.5773 18.323 26.3571 18.1613 26.9069 18.1654C27.7725 18.1735 28.5562 18.5372 29.1177 19.1313C30.3226 20.4043 30.2914 22.4372 29.0709 23.69Z" fill="#00A4FF"/>
<path d="M18.1532 17.1833C17.2486 16.4841 16.2387 16.0921 15.0923 16.0921C13.6652 16.0921 12.3824 16.7064 11.4583 17.6804C9.4853 19.7698 9.5165 23.1121 11.5363 25.1692C12.3473 25.9937 13.3299 26.4463 14.3788 26.5958L16.3557 24.6074C16.0359 24.6074 15.5758 24.6034 15.1703 24.5872C14.024 24.5468 13.3221 24.0901 12.9322 23.69C11.7117 22.4372 11.6844 20.4043 12.8854 19.1313C13.4469 18.5412 14.2306 18.1735 15.0962 18.1654C15.6382 18.1613 16.3713 18.327 17.2018 19.0383C17.5995 19.3778 18.4768 20.1821 18.8629 20.5417C18.8823 20.562 18.9057 20.562 18.9291 20.5417L20.29 19.1636C20.3133 19.1394 20.3133 19.107 20.29 19.0868C19.6388 18.4766 18.7108 17.6157 18.1532 17.1833Z" fill="#00C9DB"/>
<path d="M27.4528 14.8999C26.5131 12.1477 23.9786 10.1754 21.0035 10.1754C17.5878 10.1754 14.7609 12.7781 14.2462 16.1689C14.5192 16.1204 14.8038 16.0962 15.0923 16.0962C15.494 16.0962 15.8761 16.1447 16.2465 16.2376C16.2543 16.2376 16.2621 16.2417 16.2699 16.2417C16.7339 13.9542 18.6835 12.2527 21.0074 12.2527C22.9414 12.2527 24.6376 13.4611 25.4018 15.1747C25.4135 15.203 25.433 15.2111 25.4564 15.203C26.0335 15.0413 26.7197 14.9444 27.3865 14.9928C27.4489 14.9969 27.4723 14.9605 27.4528 14.8999Z" fill="#006CFF"/>
</g>
<defs>
<clipPath id="clip0_95_3204">
<rect width="22.007" height="16.5053" fill="white" transform="translate(10 10.1754)"/>
</clipPath>
</defs>
</svg>
