<svg width="62" height="47" viewBox="0 0 62 47" fill="none" xmlns="http://www.w3.org/2000/svg">
<path d="M54.1462 24.8319H45.8403C45.8403 24.8319 31.5066 25.8403 31.2729 25.8403C31.4599 25.0379 31.6 24.1921 31.6935 23.3029C33.4458 23.3246 46.0389 24.2246 46.0389 24.2246H53.7957L52.1719 21.6764H47.873C47.873 21.6764 31.9622 22.674 31.7402 22.674C31.7986 21.9691 31.8337 21.3185 31.8337 20.5595V20.0932C34.2402 20.245 47.0085 21.0583 47.0085 21.0583L51.8331 21.0474L50.1393 18.4341L31.822 19.4643V9.78093L37.1957 17.404L49.8472 17.8377L38.8312 0H31.822H20.7125V20.4402C20.7125 24.9511 20.619 27.2608 15.9696 27.2608C11.3202 27.2608 10.9697 24.9511 10.9697 20.4402V0H0.128906V20.5486C0.128906 30.6982 4.96523 35.7514 15.9813 35.7514C24.5792 35.7514 29.4155 32.6718 31.1211 26.4801C31.343 26.4801 43.3404 27.2608 43.3404 27.2608H55.6298L54.1462 24.8319Z" fill="black"/>
<path d="M56.0696 27.8757H43.7686L47.8105 34.0891H60.0181L56.0696 27.8757Z" fill="black"/>
<path d="M0.124475 38.3078H0.63848V40.9212C0.63848 41.2573 0.766981 41.4525 1.45622 41.4525H3.20851C3.89774 41.4525 4.02624 41.2573 4.02624 40.9212V38.3078H4.54025V40.9212C4.54025 41.626 4.15474 41.832 3.19682 41.832H1.45622C0.498297 41.832 0.112793 41.626 0.112793 40.9212V38.3078H0.124475Z" fill="black"/>
<path d="M5.50635 38.3086H6.26567L9.71184 41.3773V38.3086H10.2258V41.8002H9.46652L6.00867 38.7423V41.8111H5.50635V38.3086Z" fill="black"/>
<path d="M11.1948 38.3094H11.6971V41.801H11.1948V38.3094Z" fill="black"/>
<path d="M14.2152 38.691H12.311V38.3114H16.6217V38.691H14.7175V41.8031H14.2152V38.691Z" fill="black"/>
<path d="M17.2124 38.3078H20.9039V38.6874H17.7147V39.8043H20.7754V40.1838H17.7147V41.4091H20.9156V41.7886H17.2124V38.3078Z" fill="black"/>
<path d="M25.8043 40.2422C25.8043 41.2941 25.3721 41.4134 24.7647 41.4134H22.1713V38.6916H24.8347C25.4539 38.6916 25.7927 38.8759 25.7927 39.8844V40.2422H25.8043ZM21.6689 41.8037H24.6946C25.9679 41.8037 26.3184 41.3483 26.3184 40.0579C26.3184 38.6808 25.9796 38.3121 24.7179 38.3121H21.6806V41.8037H21.6689Z" fill="black"/>
<path d="M33.1115 40.6798H30.5882L31.8498 38.6954L33.1115 40.6798ZM29.2915 41.8075H29.8639L30.3312 41.0701H33.3451L33.8124 41.8075H34.3848L32.1653 38.3159H31.5344L29.2915 41.8075Z" fill="black"/>
<path d="M35.4525 40.039V38.6944H37.7655C38.5131 38.6944 38.7001 38.8246 38.7001 39.2149V39.5402C38.7001 39.9089 38.4664 40.0499 37.894 40.0499H35.4525V40.039ZM34.9385 41.8065H35.4525V40.4294H37.9407C38.3963 40.4294 38.6884 40.4945 38.6884 41.0366V41.8065H39.1673V40.9174C39.1673 40.5921 39.0388 40.3427 38.5248 40.2559V40.2451C38.8987 40.2125 39.2024 40.0716 39.2024 39.5836V39.3017C39.2024 38.6511 39.0272 38.3149 37.9524 38.3149H34.9385C34.9385 38.3149 34.9385 41.8065 34.9385 41.8065Z" fill="black"/>
<path d="M41.596 38.691H39.6919V38.3114H44.0025V38.691H42.0984V41.8031H41.596V38.691Z" fill="black"/>
<path d="M44.6055 38.3094H45.1078V41.801H44.6055V38.3094Z" fill="black"/>
<path d="M46.041 40.7022H46.5199V40.9516C46.5199 41.2986 46.7185 41.4613 47.3494 41.4613H48.9264C49.6624 41.4613 49.8843 41.3203 49.8843 40.8107C49.8843 40.3769 49.6974 40.2576 49.0666 40.2576H48.097C46.5433 40.2576 46.041 40.1709 46.041 39.2383C46.041 38.4468 46.5433 38.2624 47.5947 38.2624H48.6928C49.9544 38.2624 50.2698 38.5552 50.2698 39.1841V39.3034H49.7909C49.7792 38.7612 49.7091 38.6636 48.3774 38.6636H47.84C46.8587 38.6636 46.5083 38.707 46.5083 39.2817C46.5083 39.6938 46.6484 39.8347 47.4428 39.8347H48.9498C49.9427 39.8347 50.3516 40.1058 50.3516 40.6914V40.9191C50.3516 41.7757 49.5923 41.8408 48.8446 41.8408H47.4311C46.6835 41.8408 46.0293 41.7215 46.0293 40.9625V40.7022H46.041Z" fill="black"/>
<path d="M52.7508 38.691H50.8467V38.3114H55.1573V38.691H53.2532V41.8031H52.7508V38.691Z" fill="black"/>
<path d="M55.6577 40.7022H56.1366V40.9516C56.1366 41.2986 56.3352 41.4613 56.9661 41.4613H58.5431C59.2791 41.4613 59.501 41.3203 59.501 40.8107C59.501 40.3769 59.3141 40.2576 58.6833 40.2576H57.7137C56.16 40.2576 55.6577 40.1709 55.6577 39.2383C55.6577 38.4468 56.16 38.2624 57.2114 38.2624H58.3095C59.5711 38.2624 59.8865 38.5552 59.8865 39.1841V39.3034H59.4076C59.3959 38.7612 59.3258 38.6636 57.9941 38.6636H57.4567C56.4754 38.6636 56.125 38.707 56.125 39.2817C56.125 39.6938 56.2651 39.8347 57.0595 39.8347H58.5665C59.5594 39.8347 59.9683 40.1058 59.9683 40.6914V40.9191C59.9683 41.7757 59.209 41.8408 58.4613 41.8408H57.0478C56.3002 41.8408 55.646 41.7215 55.646 40.9625V40.7022H55.6577Z" fill="black"/>
<path d="M60.4462 33.4339H60.1191V33.3579H60.8434V33.4339H60.528V34.0845H60.4462V33.4339Z" fill="black"/>
<path d="M60.9458 33.3534H61.0743L61.4481 33.9715L61.8219 33.3534H61.9504V34.0908H61.8687V33.451L61.4832 34.0908H61.4131L61.0276 33.451V34.0908H60.9458V33.3534Z" fill="black"/>
<path d="M2.13779 45.3764H0.72428L1.43688 44.2595L2.13779 45.3764ZM0 46.0054H0.315412L0.572415 45.5933H2.2663L2.53498 46.0054H2.86207L1.60042 44.0535H1.24997L0 46.0054Z" fill="black"/>
<path d="M4.62109 44.0448H5.04164L6.98084 45.7689V44.0448H7.26121V46.0075H6.84066L4.90146 44.2833V46.0075H4.62109V44.0448Z" fill="black"/>
<path d="M12.1094 44.0448H12.5533L13.7916 45.693L15.0299 44.0448H15.4738V46.0075H15.1817V44.2833H15.17L13.885 46.0075H13.6864L12.4014 44.2833H12.3897V46.0075H12.1094V44.0448Z" fill="black"/>
<path d="M20.0566 45.3039C20.0566 45.8353 19.8697 46.0304 19.344 46.0304H18.1641C17.5917 46.0304 17.4165 45.7919 17.4165 45.2931V44.7617C17.4165 44.2629 17.5917 44.0244 18.1641 44.0244H19.2389C19.6127 44.0244 20.0216 44.1111 20.0216 44.5665V44.6425H19.7646C19.7646 44.2738 19.6478 44.2521 18.9352 44.2521H18.1992C17.9188 44.2521 17.6969 44.328 17.6969 44.6641V45.4015C17.6969 45.7485 17.9188 45.8136 18.1992 45.8136H19.309C19.601 45.8136 19.7646 45.716 19.7646 45.4449V45.2497H18.6898V45.0328H20.0566V45.3039Z" fill="black"/>
<path d="M21.999 44.0448H22.4429L23.6812 45.693L24.9195 44.0448H25.3634V46.0075H25.0714V44.2833H25.0597L23.7747 46.0075H23.5761L22.2911 44.2833H22.2794V46.0075H21.999V44.0448Z" fill="black"/>
<path d="M30.167 44.7569C30.167 44.2581 30.3422 44.0195 30.9146 44.0195H32.0127C32.5267 44.0195 32.6786 44.2472 32.6786 44.5075V44.681H32.4216V44.5942C32.4216 44.2581 32.1996 44.2472 31.931 44.2472H30.9497C30.6693 44.2472 30.4474 44.3231 30.4474 44.6593V45.3967C30.4474 45.7328 30.6693 45.8087 30.938 45.8087H31.931C32.3165 45.8087 32.4216 45.7328 32.4216 45.4726V45.3533H32.6903V45.4834C32.6903 45.8412 32.5735 46.0256 31.9777 46.0256H30.9146C30.3422 46.0256 30.167 45.787 30.167 45.2882V44.7569Z" fill="black"/>
<path d="M37.005 45.393C37.005 45.7292 36.7831 45.8051 36.5144 45.8051H35.3579C35.0775 45.8051 34.8672 45.7292 34.8672 45.393V44.6665C34.8672 44.3304 35.0892 44.2545 35.3579 44.2545H36.5144C36.7831 44.2545 37.005 44.3304 37.005 44.6665V45.393ZM34.5752 45.2954C34.5752 45.7943 34.7504 46.0328 35.3228 46.0328H36.5378C37.1102 46.0328 37.2854 45.7943 37.2854 45.2954V44.7533C37.2854 44.2545 37.1102 44.0159 36.5378 44.0159H35.3228C34.7504 44.0159 34.5752 44.2545 34.5752 44.7533C34.5752 44.7641 34.5752 45.2954 34.5752 45.2954Z" fill="black"/>
<path d="M39.2339 44.0448H39.6778L40.9161 45.693L42.1544 44.0448H42.5983V46.0075H42.3062V44.2833H42.2946L41.0095 46.0075H40.8109L39.5259 44.2833V46.0075H39.2339V44.0448Z" fill="black"/>
<path d="M46.6459 44.7383C46.6459 44.9443 46.5057 45.0202 46.2837 45.0202H44.8702V44.2612H46.2604C46.5057 44.2612 46.6459 44.3154 46.6459 44.5539V44.7383ZM44.5898 46.007H44.8702V45.2371H46.272C46.8912 45.2371 46.9262 45.0202 46.9262 44.5865C46.9262 44.131 46.7043 44.0551 46.3188 44.0551H44.5898C44.5898 44.0551 44.5898 46.007 44.5898 46.007Z" fill="black"/>
<path d="M50.5318 45.3764H49.1183L49.8309 44.2595L50.5318 45.3764ZM48.394 46.0054H48.7095L48.9781 45.5933H50.672L50.929 46.0054H51.2561L49.9945 44.0535H49.644L48.394 46.0054Z" fill="black"/>
<path d="M53.0151 44.0448H53.4357L55.3749 45.7689V44.0448H55.6553V46.0075H55.2347L53.2955 44.2833V46.0075H53.0151V44.0448Z" fill="black"/>
<path d="M58.6427 45.1767L57.4277 44.049H57.8132L58.7828 44.9598L59.7524 44.049H60.1379L58.923 45.1767V46.0008H58.6427V45.1767Z" fill="black"/>
</svg>
