<svg width="37" height="46" viewBox="0 0 37 46" fill="none" xmlns="http://www.w3.org/2000/svg">
<g clip-path="url(#clip0_23_2256)">
<path d="M35.5732 45.9775C35.8423 45.9775 36.0732 45.753 36.0732 45.4765C36.0732 45.207 35.8423 44.9756 35.5732 44.9756C35.2967 44.9756 35.0713 45.2074 35.0713 45.4765C35.0709 45.753 35.2967 45.9775 35.5732 45.9775ZM32.051 44.7589C32.3122 45.5961 32.8353 45.9853 33.5455 45.9853C34.3165 45.9853 34.9582 45.3643 34.9582 44.5418C34.9582 43.9663 34.7042 43.5252 34.166 43.1287L33.6048 42.7096C33.269 42.4626 33.1048 42.2087 33.1048 41.9244C33.1048 41.6778 33.269 41.4607 33.5381 41.4607C33.8891 41.4607 34.0763 41.7376 34.1964 42.171L34.9218 41.7376C34.6757 40.9671 34.2116 40.6456 33.5759 40.6456C32.8583 40.6456 32.2662 41.2063 32.2662 41.9842C32.2662 42.4479 32.4456 42.9189 32.9765 43.3154L33.5989 43.7791C33.9121 44.0183 34.1219 44.2801 34.1219 44.609C34.1219 44.9084 33.8965 45.1702 33.568 45.1702C33.1425 45.1702 32.902 44.856 32.7529 44.3325L32.051 44.7589ZM30.2413 45.1849C29.7546 45.1849 29.4492 44.5717 29.4492 43.3154C29.4492 42.0592 29.7546 41.4386 30.2413 41.4386C30.7262 41.4386 31.0334 42.0592 31.0334 43.3154C31.0334 44.5717 30.7262 45.1849 30.2413 45.1849ZM30.2413 46C31.2648 46 31.8867 45.1173 31.8867 43.3154C31.8867 41.5132 31.257 40.6235 30.2413 40.6235C29.2238 40.6235 28.5959 41.5132 28.5959 43.3154C28.5954 45.1173 29.216 46 30.2413 46ZM27.4445 42.3131C27.4445 42.7993 27.1142 43.1204 26.5475 43.3228L26.4196 43.3674V41.5058C27.0991 41.5357 27.4445 41.8499 27.4445 42.3131ZM27.542 45.9328H28.4754L27.5554 43.712C28.0043 43.3904 28.2808 42.9415 28.2808 42.3136C28.2808 41.2965 27.4887 40.6985 26.3677 40.6985H25.5737V45.9333H26.4196V44.2359L26.5172 44.206C26.622 44.1761 26.7196 44.1388 26.8171 44.1016L27.542 45.9328ZM23.3381 43.6669C23.8841 43.5321 24.3248 43.7488 24.3248 44.2198C24.3248 44.7585 23.8096 45.1398 23.0842 45.1398V43.7262L23.3381 43.6669ZM23.9968 42.1489C23.9968 42.5155 23.7199 42.8145 23.2199 42.9194L23.0846 42.9493V41.4984C23.6532 41.5132 23.9968 41.7597 23.9968 42.1489ZM25.1634 44.2129C25.1634 43.6443 24.8561 43.211 24.3326 43.0316C24.6399 42.7699 24.8193 42.4258 24.8193 42.0817C24.8193 41.2367 24.0939 40.6985 22.9637 40.6985H22.2461V45.9333H22.9793C24.3041 45.9328 25.1634 45.2074 25.1634 44.2129ZM19.7266 42.3131C19.7266 42.7993 19.3977 43.1204 18.8292 43.3228L18.7022 43.3674V41.5058C19.3826 41.5357 19.7266 41.8499 19.7266 42.3131ZM19.8237 45.9328H20.7589L19.8389 43.712C20.2874 43.3904 20.5643 42.9415 20.5643 42.3136C20.5643 41.2965 19.7713 40.6985 18.6498 40.6985H17.8572V45.9333H18.7022V44.2359L18.7997 44.206C18.9042 44.1761 19.0017 44.1388 19.0987 44.1016L19.8237 45.9328ZM14.9859 45.9328H17.4759V45.1251H15.8304V43.6443H17.0642V42.8145H15.8304V41.5058H17.3112L17.4759 40.698H14.9859V45.9328ZM11.4039 45.9328H12.2263V42.6802L13.5875 45.9328H14.4173V40.698H13.5948V43.9507L12.2337 40.698H11.4039V45.9328ZM10.1177 42.3131C10.1177 42.7993 9.7888 43.1204 9.22024 43.3228L9.09328 43.3674V41.5058C9.77362 41.5357 10.1177 41.8499 10.1177 42.3131ZM10.2152 45.9328H11.1499L10.2299 43.712C10.6789 43.3904 10.9554 42.9415 10.9554 42.3136C10.9554 41.2965 10.1628 40.6985 9.04084 40.6985H8.24826V45.9333H9.09328V44.2359L9.1908 44.206C9.29568 44.1761 9.39274 44.1388 9.4898 44.1016L10.2152 45.9328ZM5.90732 44.1453L6.33374 41.9097L6.7597 44.1453H5.90732ZM4.72604 45.9328H5.56324L5.75 44.953H6.91656L7.10378 45.9328H7.97088L6.91656 40.698H5.7799L4.72604 45.9328ZM1.06904 45.9328H1.92188L2.55714 42.6052L3.19286 45.9328H4.04524L5.1221 40.698H4.27754L3.61192 44.1007L2.9693 40.698H2.1758L1.53272 44.1007L0.87446 40.698H0L1.06904 45.9328Z" fill="#000B6C"/>
<path d="M32.4366 6.57156C32.3979 6.417 32.3593 6.35904 32.282 6.33972L29.4999 5.60556L29.1135 4.02132C29.0942 3.94404 29.0749 3.88608 28.9976 3.86676L26.1387 3.09396L25.7909 1.587C25.7716 1.47108 25.7137 1.41312 25.6364 1.3938L18.2088 0.0170194C18.0873 -0.00552056 17.9627 -0.00552056 17.8408 0.0170194L10.4131 1.39426C10.3368 1.41358 10.2779 1.47154 10.2586 1.58746L9.91127 3.09442L7.05191 3.86722C6.97371 3.88654 6.95485 3.9445 6.93553 4.02178L6.55005 5.60602L3.76705 6.34018C3.69069 6.3595 3.65067 6.41746 3.61249 6.57202C3.38203 7.7694 3.26611 9.04452 3.26611 10.3196C3.26611 21.447 9.06073 31.1057 17.7161 36.8639C17.832 36.9403 17.9479 37.0185 18.0252 37.0185C18.1025 37.0185 18.2184 36.9403 18.3343 36.8639C26.9888 31.1052 32.7843 21.447 32.7843 10.3196C32.7843 9.04452 32.6684 7.7694 32.4366 6.57156Z" fill="#0541A8"/>
<path d="M16.9433 31.7441C16.9433 31.8223 16.866 31.8605 16.7892 31.7842C14.6644 29.3503 13.2343 26.3746 12.2692 23.1306L10.8023 24.0575C10.4154 24.328 10.1058 24.2121 9.87538 23.7871C7.90474 20.3104 6.63054 14.5935 6.51416 10.5763C6.51416 10.3831 6.55234 10.2672 6.7069 10.074C7.20876 9.45576 7.82654 8.83798 8.4066 8.29702C8.52298 8.1811 8.63936 8.25838 8.63936 8.45158C8.63936 13.3961 9.48806 17.9929 10.8405 21.0059C10.9568 21.2377 11.0714 21.2377 11.2259 21.1218L11.6514 20.8513C10.8409 17.2587 10.3772 12.4688 10.4936 6.94508C10.4936 6.75234 10.5318 6.6746 10.6482 6.59778C11.0718 6.3273 11.8442 5.90226 12.5024 5.63224C12.6952 5.55496 12.7334 5.5936 12.7334 5.74816C12.617 13.783 13.2752 19.3453 14.704 23.7875C14.7422 23.9034 14.8586 23.8648 14.8586 23.7489C14.7813 22.1265 14.7813 20.6972 14.7813 18.9589L14.704 5.09128C14.704 4.93672 14.7422 4.85944 14.8967 4.8208C15.5536 4.66624 16.1328 4.55032 16.8283 4.47304C16.9056 4.47304 16.9437 4.51168 16.9437 4.58896L16.9433 31.7441ZM25.4418 9.99718C25.4418 8.45204 23.6648 7.17738 21.3087 7.02282V15.0963C24.283 13.3579 25.4418 11.6196 25.4418 9.99718ZM25.1327 15.7913C24.3212 15.7913 23.5875 16.1005 21.3082 17.7229V26.4532C25.2486 22.0492 26.3687 19.0362 26.3687 17.491C26.3691 16.4096 25.8664 15.7913 25.1327 15.7913ZM19.2612 31.7842C19.1839 31.8605 19.1067 31.8223 19.1067 31.7441V4.58896C19.1067 4.51168 19.1453 4.47304 19.2226 4.47304C24.399 4.8208 27.7211 6.98372 27.7211 10.1126C27.7211 11.4264 27.2188 12.7011 26.3691 13.628C28.0684 14.0916 28.7253 15.3663 28.7253 17.066C28.7253 20.079 26.5232 25.0622 19.2612 31.7842Z" fill="white"/>
</g>
<defs>
<clipPath id="clip0_23_2256">
<rect width="36.0732" height="46" fill="white"/>
</clipPath>
</defs>
</svg>
