<svg width="100" height="100" viewBox="0 0 100 100" fill="none" xmlns="http://www.w3.org/2000/svg">
<path opacity="0.1" d="M50 100C77.6142 100 100 77.6142 100 50C100 22.3858 77.6142 0 50 0C22.3858 0 0 22.3858 0 50C0 77.6142 22.3858 100 50 100Z" fill="url(#paint0_linear_24_4162)"/>
<path opacity="0.25" d="M50 92C73.196 92 92 73.196 92 50C92 26.804 73.196 8 50 8C26.804 8 8 26.804 8 50C8 73.196 26.804 92 50 92Z" fill="url(#paint1_linear_24_4162)"/>
<path opacity="0.5" d="M50.0002 82.8574C68.1467 82.8574 82.8574 68.1467 82.8574 50.0002C82.8574 31.8537 68.1467 17.1431 50.0002 17.1431C31.8537 17.1431 17.1431 31.8537 17.1431 50.0002C17.1431 68.1467 31.8537 82.8574 50.0002 82.8574Z" fill="url(#paint2_linear_24_4162)"/>
<path d="M38.4214 48C38.0309 47.6095 37.3977 47.6095 37.0072 48L36 49.0072C35.6095 49.3977 35.6095 50.0309 36 50.4214L45.5786 60C45.9691 60.3905 46.6023 60.3905 46.9928 60L64.5714 42.4214C64.962 42.0309 64.962 41.3977 64.5714 41.0072L63.5643 40C63.1737 39.6095 62.5406 39.6095 62.15 40L46.2857 55.8643L38.4214 48Z" fill="white" stroke="white" stroke-linejoin="round"/>
<defs>
<linearGradient id="paint0_linear_24_4162" x1="8" y1="100" x2="131.543" y2="69.3829" gradientUnits="userSpaceOnUse">
<stop offset="0.0833571" stop-color="#F02148"/>
<stop offset="1" stop-color="#FF5B21"/>
</linearGradient>
<linearGradient id="paint1_linear_24_4162" x1="14.72" y1="92" x2="118.496" y2="66.2816" gradientUnits="userSpaceOnUse">
<stop offset="0.0833571" stop-color="#F02148"/>
<stop offset="1" stop-color="#FF5B21"/>
</linearGradient>
<linearGradient id="paint2_linear_24_4162" x1="22.4002" y1="82.8574" x2="103.585" y2="62.7375" gradientUnits="userSpaceOnUse">
<stop offset="0.0833571" stop-color="#F02148"/>
<stop offset="1" stop-color="#FF5B21"/>
</linearGradient>
</defs>
</svg>
