<svg width="100" height="100" viewBox="0 0 100 100" fill="none" xmlns="http://www.w3.org/2000/svg">
<path opacity="0.1" d="M50 100C77.6142 100 100 77.6142 100 50C100 22.3858 77.6142 0 50 0C22.3858 0 0 22.3858 0 50C0 77.6142 22.3858 100 50 100Z" fill="url(#paint0_linear_24_5073)"/>
<path opacity="0.25" d="M50 92C73.196 92 92 73.196 92 50C92 26.804 73.196 8 50 8C26.804 8 8 26.804 8 50C8 73.196 26.804 92 50 92Z" fill="url(#paint1_linear_24_5073)"/>
<path opacity="0.5" d="M49.9997 82.8574C68.1462 82.8574 82.8569 68.1467 82.8569 50.0002C82.8569 31.8537 68.1462 17.1431 49.9997 17.1431C31.8532 17.1431 17.1426 31.8537 17.1426 50.0002C17.1426 68.1467 31.8532 82.8574 49.9997 82.8574Z" fill="url(#paint2_linear_24_5073)"/>
<path d="M66.94 34.3092C66.7669 33.6407 66.2267 33.13 65.5491 32.9918L50.4493 29.8991C50.3013 29.8688 50.1508 29.853 50.0002 29.853C49.8483 29.853 49.6964 29.8675 49.5458 29.8991L34.45 32.9905C33.7697 33.13 33.2295 33.642 33.0578 34.3118C32.1002 38.0534 30.1903 48.5319 36.2555 58.7643C40.7134 66.2856 47.1987 69.8245 49.9976 71.1471C49.9989 71.1471 49.9989 71.1458 50.0002 71.1458C52.7 69.8574 59.6146 66.1106 64.1358 57.9786C69.7137 47.9423 67.8896 37.9824 66.94 34.3092Z" stroke="white" stroke-miterlimit="10"/>
<path d="M62.8965 38.1058C62.7645 37.5924 62.3527 37.1997 61.8351 37.0934L50.3229 34.7166C50.2092 34.693 50.0955 34.6812 49.9805 34.6812V49.6744V52.7195V66.4246C52.0392 65.4345 57.311 62.5535 60.758 56.3018C65.0115 48.5858 63.6207 40.929 62.8965 38.1058Z" fill="white"/>
<path d="M49.9801 49.6731V34.6812C49.8637 34.6812 49.7487 34.693 49.6337 34.7166L38.1228 37.0934C37.6052 37.1997 37.1921 37.595 37.0614 38.1097C36.3307 40.9855 34.8758 49.0415 39.4992 56.9071C42.8979 62.6888 47.8428 65.4096 49.9774 66.426C49.9774 66.426 49.9787 66.4259 49.9787 66.4246V52.7182" fill="white"/>
<defs>
<linearGradient id="paint0_linear_24_5073" x1="8" y1="100" x2="131.543" y2="69.3829" gradientUnits="userSpaceOnUse">
<stop offset="0.0833571" stop-color="#F02148"/>
<stop offset="1" stop-color="#FF5B21"/>
</linearGradient>
<linearGradient id="paint1_linear_24_5073" x1="14.72" y1="92" x2="118.496" y2="66.2816" gradientUnits="userSpaceOnUse">
<stop offset="0.0833571" stop-color="#F02148"/>
<stop offset="1" stop-color="#FF5B21"/>
</linearGradient>
<linearGradient id="paint2_linear_24_5073" x1="22.3997" y1="82.8574" x2="103.585" y2="62.7375" gradientUnits="userSpaceOnUse">
<stop offset="0.0833571" stop-color="#F02148"/>
<stop offset="1" stop-color="#FF5B21"/>
</linearGradient>
</defs>
</svg>
