<svg width="60" height="60" viewBox="0 0 60 60" fill="none" xmlns="http://www.w3.org/2000/svg">
<rect width="60" height="60" rx="4" fill="#8B9DFF"/>
<g clip-path="url(#clip0_14_4634)">
<path d="M43.1581 18.3648C43.148 18.3449 43.1308 18.3297 43.1105 18.3211C40.7276 17.2281 38.2132 16.4484 35.63 16.0019C35.5819 15.9929 35.5335 16.016 35.5097 16.0586C35.1671 16.6801 34.8566 17.3183 34.5784 17.9711C31.7937 17.5484 28.9612 17.5484 26.1769 17.9711C25.8972 17.3168 25.5812 16.6781 25.2308 16.0586C25.2062 16.0168 25.1585 15.9941 25.1105 16.0019C22.5269 16.4472 20.0124 17.2269 17.63 18.3211C17.6097 18.3297 17.5925 18.3445 17.5808 18.3633C12.8167 25.4781 11.5116 32.4179 12.1519 39.2718C12.1554 39.3058 12.173 39.3367 12.1999 39.3578C14.9741 41.4117 18.0769 42.9797 21.3765 43.9945C21.4241 44.009 21.4753 43.9922 21.5054 43.9523C22.214 42.9883 22.8421 41.9668 23.3827 40.8996C23.398 40.8699 23.3995 40.8355 23.3874 40.8043C23.3753 40.7734 23.3503 40.7492 23.3191 40.7379C22.3288 40.359 21.3702 39.9023 20.4523 39.3718C20.4183 39.3519 20.3968 39.3164 20.3944 39.2773C20.3921 39.2383 20.4097 39.2004 20.4409 39.1765C20.6343 39.0324 20.8237 38.8836 21.0101 38.7304C21.0433 38.7031 21.0894 38.6968 21.1288 38.7144C27.1433 41.4593 33.6546 41.4593 39.5976 38.7144C39.637 38.6957 39.6839 38.7011 39.7179 38.7293C39.9042 38.8832 40.0948 39.0324 40.2886 39.1765C40.3198 39.2004 40.3378 39.2379 40.3358 39.2769C40.3335 39.316 40.3124 39.3519 40.2784 39.3718C39.3624 39.9066 38.403 40.3629 37.4101 40.7363C37.3788 40.748 37.3542 40.7726 37.3425 40.8039C37.3308 40.8351 37.3327 40.8699 37.348 40.8996C37.8976 41.9609 38.5245 42.9808 39.2237 43.9508C39.253 43.9914 39.3046 44.009 39.3526 43.9945C42.6581 42.9832 45.7663 41.4152 48.5441 39.3578C48.5714 39.3379 48.589 39.307 48.5917 39.2734C49.3581 31.3496 47.3081 24.4664 43.1581 18.3648ZM24.2808 35.0988C22.4698 35.0988 20.978 33.4371 20.978 31.3965C20.978 29.3554 22.4409 27.6937 24.2808 27.6937C26.1347 27.6937 27.6124 29.3699 27.5835 31.3965C27.5831 33.4371 26.1202 35.0988 24.2808 35.0988ZM36.4917 35.0988C34.6812 35.0988 33.189 33.4371 33.189 31.3965C33.189 29.3554 34.6519 27.6937 36.4917 27.6937C38.346 27.6937 39.8233 29.3699 39.7944 31.3965C39.7944 33.4371 38.346 35.0988 36.4917 35.0988Z" fill="white"/>
</g>
<defs>
<clipPath id="clip0_14_4634">
<rect width="36.75" height="28" fill="white" transform="translate(12 16)"/>
</clipPath>
</defs>
</svg>
