<svg width="60" height="60" viewBox="0 0 60 60" fill="none" xmlns="http://www.w3.org/2000/svg">
<rect width="60" height="60" rx="4" fill="#1296DB"/>
<g clip-path="url(#clip0_14_4640)">
<path d="M43.7368 16.1837L14.539 27.5688C12.5465 28.3782 12.5581 29.5022 14.1733 30.0032L21.6697 32.3678L39.0136 21.3023C39.8337 20.7979 40.583 21.0691 39.9669 21.6223L25.9154 34.4461H25.912L25.9154 34.4476L25.3982 42.2611C26.1556 42.2611 26.49 41.9098 26.915 41.4951L30.5561 37.9148L38.1297 43.5715C39.5264 44.3491 40.529 43.9495 40.8768 42.264L45.8476 18.5718C46.3565 16.5081 45.0689 15.5739 43.7368 16.1837Z" fill="white"/>
</g>
<defs>
<clipPath id="clip0_14_4640">
<rect width="33" height="28" fill="white" transform="translate(13 16)"/>
</clipPath>
</defs>
</svg>
