<svg width="60" height="60" viewBox="0 0 60 60" fill="none" xmlns="http://www.w3.org/2000/svg">
<rect width="60" height="60" rx="4" fill="#00BBFF"/>
<g clip-path="url(#clip0_14_4651)">
<path d="M48.8512 18.565C47.496 19.1496 46.0213 19.5703 44.5022 19.7342C46.07 18.7998 47.2613 17.325 47.8237 15.5712C46.3756 16.4348 44.7369 17.0681 43.0319 17.3959C41.6501 15.9211 39.6882 15.0088 37.5137 15.0088C33.3286 15.0088 29.9628 18.4012 29.9628 22.5641C29.9628 23.1487 30.0337 23.7333 30.1488 24.2958C23.8822 23.968 18.2932 20.9742 14.5775 16.3905C13.9221 17.5154 13.55 18.7998 13.55 20.2037C13.55 22.8254 14.8831 25.1372 16.9159 26.4968C15.6758 26.4481 14.5066 26.0982 13.5013 25.5358V25.6288C13.5013 29.3002 16.0965 32.3427 19.5554 33.0424C18.9221 33.2063 18.2445 33.2993 17.5669 33.2993C17.0753 33.2993 16.6103 33.2506 16.1408 33.1842C17.0974 36.178 19.8831 38.3525 23.2002 38.4233C20.605 40.4561 17.3543 41.6518 13.8246 41.6518C13.1913 41.6518 12.6067 41.6297 12 41.5588C15.3481 43.7068 19.3206 44.9468 23.5988 44.9468C37.4872 44.9468 45.0868 33.441 45.0868 23.4543C45.0868 23.1266 45.0868 22.7989 45.0647 22.4711C46.535 21.395 47.8237 20.0619 48.8512 18.565Z" fill="white"/>
</g>
<defs>
<clipPath id="clip0_14_4651">
<rect width="36.8689" height="30" fill="white" transform="translate(12 15)"/>
</clipPath>
</defs>
</svg>
