<svg width="60" height="60" viewBox="0 0 60 60" fill="none" xmlns="http://www.w3.org/2000/svg">
<g clip-path="url(#clip0_14_4657)">
<path d="M53.7691 0.0380859H6.12633C2.74442 0.0380859 0 2.77593 0 6.16076V53.8036C0 57.1884 2.74442 59.9262 6.12633 59.9262H53.7691C57.151 59.9262 59.8955 57.1921 59.8955 53.8036V6.16076C59.8955 2.77593 57.1547 0.0380859 53.7691 0.0380859ZM34.5019 10.1502H37.4181V19.3477C37.4181 21.1147 37.4744 21.0613 37.5336 21.2828C37.5965 21.5175 37.8078 22.0687 38.4913 22.0687C39.218 22.0687 39.419 21.4875 39.4753 21.2397C39.5214 21.0248 39.574 21.0679 39.574 19.2249V10.1502H42.4873V23.9549H39.5346L39.5711 23.2582L38.6726 22.8853C38.4445 23.3474 38.1806 23.6778 37.8568 23.9088C37.53 24.1369 37.163 24.2524 36.7273 24.2524C36.225 24.2524 35.8156 24.1435 35.5057 23.9286C35.2015 23.721 34.9903 23.4629 34.8514 23.1361C34.6993 22.7728 34.6035 22.3802 34.567 21.9934C34.5238 21.5475 34.5012 20.6264 34.5012 19.2527V10.1502H34.5019ZM24.3693 15.8905C24.3693 14.4503 24.4914 13.3376 24.7232 12.5481C24.941 11.8185 25.327 11.2439 25.9053 10.8016C26.4931 10.3425 27.2695 10.1144 28.214 10.1144C29.0196 10.1144 29.7098 10.273 30.2749 10.5698C30.8232 10.8608 31.2457 11.2402 31.533 11.6862C31.8269 12.1548 32.0316 12.6336 32.1406 13.1161C32.2531 13.6184 32.3087 14.4306 32.3087 15.5272V17.958C32.3087 19.385 32.2524 20.4253 32.1501 21.0657C32.0506 21.6535 31.8328 22.215 31.506 22.7304C31.1792 23.2355 30.7727 23.612 30.2544 23.8569C29.7193 24.1113 29.0884 24.2437 28.3814 24.2437C27.5758 24.2437 26.8922 24.1318 26.3439 23.9001C25.8351 23.6954 25.4455 23.3978 25.175 22.9987C24.8979 22.5827 24.6932 22.0702 24.5704 21.4766C24.4381 20.8354 24.3723 19.8383 24.3723 18.5077L24.3693 15.8905ZM17.55 5.23304L19.9215 12.8654C20.3339 10.8703 21.1336 8.10978 21.7675 5.23304H23.9175L21.1497 16.1215L21.13 16.2078V23.949H18.61V16.2078L18.5903 16.1252L15.3999 5.23304H17.55ZM51.8764 47.9258C51.4999 51.3603 48.4514 54.1742 45.0336 54.4052C34.9676 54.838 24.9308 54.838 14.8677 54.4052C11.4456 54.1742 8.4014 51.3603 8.02125 47.9258C7.64768 42.4896 7.64768 37.1492 8.02125 31.7203C8.39775 28.2857 11.4456 25.4784 14.8677 25.2372C24.9301 24.808 34.9669 24.808 45.0336 25.2372C48.455 25.4784 51.4999 28.285 51.8764 31.7203C52.2529 37.1492 52.2529 42.4896 51.8764 47.9258ZM28.339 22.5915C28.7616 22.5915 29.092 22.337 29.2404 21.8977C29.3099 21.6966 29.3925 21.3128 29.3925 20.2696V14.2887C29.3925 13.0803 29.323 12.6906 29.2507 12.4691C29.1023 12.0202 28.7755 11.7593 28.3493 11.7593C27.9296 11.7593 27.5999 12.01 27.4442 12.456C27.3652 12.6709 27.2856 13.0708 27.2856 14.2887V20.1044C27.2856 21.247 27.3682 21.6403 27.4413 21.8619C27.5926 22.3239 27.9201 22.5915 28.339 22.5915ZM11.9456 32.7635H14.796V48.7841H17.7817V32.7635H20.638V29.7252H11.9456V32.7635ZM26.0639 43.315C26.0639 45.0352 26.0142 45.4614 25.9748 45.6434C25.8724 46.0894 25.5156 46.3599 25.0134 46.3599C24.5346 46.3599 24.188 46.1025 24.0754 45.6763C24.0257 45.495 23.9731 45.0688 23.9731 43.4305V34.3251H21.1461V44.2463C21.1461 45.5542 21.1658 46.4256 21.2053 46.8555C21.2448 47.2488 21.3478 47.6385 21.5058 48.0047C21.6476 48.3352 21.8625 48.5896 22.163 48.7841C22.4539 48.9851 22.8399 49.0816 23.3056 49.0816C23.7055 49.0816 24.0521 48.9793 24.3562 48.7709C24.6698 48.5596 24.944 48.2226 25.1684 47.7767L26.0632 47.9945L26.0237 48.8001H28.8902V34.3251H26.0669L26.0639 43.315ZM38.5674 35.059C38.4124 34.752 38.1872 34.5239 37.8904 34.3492C37.5833 34.1745 37.2068 34.0918 36.7741 34.0918C36.4107 34.0918 36.0832 34.181 35.7703 34.3762C35.4501 34.5809 35.1496 34.8814 34.8784 35.304L34.0165 36.6338V29.7281H31.1894V48.787H33.8578L34.0231 47.9382L34.2541 46.7561L34.8813 47.773C35.1584 48.2285 35.4662 48.5625 35.7893 48.7833C36.0964 48.988 36.4173 49.094 36.7667 49.094C37.2624 49.094 37.6784 48.9193 38.0417 48.5786C38.4219 48.2087 38.6558 47.7957 38.7582 47.2942C38.87 46.7393 38.9263 45.8613 38.9263 45.9205V38.354C38.9263 38.3869 39.0389 37.601 38.87 36.0387C38.8415 35.7126 38.7392 35.3924 38.5674 35.059ZM36.1066 43.4568C36.1066 44.8107 36.0371 45.2238 35.9816 45.4387C35.8493 45.9044 35.5159 46.1749 35.067 46.1749C34.6313 46.1749 34.2972 45.9176 34.1583 45.465C34.0925 45.2603 34.0201 44.8575 34.0201 43.6191V39.7846C34.0201 38.4965 34.0859 38.1098 34.1451 37.9256C34.2738 37.4993 34.6108 37.242 35.0436 37.242C35.4896 37.242 35.8259 37.5125 35.9684 37.9716C36.0313 38.1727 36.1139 38.5762 36.1139 39.7912V43.4604L36.1066 43.4568ZM43.8318 41.9844H48.7131V40.4126C48.7131 38.9893 48.5808 37.3575 48.3198 36.595C48.0719 35.8588 47.6523 35.2908 47.0353 34.8514C46.4373 34.4289 45.6514 34.2074 44.7032 34.2074C43.9341 34.2074 43.2469 34.3857 42.6621 34.7454C42.0772 35.1058 41.6715 35.611 41.4141 36.2945C41.1436 37.0044 41.0011 38.0155 41.0011 39.8088V44.2507C41.0011 44.8224 41.0676 45.6675 41.186 46.2224C41.3052 46.7576 41.5194 47.2532 41.8235 47.6992C42.1108 48.1188 42.5305 48.4587 43.0583 48.7066C43.6 48.9573 44.2404 49.0867 44.9605 49.0867C45.6967 49.0867 46.3115 48.9581 46.7801 48.7132C47.2488 48.4653 47.6391 48.0859 47.9491 47.5837C48.2723 47.0617 48.4806 46.5631 48.5661 46.1142C48.659 45.6419 48.705 44.9416 48.705 44.0299V43.353H46.0761V44.9116C46.0761 45.737 46.0198 46.2758 45.9043 46.5996C45.7428 47.039 45.3692 47.2963 44.8838 47.2963C44.4576 47.2963 44.1271 47.0851 43.9787 46.7049C43.9056 46.5265 43.823 46.2063 43.823 45.2121V41.9888H43.8296V41.9844H43.8318ZM43.8318 39.9528V38.3181C43.8318 37.1163 43.8946 37.2976 43.9473 37.136C44.073 36.75 44.413 36.5219 44.8852 36.5219C45.3078 36.5219 45.6316 36.7697 45.7603 37.1923C45.8129 37.3641 45.8795 37.1989 45.8795 38.3189V40.4126H43.8347L43.8318 39.9528Z" fill="#D02708"/>
</g>
<defs>
<clipPath id="clip0_14_4657">
<rect width="59.9444" height="60" fill="white"/>
</clipPath>
</defs>
</svg>
