<svg width="24" height="32" viewBox="0 0 24 32" fill="none" xmlns="http://www.w3.org/2000/svg">
<path d="M6.54302 31.2578C7.10447 31.4541 8.26013 31.9569 8.55489 32C6.9875 30.0895 6.80035 25.4688 8.78883 23.6924C7.94665 24.1568 7.42731 24.6213 6.80035 25.4688C7.63317 22.1122 10.5808 20.6662 13.1915 20.6231C12.4195 20.4986 11.6429 20.4459 10.8568 20.5704C9.86962 20.7236 8.86368 21.0732 7.95601 20.4124C7.26355 19.9096 7.37116 19.2536 6.81439 18.5928C7.02961 18.8514 8.0683 19.2919 8.4192 19.4116C9.02276 19.6175 9.05551 19.5744 9.68715 19.5553C10.8288 19.517 12.0546 19.086 13.1026 19.8091C13.3225 19.9623 13.6922 20.4028 14.001 20.6566C14.8712 20.7428 15.676 20.987 16.3029 21.3796L16.3076 21.3844C16.2935 21.3796 16.2795 21.3796 16.2655 21.3748C16.2421 21.37 16.2187 21.3605 16.1953 21.3557C16.228 21.37 16.2514 21.3796 16.2608 21.3844L16.2655 21.3892C16.2514 21.3844 16.2374 21.3844 16.2234 21.3796C16.1859 21.37 16.1438 21.3605 16.1064 21.3509C16.0783 21.3461 16.0549 21.3365 16.0315 21.3365C15.966 21.3222 15.8959 21.3078 15.8304 21.303C15.8023 21.2982 15.7789 21.2934 15.7508 21.2934C15.6619 21.2839 15.573 21.2743 15.4841 21.2743C15.3157 21.2695 15.1426 21.2743 14.9648 21.2934C13.0278 21.5185 11.6242 23.2854 11.8347 25.2438C11.8347 25.2581 11.8394 25.2773 11.8394 25.2916C12.0406 26.9675 12.8266 30.0991 14.8338 30.6449C15.5777 30.846 16.2561 31.1716 17.5521 31.0663C18.7499 30.9705 19.9149 30.6449 21.7209 28.6051C23.2883 26.278 23.9714 22.5432 23.9995 19.6511C24.0416 15.0256 21.6086 11.7935 20.7992 10.8023C21.8379 13.9051 21.7911 16.6871 20.6916 17.9943C20.4109 18.3247 19.9383 18.703 18.9838 18.7413C19.419 18.0661 20.1863 15.8683 19.6529 12.0377C19.2786 9.37064 17.4913 7.42182 16.9018 6.73709C16.9954 7.51758 17.0328 8.74338 16.607 10.1272C16.4199 10.7401 16.1766 11.2524 15.9426 11.669C15.6151 10.1368 14.8993 7.68996 13.2196 5.11866C11.5212 2.51384 9.55614 0.895406 8.2882 0C9.26138 2.49948 9.57486 7.03397 6.95007 11.9036C6.12193 13.4407 3.70302 15.2315 3.50651 18.0278C3.0246 17.6783 2.34618 17.6591 2.27132 16.6728C2.21985 16.0311 2.44443 14.2164 2.86552 13.0672C2.44911 13.7232 -1.99103 17.5346 1.06888 25.0187C2.66433 28.9211 4.45162 30.0799 5.93011 30.9657C6.12193 31.0854 6.3278 31.1812 6.54302 31.2578Z" fill="url(#paint0_linear_1_67)"/>
<defs>
<linearGradient id="paint0_linear_1_67" x1="11.9985" y1="32.0001" x2="11.9985" y2="-0.018386" gradientUnits="userSpaceOnUse">
<stop stop-color="#F16D2E"/>
<stop offset="0.3184" stop-color="#FD5131"/>
<stop offset="0.4175" stop-color="#F2442E"/>
<stop offset="0.5574" stop-color="#E8392C"/>
<stop offset="0.7067" stop-color="#E5352B"/>
<stop offset="0.9525" stop-color="#FE096C"/>
</linearGradient>
</defs>
</svg>
