<svg width="64" height="64" viewBox="0 0 64 64" fill="none" xmlns="http://www.w3.org/2000/svg">
<g filter="url(#filter0_b_39_10364)">
<path d="M64 32C64 49.6736 49.6736 64 32 64C14.3264 64 0 49.6736 0 32C0 14.3296 14.3264 0 32 0C49.6736 0 64 14.3296 64 32Z" fill="url(#paint0_linear_39_10364)"/>
<path d="M63.5 32C63.5 49.3974 49.3975 63.5 32 63.5C14.6025 63.5 0.5 49.3974 0.5 32C0.5 14.6057 14.6026 0.5 32 0.5C49.3974 0.5 63.5 14.6057 63.5 32Z" stroke="url(#paint1_linear_39_10364)" stroke-linecap="round" stroke-linejoin="round"/>
</g>
<path d="M43.8793 34.1634L43.8793 34.1634L43.8766 34.1669C43.7875 34.2859 43.3489 34.8039 43.006 35.1391L42.8151 35.3257L42.815 35.3256L42.8094 35.3315C41.4894 36.731 39.1745 38.4946 36.7598 40.0826C34.3461 41.6699 31.853 43.0685 30.1844 43.7441L30.0595 43.7947V43.8054C30.0081 43.8277 29.9397 43.8561 29.8572 43.889C29.6575 43.9687 29.3804 44.0727 29.0737 44.1767C28.4525 44.3873 27.741 44.5867 27.2974 44.6004H27.1731C25.7826 44.6004 24.4826 43.8348 23.8177 42.5942C23.6418 42.2628 23.4638 41.5901 23.3233 40.9699C23.2542 40.6649 23.1959 40.3812 23.1526 40.1705L23.1524 40.1695C23.131 40.0652 23.113 39.9776 23.0993 39.9152C23.0925 39.8842 23.0863 39.8569 23.0809 39.836C23.0785 39.8267 23.0754 39.8156 23.0719 39.8049C22.7895 37.9483 22.6004 35.1078 22.6004 31.9849C22.6004 28.6946 22.7913 25.7203 23.1378 23.9038L23.1413 23.8852V23.8818L23.1419 23.8782C23.1443 23.8654 23.148 23.8466 23.1529 23.822C23.1627 23.773 23.1771 23.7035 23.1951 23.6187C23.2311 23.4493 23.2816 23.2202 23.3389 22.9747C23.4546 22.4794 23.594 21.9369 23.6987 21.6724C24.03 20.9118 24.6324 20.2595 25.3875 19.8449C25.995 19.5517 26.6304 19.4012 27.2957 19.4004C27.6356 19.4172 28.1383 19.5349 28.636 19.6812C29.1313 19.8269 29.6025 19.9951 29.8666 20.1014L29.8666 20.1014L29.8696 20.1026C31.6311 20.7791 34.2101 22.2317 36.68 23.8621C39.1502 25.4928 41.4897 27.287 42.7783 28.639L42.7783 28.6391L42.7833 28.6441C43.003 28.8588 43.2313 29.0982 43.4219 29.3004C43.4665 29.3477 43.5095 29.3935 43.55 29.4366C43.6705 29.565 43.7692 29.6702 43.8243 29.7241C44.3311 30.3699 44.6004 31.1618 44.6004 32.016C44.6004 32.7838 44.3586 33.5514 43.8793 34.1634ZM23.1397 23.8908L23.1397 23.8907C23.1394 23.8929 23.1392 23.8942 23.1392 23.8943C23.1392 23.8944 23.1393 23.8933 23.1397 23.8908Z" fill="url(#paint2_linear_39_10364)" stroke="url(#paint3_linear_39_10364)" stroke-width="0.4"/>
<defs>
<filter id="filter0_b_39_10364" x="-4.81" y="-4.81" width="73.62" height="73.62" filterUnits="userSpaceOnUse" color-interpolation-filters="sRGB">
<feFlood flood-opacity="0" result="BackgroundImageFix"/>
<feGaussianBlur in="BackgroundImageFix" stdDeviation="2.405"/>
<feComposite in2="SourceAlpha" operator="in" result="effect1_backgroundBlur_39_10364"/>
<feBlend mode="normal" in="SourceGraphic" in2="effect1_backgroundBlur_39_10364" result="shape"/>
</filter>
<linearGradient id="paint0_linear_39_10364" x1="10.1878" y1="7.45608" x2="51.0129" y2="58.0191" gradientUnits="userSpaceOnUse">
<stop stop-color="white" stop-opacity="0.25"/>
<stop offset="1" stop-color="white" stop-opacity="0"/>
</linearGradient>
<linearGradient id="paint1_linear_39_10364" x1="10.1878" y1="7.45608" x2="51.0129" y2="58.0191" gradientUnits="userSpaceOnUse">
<stop stop-color="white" stop-opacity="0.25"/>
<stop offset="1" stop-color="white" stop-opacity="0"/>
</linearGradient>
<linearGradient id="paint2_linear_39_10364" x1="24.1924" y1="44.8004" x2="52.2464" y2="38.717" gradientUnits="userSpaceOnUse">
<stop offset="0.0833571" stop-color="#F02148"/>
<stop offset="1" stop-color="#FF5B21"/>
</linearGradient>
<linearGradient id="paint3_linear_39_10364" x1="22.7601" y1="19.4535" x2="22.7601" y2="44.2313" gradientUnits="userSpaceOnUse">
<stop stop-color="#FF5B21"/>
<stop offset="1" stop-color="#F02148"/>
</linearGradient>
</defs>
</svg>
