<svg width="25" height="24" viewBox="0 0 25 24" fill="none" xmlns="http://www.w3.org/2000/svg">
<path d="M10.4426 11.1226C9.80458 11.1226 9.30591 11.6799 9.30591 12.3619C9.30591 13.0366 9.81191 13.6012 10.4426 13.6012C11.0806 13.6012 11.5866 13.0366 11.5866 12.3619C11.5939 11.6799 11.0806 11.1226 10.4426 11.1226Z" fill="white" fill-opacity="0.5"/>
<path d="M14.52 11.1226C13.882 11.1226 13.3833 11.6799 13.3833 12.3619C13.3833 13.0366 13.8893 13.6012 14.52 13.6012C15.158 13.6012 15.664 13.0366 15.664 12.3619C15.664 11.6799 15.158 11.1226 14.52 11.1226Z" fill="white" fill-opacity="0.5"/>
<path d="M12.4667 0.533447C5.98407 0.533447 0.733398 5.78411 0.733398 12.2668C0.733398 18.7494 5.98407 24.0001 12.4667 24.0001C18.9494 24.0001 24.2001 18.7494 24.2001 12.2668C24.2001 5.78411 18.9494 0.533447 12.4667 0.533447ZM19.0447 14.6721C17.6734 16.4394 15.6421 16.3148 15.6421 16.3148L14.9454 15.4348C16.1701 15.1708 16.9401 14.0854 16.9401 14.0854C16.9401 14.0854 15.1067 15.3394 12.4667 15.3394C9.82673 15.3394 7.98607 14.0854 7.98607 14.0854C7.98607 14.0854 8.75607 15.1708 9.98073 15.4348L9.28407 16.3148C9.28407 16.3148 7.25273 16.4394 5.8814 14.6721C5.8814 14.6721 5.7714 11.6434 7.45807 8.13078C7.45807 8.13078 8.95407 6.98678 10.6041 6.95745L10.7727 7.12611C10.7727 7.12611 9.01273 7.64678 8.00807 8.54145C8.00807 8.54145 9.84873 7.41945 12.4667 7.41945C15.0847 7.41945 16.9254 8.54145 16.9254 8.54145C15.9207 7.63945 14.1607 7.12611 14.1607 7.12611L14.3294 6.95745C15.9794 6.98678 17.4754 8.13078 17.4754 8.13078C19.1547 11.6434 19.0447 14.6721 19.0447 14.6721Z" fill="white" fill-opacity="0.5"/>
</svg>
