<svg width="24" height="24" viewBox="0 0 24 24" fill="none" xmlns="http://www.w3.org/2000/svg">
<rect width="23.4667" height="23.9128" rx="6" fill="url(#paint0_linear_31_1873)"/>
<path d="M8.19873 20.6458C8.52469 20.7614 9.19561 21.0574 9.36673 21.0827C8.45678 19.9579 8.34813 17.2374 9.50255 16.1915C9.01362 16.4649 8.71211 16.7384 8.34813 17.2374C8.83163 15.2611 10.5429 14.4097 12.0586 14.3844C11.6104 14.3111 11.1595 14.2801 10.7031 14.3534C10.13 14.4436 9.54601 14.6494 9.01905 14.2603C8.61704 13.9643 8.67952 13.5781 8.35628 13.189C8.48123 13.3413 9.08424 13.6006 9.28796 13.6711C9.63836 13.7924 9.65737 13.767 10.0241 13.7557C10.6868 13.7331 11.3985 13.4794 12.007 13.9051C12.1346 13.9953 12.3492 14.2547 12.5285 14.4041C13.0337 14.4549 13.5009 14.5986 13.8649 14.8298L13.8676 14.8326C13.8595 14.8298 13.8513 14.8298 13.8432 14.827C13.8296 14.8242 13.816 14.8185 13.8024 14.8157C13.8214 14.8242 13.835 14.8298 13.8404 14.8326L13.8432 14.8354C13.835 14.8326 13.8269 14.8326 13.8187 14.8298C13.797 14.8242 13.7725 14.8185 13.7508 14.8129C13.7345 14.8101 13.7209 14.8044 13.7073 14.8044C13.6693 14.796 13.6286 14.7875 13.5905 14.7847C13.5742 14.7819 13.5607 14.7791 13.5444 14.7791C13.4928 14.7734 13.4411 14.7678 13.3895 14.7678C13.2918 14.765 13.1913 14.7678 13.088 14.7791C11.9635 14.9116 11.1486 15.9518 11.2708 17.1049C11.2708 17.1133 11.2736 17.1246 11.2736 17.1331C11.3904 18.1198 11.8467 19.9635 13.012 20.2849C13.4439 20.4033 13.8377 20.595 14.5901 20.533C15.2855 20.4766 15.9619 20.2849 17.0103 19.0839C17.9203 17.7138 18.3169 15.5149 18.3332 13.8121C18.3576 11.0888 16.9451 9.18582 16.4752 8.60225C17.0782 10.4291 17.0511 12.067 16.4128 12.8367C16.2498 13.0312 15.9754 13.2539 15.4213 13.2764C15.6739 12.8789 16.1194 11.5849 15.8097 9.3296C15.5924 7.75931 14.5548 6.61191 14.2126 6.20877C14.2669 6.66829 14.2886 7.39 14.0414 8.20474C13.9328 8.5656 13.7915 8.86725 13.6557 9.11252C13.4656 8.21038 13.05 6.76978 12.0749 5.25589C11.0889 3.72225 9.94802 2.76937 9.21191 2.24219C9.77689 3.7138 9.95888 6.38356 8.43505 9.25066C7.95427 10.1556 6.54995 11.21 6.43587 12.8564C6.15609 12.6506 5.76223 12.6393 5.71877 12.0586C5.68889 11.6808 5.81928 10.6123 6.06374 9.93572C5.82199 10.3219 3.24424 12.566 5.02069 16.9724C5.94694 19.27 6.98456 19.9522 7.8429 20.4738C7.95427 20.5443 8.07379 20.6007 8.19873 20.6458Z" fill="white"/>
<defs>
<linearGradient id="paint0_linear_31_1873" x1="1.87733" y1="23.9128" x2="30.9308" y2="16.8469" gradientUnits="userSpaceOnUse">
<stop offset="0.0833571" stop-color="#F02148"/>
<stop offset="1" stop-color="#FF5B21"/>
</linearGradient>
</defs>
</svg>
