<svg width="22" height="19" viewBox="0 0 22 19" fill="none" xmlns="http://www.w3.org/2000/svg">
<path d="M18.2875 8.63438C18.9922 7.9125 19.4047 6.98437 19.4047 5.97031C19.4047 3.7875 17.4625 2 15.0906 2C15.0219 2 14.9531 2.01719 14.8844 2.01719C14.9531 2.10312 15.0563 2.22344 15.125 2.32656C15.4688 2.75625 15.7094 3.18594 15.8812 3.70156C16.9125 4.01094 18.0641 4.90469 18.0641 5.95312C18.0641 6.88125 17.4625 7.74062 16.5516 8.11875C16.2078 8.23906 15.9672 8.51406 15.9672 8.85781C15.9672 9.20156 16.225 9.49375 16.5859 9.59688L16.7578 9.63125C19.0609 10.1641 20.6594 12.0375 20.6594 14.2375V14.8562H19.4219C19.5422 15.3719 19.5937 15.7156 19.5937 16.2656H21.1406C21.6219 16.2656 22 15.9047 22 15.475V14.2547C22 11.8313 20.5391 9.7 18.2875 8.63438ZM5.39688 9.64844L5.56875 9.61406C5.92969 9.51094 6.1875 9.21875 6.1875 8.875C6.1875 8.54844 5.94687 8.25625 5.60312 8.13594C4.675 7.75781 4.09063 6.89844 4.09063 5.97031C4.09063 4.92187 5.0875 4.02813 6.11875 3.71875C6.30781 3.20312 6.53125 2.70469 6.89219 2.29219C6.96094 2.20625 7.06406 2.12031 7.11562 2.03437C7.04687 2.03437 6.97812 2.01719 6.90937 2.01719C4.5375 2.01719 2.59531 3.7875 2.59531 5.9875C2.59531 6.98437 3.00781 7.92969 3.7125 8.65156C1.46094 9.7 0 11.8313 0 14.2547V15.475C0 15.9219 0.378125 16.2656 0.859375 16.2656H2.40625C2.40625 15.7156 2.475 15.3719 2.57812 14.8562H1.49531V14.2375C1.49531 12.0719 3.09375 10.1812 5.39688 9.64844Z" fill="white"/>
<path d="M13.7766 8.49063C14.8766 7.61406 15.5812 6.27344 15.5812 4.76094C15.5812 2.13125 13.4672 0 10.8719 0C8.25937 0 6.14531 2.13125 6.14531 4.74375C6.14531 6.25625 6.85 7.61406 7.95 8.47344C5.04531 9.64219 3 12.4953 3 15.8297V17.4109C3 17.8406 3.34375 18.2016 3.79062 18.2016H17.9359C18.3656 18.2016 18.7266 17.8406 18.7266 17.4109V15.8297C18.7266 12.5125 16.6641 9.65938 13.7766 8.49063ZM7.74375 4.74375C7.74375 3.00781 9.15312 1.59844 10.8719 1.59844C12.5906 1.59844 14 3.00781 14 4.74375C14 6.47969 12.5906 7.88906 10.8719 7.88906C9.13594 7.88906 7.74375 6.47969 7.74375 4.74375ZM16.9906 16.6031H4.73594V15.8297C4.73594 12.4266 7.48594 9.64219 10.8719 9.64219C14.2578 9.64219 16.9906 12.4094 16.9906 15.8297V16.6031Z" fill="white"/>
</svg>
