<?xml version="1.0" encoding="utf-8"?>
<!-- Generator: Adobe Illustrator 24.0.1, SVG Export Plug-In . SVG Version: 6.00 Build 0)  -->
<svg version="1.1" id="Layer_1" xmlns="http://www.w3.org/2000/svg" xmlns:xlink="http://www.w3.org/1999/xlink" x="0px" y="0px"
	 viewBox="0 0 358 230" style="enable-background:new 0 0 358 230;" xml:space="preserve">
<style type="text/css">
	.st0{fill:url(#SVGID_1_);fill-opacity:0.5;}
	.st1{fill:url(#SVGID_2_);stroke:#BBBDBF;stroke-width:0.4024;stroke-miterlimit:10;}
	.st2{fill:url(#SVGID_3_);}
	.st3{fill:#030303;}
	.st4{fill:url(#SVGID_4_);}
	.st5{fill:none;filter:url(#Adobe_OpacityMaskFilter);}
	.st6{mask:url(#mask0_65_48_1_);}
	.st7{opacity:0.49;}
	.st8{fill:url(#SVGID_5_);}
	.st9{fill:url(#SVGID_6_);stroke:#6D6E70;stroke-width:0.3351;stroke-miterlimit:10;}
	.st10{fill:url(#SVGID_7_);filter:url(#Adobe_OpacityMaskFilter_1_);}
	.st11{mask:url(#mask1_65_48_1_);}
	.st12{opacity:3.000000e-02;fill:url(#SVGID_8_);enable-background:new    ;}
	.st13{fill:none;}
</style>
<g>
	
		<linearGradient id="SVGID_1_" gradientUnits="userSpaceOnUse" x1="178.9445" y1="13.0287" x2="182.8075" y2="-55.3452" gradientTransform="matrix(1 0 0 -1 0 230)">
		<stop  offset="0" style="stop-color:#050C37"/>
		<stop  offset="0.6099" style="stop-color:#F2F2F2;stop-opacity:0"/>
	</linearGradient>
	<ellipse class="st0" cx="178.9" cy="216.9" rx="174.1" ry="9.1"/>
</g>
<linearGradient id="SVGID_2_" gradientUnits="userSpaceOnUse" x1="54.2744" y1="247.4107" x2="305.1267" y2="-2.6664" gradientTransform="matrix(1 0 0 -1 0 230)">
	<stop  offset="0" style="stop-color:#E0E0E0"/>
	<stop  offset="1" style="stop-color:#999999"/>
</linearGradient>
<path class="st1" d="M318.5,214.1c6.9,0,12.4-5.6,12.4-12.5v-188c0-6.9-5.6-12.5-12.4-12.5H40.9c-6.9,0-12.4,5.6-12.4,12.5v188
	c0,6.9,5.6,12.5,12.4,12.5L318.5,214.1L318.5,214.1z"/>
<linearGradient id="SVGID_3_" gradientUnits="userSpaceOnUse" x1="329.436" y1="122.3738" x2="29.9614" y2="122.3738" gradientTransform="matrix(1 0 0 -1 0 230)">
	<stop  offset="0" style="stop-color:#000000"/>
	<stop  offset="1" style="stop-color:#383838"/>
</linearGradient>
<path class="st2" d="M318.5,212.6c6,0,11-4.9,11-11v-188c0-6.1-4.9-11-11-11H40.9c-6,0-11,4.9-11,11v188c0,6.1,4.9,11,11,11H318.5z"
	/>
<path class="st3" d="M318.5,211.8c5.6,0,10.1-4.5,10.1-10.1v-188c0-5.6-4.5-10.1-10.1-10.1H40.9c-5.6,0-10.1,4.5-10.1,10.1v188
	c0,5.6,4.5,10.1,10.1,10.1L318.5,211.8L318.5,211.8z"/>
<linearGradient id="SVGID_4_" gradientUnits="userSpaceOnUse" x1="178.9247" y1="12.5139" x2="178.9247" y2="20.271" gradientTransform="matrix(1 0 0 -1 0 230)">
	<stop  offset="0" style="stop-color:#242424"/>
	<stop  offset="1" style="stop-color:#C4C4C4"/>
</linearGradient>
<path class="st4" d="M21.4,217.4l157.6,0l135.1,0h25.1c2.3-0.2,5.9-1.2,10.4-5.3h0v0v-0.3v-2.1H8.3v2.1v0.3v0.1h0.1
	C15.2,218.3,20,217.4,21.4,217.4z"/>
<defs>
	<filter id="Adobe_OpacityMaskFilter" filterUnits="userSpaceOnUse" x="8.1" y="210" width="341.6" height="7.8">
		<feColorMatrix  type="matrix" values="1 0 0 0 0  0 1 0 0 0  0 0 1 0 0  0 0 0 1 0"/>
	</filter>
</defs>
<mask maskUnits="userSpaceOnUse" x="8.1" y="210" width="341.6" height="7.8" id="mask0_65_48_1_">
	<rect x="7" y="208.3" class="st5" width="343.3" height="10.5"/>
</mask>
<g class="st6">
	<g class="st7">
		<path d="M21.2,217.7l157.8,0l135.2,0h25.1c2.3-0.2,5.9-1.2,10.4-5.3h0v0v-0.3V210H8.1v2.1v0.3v0.1h0.1
			C15,218.6,19.8,217.7,21.2,217.7z"/>
	</g>
</g>
<linearGradient id="SVGID_5_" gradientUnits="userSpaceOnUse" x1="8.1405" y1="21.1215" x2="349.738" y2="21.1215" gradientTransform="matrix(1 0 0 -1 0 230)">
	<stop  offset="0" style="stop-color:#E1E2E3"/>
	<stop  offset="1" style="stop-color:#A8A8A8"/>
</linearGradient>
<path class="st8" d="M349.7,212.5V205H8.1v7.5c1.3,0.1,2.6,0.2,4,0.2h333.6C347.1,212.7,348.5,212.7,349.7,212.5z"/>
<linearGradient id="SVGID_6_" gradientUnits="userSpaceOnUse" x1="179.6985" y1="21.402" x2="179.6985" y2="25.542" gradientTransform="matrix(1 0 0 -1 0 230)">
	<stop  offset="0" style="stop-color:#242424"/>
	<stop  offset="0.5276" style="stop-color:#A9A9A9"/>
	<stop  offset="1" style="stop-color:#C9C9C9"/>
</linearGradient>
<path class="st9" d="M207.6,208.6c2.7,0,4.9-1.5,4.9-3.4c0-0.2,0-0.5-0.1-0.7H147c-0.1,0.2-0.1,0.5-0.1,0.7c0,1.9,2.2,3.4,4.9,3.4
	H207.6z"/>
<defs>
	<filter id="Adobe_OpacityMaskFilter_1_" filterUnits="userSpaceOnUse" x="30.9" y="3.5" width="162" height="201">
		<feColorMatrix  type="matrix" values="1 0 0 0 0  0 1 0 0 0  0 0 1 0 0  0 0 0 1 0"/>
	</filter>
</defs>
<mask maskUnits="userSpaceOnUse" x="30.9" y="3.5" width="162" height="201" id="mask1_65_48_1_">
	
		<linearGradient id="SVGID_7_" gradientUnits="userSpaceOnUse" x1="10.7134" y1="208.6933" x2="148.7475" y2="-3.2036" gradientTransform="matrix(1 0 0 -1 0 230)">
		<stop  offset="0" style="stop-color:#FFFFFF"/>
		<stop  offset="6.290000e-02" style="stop-color:#DADADA"/>
		<stop  offset="0.1601" style="stop-color:#A7A7A7"/>
		<stop  offset="0.2621" style="stop-color:#7B7B7B"/>
		<stop  offset="0.3668" style="stop-color:#555555"/>
		<stop  offset="0.475" style="stop-color:#363636"/>
		<stop  offset="0.5878" style="stop-color:#1E1E1E"/>
		<stop  offset="0.7072" style="stop-color:#0D0D0D"/>
		<stop  offset="0.8376" style="stop-color:#030303"/>
		<stop  offset="1" style="stop-color:#000000"/>
	</linearGradient>
	<path class="st10" d="M30.8,204.5V14c0-5.8,4.5-10.5,10.1-10.5h57.4l94.6,201H30.8z"/>
</mask>
<g class="st11">
	
		<linearGradient id="SVGID_8_" gradientUnits="userSpaceOnUse" x1="155.4504" y1="189.2696" x2="43.4486" y2="17.3357" gradientTransform="matrix(1 0 0 -1 0 230)">
		<stop  offset="0" style="stop-color:#FFFFFF"/>
		<stop  offset="8.960000e-02" style="stop-color:#FFFFFF"/>
		<stop  offset="1" style="stop-color:#FFFFFF"/>
	</linearGradient>
	<path class="st12" d="M98.3,3.5H40.9c-5.6,0-10.1,4.7-10.1,10.5v190.4h162L98.3,3.5z"/>
</g>
<rect x="42.3" y="13.7" class="st13" width="277.7" height="176.4"/>
</svg>
