<svg width="25" height="24" viewBox="0 0 25 24" fill="none" xmlns="http://www.w3.org/2000/svg">
<path d="M16.1645 12.34C15.9592 12.1493 15.7099 11.9807 15.4019 11.8267C15.0939 11.6727 14.8079 11.5553 14.5365 11.4673C14.2652 11.3867 13.9645 11.306 13.6199 11.2253L12.5272 10.976C12.3145 10.9247 12.1605 10.888 12.0652 10.866C11.9699 10.844 11.8452 10.8 11.6985 10.7487C11.5519 10.69 11.4492 10.6387 11.3832 10.58C11.3172 10.5213 11.2659 10.448 11.2072 10.36C11.1559 10.272 11.1265 10.162 11.1265 10.0447C11.1265 9.50933 11.6325 9.23799 12.6372 9.23799C12.9379 9.23799 13.2092 9.28199 13.4439 9.36266C13.6785 9.44333 13.8692 9.54599 14.0085 9.66333C14.1479 9.78066 14.2799 9.89799 14.4045 10.0153C14.5292 10.1327 14.6685 10.2353 14.8225 10.316C14.9765 10.3967 15.1452 10.4407 15.3285 10.4407C15.6585 10.4407 15.9225 10.3307 16.1205 10.1033C16.3185 9.88333 16.4212 9.61199 16.4212 9.29666C16.4212 8.91533 16.2232 8.56333 15.8345 8.25533C15.4459 7.94733 14.9472 7.70533 14.3459 7.55133C13.7445 7.38999 13.1065 7.30933 12.4392 7.30933C11.9625 7.30933 11.5005 7.36066 11.0532 7.47066C10.6059 7.58066 10.1879 7.74199 9.7992 7.96199C9.41054 8.18199 9.10253 8.48266 8.86787 8.87133C8.6332 9.25999 8.51587 9.70733 8.51587 10.2207C8.51587 10.646 8.58187 11.02 8.71387 11.3353C8.84587 11.6507 9.04387 11.9147 9.30054 12.1273C9.55721 12.34 9.83587 12.5087 10.1365 12.6333C10.4372 12.7653 10.7965 12.8753 11.2145 12.9707L12.7472 13.3447C13.3779 13.4987 13.7665 13.6233 13.9205 13.7187C14.1479 13.858 14.2579 14.0707 14.2579 14.3493C14.2579 14.6207 14.1185 14.848 13.8399 15.024C13.5612 15.2 13.1945 15.288 12.7399 15.288C12.3805 15.288 12.0652 15.2293 11.7792 15.1193C11.4932 15.0093 11.2659 14.87 11.0972 14.716C10.9285 14.562 10.7672 14.4007 10.6205 14.2467C10.4739 14.0927 10.3125 13.9533 10.1365 13.8433C9.96054 13.7333 9.76987 13.6747 9.57187 13.6747C9.21987 13.6747 8.95587 13.7773 8.77987 13.99C8.60387 14.2027 8.51587 14.4593 8.51587 14.7747C8.51587 15.42 8.9412 15.97 9.7992 16.4247C10.6499 16.8793 11.6692 17.114 12.8499 17.114C13.3632 17.114 13.8472 17.048 14.3165 16.9233C14.7859 16.7913 15.2112 16.608 15.5999 16.366C15.9885 16.124 16.2965 15.794 16.5312 15.3833C16.7585 14.9727 16.8759 14.518 16.8759 14.0047C16.8759 13.6527 16.8099 13.3373 16.6705 13.044C16.5312 12.7653 16.3625 12.5307 16.1645 12.34Z" fill="white" fill-opacity="0.5"/>
<path d="M12.6374 0.533447C6.15472 0.533447 0.904053 5.78411 0.904053 12.2668C0.904053 18.7494 6.15472 24.0001 12.6374 24.0001C19.1201 24.0001 24.3707 18.7494 24.3707 12.2668C24.3707 5.78411 19.1201 0.533447 12.6374 0.533447ZM19.5014 19.1308C18.7167 19.9154 17.7634 20.3114 16.6561 20.3114C15.7467 20.3114 14.9254 20.0328 14.1994 19.4754C13.6641 19.5854 13.1361 19.6441 12.6227 19.6441C11.6254 19.6441 10.6647 19.4534 9.75539 19.0648C8.84606 18.6761 8.05406 18.1554 7.39406 17.4954C6.73406 16.8354 6.20606 16.0508 5.8174 15.1414C5.42873 14.2321 5.23806 13.2714 5.23806 12.2741C5.23806 11.7608 5.29673 11.2401 5.40673 10.7048C4.8494 9.97878 4.57072 9.15745 4.57072 8.25545C4.57072 7.14811 4.96672 6.19478 5.75139 5.41011C6.53605 4.62545 7.48939 4.22945 8.59672 4.22945C9.50606 4.22945 10.3274 4.50811 11.0534 5.06545C11.5887 4.95545 12.1167 4.89678 12.6301 4.89678C13.6274 4.89678 14.5881 5.08745 15.4974 5.47611C16.4067 5.86478 17.1987 6.38545 17.8587 7.04545C18.5187 7.70545 19.0467 8.49011 19.4354 9.39945C19.8241 10.3088 20.0147 11.2694 20.0147 12.2668C20.0147 12.7801 19.9561 13.3008 19.8461 13.8361C20.4034 14.5621 20.6821 15.3761 20.6821 16.2854C20.6821 17.4001 20.2934 18.3461 19.5014 19.1308Z" fill="white" fill-opacity="0.5"/>
</svg>
