<svg width="24" height="24" viewBox="0 0 24 24" fill="none" xmlns="http://www.w3.org/2000/svg">
<path d="M15.68 17.6201L17.6013 8.56345C17.682 8.18211 17.6306 7.90345 17.462 7.74211C17.2933 7.57345 17.066 7.54411 16.7873 7.65411L5.47932 12.0101C5.22265 12.1054 5.05399 12.2154 4.96599 12.3401C4.87799 12.4648 4.86331 12.5748 4.93665 12.6848C5.00998 12.7948 5.14932 12.8754 5.35465 12.9414L8.24399 13.8434L14.954 9.61945C15.1373 9.49478 15.2767 9.47278 15.372 9.53878C15.4307 9.58278 15.416 9.64878 15.3206 9.73678L9.89399 14.6354L9.68131 17.6128C9.87931 17.6128 10.0773 17.5174 10.268 17.3268L11.6833 15.9701L14.6166 18.1261C15.174 18.4268 15.5333 18.2654 15.68 17.6201ZM23.5707 12.2448C23.5707 13.8288 23.2626 15.3468 22.6393 16.7914C22.0233 18.2361 21.1873 19.4828 20.1387 20.5314C19.09 21.5801 17.8433 22.4088 16.3987 23.0248C14.954 23.6408 13.436 23.9561 11.8446 23.9561C10.2533 23.9561 8.74265 23.6481 7.29065 23.0248C5.84598 22.4088 4.59198 21.5728 3.55065 20.5314C2.50198 19.4828 1.67331 18.2361 1.04998 16.7914C0.433978 15.3468 0.118652 13.8288 0.118652 12.2448C0.118652 10.6608 0.426644 9.14278 1.04998 7.69811C1.66598 6.25345 2.50198 5.00678 3.55065 3.95811C4.59931 2.90945 5.84598 2.08078 7.29065 1.46478C8.73532 0.848781 10.2533 0.533447 11.8446 0.533447C13.4286 0.533447 14.9467 0.841447 16.3987 1.46478C17.8433 2.08078 19.0973 2.91678 20.1387 3.95811C21.1873 5.00678 22.016 6.25345 22.6393 7.69811C23.2626 9.14278 23.5707 10.6608 23.5707 12.2448Z" fill="white" fill-opacity="0.5"/>
</svg>
