<svg width="25" height="24" viewBox="0 0 25 24" fill="none" xmlns="http://www.w3.org/2000/svg">
<path d="M12.4374 0.533447C5.95477 0.533447 0.704102 5.78411 0.704102 12.2668C0.704102 18.7494 5.95477 24.0001 12.4374 24.0001C18.9201 24.0001 24.1708 18.7494 24.1708 12.2668C24.1708 5.78411 18.9128 0.533447 12.4374 0.533447ZM17.1161 10.4408C17.1234 10.5434 17.1234 10.6461 17.1234 10.7561C17.1234 13.9461 14.6961 17.6201 10.2594 17.6201C8.89543 17.6201 7.62677 17.2241 6.56344 16.5348C6.75411 16.5568 6.94477 16.5714 7.13544 16.5714C8.26477 16.5714 9.30611 16.1828 10.1274 15.5374C9.07144 15.5154 8.1841 14.8188 7.8761 13.8654C8.02277 13.8948 8.17677 13.9094 8.33078 13.9094C8.55078 13.9094 8.76344 13.8801 8.96877 13.8214C7.86144 13.6014 7.03277 12.6261 7.03277 11.4601V11.4308C7.35544 11.6068 7.72944 11.7168 8.12544 11.7314C7.48011 11.2988 7.05477 10.5581 7.05477 9.72211C7.05477 9.28211 7.1721 8.86411 7.38477 8.51211C8.57277 9.97145 10.3474 10.9321 12.3568 11.0348C12.3128 10.8588 12.2981 10.6754 12.2981 10.4848C12.2981 9.15011 13.3761 8.07211 14.7108 8.07211C15.4074 8.07211 16.0308 8.36545 16.4708 8.83478C17.0208 8.72478 17.5341 8.52678 18.0034 8.24811C17.8274 8.81278 17.4388 9.28211 16.9401 9.58278C17.4241 9.52411 17.8934 9.39211 18.3261 9.20145C17.9961 9.67811 17.5928 10.1034 17.1161 10.4408Z" fill="white" fill-opacity="0.5"/>
</svg>
