<svg width="24" height="24" viewBox="0 0 24 24" fill="none" xmlns="http://www.w3.org/2000/svg">
<path d="M8.94997 13.9387C8.48063 14.1587 8.2313 14.6207 8.39997 14.9727C8.5613 15.3247 9.07464 15.4347 9.55131 15.2147C10.0206 14.9947 10.27 14.5327 10.1013 14.1807C9.93997 13.8287 9.42663 13.7187 8.94997 13.9387Z" fill="white" fill-opacity="0.5"/>
<path d="M10.2039 10.8882C7.63722 11.2475 5.74521 12.8975 5.97988 14.5622C6.21454 16.2342 8.48789 17.2902 11.0546 16.9308C13.6212 16.5715 15.5132 14.9288 15.2785 13.2568C15.0439 11.5922 12.7706 10.5288 10.2039 10.8882ZM10.5779 16.4762C9.05254 16.7695 7.61522 15.9848 7.36589 14.7088C7.11655 13.4402 8.15787 12.1642 9.6832 11.8708C11.2085 11.5775 12.6459 12.3622 12.8952 13.6382C13.1445 14.9068 12.1105 16.1828 10.5779 16.4762Z" fill="white" fill-opacity="0.5"/>
<path d="M10.1599 13.6748C10.1599 13.8434 10.2479 13.9974 10.3946 14.0781C10.5412 14.1588 10.7172 14.1588 10.8639 14.0781C11.0106 13.9974 11.0986 13.8361 11.0986 13.6748C11.0986 13.5061 11.0106 13.3521 10.8639 13.2714C10.7172 13.1908 10.5412 13.1908 10.3946 13.2714C10.2479 13.3521 10.1599 13.5061 10.1599 13.6748Z" fill="white" fill-opacity="0.5"/>
<path d="M12.0373 0.533447C5.55462 0.533447 0.303955 5.78411 0.303955 12.2668C0.303955 18.7494 5.55462 24.0001 12.0373 24.0001C18.52 24.0001 23.7706 18.7494 23.7706 12.2668C23.7706 5.79145 18.52 0.533447 12.0373 0.533447ZM10.864 18.3681C6.84528 18.3681 3.58927 16.2634 3.58927 13.6748C3.58927 11.0861 8.46595 6.98678 10.3359 6.98678C11.1206 6.98678 12.6533 7.57345 11.5826 9.42145C11.5093 9.55345 14.0026 8.34345 15.3739 9.13545C16.7379 9.92745 15.3739 11.1961 15.3739 11.3428C15.3739 11.4821 18.1166 11.4821 18.1166 13.6748C18.1093 16.2708 14.8826 18.3681 10.864 18.3681ZM16.5839 8.77611C16.1293 8.24078 15.3226 8.36545 15.3226 8.36545C15.0879 8.36545 14.89 8.20411 14.8606 7.97678C14.89 7.74945 15.0879 7.54411 15.3226 7.51478C15.3226 7.51478 16.3053 7.25078 17.1486 8.01345C17.9993 8.77611 17.6473 10.0374 17.6473 10.0374C17.6106 10.2941 17.3613 10.4994 17.0973 10.4994H17.0533C16.7893 10.4994 16.6426 10.3014 16.7086 10.0521C16.7086 10.0521 17.0313 9.31145 16.5839 8.77611ZM19.7959 10.3968C19.7666 10.7561 19.4513 11.0494 19.0993 11.0861C18.7546 11.0494 18.5273 10.7488 18.5713 10.3968C18.5713 10.3968 18.9526 8.91545 18.0213 7.58078C17.09 6.23878 15.0806 6.47345 15.0806 6.47345C14.7213 6.47345 14.4206 6.20945 14.3839 5.86478C14.4206 5.51278 14.7213 5.23411 15.0806 5.23411C15.0806 5.23411 17.1706 5.02145 18.7253 6.49545C20.2873 7.95478 19.7959 10.3968 19.7959 10.3968Z" fill="white" fill-opacity="0.5"/>
</svg>
