<svg width="24" height="24" viewBox="0 0 24 24" fill="none" xmlns="http://www.w3.org/2000/svg">
<path d="M13.176 12.7359C13.176 12.9926 13.3887 13.2053 13.6454 13.2053C13.902 13.2053 14.1147 12.9926 14.1147 12.7359C14.1147 12.4793 13.902 12.2666 13.6454 12.2666C13.3887 12.2666 13.176 12.4793 13.176 12.7359Z" fill="white" fill-opacity="0.5"/>
<path d="M12.2372 0.533447C5.75457 0.533447 0.503906 5.78411 0.503906 12.2668C0.503906 18.7494 5.75457 24.0001 12.2372 24.0001C18.7199 24.0001 23.9706 18.7494 23.9706 12.2668C23.9706 5.79145 18.7199 0.533447 12.2372 0.533447ZM17.9059 17.1581C17.6932 17.2828 18.3606 18.3681 18.1259 18.4634C17.9792 18.5221 16.9379 17.6128 16.7839 17.6568C16.3146 17.7961 15.8159 17.8694 15.2879 17.8694C13.3666 17.8694 11.7312 16.8501 11.1006 15.4201C10.7779 15.4714 10.4479 15.4934 10.1252 15.4934C9.4579 15.4934 8.81991 15.3908 8.23325 15.2001C7.93991 15.1048 6.85458 16.2341 6.58325 16.1021C6.42191 16.0214 7.06724 14.6794 6.92057 14.5841C5.59324 13.7334 4.72791 12.3694 4.72791 10.8294C4.72791 8.25545 7.1479 6.16545 10.1252 6.16545C12.9339 6.16545 15.2439 8.02078 15.5006 10.3968C17.8619 10.4921 19.7466 12.1274 19.7466 14.1294C19.7466 15.3761 19.0206 16.4761 17.9059 17.1581Z" fill="white" fill-opacity="0.5"/>
<path d="M15.9919 12.7359C15.9919 12.9926 16.2046 13.2053 16.4613 13.2053C16.718 13.2053 16.9306 12.9926 16.9306 12.7359C16.9306 12.4793 16.718 12.2666 16.4613 12.2666C16.2046 12.2666 15.9919 12.4793 15.9919 12.7359Z" fill="white" fill-opacity="0.5"/>
<path d="M10.1254 7.104C7.6614 7.104 5.66675 8.776 5.66675 10.844C5.66675 12.0247 6.31207 13.154 7.33141 13.8433C7.38274 13.88 7.65408 14.0047 7.63208 14.1733C7.59541 14.5547 7.47808 14.8187 7.47808 14.8187C7.47808 14.8187 7.79341 14.4593 8.02074 14.2833C8.12341 14.2027 8.31408 14.2613 8.37275 14.2833C8.90808 14.474 9.50207 14.584 10.1254 14.584C10.3747 14.584 10.6167 14.5693 10.8587 14.5327C10.8441 14.4007 10.8294 14.2613 10.8294 14.122C10.8294 12.2667 12.4427 10.7267 14.5547 10.4333C14.3201 8.56334 12.4281 7.104 10.1254 7.104ZM8.24807 9.92C7.85941 9.92 7.54408 9.60467 7.54408 9.216C7.54408 8.82734 7.85941 8.512 8.24807 8.512C8.63674 8.512 8.95209 8.82734 8.95209 9.216C8.95209 9.60467 8.63674 9.92 8.24807 9.92ZM12.0027 9.92C11.6141 9.92 11.2987 9.60467 11.2987 9.216C11.2987 8.82734 11.6141 8.512 12.0027 8.512C12.3914 8.512 12.7068 8.82734 12.7068 9.216C12.7068 9.60467 12.3914 9.92 12.0027 9.92Z" fill="white" fill-opacity="0.5"/>
</svg>
