<svg width="28" height="20" viewBox="0 0 28 20" fill="none" xmlns="http://www.w3.org/2000/svg">
<path fill-rule="evenodd" clip-rule="evenodd" d="M0.666748 1.66667C0.666748 0.746192 1.41294 0 2.33341 0H25.6667C26.5872 0 27.3334 0.746192 27.3334 1.66667C27.3334 2.58714 26.5872 3.33333 25.6667 3.33333H2.33341C1.41294 3.33333 0.666748 2.58714 0.666748 1.66667ZM0.666748 10C0.666748 9.07952 1.41294 8.33333 2.33341 8.33333H25.6667C26.5872 8.33333 27.3334 9.07952 27.3334 10C27.3334 10.9205 26.5872 11.6667 25.6667 11.6667H2.33341C1.41294 11.6667 0.666748 10.9205 0.666748 10ZM0.666748 18.3333C0.666748 17.4129 1.41294 16.6667 2.33341 16.6667H25.6667C26.5872 16.6667 27.3334 17.4129 27.3334 18.3333C27.3334 19.2538 26.5872 20 25.6667 20H2.33341C1.41294 20 0.666748 19.2538 0.666748 18.3333Z" fill="white"/>
</svg>
