<svg width="88" height="86" viewBox="0 0 88 86" fill="none" xmlns="http://www.w3.org/2000/svg">
<g opacity="0.25" filter="url(#filter0_f_1_8124)">
<circle cx="41.5" cy="44.5" r="37.5" fill="url(#paint0_linear_1_8124)"/>
</g>
<circle cx="50.5" cy="37.5" r="37.5" fill="url(#paint1_linear_1_8124)"/>
<path d="M35.7442 19.5863C35.0079 19.5863 34.3892 20.0267 34.3892 20.5491V55.4612C34.3892 55.9835 35.0079 56.424 35.7442 56.424H62.1801C62.9165 56.424 63.5352 55.9835 63.5352 55.4612V26.3976H56.2896V19.9652L55.8294 19.5863H35.7442ZM62.1801 59H35.7442C33.5761 59 31.812 57.4124 31.812 55.456V20.544C31.812 18.5876 33.5761 17 35.7442 17H56.7498L66.1123 24.7025V55.456C66.1123 57.4124 64.3482 59 62.1801 59Z" fill="white"/>
<path d="M50.4501 49.0185H39.1139C38.6844 49.0185 38.3418 49.3667 38.3418 49.7918C38.3418 50.2169 38.6895 50.5651 39.1139 50.5651H50.4501C50.8797 50.5651 51.2222 50.2169 51.2222 49.7918C51.2222 49.3616 50.8797 49.0185 50.4501 49.0185ZM59.4701 43.6411H39.1139C38.6844 43.6411 38.3418 43.9893 38.3418 44.4144C38.3418 44.8395 38.6895 45.1877 39.1139 45.1877H59.4701C59.8996 45.1877 60.2422 44.8395 60.2422 44.4144C60.2422 43.9893 59.8945 43.6411 59.4701 43.6411ZM59.4701 38.5198H39.1139C38.6844 38.5198 38.3418 38.868 38.3418 39.2931C38.3418 39.7233 38.6895 40.0664 39.1139 40.0664H59.4701C59.8996 40.0664 60.2422 39.7182 60.2422 39.2931C60.2422 38.868 59.8945 38.5198 59.4701 38.5198ZM40.7041 35.7338H42.6421C44.2477 35.7338 45.5516 34.4278 45.5516 32.8146V30.8736C45.5516 29.2655 44.2477 27.9545 42.6421 27.9545H40.7041C39.0985 27.9545 37.7895 29.2604 37.7895 30.8736V32.8146C37.7946 34.4278 39.0985 35.7338 40.7041 35.7338ZM39.3389 30.8787C39.3389 30.1259 39.9525 29.5114 40.7041 29.5114H42.6421C43.3937 29.5114 44.0073 30.1259 44.0073 30.8787V32.8197C44.0073 33.5726 43.3937 34.1871 42.6421 34.1871H40.7041C39.9525 34.1871 39.3389 33.5726 39.3389 32.8197V30.8787ZM48.277 32.62H59.6132C60.0427 32.62 60.3853 32.2717 60.3853 31.8467C60.3853 31.4165 60.0376 31.0734 59.6132 31.0734H48.277C47.8474 31.0734 47.5049 31.4216 47.5049 31.8467C47.5049 32.2769 47.8526 32.62 48.277 32.62Z" fill="white"/>
<defs>
<filter id="filter0_f_1_8124" x="0" y="3" width="83" height="83" filterUnits="userSpaceOnUse" color-interpolation-filters="sRGB">
<feFlood flood-opacity="0" result="BackgroundImageFix"/>
<feBlend mode="normal" in="SourceGraphic" in2="BackgroundImageFix" result="shape"/>
<feGaussianBlur stdDeviation="2" result="effect1_foregroundBlur_1_8124"/>
</filter>
<linearGradient id="paint0_linear_1_8124" x1="5.20436" y1="119.931" x2="5.20436" y2="7" gradientUnits="userSpaceOnUse">
<stop stop-color="#A100DA"/>
<stop offset="1" stop-color="#FF5252"/>
</linearGradient>
<linearGradient id="paint1_linear_1_8124" x1="14.2044" y1="112.931" x2="14.2044" y2="0" gradientUnits="userSpaceOnUse">
<stop stop-color="#A100DA"/>
<stop offset="1" stop-color="#FF5252"/>
</linearGradient>
</defs>
</svg>
