<svg width="100" height="82" viewBox="0 0 100 82" fill="none" xmlns="http://www.w3.org/2000/svg">
<path d="M94.8747 55.7879L62.6226 74.5445C55.7566 78.5458 44.5774 78.5458 37.6649 74.5445L5.21703 55.7879C1.73282 53.7733 3.7379e-05 51.1337 0.00935343 48.5035L3.71655e-05 52.2343C-0.00927889 54.8739 1.73282 57.5134 5.20771 59.5187L37.6649 78.2753C44.5774 82.2766 55.7473 82.2766 62.6226 78.2753L94.8654 59.5094C98.2751 57.5227 99.9893 54.9298 99.9893 52.3276L99.9986 48.5968C99.9986 51.199 98.2844 53.8013 94.8747 55.7879Z" fill="url(#paint0_linear_1_4713)"/>
<path d="M94.791 41.3123C101.704 45.3136 101.741 51.7865 94.8749 55.7878L62.6227 74.5444C55.7568 78.5457 44.5775 78.5457 37.665 74.5444L5.21718 55.7878C-1.69533 51.7865 -1.7326 45.3136 5.13333 41.3123L37.3762 22.5464C44.2421 18.5452 55.4214 18.5452 62.3339 22.5464L94.791 41.3123Z" fill="white"/>
<g style="mix-blend-mode:multiply" opacity="0.3" filter="url(#filter0_f_1_4713)">
<path d="M68.4353 45.3744C76.0731 49.3749 76.0731 55.8618 68.4353 59.8622C60.7975 63.8627 48.4153 63.8627 40.7775 59.8622C33.1397 55.8618 33.1397 49.3749 40.7775 45.3744C48.4153 41.3739 60.7991 41.3739 68.4353 45.3744Z" fill="#50298A"/>
</g>
<path d="M67.3021 26.9967C66.6344 26.8344 65.8559 27.3579 65.4898 27.9039C65.3355 27.8757 65.1756 27.8729 65.0157 27.8997C64.3339 28.0168 63.7813 28.5854 63.6719 29.281C63.5975 29.7565 63.641 30.8034 64.3171 30.7568C64.5359 30.7427 64.7281 30.4916 64.5864 30.2785C64.2961 29.8397 64.449 29.0947 64.8207 28.7561C64.9343 28.6531 65.0676 28.584 65.2078 28.5473C65.0788 29.0496 65.111 29.621 65.4182 30.0175C65.6707 30.342 66.0312 30.3999 66.3342 30.1078C67.0945 29.3755 66.6484 28.4119 65.8924 28.038C65.9429 27.9759 65.9962 27.9166 66.0565 27.863C66.3048 27.6401 66.7312 27.4016 67.0678 27.4369C67.5448 27.4863 67.7061 27.9477 67.8421 28.3343C67.8983 28.4923 68.1395 28.5191 68.1844 28.3343C68.3191 27.7798 67.8351 27.1265 67.3021 26.9967ZM66.2529 29.535C66.041 30.287 65.5262 29.5096 65.5192 29.099C65.5164 28.9029 65.5529 28.7081 65.6188 28.5233C66.0565 28.5925 66.417 28.9522 66.2529 29.535Z" fill="#D73D28"/>
<path d="M48.58 54.3264C46.8884 55.2181 47.6641 57.3176 47.866 58.8358C47.9727 59.64 48.1213 60.4315 48.6894 61.0481C49.193 61.5955 49.9589 61.8791 50.6897 61.7874C51.4205 61.6957 52.0967 61.2315 52.4558 60.5769C52.8387 59.8742 52.6956 59.1349 52.7349 58.3617C52.7826 57.4023 52.8317 56.4428 52.8794 55.4834C52.9004 55.0615 52.9018 54.5832 52.603 54.2898C52.2467 53.9398 51.4065 53.9906 50.924 53.9342C50.1721 53.8467 49.2533 53.9723 48.58 54.3264Z" fill="#CA1435"/>
<path d="M38.744 48.1662C36.8504 47.9617 36.3664 50.15 35.7142 51.5313C35.3691 52.2622 35.0675 53.0071 35.2078 53.8396C35.3326 54.5789 35.8194 55.2463 36.48 55.5807C37.1393 55.9151 37.9543 55.9066 38.608 55.5595C39.3079 55.1884 39.5871 54.49 40.0359 53.8664C40.5942 53.0918 41.1511 52.3186 41.7094 51.544C41.9549 51.204 42.213 50.8047 42.1232 50.3927C42.0152 49.9003 41.2858 49.4714 40.914 49.1539C40.3333 48.6587 39.4973 48.2481 38.744 48.1662Z" fill="#CA1435"/>
<path d="M63.6648 45.9864C62.2087 47.2379 63.4221 49.1102 63.9481 50.5452C64.2259 51.3042 64.5443 52.0436 65.2316 52.5162C65.8418 52.9367 66.6512 53.0397 67.3441 52.7857C68.0371 52.5318 68.5967 51.9265 68.8029 51.2055C69.0246 50.4337 68.723 49.7452 68.5939 48.9819C68.4326 48.0351 68.2713 47.0884 68.11 46.1431C68.0385 45.7268 66.7858 42.0937 66.4309 41.875C66.0087 41.614 66.3496 45.02 65.867 45.0736C65.1138 45.1568 64.2441 45.4884 63.6648 45.9864Z" fill="#CA1435"/>
<path fill-rule="evenodd" clip-rule="evenodd" d="M67.7579 39.0687C67.7565 39.141 67.7558 39.2191 67.7553 39.3003C67.758 39.2231 67.7588 39.1459 67.7579 39.0687ZM60.6667 52.1852C61.0947 51.9162 61.5999 51.5858 61.9646 51.293C62.5061 50.8584 63.1906 50.232 63.6774 49.7353C63.9425 49.463 64.2791 49.0806 64.505 48.7731C64.9047 48.2284 65.4364 47.4948 65.7632 46.9008C66.0592 46.366 66.4141 45.6309 66.6483 45.0651C66.8433 44.5953 67.0663 43.9519 67.1912 43.4595C67.3469 42.85 67.5334 42.0302 67.6148 41.4052C67.6667 41.0045 67.7144 40.4655 67.7396 40.0606C67.7519 39.8599 67.7534 39.6143 67.7547 39.3843L67.7553 39.3003C67.6832 41.3626 66.3051 43.4231 63.62 45.0143C63.62 45.0138 63.6199 45.0133 63.6199 45.0129L58.7721 47.8855C58.7722 47.8867 58.7722 47.888 58.7722 47.8892C56.2048 49.4102 52.8995 49.5262 49.4959 49.6457C48.0554 49.6962 46.5972 49.7474 45.17 49.906C45.205 52.9056 43.5498 54.4802 41.248 53.9822C41.175 53.9666 41.1021 53.9483 41.0277 53.9285C41.4135 54.0358 41.6379 54.1331 42.5301 54.5747C43.2048 54.9091 43.7687 55.18 44.3255 55.4114C45.069 55.7218 45.4463 55.8516 46.0663 56.0492C46.4282 56.1649 46.9178 56.2975 47.2909 56.3723C47.7917 56.4739 48.4664 56.591 48.9756 56.6347C49.3908 56.6714 49.9462 56.6827 50.3628 56.6813C50.5417 56.6803 50.7618 56.6626 50.9664 56.6461L50.9664 56.6461C51.0586 56.6387 51.1477 56.6315 51.2283 56.6262C51.6533 56.598 52.213 56.4823 52.6296 56.392C53.0448 56.3017 53.5905 56.1338 53.9847 55.9744C54.4897 55.7698 55.1391 55.4411 55.6188 55.1829C55.6513 55.1636 55.6835 55.1441 55.7155 55.1242L60.4666 52.3088C62.2115 51.2743 63.3591 49.193 63.5815 46.2672C63.368 49.0804 62.2993 51.113 60.6667 52.1852ZM60.6667 52.1852C60.5977 52.2287 60.5306 52.2705 60.4665 52.3103C60.5342 52.2702 60.6009 52.2285 60.6667 52.1852Z" fill="url(#paint1_linear_1_4713)"/>
<path d="M41.2466 53.9821C40.8875 53.8861 40.5242 53.8071 40.1651 53.7281C42.2187 54.1725 43.6943 52.7673 43.6621 50.0935C44.1615 50.0272 44.6636 49.9623 45.1686 49.9059C45.2051 52.9041 43.5499 54.4801 41.2466 53.9821Z" fill="#FF8070"/>
<path d="M38.5954 41.3486C36.3777 40.0873 34.5177 40.7278 33.8935 42.7229C33.8514 42.871 33.8009 43.0686 33.7672 43.2181C33.7476 43.3028 33.7322 43.4157 33.7181 43.5017C33.6859 43.6993 33.6606 43.9659 33.6564 44.1663C33.6536 44.3257 33.6508 44.5388 33.655 44.6996C33.6578 44.8252 33.6704 44.9917 33.6803 45.1172C33.6943 45.2724 33.7195 45.477 33.742 45.6308C33.7616 45.7691 33.7981 45.9511 33.8219 46.088C33.8977 46.5028 34.1067 47.2181 34.2371 47.5553C34.4742 48.1691 34.484 48.1931 34.6355 48.5176C34.7702 48.8054 34.968 49.1793 35.1251 49.4558C35.1657 49.5278 35.386 49.9073 35.6946 50.3461C35.926 50.6735 36.013 50.7793 36.3356 51.173C36.3398 51.1786 36.8097 51.7472 37.4578 52.2975C37.5602 52.3849 37.7005 52.4978 37.8085 52.5782C37.9501 52.6841 38.1437 52.8181 38.291 52.9169C38.4663 53.0354 38.7146 53.1708 38.9012 53.2696C39.0779 53.3627 39.322 53.4685 39.51 53.5377C39.6278 53.58 39.7863 53.6308 39.9055 53.6661C39.9827 53.6886 40.0865 53.7112 40.165 53.7296C42.2186 54.174 43.6943 52.7687 43.662 50.095C43.6227 46.8315 41.3545 42.9162 38.5954 41.3486Z" fill="#F36A58"/>
<path d="M33.8934 42.7215C34.0056 42.3631 34.1178 42.0019 34.2132 41.6379C34.9132 39.4016 36.999 38.6834 39.4861 40.0972C42.5805 41.8566 45.125 46.2474 45.1685 49.906C44.6635 49.9624 44.1599 50.0287 43.662 50.0936C43.6227 46.8315 41.3545 42.9162 38.5953 41.3473C36.3776 40.0873 34.5176 40.7279 33.8934 42.7215Z" fill="#FFC3BB"/>
<path d="M45.1544 25.4305C45.7716 25.0975 46.6062 24.6728 47.2529 24.4047C47.7354 24.203 48.4045 23.9998 48.9109 23.8672C49.4229 23.7331 50.1172 23.592 50.6432 23.5328C51.3039 23.458 52.1904 23.4213 52.8553 23.4185C53.3996 23.4157 54.1248 23.4933 54.662 23.5793C55.268 23.6767 56.0676 23.8629 56.6595 24.0294C57.2444 24.1931 57.9963 24.5035 58.5546 24.7433C58.9249 24.9028 59.4074 25.1469 59.7539 25.3557C60.2294 25.6421 60.8607 26.0344 61.3067 26.3673C61.5564 26.5536 61.8804 26.8118 62.1189 27.0121C62.3279 27.1885 62.6028 27.4298 62.7964 27.6245C62.9633 27.791 63.192 28.0068 63.3505 28.1832C63.5048 28.3553 63.7152 28.5811 63.8667 28.756C64.0182 28.9324 64.2132 29.1751 64.3576 29.3585C64.4951 29.5335 64.6761 29.7719 64.7995 29.9567C65.0408 30.3151 65.3564 30.7948 65.5752 31.1673C65.6832 31.3536 65.8221 31.6061 65.9217 31.7966C66.0213 31.9885 66.1447 32.2481 66.2415 32.4428C66.3383 32.6403 66.4533 32.9098 66.5375 33.1144C66.623 33.3232 66.7324 33.6026 66.8082 33.8142C66.8867 34.0315 66.9793 34.325 67.0523 34.5437C67.1266 34.7666 67.2024 35.0728 67.2655 35.2999C67.3539 35.6202 67.5278 36.4287 67.6091 37.0523C67.6793 37.5885 67.7452 38.1472 67.7606 39.0685C67.7859 41.2075 66.4084 43.3634 63.6226 45.0142C63.5385 37.9567 58.6289 29.4841 52.6603 26.0908C49.7216 24.4217 47.0747 24.2919 45.1544 25.4305Z" fill="#FF988B"/>
<path d="M40.3065 28.3045L45.1543 25.4304C47.0746 24.2918 49.7215 24.4216 52.6574 26.0908C58.6274 29.484 63.5355 37.9567 63.6197 45.0141L58.7719 47.8868C58.6877 40.8293 53.7782 32.3567 47.8096 28.9634C44.8737 27.2943 42.2282 27.1659 40.3065 28.3045Z" fill="#FF988B"/>
<path d="M34.15 41.8593C34.1753 41.7492 34.2075 41.6025 34.2272 41.491C34.2426 41.405 34.2566 41.2893 34.2665 41.2018C34.2833 41.0579 34.3029 40.8378 34.3422 40.2269C34.3983 39.3577 34.4418 38.8456 34.5035 38.3362C34.6003 37.5348 34.7027 36.9775 34.7728 36.6516C34.8444 36.3143 34.9524 35.8671 35.0422 35.5341C35.1095 35.283 35.2189 34.9556 35.2974 34.7073C35.4181 34.3278 35.6173 33.8353 35.7828 33.4727C36.0002 32.993 36.3355 32.3736 36.6104 31.9249C36.8334 31.5623 37.1589 31.0939 37.438 30.7736C37.7242 30.4477 38.1155 30.0216 38.4241 29.7168C38.6163 29.5278 38.8996 29.3063 39.1044 29.1299C39.4383 28.8435 39.9377 28.5345 40.3094 28.3017C42.2297 27.1631 44.8766 27.2929 47.8125 28.962C53.7825 32.3553 58.6906 40.8279 58.7748 47.8854C55.1207 50.0512 49.9713 49.3697 45.1712 49.903C45.1277 46.2445 42.5832 41.8537 39.4888 40.0942C36.999 38.6833 34.9131 39.4 34.2131 41.6378C34.1907 41.7097 34.1697 41.7831 34.15 41.8593Z" fill="#FF988B"/>
<path d="M41.6658 29.4291C41.2675 29.803 40.8789 30.2023 40.6278 30.6905C40.3767 31.1801 40.2785 31.7755 40.4791 32.2877C40.8074 33.1215 41.7781 33.4672 42.6519 33.5758C44.7041 33.8298 46.7956 33.3092 48.6598 32.3977C50.524 31.4877 52.1862 30.2009 53.7783 28.8563C54.6831 28.0916 55.181 26.8358 54.4839 25.7311C54.007 24.9748 53.1345 24.5459 52.2592 24.4401C51.3839 24.3342 50.4988 24.5148 49.6501 24.7589C46.7002 25.6111 43.9158 27.3184 41.6658 29.4291Z" fill="#FF8070"/>
<path d="M36.898 29.8835C36.9107 29.8341 36.9247 29.7861 36.9373 29.7382C37.1435 28.9974 37.3834 27.6006 38.2937 27.5766C38.9194 27.5597 39.4664 27.9872 39.9111 28.4373C40.7429 29.281 41.4148 30.287 41.8847 31.3819C42.1414 31.9787 42.6646 33.0143 42.4935 33.6803C42.4149 33.9822 42.3139 33.8863 42.0194 33.8214C41.7108 33.7537 41.3994 33.6958 41.0866 33.6493C40.4862 33.559 39.8788 33.5096 39.2714 33.5011C38.7412 33.4926 38.211 33.5152 37.6836 33.5688C37.3231 33.6055 36.8251 33.6549 36.6133 33.257C36.5417 33.1216 36.5347 32.9607 36.5333 32.8055C36.5249 31.8193 36.6484 30.8345 36.898 29.8835Z" fill="#F45641"/>
<path d="M38.65 29.3769C37.9599 29.3726 37.4297 31.4312 37.281 33.5899C37.4198 33.5927 37.5601 33.58 37.685 33.5673C38.2124 33.5137 38.7426 33.4925 39.2728 33.4996C39.8802 33.5095 40.4862 33.5589 41.088 33.6478C41.1511 33.6576 41.2156 33.6689 41.2787 33.6802C41.0543 31.4016 39.4019 29.3797 38.65 29.3769Z" fill="#C93325"/>
<path d="M48.9348 35.7825C50.0177 35.2774 51.1848 34.96 52.3715 34.8584C52.6646 34.833 53.394 34.9882 53.6002 35.2012C53.9243 35.537 54.0393 36.7561 54.0239 37.0481C53.9439 38.5395 53.662 39.8926 52.861 41.1356C52.6716 41.4291 52.464 41.7084 52.2396 41.9737C52.0671 42.1769 51.7907 42.61 51.5887 42.1994C51.2605 41.5307 49.0863 39.0869 48.8099 38.8428C48.3541 38.4393 47.8435 38.1162 47.3764 37.7324C47.0397 37.4559 46.999 37.0227 47.3399 36.7081C47.7621 36.3173 48.3905 36.0379 48.9039 35.7966C48.9137 35.7924 48.925 35.7868 48.9348 35.7825Z" fill="#F45641"/>
<path d="M52.596 36.7264C52.2818 36.3582 49.3824 37.0255 47.9165 38.1458C48.2195 38.3701 48.5267 38.5902 48.8115 38.8428C49.0289 39.0347 50.4218 40.5895 51.1652 41.5687C52.3099 39.8573 52.9705 37.1652 52.596 36.7264Z" fill="#C93325"/>
<path d="M39.3037 47.2831C39.2953 48.1705 39.8943 49.257 40.6447 49.7085C41.3938 50.16 42.0082 49.8072 42.018 48.9183C42.0264 48.0309 41.4274 46.9444 40.677 46.4929C39.9279 46.0429 39.3135 46.3956 39.3037 47.2831Z" fill="#CA1435"/>
<path d="M34.7787 44.5162C34.7702 45.4037 35.3692 46.4901 36.1197 46.9416C36.8687 47.3931 37.4831 47.0404 37.4929 46.1515C37.5013 45.264 36.9024 44.1776 36.1519 43.7261C35.4029 43.2746 34.7885 43.6287 34.7787 44.5162Z" fill="#CA1435"/>
<path d="M46.4786 41.7719C46.4786 42.1444 46.1827 42.4477 45.8166 42.4477C45.4505 42.4477 45.1545 42.1458 45.1545 41.7719C45.1545 41.3994 45.4505 41.0961 45.8166 41.0961C46.1827 41.0961 46.4786 41.3994 46.4786 41.7719Z" fill="#630C1C"/>
<path d="M38.3975 37.2937C38.3975 37.6662 38.1016 37.9696 37.7354 37.9696C37.3693 37.9696 37.0734 37.6676 37.0734 37.2937C37.0734 36.9212 37.3693 36.6179 37.7354 36.6179C38.1016 36.6179 38.3975 36.9198 38.3975 37.2937Z" fill="#630C1C"/>
<path d="M54.5542 24.6053C50.0767 26.0755 45.675 27.9605 42.5287 31.6882C43.5793 31.9915 44.1039 32.1425 45.1545 32.4458C47.866 29.1146 51.9339 27.461 55.8419 26.1517C55.3257 25.5323 55.069 25.2233 54.5542 24.6053Z" fill="url(#paint2_linear_1_4713)"/>
<path d="M53.1682 14.3774C52.9508 14.2476 52.7165 14.1488 52.4683 14.0797C52.3771 14.0543 52.2845 14.0331 52.1891 14.0162H52.1877C51.8384 13.9527 51.4639 13.9457 51.0698 13.9979C51.0698 13.9979 51.0698 13.9979 51.0684 13.9979C50.3894 14.0882 49.6516 14.352 48.8801 14.8063C45.5514 16.7661 42.8624 21.5181 42.8737 25.4194C42.8765 26.1502 42.9718 26.7992 43.15 27.3594C43.15 27.3608 43.15 27.3622 43.1514 27.3636C43.2959 27.8151 43.4923 28.2088 43.7335 28.5375C43.8107 28.6433 43.892 28.7421 43.979 28.8352C44.174 29.044 44.3914 29.2204 44.6299 29.3629L43.7952 28.8677L43.561 28.728C43.5526 28.7238 43.5456 28.7181 43.5385 28.7139C43.2117 28.5163 42.9228 28.2511 42.6787 27.9238C42.126 27.183 41.8076 26.1192 41.8034 24.7844C41.7922 20.8832 44.4812 16.1312 47.8098 14.1714C48.8422 13.5633 49.8129 13.2952 50.6644 13.3319H50.6658C51.1245 13.3503 51.5495 13.4589 51.9268 13.6494C51.9843 13.679 52.0418 13.71 52.0979 13.7425L52.2621 13.8399L53.1682 14.3774Z" fill="#FFB700"/>
<path d="M48.8801 14.8049C45.5515 16.7646 42.8624 21.5166 42.8737 25.4179C42.8849 29.3191 45.5921 30.8923 48.9194 28.9325C52.248 26.9727 54.9371 22.2207 54.9258 18.3195C54.916 14.4183 52.2088 12.8451 48.8801 14.8049Z" fill="#FFEE9B"/>
<path d="M53.7602 19.0067C53.7686 22.153 51.6 25.9837 48.9166 27.564C47.5447 28.3724 46.3033 28.4345 45.4168 27.8842C44.5696 27.3565 44.0449 26.2673 44.0407 24.7308C44.0323 21.5844 46.2009 17.7538 48.8843 16.1735C49.9728 15.533 50.9786 15.3594 51.7908 15.5922C52.9817 15.9294 53.7546 17.1358 53.7602 19.0067Z" fill="#FFA200"/>
<path d="M53.1683 18.7456C53.1767 21.892 51.0081 25.7227 48.3247 27.3029C47.2348 27.9449 46.229 28.117 45.4154 27.8842C44.5682 27.3565 44.0436 26.2673 44.0394 24.7308C44.0309 21.5844 46.1996 17.7538 48.883 16.1735C49.9715 15.533 50.9772 15.3594 51.7894 15.5922C52.6394 16.1171 53.1641 17.2063 53.1683 18.7456Z" fill="#FFB700"/>
<path d="M51.9297 13.6493C51.7866 13.5985 51.6379 13.5576 51.485 13.5294C51.2269 13.48 50.9534 13.4602 50.6714 13.4715C49.8677 13.5054 49.0106 13.7876 48.1255 14.3082C46.5516 15.2352 45.0647 16.8112 43.9398 18.747C42.826 20.6616 42.1751 22.7399 42.1036 24.5995C42.0868 25.0666 42.1078 25.5166 42.1639 25.9371C42.3294 27.159 42.8036 28.1156 43.54 28.7124C43.2132 28.5149 42.9242 28.2496 42.6801 27.9223C42.3519 27.3805 42.1317 26.7173 42.0279 25.9554C41.9703 25.5265 41.9493 25.0694 41.9661 24.5939C42.0377 22.7117 42.697 20.608 43.8205 18.675C44.9581 16.7195 46.4619 15.1251 48.0553 14.1869C48.9601 13.655 49.8382 13.3671 50.6644 13.3318H50.6658C51.1273 13.3502 51.5509 13.4588 51.9297 13.6493Z" fill="#FFDE38"/>
<path d="M43.9791 28.8338C43.8781 28.7577 43.7981 28.6899 43.7701 28.6518L43.7589 28.6405C43.0463 28.031 42.6016 27.0518 42.4726 25.8074C42.4291 25.3968 42.4207 24.9594 42.4459 24.5079C42.5539 22.6963 43.2118 20.6857 44.2989 18.8445C45.4043 16.9736 46.8533 15.4469 48.3794 14.5482C49.2014 14.0642 49.9996 13.7919 50.7486 13.7411C51.0109 13.7228 51.2662 13.7327 51.5075 13.7708C51.7614 13.8089 52.0069 13.8794 52.2341 13.9782L52.2467 13.9824C52.2818 13.9895 52.3646 14.0275 52.467 14.0769C52.7152 14.1461 52.9495 14.2448 53.1669 14.3746L52.2636 13.8385C52.0335 13.7397 51.7852 13.6706 51.5285 13.6311C51.2774 13.5916 51.0123 13.5817 50.7402 13.6C49.9687 13.6522 49.1523 13.9302 48.3107 14.4254C46.7649 15.3369 45.2976 16.879 44.1811 18.7697C43.0842 20.6293 42.4179 22.6624 42.3084 24.4966C42.2818 24.9566 42.2916 25.4011 42.3351 25.8201C42.4684 27.097 42.927 28.1072 43.6649 28.7407C43.6901 28.7732 43.7364 28.8155 43.7953 28.8635L44.63 29.3587L43.9791 28.8338Z" fill="#FFDE38"/>
<path d="M52.1879 14.0148C51.8386 13.9513 51.4641 13.9442 51.0699 13.9964C51.0699 13.9964 51.0699 13.9964 51.0685 13.9964C50.99 13.9992 50.91 14.0035 50.8287 14.0119C50.1329 14.0797 49.3951 14.3421 48.6348 14.7894C47.1564 15.6599 45.7452 17.1357 44.6595 18.9417C43.6005 20.7082 42.9356 22.6525 42.7897 24.4147C42.7546 24.8507 42.7518 25.2754 42.7813 25.6761C42.8262 26.3054 42.951 26.8712 43.1488 27.3565C43.1488 27.3579 43.1488 27.3593 43.1502 27.3608C43.2947 27.8123 43.491 28.2059 43.7323 28.5346C43.1067 27.8814 42.7308 26.8994 42.6438 25.686C42.6143 25.2782 42.6171 24.8451 42.6522 24.402C42.7995 22.6186 43.47 20.6518 44.5417 18.8684C45.6372 17.0412 47.0666 15.5499 48.5647 14.6666C49.3418 14.2095 50.0979 13.9414 50.8132 13.8723C51.0657 13.8483 51.3126 13.8483 51.5469 13.8751C51.7699 13.8991 51.9845 13.9456 52.1879 14.0148Z" fill="#FFDE38"/>
<path d="M48.6893 26.3025L48.2054 26.0161L48.2026 24.9142L48.6865 25.2006L48.6893 26.3025Z" fill="#FF9900"/>
<path d="M49.2334 22.2067L49.7173 22.4931C49.744 22.5086 49.7678 22.5284 49.7874 22.5524C49.8351 22.6074 49.859 22.6949 49.859 22.812C49.859 22.9968 49.8001 23.176 49.6822 23.3482C49.5644 23.5203 49.3442 23.7009 49.0216 23.89C48.7368 24.0579 48.4675 24.1735 48.2108 24.237C47.9541 24.3005 47.7339 24.3344 47.5501 24.3386L47.0662 24.0522C47.2513 24.0494 47.4715 24.0155 47.7268 23.9506C47.9821 23.8871 48.2529 23.7714 48.5376 23.6035C48.8588 23.4145 49.0791 23.2339 49.1983 23.0617C49.3161 22.8896 49.375 22.7118 49.375 22.5256C49.375 22.4085 49.3512 22.321 49.3035 22.266C49.2839 22.242 49.26 22.2222 49.2334 22.2067Z" fill="#FF9900"/>
<path d="M47.5515 24.3372L47.0676 24.0508C47.2527 24.048 47.473 24.0141 47.7282 23.9492C47.9835 23.8857 48.2543 23.77 48.539 23.6021C48.8602 23.413 49.0805 23.2324 49.1997 23.0603C49.3175 22.8882 49.3764 22.7104 49.3764 22.5242C49.3764 22.4071 49.3526 22.3196 49.3049 22.2646C49.2853 22.242 49.2614 22.2222 49.2348 22.2053L49.7187 22.4917C49.7454 22.5072 49.7692 22.527 49.7888 22.551C49.8365 22.606 49.8604 22.6935 49.8604 22.8106C49.8604 22.9954 49.8015 23.1746 49.6836 23.3467C49.5658 23.5189 49.3456 23.6995 49.023 23.8885C48.7382 24.0564 48.4689 24.1721 48.2122 24.2356C47.9555 24.2991 47.7353 24.333 47.5515 24.3372Z" fill="#FF9900"/>
<path d="M47.215 25.6027L46.731 25.3163L47.0677 24.0507L47.5516 24.3371L47.215 25.6027Z" fill="#FF9900"/>
<path d="M48.6795 21.075L48.1955 20.7886C48.2236 20.8041 48.2558 20.8154 48.2937 20.8225C48.3681 20.8338 48.4592 20.8352 48.5672 20.8239C48.6753 20.8126 48.8057 20.7928 48.9586 20.7646C49.1915 20.7265 49.4061 20.7096 49.6039 20.7096C49.8016 20.711 49.9742 20.7449 50.1187 20.8098C50.1411 20.8196 50.1635 20.8323 50.186 20.845L50.6699 21.1315C50.6489 21.1188 50.6264 21.1075 50.6026 21.0962C50.4567 21.0313 50.2856 20.9974 50.0878 20.996C49.89 20.9946 49.6754 21.0129 49.4425 21.051C49.2896 21.0793 49.1592 21.099 49.0512 21.1103C48.9432 21.1216 48.852 21.1202 48.7777 21.1089C48.7398 21.1032 48.7075 21.092 48.6795 21.075Z" fill="#FF9900"/>
<path d="M48.6795 21.075L48.1955 20.7886C48.2236 20.8041 48.2558 20.8154 48.2937 20.8225C48.3681 20.8338 48.4592 20.8352 48.5672 20.8239C48.6753 20.8126 48.8057 20.7928 48.9586 20.7646C49.1915 20.7265 49.4061 20.7096 49.6039 20.7096C49.8016 20.711 49.9742 20.7449 50.1187 20.8098C50.1411 20.8196 50.1635 20.8323 50.186 20.845L50.6699 21.1315C50.6489 21.1188 50.6264 21.1075 50.6026 21.0962C50.4567 21.0313 50.2856 20.9974 50.0878 20.996C49.89 20.9946 49.6754 21.0129 49.4425 21.051C49.2896 21.0793 49.1592 21.099 49.0512 21.1103C48.9432 21.1216 48.852 21.1202 48.7777 21.1089C48.7398 21.1032 48.7075 21.092 48.6795 21.075Z" fill="#FF9900"/>
<path d="M49.6655 18.4789L49.1816 18.1925C49.4551 18.0627 49.6922 17.9696 49.89 17.9145C50.0878 17.8595 50.2449 17.8299 50.3613 17.8228L50.8452 18.1092C50.7288 18.1163 50.5731 18.1459 50.3739 18.2009C50.1747 18.256 49.9391 18.3491 49.6655 18.4789Z" fill="#FF9900"/>
<path d="M49.6655 18.4789L49.1816 18.1925C49.4551 18.0627 49.6922 17.9696 49.89 17.9145C50.0878 17.8595 50.2449 17.8299 50.3613 17.8228L50.8452 18.1092C50.7288 18.1163 50.5731 18.1459 50.3739 18.2009C50.1747 18.256 49.9391 18.3491 49.6655 18.4789Z" fill="#FF9900"/>
<path d="M47.7102 22.4633L47.2263 22.1769C47.1337 22.1219 47.0565 22.0415 46.9948 21.9356C46.912 21.796 46.8714 21.5928 46.87 21.3261C46.87 21.1229 46.8938 20.9113 46.9429 20.694C46.992 20.4767 47.0692 20.2595 47.1744 20.0422C47.2796 19.8263 47.4156 19.6132 47.5839 19.4058C47.7523 19.1984 47.9529 19.0009 48.1843 18.8161L48.6683 19.1025C48.4368 19.2887 48.2362 19.4849 48.0679 19.6923C47.8996 19.8997 47.7635 20.1113 47.6583 20.3286C47.5531 20.5459 47.4759 20.7632 47.4268 20.9804C47.3777 21.1991 47.3525 21.4094 47.3539 21.6125C47.3539 21.8778 47.396 22.081 47.4787 22.2221C47.5405 22.3293 47.6176 22.4083 47.7102 22.4633Z" fill="#FF9900"/>
<path d="M47.7102 22.4633L47.2263 22.1769C47.1337 22.1219 47.0565 22.0415 46.9948 21.9356C46.912 21.796 46.8714 21.5928 46.87 21.3261C46.87 21.1229 46.8938 20.9113 46.9429 20.694C46.992 20.4767 47.0692 20.2595 47.1744 20.0422C47.2796 19.8263 47.4156 19.6132 47.5839 19.4058C47.7523 19.1984 47.9529 19.0009 48.1843 18.8161L48.6683 19.1025C48.4368 19.2887 48.2362 19.4849 48.0679 19.6923C47.8996 19.8997 47.7635 20.1113 47.6583 20.3286C47.5531 20.5459 47.4759 20.7632 47.4268 20.9804C47.3777 21.1991 47.3525 21.4094 47.3539 21.6125C47.3539 21.8778 47.396 22.081 47.4787 22.2221C47.5405 22.3293 47.6176 22.4083 47.7102 22.4633Z" fill="#FF9900"/>
<path d="M49.6627 17.5152L49.6655 18.4789C49.939 18.3491 50.176 18.256 50.3738 18.2009C50.5716 18.1459 50.7287 18.1163 50.8451 18.1092L50.6039 19.3664C50.4299 19.3819 50.2279 19.427 49.9993 19.5004C49.7693 19.5738 49.528 19.6852 49.2755 19.8334C49.0216 19.9829 48.8407 20.1396 48.7298 20.3032C48.619 20.4669 48.5643 20.6292 48.5643 20.79C48.5643 20.8888 48.5826 20.9635 48.6162 21.0143C48.6513 21.0651 48.7046 21.0962 48.7789 21.1089C48.8533 21.1202 48.9445 21.1216 49.0525 21.1103C49.1605 21.099 49.2909 21.0792 49.4438 21.051C49.6767 21.0129 49.8913 20.996 50.0891 20.996C50.2869 20.9974 50.458 21.0313 50.6039 21.0962C50.7498 21.1625 50.8634 21.2725 50.9447 21.4291C51.0275 21.5858 51.0682 21.7988 51.0696 22.0711C51.0696 22.256 51.0471 22.4535 50.9994 22.6637C50.9518 22.8739 50.8746 23.0884 50.7638 23.3085C50.653 23.5286 50.5099 23.7445 50.3332 23.9604C50.1564 24.1762 49.939 24.3836 49.6823 24.5854L49.6851 25.7156L48.6892 26.3025L48.6864 25.2006C48.302 25.3896 47.9892 25.5039 47.7493 25.5434C47.5095 25.5829 47.3313 25.6027 47.2149 25.6027L47.5516 24.3371C47.7367 24.3343 47.9569 24.3004 48.2122 24.2355C48.4675 24.172 48.7383 24.0563 49.023 23.8884C49.3442 23.6993 49.5645 23.5187 49.6837 23.3466C49.8015 23.1745 49.8604 22.9967 49.8604 22.8104C49.8604 22.6933 49.8366 22.6073 49.7889 22.5508C49.7412 22.4958 49.6725 22.4605 49.5827 22.445C49.4929 22.4295 49.3793 22.4309 49.2418 22.4464C49.1044 22.4619 48.9459 22.4859 48.7663 22.517C48.5924 22.5452 48.4226 22.5635 48.2557 22.572C48.0902 22.5805 47.9387 22.5593 47.804 22.5085C47.6694 22.4577 47.5614 22.3632 47.4786 22.2221C47.3959 22.0824 47.3552 21.8778 47.3538 21.6126C47.3538 21.4094 47.3776 21.1978 47.4267 20.9805C47.4758 20.7632 47.553 20.5459 47.6582 20.3286C47.7634 20.1128 47.8994 19.8997 48.0678 19.6923C48.2361 19.4849 48.4367 19.2888 48.6681 19.1025L48.6653 18.1022L49.6627 17.5152Z" fill="#FFEA80"/>
<path d="M48.6695 19.1026L48.1856 18.8161L48.1828 17.8158L48.6667 18.1022L48.6695 19.1026Z" fill="#FF9900"/>
<path d="M48.6667 18.1022L48.1828 17.8158L49.1787 17.2289L49.6627 17.5153L48.6667 18.1022Z" fill="#FF9900"/>
<path d="M59.3108 0.829678C59.1383 0.728091 58.9545 0.649079 58.7568 0.594053C58.6852 0.5743 58.6109 0.557369 58.5365 0.54326H58.5351C58.2588 0.492466 57.9628 0.488233 57.65 0.52915C57.65 0.52915 57.65 0.52915 57.6486 0.52915C57.1114 0.599697 56.5278 0.808514 55.9177 1.1683C53.2847 2.71891 51.1568 6.47904 51.1652 9.56474C51.1666 10.1432 51.2438 10.6568 51.3841 11.0998C51.3841 11.1012 51.3841 11.1012 51.3855 11.1027C51.4991 11.4596 51.6548 11.7714 51.847 12.0325C51.9087 12.1157 51.9732 12.1947 52.0419 12.2681C52.1962 12.4346 52.3688 12.5728 52.5567 12.6857L51.8975 12.2949L51.7123 12.1848C51.7067 12.1806 51.6997 12.1778 51.6941 12.1736C51.4346 12.0169 51.2059 11.8067 51.0137 11.5485C50.5775 10.9616 50.3236 10.1207 50.3208 9.06528C50.3124 5.97816 52.4403 2.21944 55.0732 0.668832C55.8896 0.187705 56.6583 -0.0239342 57.3316 0.00428442H57.333C57.6963 0.0183937 58.0316 0.10446 58.3317 0.25543C58.378 0.278005 58.4229 0.303402 58.4664 0.328798L58.5968 0.406399L59.3108 0.829678Z" fill="#FFB700"/>
<path d="M55.9178 1.16818C53.2848 2.71879 51.1569 6.47892 51.1653 9.56462C51.1738 12.6517 53.3157 13.8962 55.9486 12.3456C58.5815 10.795 60.7095 7.03482 60.701 3.94912C60.6926 0.862007 58.5507 -0.382433 55.9178 1.16818Z" fill="#FFE873"/>
<path d="M59.778 4.4924C59.785 6.98128 58.0694 10.0134 55.9457 11.2634C54.86 11.9026 53.8781 11.9534 53.1768 11.516C52.5063 11.0984 52.0911 10.2377 52.0882 9.02007C52.0812 6.53119 53.7968 3.4991 55.9205 2.24902C56.7818 1.74249 57.5771 1.60563 58.2209 1.78905C59.1622 2.05713 59.7738 3.01233 59.778 4.4924Z" fill="#FFA200"/>
<path d="M59.3109 4.28633C59.3179 6.77521 57.6023 9.8073 55.4786 11.0574C54.616 11.5653 53.8206 11.7008 53.1768 11.5173C52.5063 11.0997 52.0911 10.239 52.0882 9.02141C52.0812 6.53253 53.7968 3.50044 55.9205 2.25036C56.7818 1.74384 57.5771 1.60698 58.2209 1.7904C58.8928 2.20662 59.3066 3.0687 59.3109 4.28633Z" fill="#FFB700"/>
<path d="M58.3305 0.253967C58.2169 0.21305 58.0991 0.18201 57.9784 0.158024C57.775 0.118518 57.5576 0.102998 57.3346 0.112874C56.6977 0.139682 56.0202 0.362609 55.3203 0.7746C54.0747 1.50828 52.8992 2.75555 52.0084 4.2864C51.1275 5.80174 50.6113 7.44548 50.5552 8.91708C50.5426 9.28674 50.558 9.64371 50.6029 9.97527C50.7334 10.9432 51.1093 11.6994 51.6914 12.1707C51.4319 12.0141 51.2033 11.8038 51.0111 11.5456C50.7516 11.1167 50.5763 10.5919 50.4949 9.98938C50.4486 9.65076 50.4332 9.28815 50.4458 8.91143C50.5019 7.42149 51.0237 5.758 51.9131 4.22856C52.8136 2.68077 54.0031 1.4194 55.2642 0.677246C55.9796 0.255378 56.6739 0.0282186 57.329 0H57.3304C57.6951 0.0169312 58.0303 0.102998 58.3305 0.253967Z" fill="#FFDE38"/>
<path d="M52.0392 12.2681C51.9592 12.2074 51.8961 12.1552 51.8737 12.1242L51.8653 12.1157C51.3014 11.6332 50.9493 10.8586 50.8469 9.87375C50.8132 9.54923 50.8062 9.20356 50.8258 8.84518C50.9114 7.41167 51.4318 5.82015 52.2917 4.36407C53.1656 2.884 54.313 1.67624 55.5207 0.965136C56.1716 0.581363 56.8028 0.366901 57.3962 0.327395C57.6038 0.313286 57.8058 0.321752 57.9965 0.351381C58.1971 0.382422 58.3907 0.437448 58.5717 0.515049L58.5815 0.517871C58.6095 0.523515 58.6755 0.553144 58.7554 0.59265C58.9518 0.647676 59.137 0.725278 59.3095 0.828276L58.5941 0.404997C58.4118 0.327395 58.2154 0.272369 58.012 0.241329C57.8142 0.210288 57.6038 0.201823 57.3878 0.217343C56.7776 0.25826 56.1309 0.478365 55.466 0.870603C54.2429 1.59159 53.0828 2.81204 52.1991 4.30763C51.3308 5.77923 50.8048 7.38769 50.7178 8.83954C50.6968 9.20356 50.7052 9.55488 50.7389 9.88645C50.8441 10.8967 51.2074 11.6967 51.7909 12.1975C51.8106 12.2229 51.8484 12.2568 51.8947 12.2949L52.554 12.6857L52.0392 12.2681Z" fill="#FFDE38"/>
<path d="M58.5353 0.543202C58.2589 0.492409 57.963 0.488176 57.6502 0.529093C57.6502 0.529093 57.6502 0.529093 57.6488 0.529093C57.5856 0.530504 57.5225 0.534737 57.4594 0.541791C56.9095 0.595407 56.3246 0.802813 55.7228 1.15696C54.5529 1.84549 53.4364 3.01233 52.5779 4.44301C51.7391 5.84124 51.2145 7.37916 51.0994 8.77316C51.0714 9.11742 51.07 9.45464 51.0924 9.7721C51.1275 10.2702 51.2257 10.7174 51.3828 11.1026C51.3828 11.104 51.3828 11.104 51.3842 11.1054C51.4978 11.4624 51.6535 11.7742 51.8457 12.0352C51.3505 11.5174 51.0532 10.7414 50.9844 9.78197C50.9606 9.45887 50.9634 9.11742 50.9914 8.7661C51.1079 7.35517 51.6395 5.79892 52.4853 4.38658C53.3522 2.94037 54.4828 1.76083 55.6681 1.06242C56.2825 0.699816 56.8815 0.488176 57.4482 0.43315C57.6473 0.413397 57.8437 0.414808 58.0289 0.434561C58.2042 0.451492 58.374 0.488176 58.5353 0.543202Z" fill="#FFDE38"/>
<path d="M55.7664 10.2659L55.3835 10.0388L55.3807 9.16681L55.7636 9.39256L55.7664 10.2659Z" fill="#FF9900"/>
<path d="M56.1968 7.02364L56.5798 7.2508C56.6008 7.26349 56.619 7.27901 56.6359 7.29736C56.6737 7.3411 56.692 7.41023 56.6934 7.50194C56.6934 7.64868 56.6471 7.78977 56.5531 7.92663C56.4591 8.06208 56.2852 8.206 56.0313 8.35555C55.8069 8.48818 55.5923 8.57989 55.3903 8.63068C55.1869 8.68148 55.0129 8.70829 54.867 8.71111L54.4841 8.48395C54.63 8.48113 54.8039 8.45432 55.0073 8.40353C55.2093 8.35273 55.4239 8.26102 55.6484 8.12839C55.9023 7.97884 56.0776 7.83492 56.1702 7.69947C56.2642 7.56402 56.3104 7.42293 56.3104 7.27619C56.3104 7.18307 56.2908 7.11535 56.2529 7.07161C56.2375 7.05185 56.2179 7.03633 56.1968 7.02364Z" fill="#FF9900"/>
<path d="M54.8658 8.70967L54.4828 8.48251C54.6287 8.47969 54.8026 8.45288 55.006 8.40208C55.208 8.35129 55.4226 8.25958 55.6471 8.12695C55.901 7.97739 56.0763 7.83348 56.1689 7.69803C56.2629 7.56258 56.3092 7.42149 56.3092 7.27475C56.3092 7.18163 56.2895 7.11391 56.2516 7.07017C56.2362 7.05182 56.218 7.0363 56.1955 7.02361L56.5785 7.25077C56.5995 7.26346 56.6178 7.27898 56.6346 7.29733C56.6725 7.34106 56.6907 7.4102 56.6921 7.50191C56.6921 7.64865 56.6458 7.78974 56.5518 7.9266C56.4578 8.06205 56.2839 8.20597 56.03 8.35552C55.8056 8.48815 55.591 8.57986 55.389 8.63065C55.187 8.68004 55.0116 8.70684 54.8658 8.70967Z" fill="#FF9900"/>
<path d="M54.5993 9.71142L54.2163 9.48426L54.4843 8.4825L54.8658 8.70966L54.5993 9.71142Z" fill="#FF9900"/>
<path d="M55.7593 6.1291L55.3763 5.90194C55.3974 5.91464 55.424 5.9231 55.4535 5.92875C55.5124 5.93862 55.5839 5.93862 55.6695 5.93016C55.7551 5.92169 55.8589 5.90617 55.9795 5.8836C56.1633 5.85397 56.333 5.83986 56.4901 5.83986C56.6472 5.84127 56.7819 5.86808 56.8983 5.91887C56.9165 5.92734 56.9348 5.9358 56.9516 5.94568L57.3345 6.17284C57.3177 6.16296 57.2995 6.15309 57.2812 6.14603C57.1662 6.09383 57.0302 6.06702 56.873 6.06702C56.7159 6.06561 56.5462 6.07972 56.3625 6.11076C56.2418 6.13333 56.138 6.14885 56.0525 6.15732C55.9669 6.16578 55.8953 6.16578 55.8364 6.15591C55.807 6.15167 55.7803 6.1418 55.7593 6.1291Z" fill="#FF9900"/>
<path d="M55.7593 6.1291L55.3763 5.90194C55.3974 5.91464 55.424 5.9231 55.4535 5.92875C55.5124 5.93862 55.5839 5.93862 55.6695 5.93016C55.7551 5.92169 55.8589 5.90617 55.9795 5.8836C56.1633 5.85397 56.333 5.83986 56.4901 5.83986C56.6472 5.84127 56.7819 5.86808 56.8983 5.91887C56.9165 5.92734 56.9348 5.9358 56.9516 5.94568L57.3345 6.17284C57.3177 6.16296 57.2995 6.15309 57.2812 6.14603C57.1662 6.09383 57.0302 6.06702 56.873 6.06702C56.7159 6.06561 56.5462 6.07972 56.3625 6.11076C56.2418 6.13333 56.138 6.14885 56.0525 6.15732C55.9669 6.16578 55.8953 6.16578 55.8364 6.15591C55.807 6.15167 55.7803 6.1418 55.7593 6.1291Z" fill="#FF9900"/>
<path d="M56.5392 4.07478L56.1562 3.84762C56.3736 3.74462 56.5602 3.67125 56.7159 3.62751C56.873 3.58519 56.9965 3.55979 57.089 3.55556L57.472 3.78272C57.3808 3.78836 57.256 3.81235 57.0988 3.85467C56.9417 3.89841 56.7552 3.97178 56.5392 4.07478Z" fill="#FF9900"/>
<path d="M56.5392 4.07478L56.1562 3.84762C56.3736 3.74462 56.5602 3.67125 56.7159 3.62751C56.873 3.58519 56.9965 3.55979 57.089 3.55556L57.472 3.78272C57.3808 3.78836 57.256 3.81235 57.0988 3.85467C56.9417 3.89841 56.7552 3.97178 56.5392 4.07478Z" fill="#FF9900"/>
<path d="M54.9919 7.22825L54.609 7.00109C54.5361 6.95736 54.4743 6.89386 54.4252 6.81062C54.3607 6.69916 54.3271 6.53831 54.3271 6.32808C54.3271 6.16723 54.3453 6.00075 54.3846 5.8272C54.4238 5.65507 54.4842 5.48293 54.5683 5.31221C54.6511 5.14149 54.7591 4.97359 54.8924 4.80851C55.0256 4.64484 55.1841 4.48823 55.3679 4.34149L55.7508 4.56865C55.5671 4.71539 55.41 4.872 55.2753 5.03567C55.142 5.19934 55.034 5.36724 54.9513 5.53796C54.8671 5.71009 54.8068 5.88082 54.7675 6.05295C54.7282 6.22508 54.7086 6.39298 54.71 6.55383C54.71 6.76406 54.7437 6.9249 54.8082 7.03637C54.8573 7.12102 54.919 7.18452 54.9919 7.22825Z" fill="#FF9900"/>
<path d="M54.9919 7.22825L54.609 7.00109C54.5361 6.95736 54.4743 6.89386 54.4252 6.81062C54.3607 6.69916 54.3271 6.53831 54.3271 6.32808C54.3271 6.16723 54.3453 6.00075 54.3846 5.8272C54.4238 5.65507 54.4842 5.48293 54.5683 5.31221C54.6511 5.14149 54.7591 4.97359 54.8924 4.80851C55.0256 4.64484 55.1841 4.48823 55.3679 4.34149L55.7508 4.56865C55.5671 4.71539 55.41 4.872 55.2753 5.03567C55.142 5.19934 55.034 5.36724 54.9513 5.53796C54.8671 5.71009 54.8068 5.88082 54.7675 6.05295C54.7282 6.22508 54.7086 6.39298 54.71 6.55383C54.71 6.76406 54.7437 6.9249 54.8082 7.03637C54.8573 7.12102 54.919 7.18452 54.9919 7.22825Z" fill="#FF9900"/>
<path d="M56.5363 3.31291L56.5391 4.07481C56.7566 3.97182 56.9431 3.89845 57.0988 3.85471C57.2559 3.81097 57.3794 3.78698 57.472 3.78275L57.2812 4.77746C57.1437 4.79016 56.9838 4.82543 56.8029 4.88328C56.6205 4.94113 56.4297 5.0286 56.2305 5.14712C56.03 5.26564 55.8869 5.38839 55.7985 5.5182C55.7115 5.648 55.6681 5.7764 55.6681 5.90338C55.6681 5.98098 55.6821 6.04165 55.7087 6.08116C55.7368 6.12066 55.7789 6.14606 55.8378 6.15594C55.8967 6.16581 55.9682 6.16581 56.0538 6.15735C56.1394 6.14888 56.2432 6.13336 56.3638 6.11079C56.5476 6.08116 56.7173 6.06705 56.8744 6.06705C57.0315 6.06846 57.1662 6.09527 57.2826 6.14606C57.3976 6.19826 57.4874 6.28574 57.5533 6.40849C57.6178 6.53124 57.6515 6.70055 57.6515 6.91643C57.6515 7.06316 57.6333 7.21978 57.5968 7.38486C57.5589 7.55135 57.4972 7.72066 57.4102 7.8942C57.3233 8.06775 57.2096 8.23988 57.0694 8.4106C56.9305 8.58132 56.758 8.74499 56.5532 8.90584L56.556 9.80037L55.7677 10.2646L55.7648 9.39261C55.4605 9.54217 55.2136 9.63247 55.0228 9.66351C54.832 9.69455 54.6918 9.71007 54.6006 9.71007L54.8671 8.70831C55.013 8.70549 55.1869 8.67868 55.3903 8.62788C55.5923 8.57709 55.8069 8.48538 56.0314 8.35275C56.2853 8.2032 56.4606 8.05928 56.5532 7.92383C56.6472 7.78838 56.6934 7.64729 56.6934 7.49914C56.6934 7.40602 56.6738 7.33829 56.6359 7.29456C56.5981 7.25082 56.5434 7.2226 56.4732 7.21131C56.4017 7.20002 56.3119 7.20002 56.2039 7.21272C56.0959 7.22542 55.9696 7.24376 55.828 7.26916C55.6905 7.29173 55.5558 7.30584 55.424 7.3129C55.2921 7.31995 55.1729 7.30302 55.0663 7.2621C54.9597 7.2226 54.8741 7.14641 54.8082 7.03495C54.7437 6.92348 54.71 6.76264 54.71 6.55241C54.71 6.39156 54.7282 6.22507 54.7675 6.05153C54.8068 5.87939 54.8671 5.70726 54.9513 5.53654C55.034 5.36582 55.142 5.19791 55.2753 5.03425C55.4086 4.87058 55.5671 4.71397 55.7508 4.56723L55.748 3.7757L56.5363 3.31291Z" fill="#FFEB88"/>
<path d="M55.751 4.56857L55.368 4.34141L55.3652 3.54988L55.7481 3.77704L55.751 4.56857Z" fill="#FF9900"/>
<path d="M55.7481 3.77708L55.3652 3.54992L56.1535 3.08572L56.5365 3.31288L55.7481 3.77708Z" fill="#FF9900"/>
<path d="M47.326 2.83172C47.1717 2.74001 47.0075 2.66946 46.8322 2.62149C46.7677 2.60315 46.7017 2.58763 46.6344 2.57634C46.3875 2.53119 46.1238 2.52696 45.8447 2.56364C45.365 2.62713 44.8445 2.81338 44.2989 3.13507C41.9479 4.51919 40.0486 7.87579 40.0557 10.6313C40.0571 11.1477 40.1258 11.6063 40.2506 12.0014C40.2506 12.0028 40.2506 12.0028 40.2506 12.0042C40.353 12.323 40.4919 12.601 40.6616 12.8338C40.7163 12.9086 40.7738 12.9777 40.8356 13.044C40.973 13.1922 41.1273 13.3163 41.2957 13.4165L40.7065 13.0666L40.541 12.9678C40.5354 12.965 40.5298 12.9608 40.5256 12.958C40.2941 12.8183 40.0907 12.6306 39.9182 12.4006C39.5282 11.8772 39.3024 11.1266 39.2996 10.1841C39.2912 7.42712 41.1905 4.07052 43.5428 2.68639C44.2722 2.25747 44.9582 2.06841 45.5585 2.0938H45.5599C45.884 2.1065 46.1841 2.1841 46.4507 2.31814C46.4913 2.33789 46.532 2.36047 46.5713 2.38445L46.6877 2.45359L47.326 2.83172Z" fill="#FFB700"/>
<path d="M44.2976 3.13374C41.9466 4.51786 40.0473 7.87446 40.0543 10.63C40.0614 13.3856 41.9733 14.4974 44.3242 13.1118C46.6752 11.7277 48.5745 8.37111 48.5675 5.61556C48.5604 2.86002 46.6485 1.74961 44.2976 3.13374Z" fill="#FFEC8D"/>
<path d="M47.7442 6.10098C47.7498 8.3232 46.218 11.0294 44.3229 12.1454C43.3537 12.7168 42.477 12.7606 41.8499 12.3712C41.251 11.9987 40.8807 11.2297 40.8779 10.1433C40.8722 7.92108 42.404 5.21492 44.2991 4.09887C45.0678 3.64596 45.779 3.52462 46.3527 3.68829C47.1943 3.92815 47.74 4.78035 47.7442 6.10098Z" fill="#FFA200"/>
<path d="M47.3262 5.91751C47.3318 8.13972 45.8014 10.8459 43.9049 11.9619C43.1348 12.4148 42.4237 12.5362 41.8499 12.3725C41.251 12 40.8807 11.2311 40.8779 10.1447C40.8722 7.92244 42.404 5.21628 44.2991 4.10023C45.0678 3.64732 45.779 3.52598 46.3527 3.68965C46.953 4.06072 47.3234 4.82968 47.3262 5.91751Z" fill="#FFB700"/>
<path d="M46.4508 2.31816C46.3498 2.28288 46.2446 2.25325 46.1366 2.2335C45.9542 2.19823 45.7606 2.18412 45.5614 2.19258C44.9933 2.21657 44.3888 2.41551 43.7632 2.78376C42.6522 3.43844 41.6016 4.55166 40.8062 5.91885C40.0193 7.27052 39.5592 8.7393 39.5087 10.0529C39.4975 10.383 39.5115 10.7005 39.5522 10.9982C39.6686 11.8617 40.0039 12.5375 40.5243 12.958C40.2928 12.8183 40.0894 12.6306 39.9169 12.4007C39.6854 12.0183 39.5297 11.5499 39.4568 11.0123C39.4161 10.7104 39.4007 10.3859 39.4133 10.0501C39.4638 8.72096 39.9295 7.23525 40.7235 5.86947C41.5272 4.48817 42.5891 3.36224 43.7155 2.69911C44.3551 2.32239 44.9737 2.11922 45.5586 2.09523H45.56C45.8841 2.10652 46.1843 2.18271 46.4508 2.31816Z" fill="#FFDE38"/>
<path d="M40.8359 13.0426C40.7643 12.989 40.7082 12.941 40.6886 12.9142L40.6802 12.9058C40.1766 12.4754 39.8624 11.7841 39.7712 10.9051C39.7403 10.6144 39.7347 10.3068 39.753 9.98797C39.8301 8.70826 40.2944 7.28745 41.0617 5.98798C41.8416 4.66594 42.8656 3.5894 43.9443 2.95448C44.525 2.61163 45.0889 2.42115 45.6177 2.38447C45.8029 2.37177 45.9838 2.37882 46.1536 2.40563C46.3331 2.43244 46.5057 2.48182 46.667 2.55237L46.6768 2.55519C46.702 2.56084 46.7595 2.58623 46.8325 2.62292C47.0078 2.67089 47.1733 2.74143 47.3262 2.83314L46.688 2.45502C46.5253 2.38588 46.3499 2.3365 46.169 2.30828C45.9923 2.28006 45.8043 2.27301 45.6121 2.28711C45.0679 2.3238 44.4899 2.51992 43.8966 2.86983C42.8039 3.51321 41.7687 4.60245 40.9803 5.9386C40.2046 7.25218 39.7347 8.6885 39.6576 9.98374C39.6393 10.3083 39.6449 10.6229 39.6758 10.9178C39.7698 11.8194 40.0938 12.5333 40.6156 12.9806C40.6339 13.0031 40.6661 13.0342 40.7082 13.068L41.2973 13.4179L40.8359 13.0426Z" fill="#FFDE38"/>
<path d="M46.6331 2.57627C46.3862 2.53112 46.1225 2.52689 45.8434 2.56357C45.7873 2.56499 45.7312 2.56922 45.6737 2.57486C45.1827 2.62283 44.6609 2.80766 44.1237 3.12371C43.0786 3.73747 42.0827 4.77873 41.3168 6.05563C40.5692 7.3043 40.0993 8.67713 39.9969 9.92157C39.9716 10.2292 39.9702 10.5297 39.9912 10.8133C40.0235 11.2577 40.1105 11.657 40.2507 11.9999C40.2507 12.0013 40.2507 12.0013 40.2507 12.0027C40.3531 12.3216 40.492 12.5995 40.6617 12.8323C40.2199 12.3709 39.9548 11.6768 39.8931 10.8203C39.872 10.5325 39.8748 10.2263 39.8987 9.91311C40.0025 8.65315 40.4766 7.26479 41.2326 6.00342C42.007 4.71242 43.0169 3.65987 44.0746 3.03624C44.623 2.71313 45.1575 2.52407 45.6638 2.47469C45.842 2.45775 46.0173 2.45775 46.1814 2.4761C46.3386 2.49303 46.49 2.52689 46.6331 2.57627Z" fill="#FFDE38"/>
<path d="M44.1629 11.255L43.8206 11.0518L43.8192 10.273L44.1601 10.4762L44.1629 11.255Z" fill="#FF9900"/>
<path d="M44.5473 8.36115L44.8896 8.56291C44.9092 8.5742 44.9247 8.5883 44.9387 8.60383C44.9724 8.64333 44.9892 8.704 44.9892 8.78725C44.9892 8.91846 44.9485 9.04404 44.8644 9.16538C44.7802 9.28672 44.6259 9.4137 44.3986 9.54774C44.1981 9.66626 44.0073 9.74809 43.8263 9.79324C43.6454 9.83839 43.4897 9.86237 43.3592 9.8652L43.0184 9.66202C43.1488 9.6592 43.3045 9.63522 43.4855 9.59007C43.6664 9.54492 43.8572 9.46308 44.0578 9.34456C44.285 9.21053 44.4407 9.08354 44.5235 8.9622C44.6077 8.84086 44.6483 8.71529 44.6483 8.58407C44.6483 8.50083 44.6315 8.44016 44.5978 8.40065C44.5824 8.38654 44.5656 8.37243 44.5473 8.36115Z" fill="#FF9900"/>
<path d="M43.3592 9.86661L43.0184 9.66343C43.1488 9.66061 43.3045 9.63663 43.4855 9.59148C43.6664 9.54633 43.8572 9.46449 44.0578 9.34597C44.285 9.21194 44.4407 9.08495 44.5235 8.96361C44.6077 8.84227 44.6483 8.7167 44.6483 8.58548C44.6483 8.50224 44.6315 8.44157 44.5978 8.40206C44.5838 8.38654 44.567 8.37243 44.5487 8.36115L44.891 8.56291C44.9106 8.5742 44.9261 8.5883 44.9401 8.60383C44.9738 8.64333 44.9906 8.704 44.9906 8.78725C44.9906 8.91846 44.9499 9.04404 44.8658 9.16538C44.7816 9.28672 44.6273 9.4137 44.4001 9.54774C44.1995 9.66626 44.0087 9.74809 43.8277 9.79324C43.6454 9.8398 43.4897 9.86379 43.3592 9.86661Z" fill="#FF9900"/>
<path d="M43.1207 10.7598L42.7799 10.558L43.0169 9.66347L43.3592 9.86664L43.1207 10.7598Z" fill="#FF9900"/>
<path d="M44.156 7.56249L43.8137 7.36073C43.8333 7.37202 43.8558 7.38048 43.8824 7.38471C43.9343 7.39318 43.9988 7.39318 44.076 7.38612C44.1517 7.37907 44.2443 7.36496 44.3523 7.34521C44.5165 7.3184 44.6679 7.3057 44.8082 7.30711C44.9485 7.30852 45.0691 7.33251 45.1715 7.37766C45.1884 7.38471 45.2038 7.39318 45.2192 7.40164L45.5601 7.60482C45.5446 7.59635 45.5292 7.58789 45.5124 7.58083C45.41 7.53427 45.2879 7.51029 45.1491 7.51029C45.0088 7.50888 44.8573 7.52157 44.6932 7.54838C44.5852 7.56813 44.4926 7.58224 44.4169 7.5893C44.3411 7.59635 44.2766 7.59635 44.2233 7.58789C44.198 7.58224 44.1756 7.57378 44.156 7.56249Z" fill="#FF9900"/>
<path d="M44.156 7.56249L43.8137 7.36073C43.8333 7.37202 43.8558 7.38048 43.8824 7.38471C43.9343 7.39318 43.9988 7.39318 44.076 7.38612C44.1517 7.37907 44.2443 7.36496 44.3523 7.34521C44.5165 7.3184 44.6679 7.3057 44.8082 7.30711C44.9485 7.30852 45.0691 7.33251 45.1715 7.37766C45.1884 7.38471 45.2038 7.39318 45.2192 7.40164L45.5601 7.60482C45.5446 7.59635 45.5292 7.58789 45.5124 7.58083C45.41 7.53427 45.2879 7.51029 45.1491 7.51029C45.0088 7.50888 44.8573 7.52157 44.6932 7.54838C44.5852 7.56813 44.4926 7.58224 44.4169 7.5893C44.3411 7.59635 44.2766 7.59635 44.2233 7.58789C44.198 7.58224 44.1756 7.57378 44.156 7.56249Z" fill="#FF9900"/>
<path d="M44.8517 5.72829L44.5095 5.52652C44.703 5.43481 44.87 5.3685 45.0102 5.33041C45.1505 5.29231 45.2613 5.27115 45.3427 5.2655L45.6835 5.46727C45.6022 5.4715 45.4914 5.49407 45.3511 5.53217C45.2122 5.57167 45.0453 5.63658 44.8517 5.72829Z" fill="#FF9900"/>
<path d="M44.8517 5.72829L44.5095 5.52652C44.703 5.43481 44.87 5.3685 45.0102 5.33041C45.1505 5.29231 45.2613 5.27115 45.3427 5.2655L45.6835 5.46727C45.6022 5.4715 45.4914 5.49407 45.3511 5.53217C45.2122 5.57167 45.0453 5.63658 44.8517 5.72829Z" fill="#FF9900"/>
<path d="M43.4714 8.54312L43.1306 8.33994C43.0646 8.30185 43.0113 8.244 42.9665 8.16922C42.9089 8.07046 42.8795 7.92654 42.8781 7.73889C42.8781 7.59497 42.8949 7.44682 42.93 7.29162C42.9651 7.13783 43.0198 6.98404 43.0941 6.83166C43.1684 6.67928 43.2652 6.52972 43.3831 6.38298C43.5023 6.23625 43.6426 6.09797 43.8067 5.96535L44.1475 6.16852C43.9834 6.29974 43.8432 6.43942 43.7239 6.58616C43.6047 6.73289 43.5079 6.88245 43.435 7.03483C43.3606 7.18721 43.3059 7.341 43.2708 7.4948C43.2358 7.64859 43.2189 7.79815 43.2189 7.94206C43.2189 8.12971 43.2484 8.27363 43.3073 8.37239C43.3508 8.44717 43.4055 8.50502 43.4714 8.54312Z" fill="#FF9900"/>
<path d="M43.4714 8.54312L43.1306 8.33994C43.0646 8.30185 43.0113 8.244 42.9665 8.16922C42.9089 8.07046 42.8795 7.92654 42.8781 7.73889C42.8781 7.59497 42.8949 7.44682 42.93 7.29162C42.9651 7.13783 43.0198 6.98404 43.0941 6.83166C43.1684 6.67928 43.2652 6.52972 43.3831 6.38298C43.5023 6.23625 43.6426 6.09797 43.8067 5.96535L44.1475 6.16852C43.9834 6.29974 43.8432 6.43942 43.7239 6.58616C43.6047 6.73289 43.5079 6.88245 43.435 7.03483C43.3606 7.18721 43.3059 7.341 43.2708 7.4948C43.2358 7.64859 43.2189 7.79815 43.2189 7.94206C43.2189 8.12971 43.2484 8.27363 43.3073 8.37239C43.3508 8.44717 43.4055 8.50502 43.4714 8.54312Z" fill="#FF9900"/>
<path d="M44.8502 5.04825L44.8516 5.72832C45.0452 5.63661 45.2121 5.57029 45.3524 5.5322C45.4927 5.4941 45.6035 5.47153 45.6848 5.46729L45.5137 6.35477C45.3903 6.36606 45.2486 6.3971 45.0859 6.4493C44.9232 6.50151 44.7534 6.57911 44.5753 6.68493C44.3971 6.79075 44.2681 6.9008 44.1909 7.0165C44.1124 7.13219 44.0745 7.24648 44.0745 7.36076C44.0745 7.4299 44.0871 7.48351 44.111 7.5202C44.1348 7.55547 44.1741 7.57805 44.226 7.58651C44.2779 7.59498 44.3424 7.59498 44.4196 7.58792C44.4967 7.58087 44.5879 7.56676 44.6959 7.54701C44.86 7.5202 45.0115 7.5075 45.1518 7.50891C45.2921 7.51032 45.4127 7.53431 45.5151 7.57946C45.6175 7.62602 45.6989 7.70503 45.7564 7.81367C45.8139 7.92372 45.8433 8.07469 45.8448 8.26658C45.8448 8.3978 45.8293 8.53607 45.7957 8.68563C45.762 8.83377 45.7073 8.98615 45.6287 9.14136C45.5502 9.29656 45.4492 9.45035 45.3243 9.60132C45.1995 9.7537 45.0466 9.90044 44.8642 10.0429L44.8671 10.8415L44.1629 11.2563L44.1601 10.4775C43.888 10.6115 43.6677 10.692 43.498 10.7202C43.3283 10.7484 43.202 10.7625 43.1207 10.7625L43.3591 9.86799C43.4896 9.86516 43.6453 9.84118 43.8262 9.79603C44.0072 9.75088 44.198 9.66904 44.3985 9.55053C44.6258 9.41649 44.7815 9.2895 44.8642 9.16816C44.9484 9.04682 44.9891 8.92125 44.9891 8.79003C44.9891 8.70679 44.9723 8.64612 44.9386 8.60661C44.9049 8.56711 44.8558 8.54312 44.7927 8.53183C44.7296 8.52196 44.6496 8.52196 44.5528 8.53183C44.4561 8.54312 44.3438 8.56005 44.2176 8.58122C44.0942 8.60097 43.9749 8.61367 43.8571 8.61931C43.7393 8.62496 43.6341 8.61085 43.5387 8.57416C43.4433 8.53889 43.3675 8.47116 43.3086 8.3724C43.2511 8.27363 43.2217 8.12972 43.2203 7.94207C43.2203 7.79815 43.2371 7.65 43.2722 7.4948C43.3072 7.34101 43.3619 7.18722 43.4363 7.03484C43.5106 6.88246 43.6074 6.7329 43.7252 6.58616C43.8445 6.43943 43.9847 6.30115 44.1489 6.16853L44.1475 5.46165L44.8502 5.04825Z" fill="#FFEA82"/>
<path d="M44.149 6.17L43.8067 5.96682L43.8053 5.25995L44.1462 5.46312L44.149 6.17Z" fill="#FF9900"/>
<path d="M44.1462 5.46311L43.8053 5.25994L44.5081 4.84512L44.8503 5.0483L44.1462 5.46311Z" fill="#FF9900"/>
<defs>
<filter id="filter0_f_1_4713" x="31.0492" y="38.3741" width="47.1145" height="28.4885" filterUnits="userSpaceOnUse" color-interpolation-filters="sRGB">
<feFlood flood-opacity="0" result="BackgroundImageFix"/>
<feBlend mode="normal" in="SourceGraphic" in2="BackgroundImageFix" result="shape"/>
<feGaussianBlur stdDeviation="2" result="effect1_foregroundBlur_1_4713"/>
</filter>
<linearGradient id="paint0_linear_1_4713" x1="15.9383" y1="73.5566" x2="42.7618" y2="99.3971" gradientUnits="userSpaceOnUse">
<stop stop-color="#374ABD"/>
<stop offset="1" stop-color="#C743A9"/>
</linearGradient>
<linearGradient id="paint1_linear_1_4713" x1="69.0415" y1="50.7557" x2="46.6434" y2="32.3768" gradientUnits="userSpaceOnUse">
<stop offset="0.0833571" stop-color="#FF607E"/>
<stop offset="1" stop-color="#FF5B21"/>
</linearGradient>
<linearGradient id="paint2_linear_1_4713" x1="44.6506" y1="30.599" x2="49.9988" y2="33.4661" gradientUnits="userSpaceOnUse">
<stop stop-color="#66092B"/>
<stop offset="1" stop-color="#170940"/>
</linearGradient>
</defs>
</svg>
