<svg width="32" height="32" viewBox="0 0 32 32" fill="none" xmlns="http://www.w3.org/2000/svg">
<path d="M13.24 14.4399C12.37 14.4399 11.69 15.1999 11.69 16.1299C11.69 17.0499 12.38 17.8199 13.24 17.8199C14.11 17.8199 14.8 17.0499 14.8 16.1299C14.81 15.1999 14.11 14.4399 13.24 14.4399Z" fill="white" fill-opacity="0.5"/>
<path d="M18.8 14.4399C17.93 14.4399 17.25 15.1999 17.25 16.1299C17.25 17.0499 17.94 17.8199 18.8 17.8199C19.67 17.8199 20.36 17.0499 20.36 16.1299C20.36 15.1999 19.67 14.4399 18.8 14.4399Z" fill="white" fill-opacity="0.5"/>
<path d="M16 0C7.16 0 0 7.16 0 16C0 24.84 7.16 32 16 32C24.84 32 32 24.84 32 16C32 7.16 24.84 0 16 0ZM24.97 19.28C23.1 21.69 20.33 21.52 20.33 21.52L19.38 20.32C21.05 19.96 22.1 18.48 22.1 18.48C22.1 18.48 19.6 20.19 16 20.19C12.4 20.19 9.89 18.48 9.89 18.48C9.89 18.48 10.94 19.96 12.61 20.32L11.66 21.52C11.66 21.52 8.89 21.69 7.02 19.28C7.02 19.28 6.87 15.15 9.17 10.36C9.17 10.36 11.21 8.8 13.46 8.76L13.69 8.99C13.69 8.99 11.29 9.7 9.92 10.92C9.92 10.92 12.43 9.39 16 9.39C19.57 9.39 22.08 10.92 22.08 10.92C20.71 9.69 18.31 8.99 18.31 8.99L18.54 8.76C20.79 8.8 22.83 10.36 22.83 10.36C25.12 15.15 24.97 19.28 24.97 19.28Z" fill="white" fill-opacity="0.5"/>
</svg>
