<svg width="33" height="32" viewBox="0 0 33 32" fill="none" xmlns="http://www.w3.org/2000/svg">
<path d="M21.77 16.1C21.49 15.84 21.15 15.61 20.73 15.4C20.31 15.19 19.92 15.03 19.55 14.91C19.18 14.8 18.77 14.69 18.3 14.58L16.81 14.24C16.52 14.17 16.31 14.12 16.18 14.09C16.05 14.06 15.88 14 15.68 13.93C15.48 13.85 15.34 13.78 15.25 13.7C15.16 13.62 15.09 13.52 15.01 13.4C14.94 13.28 14.9 13.13 14.9 12.97C14.9 12.24 15.59 11.87 16.96 11.87C17.37 11.87 17.74 11.93 18.06 12.04C18.38 12.15 18.64 12.29 18.83 12.45C19.02 12.61 19.2 12.77 19.37 12.93C19.54 13.09 19.73 13.23 19.94 13.34C20.15 13.45 20.38 13.51 20.63 13.51C21.08 13.51 21.44 13.36 21.71 13.05C21.98 12.75 22.12 12.38 22.12 11.95C22.12 11.43 21.85 10.95 21.32 10.53C20.79 10.11 20.11 9.77999 19.29 9.56999C18.47 9.34999 17.6 9.23999 16.69 9.23999C16.04 9.23999 15.41 9.30999 14.8 9.45999C14.19 9.60999 13.62 9.82999 13.09 10.13C12.56 10.43 12.14 10.84 11.82 11.37C11.5 11.9 11.34 12.51 11.34 13.21C11.34 13.79 11.43 14.3 11.61 14.73C11.79 15.16 12.06 15.52 12.41 15.81C12.76 16.1 13.14 16.33 13.55 16.5C13.96 16.68 14.45 16.83 15.02 16.96L17.11 17.47C17.97 17.68 18.5 17.85 18.71 17.98C19.02 18.17 19.17 18.46 19.17 18.84C19.17 19.21 18.98 19.52 18.6 19.76C18.22 20 17.72 20.12 17.1 20.12C16.61 20.12 16.18 20.04 15.79 19.89C15.4 19.74 15.09 19.55 14.86 19.34C14.63 19.13 14.41 18.91 14.21 18.7C14.01 18.49 13.79 18.3 13.55 18.15C13.31 18 13.05 17.92 12.78 17.92C12.3 17.92 11.94 18.06 11.7 18.35C11.46 18.64 11.34 18.99 11.34 19.42C11.34 20.3 11.92 21.05 13.09 21.67C14.25 22.29 15.64 22.61 17.25 22.61C17.95 22.61 18.61 22.52 19.25 22.35C19.89 22.17 20.47 21.92 21 21.59C21.53 21.26 21.95 20.81 22.27 20.25C22.58 19.69 22.74 19.07 22.74 18.37C22.74 17.89 22.65 17.46 22.46 17.06C22.27 16.68 22.04 16.36 21.77 16.1Z" fill="white" fill-opacity="0.5"/>
<path d="M16.96 0C8.11996 0 0.959961 7.16 0.959961 16C0.959961 24.84 8.11996 32 16.96 32C25.8 32 32.96 24.84 32.96 16C32.96 7.16 25.8 0 16.96 0ZM26.32 25.36C25.25 26.43 23.95 26.97 22.44 26.97C21.2 26.97 20.08 26.59 19.09 25.83C18.36 25.98 17.64 26.06 16.94 26.06C15.58 26.06 14.27 25.8 13.03 25.27C11.79 24.74 10.71 24.03 9.80997 23.13C8.90997 22.23 8.18997 21.16 7.65997 19.92C7.12997 18.68 6.86996 17.37 6.86996 16.01C6.86996 15.31 6.94998 14.6 7.09998 13.87C6.33998 12.88 5.95996 11.76 5.95996 10.53C5.95996 9.02 6.49996 7.72 7.56996 6.65C8.63996 5.58 9.93997 5.04 11.45 5.04C12.69 5.04 13.81 5.42 14.8 6.18C15.53 6.03 16.25 5.95 16.95 5.95C18.31 5.95 19.62 6.21 20.86 6.74C22.1 7.27 23.18 7.98 24.08 8.88C24.98 9.78 25.7 10.85 26.23 12.09C26.76 13.33 27.02 14.64 27.02 16C27.02 16.7 26.94 17.41 26.79 18.14C27.55 19.13 27.93 20.24 27.93 21.48C27.93 23 27.4 24.29 26.32 25.36Z" fill="white" fill-opacity="0.5"/>
</svg>
