<svg width="33" height="32" viewBox="0 0 33 32" fill="none" xmlns="http://www.w3.org/2000/svg">
<path d="M22.2 23.3L24.82 10.95C24.93 10.43 24.86 10.05 24.63 9.83C24.4 9.6 24.09 9.56 23.71 9.71L8.28998 15.65C7.93998 15.78 7.70998 15.93 7.58998 16.1C7.46998 16.27 7.44997 16.42 7.54997 16.57C7.64997 16.72 7.83998 16.83 8.11998 16.92L12.06 18.15L21.21 12.39C21.46 12.22 21.65 12.19 21.78 12.28C21.86 12.34 21.84 12.43 21.71 12.55L14.31 19.23L14.02 23.29C14.29 23.29 14.56 23.16 14.82 22.9L16.75 21.05L20.75 23.99C21.51 24.4 22 24.18 22.2 23.3ZM32.96 15.97C32.96 18.13 32.54 20.2 31.69 22.17C30.85 24.14 29.71 25.84 28.28 27.27C26.85 28.7 25.15 29.83 23.18 30.67C21.21 31.51 19.14 31.94 16.97 31.94C14.8 31.94 12.74 31.52 10.76 30.67C8.78998 29.83 7.07997 28.69 5.65997 27.27C4.22997 25.84 3.09997 24.14 2.24997 22.17C1.40997 20.2 0.97998 18.13 0.97998 15.97C0.97998 13.81 1.39997 11.74 2.24997 9.77C3.08997 7.8 4.22997 6.1 5.65997 4.67C7.08997 3.24 8.78998 2.11 10.76 1.27C12.73 0.43 14.8 0 16.97 0C19.13 0 21.2 0.42 23.18 1.27C25.15 2.11 26.86 3.25 28.28 4.67C29.71 6.1 30.84 7.8 31.69 9.77C32.54 11.74 32.96 13.81 32.96 15.97Z" fill="white" fill-opacity="0.5"/>
</svg>
