<svg width="33" height="32" viewBox="0 0 33 32" fill="none" xmlns="http://www.w3.org/2000/svg">
<path d="M16.96 0C8.11996 0 0.959961 7.16 0.959961 16C0.959961 24.84 8.11996 32 16.96 32C25.8 32 32.96 24.84 32.96 16C32.96 7.16 25.79 0 16.96 0ZM23.34 13.51C23.35 13.65 23.35 13.79 23.35 13.94C23.35 18.29 20.04 23.3 13.99 23.3C12.13 23.3 10.4 22.76 8.94997 21.82C9.20997 21.85 9.46996 21.87 9.72997 21.87C11.27 21.87 12.69 21.34 13.81 20.46C12.37 20.43 11.16 19.48 10.74 18.18C10.94 18.22 11.15 18.24 11.36 18.24C11.66 18.24 11.95 18.2 12.23 18.12C10.72 17.82 9.58997 16.49 9.58997 14.9V14.86C10.03 15.1 10.54 15.25 11.08 15.27C10.2 14.68 9.61996 13.67 9.61996 12.53C9.61996 11.93 9.77996 11.36 10.07 10.88C11.69 12.87 14.11 14.18 16.85 14.32C16.79 14.08 16.77 13.83 16.77 13.57C16.77 11.75 18.24 10.28 20.06 10.28C21.01 10.28 21.86 10.68 22.46 11.32C23.21 11.17 23.91 10.9 24.55 10.52C24.31 11.29 23.78 11.93 23.1 12.34C23.76 12.26 24.4 12.08 24.99 11.82C24.54 12.47 23.99 13.05 23.34 13.51Z" fill="white" fill-opacity="0.5"/>
</svg>
