<svg width="33" height="32" viewBox="0 0 33 32" fill="none" xmlns="http://www.w3.org/2000/svg">
<path d="M18.24 16.64C18.24 16.99 18.53 17.28 18.88 17.28C19.23 17.28 19.52 16.99 19.52 16.64C19.52 16.29 19.23 16 18.88 16C18.53 16 18.24 16.29 18.24 16.64Z" fill="white" fill-opacity="0.5"/>
<path d="M16.96 0C8.11996 0 0.959961 7.16 0.959961 16C0.959961 24.84 8.11996 32 16.96 32C25.8 32 32.96 24.84 32.96 16C32.96 7.17 25.8 0 16.96 0ZM24.69 22.67C24.4 22.84 25.31 24.32 24.99 24.45C24.79 24.53 23.37 23.29 23.16 23.35C22.52 23.54 21.84 23.64 21.12 23.64C18.5 23.64 16.27 22.25 15.41 20.3C14.97 20.37 14.52 20.4 14.08 20.4C13.17 20.4 12.3 20.26 11.5 20C11.1 19.87 9.61997 21.41 9.24997 21.23C9.02997 21.12 9.90996 19.29 9.70996 19.16C7.89996 18 6.71997 16.14 6.71997 14.04C6.71997 10.53 10.02 7.68 14.08 7.68C17.91 7.68 21.06 10.21 21.41 13.45C24.63 13.58 27.2 15.81 27.2 18.54C27.2 20.24 26.21 21.74 24.69 22.67Z" fill="white" fill-opacity="0.5"/>
<path d="M22.08 16.64C22.08 16.99 22.37 17.28 22.72 17.28C23.07 17.28 23.36 16.99 23.36 16.64C23.36 16.29 23.07 16 22.72 16C22.37 16 22.08 16.29 22.08 16.64Z" fill="white" fill-opacity="0.5"/>
<path d="M14.08 8.95996C10.72 8.95996 7.99997 11.24 7.99997 14.06C7.99997 15.67 8.87996 17.21 10.27 18.15C10.34 18.2 10.71 18.37 10.68 18.6C10.63 19.12 10.47 19.48 10.47 19.48C10.47 19.48 10.9 18.99 11.21 18.75C11.35 18.64 11.61 18.72 11.69 18.75C12.42 19.01 13.23 19.16 14.08 19.16C14.42 19.16 14.75 19.14 15.08 19.09C15.06 18.91 15.04 18.72 15.04 18.53C15.04 16 17.24 13.9 20.12 13.5C19.8 10.95 17.22 8.95996 14.08 8.95996ZM11.52 12.8C10.99 12.8 10.56 12.37 10.56 11.84C10.56 11.31 10.99 10.88 11.52 10.88C12.05 10.88 12.48 11.31 12.48 11.84C12.48 12.37 12.05 12.8 11.52 12.8ZM16.64 12.8C16.11 12.8 15.68 12.37 15.68 11.84C15.68 11.31 16.11 10.88 16.64 10.88C17.17 10.88 17.6 11.31 17.6 11.84C17.6 12.37 17.17 12.8 16.64 12.8Z" fill="white" fill-opacity="0.5"/>
</svg>
