<svg width="56" height="46" viewBox="0 0 56 46" fill="none" xmlns="http://www.w3.org/2000/svg">
<g clip-path="url(#clip0_14_3942)">
<path d="M29.4049 6.81441C27.9432 6.59064 26.6936 7.20711 25.629 8.13154C24.5379 9.15789 23.8466 10.5304 24.1563 12.0724C24.3878 13.1242 25.4939 13.9119 26.4471 14.093C28.2157 14.3168 29.8541 13.5757 30.9868 12.0724C31.6968 11.0921 32.0912 9.57718 31.4803 8.41292C31.0277 7.58652 30.2916 6.96839 29.4049 6.81441Z" fill="#010101"/>
<path d="M18.5537 36.2146L50.3444 39.7478V35.6402L43.9648 33.4789L18.5537 36.2146Z" fill="#010101"/>
<path d="M8.81837 37.4741C7.87733 38.0944 7.21322 39.1584 7.43976 40.3365C7.59152 41.1906 8.35477 41.8902 9.10529 42.2253C9.49965 42.4247 9.71622 42.5366 10.2391 42.7326C10.5227 42.9293 9.92448 42.8999 9.71622 42.9852L0 44.4148V46H55.3883V41.6841L13.3879 36.9008C11.9456 36.636 9.98153 36.7158 8.81837 37.4741Z" fill="#010101"/>
<path d="M41.5947 9.1435C41.8357 8.78015 42.1259 8.66383 42.4915 8.66383C42.8327 8.64999 43.3096 8.80729 43.7056 8.97512L45.9255 9.95715L45.37 7.5184L41.5947 5.70831V9.1435Z" fill="#010101"/>
<path d="M19.5785 33.3133C20.2127 33.2286 20.5057 32.4526 20.5068 31.6699L20.5112 29.1498L18.6663 28.4563L18.6602 31.9369C18.6591 32.7085 18.9426 33.3975 19.5785 33.3133Z" fill="#010101"/>
<path d="M24.118 29.1149L24.1113 32.7268L24.9067 32.621C25.778 32.5046 26.3269 31.6151 26.3285 30.5932C26.3302 29.5303 25.8289 28.8451 24.9206 28.9886L24.118 29.1149Z" fill="#010101"/>
<path d="M35.5967 25.7339C35.6039 25.7367 35.61 25.7378 35.6155 25.7395L35.5978 25.7339H35.5967Z" fill="#010101"/>
<path d="M34.3547 27.461C33.3815 27.615 32.7645 28.4918 32.7617 29.6671C32.7595 30.8308 33.3749 31.5398 34.348 31.4102C35.3245 31.2811 35.9637 30.3894 35.9654 29.1996C35.9676 28.001 35.3323 27.3065 34.3547 27.461Z" fill="#010101"/>
<path d="M41.7393 17.4595L39.4136 16.5849L39.4053 16.5871L40.944 18.991L41.7393 17.4595Z" fill="#010101"/>
<path d="M51.7493 32.6243C50.6853 32.848 49.9902 32.2726 49.7337 31.4456C49.6501 31.1958 49.7592 31.1221 50.0317 31.069C50.8492 30.9443 51.6928 30.7621 52.512 30.5888C52.9053 30.5212 52.8809 30.6453 52.8659 30.8441C53.0321 31.5863 52.5009 32.4144 51.7493 32.6243ZM5.76371 33.0596C5.51945 33.6606 4.92347 34.0688 4.30533 34.081C3.66671 34.1386 3.10673 33.9004 2.79379 33.1549C2.57556 32.6077 2.51075 31.7835 2.87632 31.8671C3.87164 31.9901 4.77392 32.2188 5.73878 32.4393C5.99911 32.5235 5.83682 32.848 5.76371 33.0596ZM36.579 9.19778L37.8446 8.90478V10.2502L38.9496 9.97045V11.1895L37.8446 11.4316V14.5278L36.579 14.8197V9.19778ZM48.6963 0L51.5305 29.5962C51.5737 29.8886 51.546 30.2847 51.1655 30.3799C50.8664 30.494 50.6737 30.2847 50.5778 30.0869L49.7382 26.4346L44.0703 24.1787L41.8376 24.5542C42.4136 24.6212 42.9276 24.8478 43.358 25.2305L42.5427 26.654C42.0231 26.2098 41.2826 26.2507 40.7436 26.3366C40.2252 26.4191 40.0258 26.7099 40.0253 27.0373C40.0247 27.4327 40.3947 27.5114 41.0693 27.5684C42.0829 27.6775 43.4593 27.7745 43.456 29.5164C43.4549 30.1667 43.2948 30.7427 42.9908 31.208L38.4988 31.7674C38.414 31.6943 38.3331 31.6168 38.2567 31.5342L39.0006 30.1152C39.4293 30.5954 40.1632 30.7599 40.9907 30.6502C41.5335 30.5793 41.8658 30.2492 41.8664 29.8842C41.8669 29.4505 41.4709 29.3337 40.8201 29.2556C39.8225 29.1476 38.4893 29.0894 38.4927 27.3231C38.4932 27.0899 38.522 26.8578 38.5774 26.6318L35.654 25.7506C36.8133 26.1084 37.6065 27.2787 37.6031 28.962C37.6015 30.1805 37.1816 31.2518 36.5092 32.015L32.2327 32.5478C31.604 31.9701 31.2213 31.0468 31.2235 29.8903C31.2246 28.875 31.5243 27.9517 32.0239 27.2267L30.1445 26.5205L30.1274 26.5233L30.1168 32.8115L28.7626 32.9793L28.7709 28.2818L26.0536 27.4615C27.0118 27.7911 27.636 28.8147 27.6338 30.4038C27.631 31.5902 27.2804 32.5661 26.7044 33.2363L22.8626 33.7138L22.8726 28.3527L21.7532 27.9323L21.7416 27.934L21.736 31.6605C21.7338 32.5118 21.5555 33.3166 21.1816 33.9231L18.0045 34.3186C17.65 33.819 17.4844 33.0868 17.4855 32.277L17.4911 29.137L16.5882 28.8008H16.5871L16.7417 30.283L15.5281 30.4752L15.5204 34.6271L14.417 34.7645L14.4242 30.6491L13.2445 30.8358L13.3203 30.0914L11.9439 29.676L11.9412 29.6793C12.2552 29.7707 12.5366 29.9546 12.7781 30.2282L12.2408 31.3659C11.8969 30.992 11.4078 31.0069 11.0505 31.064C10.706 31.1183 10.5736 31.3503 10.5731 31.6173C10.5725 31.9391 10.819 32.0122 11.2665 32.0737C11.9367 32.1862 12.844 32.2958 12.8418 33.7093C12.8412 34.2001 12.7504 34.6349 12.5754 34.9938L9.4991 35.376C9.46309 35.335 9.4282 35.2923 9.39552 35.2469L9.89125 34.1031C10.1765 34.5042 10.6639 34.6526 11.2134 34.58C11.5717 34.533 11.7922 34.2721 11.7922 33.9746C11.7927 33.6224 11.5307 33.5194 11.0998 33.4413C10.4379 33.3321 9.55061 33.2563 9.55338 31.8134C9.55393 31.326 9.678 30.8491 9.91783 30.4647L8.9214 30.088L8.90644 28.8019L44.0703 22.584L49.3349 24.6805L47.5387 16.8646L44.2198 15.5697L41.7041 20.4433L41.7002 22.3536L40.2025 22.6206L40.2053 20.7296L38.3758 17.845L36.7103 17.3426L36.7042 17.3432C36.939 17.4052 37.1368 17.5121 37.293 17.6656C37.4569 17.8278 37.581 18.0295 37.6646 18.2709C37.7482 18.5119 37.7903 18.919 37.7898 19.2153C37.7887 19.7443 37.6751 20.3347 37.4508 20.7075C37.2503 21.0381 36.9678 21.3832 36.6012 21.5959L37.6081 23.0842L35.9099 23.3861L34.9916 22.0169L34.9888 23.5506L33.5653 23.8037L33.5742 18.3718L32.6359 18.0195L32.6282 22.0097C32.627 22.8144 32.524 23.5063 32.2166 24.0441L28.5327 24.7004C28.2392 24.2817 28.1428 23.648 28.1439 22.8787L28.15 19.3887L27.4322 19.1195L27.538 20.595L26.1405 20.8803L26.1333 25.128L24.8682 25.354L24.8754 21.139L23.4991 21.4198L23.576 20.3547L22.9031 20.1021L22.8931 25.7052L21.3156 25.9865L19.1821 23.5528L19.1771 26.3676L17.9696 26.5831L17.9779 21.6757L17.0219 21.3167L17.2457 22.6538L14.7222 23.1689L14.72 24.2008L16.7849 23.7909L16.7821 25.1668L14.7183 25.5606L14.7167 26.6252L17.269 26.1527L17.1748 26.7254L13.5652 27.3685L13.5729 22.8726L12.2148 22.4716C12.5504 22.5779 12.8351 22.7696 13.0439 22.9812L12.489 24.2008C12.1915 23.8485 11.7695 23.8131 11.4033 23.8873C10.7287 24.0247 10.2352 24.7691 10.233 25.7085C10.2308 26.6468 10.7531 27.1658 11.4283 27.04C11.8293 26.9653 12.2325 26.6623 12.4845 26.3155L13.0362 27.3192C12.9969 27.3746 12.9537 27.43 12.9105 27.4853L9.7993 28.0398C9.37337 27.5784 9.10916 26.844 9.11027 25.9167C9.11249 24.9314 9.39718 24.0502 9.85746 23.4138L8.85936 23.0377V21.8452L44.4009 13.8144L47.09 14.9366L46.1052 10.7016L43.6626 9.66305V13.1824L42.397 13.4355V11.0101C42.3837 10.5986 42.5781 9.98596 42.0951 10.0978C41.8952 10.0978 41.5534 10.351 41.5257 10.5592V13.6721L40.1205 13.98V8.38745L34.4355 5.91935L34.055 5.83461C34.559 6.6045 34.8714 7.46358 35.0486 8.37194C35.3904 11.6116 33.7547 14.2608 31.1637 16.0704L26.2729 17.2474C24.6472 17.4025 23.0936 16.7976 21.9864 15.5209C20.6942 13.9379 20.5845 11.497 21.1977 9.5351L20.1065 9.00614C21.674 12.942 16.658 15.9014 16.1562 17.3044L20.3796 16.39V18.6066L10.0175 21.0476V19.6169L15.542 13.3176C16.3578 12.3954 17.3969 11.6116 17.079 10.6877C16.9594 10.3648 16.6159 10.2075 16.3462 10.1106C15.486 9.94497 14.7737 10.3083 14.1622 10.8384C13.6997 11.3042 13.4965 11.9068 13.4671 12.2126L10.1034 12.9825C10.2258 12.1035 10.3759 11.4698 10.6733 10.7714C11.6005 8.76465 13.6305 7.23482 15.7043 6.94459C17.9691 6.56241 19.5111 8.09389 21.4846 8.78071C22.383 7.17999 23.8995 5.49784 25.477 4.62714C27.554 3.33936 30.5921 3.41137 32.8004 4.34743L39.5777 7.27747L40.1615 7.48906V5.50948L41.5119 4.89467L45.1664 6.66211L43.651 0.0443107H10.9071L5.11179 31.0407C5.01597 31.3503 4.65096 31.5021 4.36405 31.4318C4.0871 31.321 3.95362 31.136 3.95362 30.7455L5.31839 0.0443107H0V43.4477L2.72732 43.055V36.0439C2.7528 35.5106 3.28896 35.2868 3.87164 35.2868C4.59225 35.2868 5.11179 35.5687 5.11179 35.9769V42.7055L7.59263 42.3399C6.70642 41.4449 6.17524 40.1948 6.47766 38.8898C6.80224 37.4741 8.23126 36.3364 9.55615 36.1004L18.6736 34.9927L43.3508 32.0488L44.3627 31.9906C46.3218 32.6514 48.0959 33.4352 50.1009 34.0694C50.4793 34.2521 50.2904 33.7741 50.3724 33.6318C50.4715 33.3792 50.7152 33.326 50.9163 33.2275C51.5732 32.9904 52.5115 33.0879 52.9479 33.7171L52.9629 39.9987L55.3878 40.3781V0H48.6963Z" fill="#010101"/>
<path d="M21.6493 21.9061L18.9735 20.9002L18.9502 20.9046L21.6454 24.1377L21.6493 21.9061Z" fill="#010101"/>
<path d="M36.1409 20.1459C36.2556 20.0107 36.3647 19.7848 36.3647 19.51C36.3658 19.2347 36.2833 19.1134 36.1681 19.0154C36.0135 18.8852 35.8601 18.898 35.4076 18.9899L34.995 19.0747L34.9922 20.5414L35.4043 20.4605C35.8651 20.3691 35.9958 20.317 36.1409 20.1459Z" fill="#010101"/>
<path d="M30.3615 23.6159C31.1441 23.4708 31.2366 22.8832 31.2378 22.0922L31.2422 19.3671L29.4592 18.6964L29.4531 22.4362C29.4515 23.2199 29.5778 23.7616 30.3615 23.6159Z" fill="#010101"/>
<path d="M12.1426 22.4494L12.1406 22.4484C12.1416 22.4494 12.1426 22.4494 12.1426 22.4494Z" fill="#010101"/>
<path d="M54.2649 43.6599V45.1603H53.9652V44.0952H53.9619L53.6024 45.1603H53.3593L53.0004 44.1063H52.997V45.1603H52.6963V43.6599H53.1471L53.4883 44.6912H53.4922L53.8185 43.6599H54.2649Z" fill="white"/>
<path d="M51.7657 45.1603V43.9379H51.332V43.6599H52.5251V43.9379H52.087V45.1603H51.7657Z" fill="white"/>
</g>
<defs>
<clipPath id="clip0_14_3942">
<rect width="55.3883" height="46" fill="white"/>
</clipPath>
</defs>
</svg>
