<svg width="63" height="46" viewBox="0 0 63 46" fill="none" xmlns="http://www.w3.org/2000/svg">
<path d="M17.1765 -0.000230945C16.3705 -0.00407223 15.5504 0.048426 14.72 0.160463C5.87421 1.35638 -0.692471 8.89107 0.0585006 16.9911C0.549545 22.2786 4.03871 26.495 8.86785 28.4554C7.24106 30.4432 5.9856 32.7653 5.23463 35.369C4.21669 38.9114 4.24294 42.5516 5.13796 45.9992H8.58679C7.91585 43.2021 7.896 40.211 8.65466 37.2314C8.93251 36.1239 9.3128 35.0675 9.77631 34.0662C10.2904 33.0054 10.8096 32.2871 11.1989 31.8421L11.6528 31.3741L11.8058 31.2115L12.9735 30.0162C13.1778 29.8075 13.1496 29.4976 12.9089 29.335C12.9089 29.335 12.6682 29.1679 10.4575 27.6762C8.75197 26.5226 7.65848 25.7626 6.52787 23.9137C5.03553 21.4482 4.47022 18.2696 5.24872 15.0768C6.88447 8.3949 13.599 3.76167 20.2445 4.72967C26.8892 5.69384 30.9533 11.9033 29.3131 18.5852C28.9469 20.091 28.3169 21.4905 27.4968 22.7511C27.4872 22.89 27.557 23.0244 27.8259 23.0757C27.9462 23.0801 28.0666 23.0897 28.1876 23.0942L28.2433 23.0987C29.4207 23.1634 30.6063 23.3305 31.7882 23.6224C34.4758 24.2761 36.8811 25.4624 38.9291 27.0328C39.207 27.1673 39.4944 27.1903 39.513 26.755C38.8645 24.8971 38.6698 22.8855 39.0546 20.9117C40.1609 15.2349 45.6379 12.0326 51.2865 13.7567C56.9307 15.4853 60.61 21.4905 59.5024 27.1717C58.3948 32.853 52.9223 36.0554 47.2692 34.3313C46.4907 34.0905 45.7493 33.766 45.0451 33.3767C44.4939 33.2192 44.4196 33.5246 44.4702 33.8396C46.2256 37.5144 46.7813 41.7616 45.7736 45.9992H50.638C50.9632 42.8839 50.5394 39.7648 49.4798 36.8332C55.3276 37.6117 60.5223 34.4331 61.8155 28.7889C63.3584 22.116 58.8686 14.5256 51.7968 11.838C44.7256 9.15035 37.7466 12.3758 36.2037 19.0532C35.9207 20.2907 35.8471 21.5558 35.9489 22.8253C35.1563 22.4867 34.3362 22.1768 33.493 21.9124C32.39 21.5647 31.292 21.3055 30.1985 21.1153C31.6627 18.5666 32.3861 15.6517 32.1076 12.6587C31.4264 5.32187 24.9692 0.0369015 17.1765 -0.000230945Z" fill="url(#paint0_linear_14_3976)"/>
<path d="M28.9637 35.4306C28.9733 35.4447 29.8721 36.5657 29.8856 36.5843C30.0661 36.8116 30.2006 36.8487 30.4368 36.8487C30.6545 36.8487 30.9093 36.7648 30.9093 36.5241V34.8929C30.9093 34.6797 30.7704 34.5734 30.5015 34.5734C30.3997 34.5734 30.2608 34.592 30.1724 34.6797C30.1167 34.7309 30.0937 34.8051 30.0937 34.8929V35.7546L30.1033 35.8705L30.1359 35.9678C30.1455 35.9863 30.1359 36.0049 30.1173 36.0094C30.1033 36.0184 30.0898 36.0139 30.0757 36.0049L29.1487 34.8333C28.963 34.606 28.8286 34.5689 28.5975 34.5689C28.3798 34.5689 28.125 34.6521 28.125 34.8935V36.5248C28.125 36.738 28.2594 36.8494 28.5283 36.8494C28.7185 36.8494 28.9406 36.7937 28.9406 36.5248V35.6861L28.9265 35.5472C28.9125 35.4959 28.9035 35.478 28.9035 35.4639V35.4684C28.899 35.4498 28.9035 35.4268 28.9221 35.4217C28.94 35.4121 28.9586 35.4172 28.9637 35.4306Z" fill="black"/>
<path d="M32.0021 35.4306C32.0117 35.4447 32.9106 36.5657 32.924 36.5843C33.1046 36.8115 33.239 36.8487 33.4708 36.8487C33.6935 36.8487 33.9484 36.7648 33.9484 36.5241V34.8928C33.9484 34.6796 33.8094 34.5734 33.5405 34.5734C33.3549 34.5734 33.1327 34.6291 33.1327 34.8928V35.7546L33.1423 35.8704L33.175 35.9677C33.1795 35.9863 33.1705 36.0049 33.1519 36.0094C33.1378 36.0183 33.1289 36.0138 33.1148 36.0049L32.1878 34.8326C32.0021 34.6054 31.8677 34.5682 31.6365 34.5682C31.4233 34.5682 31.1641 34.6515 31.1641 34.8928V36.5241C31.1641 36.7373 31.2985 36.8487 31.5674 36.8487C31.7575 36.8487 31.9797 36.793 31.9797 36.5241V35.6854L31.9656 35.5465C31.9515 35.4953 31.9426 35.4773 31.9426 35.4633V35.4677C31.9381 35.4492 31.9426 35.4261 31.9611 35.421C31.9791 35.412 31.997 35.4172 32.0021 35.4306Z" fill="black"/>
<path d="M24.8712 34.902C24.8712 34.6933 24.7137 34.5685 24.4404 34.5685C24.2918 34.5685 24.167 34.6101 24.0927 34.6844C24.037 34.7401 24.014 34.8143 24.014 34.8976L24.0095 35.4212C24.0095 35.4443 23.9909 35.468 23.9634 35.468H23.0549C23.0274 35.468 23.0089 35.4398 23.0089 35.4168V34.8976C23.0089 34.8092 22.9762 34.7356 22.9205 34.6748C22.8462 34.6056 22.7259 34.5685 22.5773 34.5685C22.3085 34.5685 22.1465 34.6933 22.1465 34.8976V36.4872C22.1465 36.58 22.1791 36.6543 22.2348 36.7145C22.3091 36.7836 22.4295 36.8214 22.578 36.8214C22.8469 36.8214 23.0044 36.701 23.0089 36.4878L23.0044 36.0288C23.0044 35.9917 23.037 35.9597 23.069 35.9597L23.9634 35.9552C23.9909 35.9552 24.0095 35.9827 24.0095 36.0064V36.4885C24.0095 36.7017 24.1715 36.822 24.4404 36.822C24.5934 36.822 24.7137 36.7849 24.7835 36.7151C24.8437 36.6594 24.8719 36.5807 24.8719 36.4923L24.8712 34.902Z" fill="black"/>
<path d="M34.719 36.8287H36.3964C36.5122 36.8287 36.6608 36.7916 36.6608 36.611C36.6608 36.4305 36.5122 36.3934 36.3964 36.3934L35.1684 36.3979C35.1268 36.3979 35.0942 36.3607 35.0897 36.3191V35.9804C35.0942 35.9388 35.1268 35.9062 35.1684 35.9062H36.2389C36.3407 35.9062 36.4194 35.869 36.461 35.8185C36.4886 35.7813 36.4982 35.7442 36.4982 35.693C36.4982 35.6469 36.4886 35.6098 36.461 35.5771C36.4239 35.5214 36.3407 35.4888 36.2389 35.4888H35.1729C35.1313 35.4888 35.0942 35.4561 35.0942 35.4145V35.1226C35.0942 35.0809 35.1268 35.0438 35.1729 35.0438H36.4009C36.5212 35.0438 36.6653 35.0067 36.6653 34.8261C36.6653 34.6501 36.5219 34.6129 36.4009 34.6085H34.719C34.3528 34.6085 34.1953 34.7243 34.1953 34.9881V36.4478C34.1953 36.7173 34.3528 36.8287 34.719 36.8287Z" fill="black"/>
<path d="M39.0243 36.4372C38.9731 36.3725 38.8854 36.3399 38.7785 36.3399H37.8008C37.7592 36.3399 37.7176 36.3072 37.7176 36.2656V34.9128C37.7176 34.6996 37.5505 34.5742 37.2727 34.5742C36.9897 34.5742 36.8232 34.699 36.8232 34.9077V36.4557C36.8232 36.5761 36.8559 36.6645 36.9161 36.7202C36.9948 36.7989 37.1382 36.836 37.3425 36.836H38.7791C38.886 36.836 38.9737 36.8034 39.0249 36.7387C39.0576 36.7016 39.0762 36.6504 39.0762 36.5902C39.0755 36.53 39.0569 36.4794 39.0243 36.4372Z" fill="black"/>
<path d="M27.5649 36.83C27.7365 36.83 27.8479 36.7928 27.9171 36.7192C27.9542 36.6776 27.9728 36.6168 27.9728 36.5521V36.5054C27.9683 36.4356 27.8844 36.2595 27.7551 36.0099L27.1482 34.8191C27.0137 34.5783 26.6942 34.5502 26.5643 34.5502H26.4439C26.1706 34.5502 25.9529 34.652 25.8601 34.8191L25.2486 36.0239C25.1789 36.1584 25.0495 36.4087 25.0444 36.4919C25.0399 36.5803 25.0675 36.6539 25.1232 36.7147C25.1929 36.789 25.3088 36.8306 25.4433 36.8306C25.5918 36.8306 25.7768 36.7839 25.8184 36.6827L25.9202 36.4695L25.9343 36.4554L25.9529 36.4414L25.9759 36.4369H27.0464L27.0694 36.4414L27.0835 36.4554L27.0976 36.4695L27.1206 36.5163C27.1949 36.6597 27.1949 36.6597 27.1949 36.6552C27.2314 36.7512 27.4074 36.83 27.5649 36.83ZM26.9113 36.0656L26.9017 36.079H26.1046H26.095L26.0809 36.07L26.0854 36.056V36.0374C26.4004 35.3287 26.442 35.2314 26.4516 35.2173L26.4561 35.2128L26.4516 35.2173C26.4657 35.1987 26.4791 35.1897 26.4977 35.1897C26.5163 35.1897 26.5348 35.1987 26.5534 35.2218L26.9151 36.056L26.9113 36.0656Z" fill="black"/>
<path d="M21.5983 36.004C21.4453 36.004 21.3621 36.0271 21.2968 36.0968C21.1898 36.1986 21.0695 36.2639 20.9216 36.287C20.8614 36.3011 20.8057 36.31 20.7455 36.31C20.6527 36.31 20.5599 36.287 20.4766 36.2588C20.3748 36.2217 20.2865 36.166 20.2174 36.0968C20.1104 35.981 20.0503 35.842 20.0503 35.698C20.0503 35.5546 20.1104 35.415 20.2122 35.3043C20.2865 35.2255 20.3793 35.1698 20.4856 35.1327C20.5688 35.1 20.6572 35.0859 20.7449 35.0859C20.8051 35.0859 20.8608 35.0955 20.9209 35.109C21.0695 35.1276 21.1898 35.1922 21.3006 35.2991C21.3608 35.3638 21.444 35.3875 21.597 35.3875C21.8147 35.3875 21.9677 35.2716 21.9677 35.1231C21.9677 35.0347 21.9306 34.9515 21.8518 34.8683C21.6111 34.632 21.0919 34.5533 20.7167 34.5533C20.2763 34.5533 19.234 34.6602 19.2109 35.698C19.234 36.7358 20.2769 36.8427 20.7167 36.8427C21.0919 36.8427 21.6111 36.7595 21.8518 36.5232C21.9306 36.449 21.9677 36.3657 21.9677 36.2774C21.969 36.1244 21.8166 36.004 21.5983 36.004Z" fill="black"/>
<path d="M15.3735 24.0613C14.127 24.0984 13.1212 24.2559 12.9035 24.4921C12.7 24.7053 12.4496 24.8859 12.4445 25.1733C12.4355 25.4563 12.7691 25.4838 12.9682 25.4793C13.1673 25.4793 13.353 25.4608 13.3485 25.3449C13.3485 25.1829 13.0841 25.2149 13.0841 25.0485C13.0841 24.8539 14.1129 24.8122 14.627 24.8122C19.0432 24.7982 24.122 27.8565 24.1265 30.4468C24.1355 32.4577 21.5131 32.9122 20.0669 32.9167C19.5528 32.9167 19.0522 32.8655 18.5797 32.7733C18.5611 32.1293 18.524 30.7854 18.5054 29.9327C18.6725 29.9327 18.8249 29.9282 18.9593 29.9282C20.0298 29.9237 21.4382 30.3034 21.4382 30.5582C21.4382 30.7714 21.0631 30.9148 21.0631 31.119C21.0676 31.272 21.4107 31.249 21.7116 31.2675C21.7628 31.272 22.3698 30.934 22.3698 30.4013C22.3653 29.6971 21.4843 28.8584 18.6117 28.8674C18.5701 28.8674 18.5233 28.8718 18.4817 28.8718C18.4587 28.0748 18.3428 26.8283 17.8883 26.8283C17.5131 26.8283 17.4062 28.2047 17.3742 28.9692C15.7659 29.2099 14.3299 29.868 14.3299 30.5121C14.3299 31.0358 15.4836 32.3655 17.3511 33.1766C17.3786 33.7746 17.4945 34.1869 18.0278 34.1869C18.4126 34.1869 18.5419 33.9039 18.5842 33.6075C19.1866 33.7554 19.8403 33.8482 20.5349 33.8437C23.2411 33.8348 25.4146 32.393 25.405 30.4103C25.3967 27.7502 20.04 23.9313 15.3735 24.0613ZM14.6462 30.674C14.6462 30.2105 16.0502 30.039 17.3569 29.9698C17.3428 30.6926 17.3338 31.74 17.3383 32.4353C15.7397 31.8693 14.6462 30.9705 14.6462 30.674Z" fill="black"/>
<path d="M26.3755 28.9363C25.9216 28.9408 25.9075 30.7808 25.889 31.4524C25.8614 32.9908 26.0881 33.1714 26.4959 33.1669C26.8621 33.1669 26.9869 33.1253 26.9549 31.8372C26.8992 29.4043 26.7328 28.9363 26.3755 28.9363Z" fill="black"/>
<path d="M26.6132 28.2354C27.6235 28.2309 29.2406 27.0862 29.2362 26.1272C29.2362 25.7008 29.014 25.4786 28.4577 25.3999C28.2259 25.1777 27.8827 24.9274 27.3731 24.9319C25.7976 24.9364 24.7732 26.1925 24.7783 26.8737C24.7783 27.1285 24.8571 27.439 25.0844 27.6983C25.0888 28.2405 25.2233 28.3839 25.3993 28.3839C25.6029 28.3839 25.7188 28.268 25.7931 28.1291C26.0197 28.1983 26.2931 28.2399 26.6132 28.2354ZM26.7195 27.4665C26.4832 27.4665 26.2886 27.439 26.1215 27.3877C26.5709 26.8826 27.651 25.9281 28.1836 25.9236C28.5313 25.9236 28.5915 26.1969 28.5915 26.3039C28.5915 26.9428 27.2803 27.462 26.7195 27.4665ZM26.7937 25.7706C26.3072 26.0535 25.8161 26.4518 25.4775 26.8455C25.4634 26.7987 25.4544 26.7437 25.4544 26.697C25.4544 26.3909 25.9038 25.914 26.7937 25.7706Z" fill="black"/>
<path d="M31.8573 29.2679C31.8573 28.8415 30.7638 28.846 30.1473 28.8505C29.6838 28.8505 27.3342 28.9062 27.3438 30.2128C27.3438 31.0931 28.6549 30.8799 29.5263 30.9683C30.235 31.0426 31.1018 31.2698 31.1018 31.5061C31.1018 32.0253 29.2202 32.2334 28.8361 32.2334C28.0391 32.2378 28.0205 32.0016 28.0205 31.8857C28.0205 31.7743 28.1504 31.5707 28.4469 31.5663C28.7478 31.5663 29.3643 31.951 29.7862 31.9459C30.2126 31.9459 30.5647 31.7602 30.5647 31.5663C30.5647 31.2186 29.1562 31.0522 28.7247 31.0522C28.2657 31.0566 27.6127 31.2423 27.6127 31.928C27.6127 32.2846 28.1965 33.1233 29.8278 33.1188C31.4405 33.1143 31.8438 32.2013 31.8438 31.7289C31.8394 30.5797 30.7593 30.4497 29.8092 30.371C29.1005 30.3153 28.3355 30.2781 28.3406 30.1162C28.3444 29.5918 31.8573 29.9817 31.8573 29.2679Z" fill="black"/>
<path d="M34.5347 28.2967C34.4003 28.2967 34.3772 28.4401 34.3772 28.5886C34.3817 29.0381 34.9983 30.5951 34.9983 31.193C34.9983 31.3179 34.9893 31.5362 34.8965 31.5682C34.7434 31.6098 33.4509 29.2468 32.9086 29.2052C32.3574 29.168 32.0654 31.5266 32.0654 32.106C32.0654 32.6898 32.1672 33.0791 32.5981 33.0791C33.2377 33.0791 32.9086 30.7205 33.1634 30.7205C33.3535 30.7205 34.4009 32.871 34.9797 32.8659C35.6148 32.8659 35.981 31.9434 35.981 31.3505C35.9759 29.9741 35.068 28.2967 34.5347 28.2967Z" fill="black"/>
<path d="M38.8815 31.9454C38.6542 31.9454 37.4032 32.2233 37.32 32.1496C37.2368 32.0754 37.3943 31.3526 37.5518 31.3013C37.7093 31.2501 38.6869 31.2642 38.8495 31.2546C39.3034 31.2316 39.2157 30.615 38.9372 30.592C38.7938 30.5779 37.9084 30.5779 37.8578 30.4947C37.8066 30.4159 37.8719 30.0036 37.9692 29.962C38.1728 29.8788 39.5217 29.8417 39.6235 29.8186C39.7906 29.777 39.911 29.6886 39.9526 29.5408C39.9942 29.4018 39.4846 28.8128 38.8591 28.8826C37.779 28.9985 36.3706 28.994 36.3706 29.3461C36.3751 29.6797 37.0332 29.8096 37.0518 29.9025C37.0658 29.9953 36.9634 30.3378 36.9269 30.4403C36.8898 30.5561 36.4173 30.5933 36.3891 30.9179C36.3802 30.987 36.5005 31.108 36.482 31.1957C36.4077 31.4691 36.1855 32.0299 36.1855 32.2661C36.1855 32.6227 36.4544 33.4198 37.1862 33.3968C38.345 33.3596 39.3828 32.553 39.3969 32.4096C39.4186 32.1957 39.1036 31.9454 38.8815 31.9454Z" fill="black"/>
<path d="M43.3733 29.1991C42.7427 29.2362 41.5288 30.58 40.8201 31.484C40.7785 31.3912 40.7458 31.3035 40.7458 31.2196C40.7458 30.8348 41.4642 29.6901 41.5986 29.4033C41.742 29.1024 41.5845 28.7081 41.4085 28.8521C41.0704 29.13 39.9904 30.3861 39.9904 31.5628C39.9904 31.8317 40.0595 32.1607 40.2177 32.4571C39.9673 33.2453 39.379 34.9918 39.402 36.0532C39.4065 36.6 39.9629 37.1422 40.2964 37.068C40.4264 37.0398 40.4539 36.3266 40.6165 35.8356C40.8528 35.1358 41.2286 33.8522 41.3579 33.3054C41.4181 33.3099 41.4782 33.3144 41.5435 33.3144C42.8643 33.3099 44.3285 31.9059 44.324 30.6914C44.3182 29.477 43.605 29.185 43.3733 29.1991ZM41.8483 32.1972C42.3809 31.2798 43.155 30.0563 43.4379 30.0653C43.6422 30.0653 43.7158 30.2644 43.7209 30.566C43.7209 31.4648 42.6319 32.2158 41.8483 32.1972Z" fill="black"/>
<defs>
<linearGradient id="paint0_linear_14_3976" x1="48.5531" y1="47.2779" x2="44.0378" y2="42.9513" gradientUnits="userSpaceOnUse">
<stop stop-color="#2BCBFF"/>
<stop offset="1" stop-color="#A4ECFF"/>
</linearGradient>
</defs>
</svg>
