<svg width="95" height="16" viewBox="0 0 95 16" fill="none" xmlns="http://www.w3.org/2000/svg">
<g clip-path="url(#clip0_14_3828)">
<path d="M61.6278 12.4134C58.4555 12.4867 55.8324 10.0467 55.7569 6.97337C55.7569 6.87337 55.7569 6.77337 55.7569 6.6667C55.7157 5.1467 56.3199 3.67337 57.4255 2.60004C58.531 1.5067 60.0485 0.906704 61.6278 0.946704C63.2072 0.906704 64.7247 1.5667 65.7478 2.74004L64.7384 3.72004C63.99 2.80004 62.8364 2.27337 61.6278 2.29337C60.4536 2.2667 59.3206 2.7067 58.4898 3.52004C57.6452 4.36004 57.192 5.49337 57.2401 6.6667C57.1851 7.84004 57.6383 8.9867 58.4898 9.8267C59.3138 10.64 60.4536 11.0867 61.6278 11.0534C62.9668 11.0467 64.2234 10.4534 65.0612 9.44004L66.1186 10.44C65.583 11.06 64.9101 11.5534 64.1479 11.8867C63.3582 12.24 62.4999 12.42 61.6278 12.4134ZM68.7486 1.19337V12.1734H67.2928V1.19337H68.7486ZM69.9983 8.41337C69.9639 7.35337 70.3691 6.32004 71.1244 5.5467C71.8729 4.79337 72.9097 4.3867 73.9809 4.41337C75.0521 4.3867 76.0821 4.79337 76.8237 5.5467C77.5859 6.31337 77.991 7.3467 77.9567 8.41337C77.9979 9.48004 77.5859 10.5134 76.8237 11.28C76.089 12.0334 75.0521 12.4467 73.9809 12.4134C72.9097 12.4467 71.866 12.0334 71.1244 11.28C70.3691 10.5067 69.9639 9.48004 69.9983 8.41337ZM71.454 8.41337C71.4197 9.13337 71.6806 9.84004 72.1819 10.3734C73.1157 11.34 74.6813 11.38 75.677 10.4734C75.7113 10.44 75.7457 10.4067 75.78 10.3734C76.2813 9.84004 76.5422 9.13337 76.5079 8.41337C76.5422 7.69337 76.2813 6.99337 75.78 6.4667C74.8667 5.50004 73.3217 5.44004 72.3261 6.3267C72.278 6.37337 72.2299 6.42004 72.1819 6.4667C71.6806 7.00004 71.4197 7.70004 71.454 8.41337ZM85.9907 12.1734H84.6174V11.1267H84.5487C84.3015 11.52 83.9513 11.8334 83.5324 12.0467C83.0998 12.2867 82.6054 12.4134 82.1042 12.4134C81.2939 12.4667 80.4974 12.18 79.9137 11.6267C79.3712 11 79.0966 10.1934 79.1515 9.38004V4.6667H80.6004V9.29337C80.4905 10.2067 81.1634 11.0267 82.0973 11.1334C82.2346 11.1467 82.3788 11.1467 82.5162 11.1334C83.0792 11.14 83.6148 10.8934 83.965 10.4667C84.3564 10.0067 84.5624 9.4267 84.5487 8.83337V4.6667H86.0044L85.9907 12.1734ZM90.9072 12.4134C89.9047 12.4134 88.9571 11.9867 88.3047 11.2534C87.5838 10.4734 87.1923 9.46004 87.2061 8.41337C87.1855 7.37337 87.5631 6.36004 88.2773 5.58004C88.9227 4.84004 89.8772 4.4067 90.8797 4.41337C91.4222 4.4067 91.9578 4.5267 92.4385 4.7667C92.8779 4.98004 93.2556 5.30004 93.5234 5.70004H93.5852L93.5509 4.6667V1.19337H94.9997V12.1734H93.6264V11.1267H93.5646C93.2968 11.5267 92.9191 11.8467 92.4797 12.06C91.9921 12.3067 91.4565 12.4267 90.9072 12.4134ZM91.1475 11.1267C91.8205 11.1467 92.4659 10.8734 92.8985 10.3734C93.3792 9.83337 93.6264 9.1267 93.5852 8.41337C93.6195 7.7067 93.3723 7.0067 92.8985 6.4667C92.4659 5.9667 91.8205 5.6867 91.1475 5.70004C90.4746 5.6867 89.836 5.97337 89.3965 6.4667C88.9227 7.0067 88.6755 7.7067 88.7099 8.41337C88.6687 9.1267 88.9159 9.82004 89.3965 10.36C89.836 10.8534 90.4746 11.14 91.1475 11.1267Z" fill="#5F6368"/>
<path d="M6.51644 12.4132C2.95952 12.4265 0.0549331 9.65985 0 6.20652C0.0549331 2.75318 2.95952 -0.0134839 6.51644 -0.00015053C8.16444 -0.0268172 9.75063 0.593183 10.918 1.71318L9.6751 2.90652C8.8305 2.11318 7.69064 1.67985 6.51644 1.69318C3.98265 1.68652 1.91579 3.67985 1.90893 6.13985C1.90893 6.15985 1.90893 6.18652 1.90893 6.20652C1.88146 8.66652 3.90712 10.6932 6.44778 10.7199C6.46838 10.7199 6.49584 10.7199 6.51644 10.7199C7.73184 10.7665 8.90604 10.3132 9.7575 9.47318C10.3206 8.88652 10.657 8.13318 10.712 7.33318H6.51644V5.64652H12.4218C12.4836 5.99318 12.5179 6.35318 12.511 6.70652C12.5591 8.16652 12.0098 9.59318 10.9866 10.6665C9.8193 11.8399 8.1919 12.4799 6.51644 12.4132Z" fill="#4285F4"/>
<path d="M21.6441 8.41334C21.7334 10.6 19.9893 12.44 17.737 12.5333C15.4848 12.62 13.5896 10.9267 13.4934 8.74001C13.4866 8.63334 13.4866 8.52668 13.4934 8.41334C13.4042 6.22668 15.1483 4.38668 17.4006 4.29334C19.6528 4.20668 21.548 5.90001 21.6441 8.08668C21.651 8.20001 21.651 8.30668 21.6441 8.41334ZM19.8588 8.41334C19.9755 7.18668 19.0485 6.09335 17.7851 5.98001C16.5216 5.86668 15.3955 6.76668 15.2788 7.99334C15.265 8.13334 15.265 8.27334 15.2788 8.41334C15.162 9.64001 16.089 10.7333 17.3525 10.8467C18.6159 10.96 19.7421 10.06 19.8588 8.83334C19.8725 8.69335 19.8725 8.55334 19.8588 8.41334Z" fill="#EA4335"/>
<path d="M30.7828 8.41334C30.8721 10.6 29.1279 12.44 26.8757 12.5333C24.6234 12.62 22.7282 10.9267 22.6321 8.74001C22.6252 8.63334 22.6252 8.52668 22.6321 8.41334C22.5428 6.22668 24.287 4.38668 26.5392 4.29334C28.7915 4.20668 30.6867 5.90001 30.7828 8.08668C30.7897 8.20001 30.7897 8.30668 30.7828 8.41334ZM28.9975 8.41334C29.0936 7.18668 28.146 6.10668 26.8826 6.01335C25.6191 5.92001 24.5067 6.84001 24.4106 8.06668C24.4037 8.18001 24.4037 8.30001 24.4106 8.41334C24.3144 9.64001 25.262 10.72 26.5255 10.8133C27.789 10.9067 28.9013 9.98668 28.9975 8.76001C29.0043 8.64668 29.0043 8.52668 28.9975 8.41334Z" fill="#FBBC04"/>
<path d="M39.6896 4.66668V11.84C39.6896 14.7867 37.8836 16 35.755 16C34.155 16.0067 32.7062 15.0733 32.0882 13.64L33.6744 12.9733C34.004 13.8067 34.8142 14.3734 35.7344 14.4C37.1077 14.4 37.9454 13.58 37.9454 12.0533V11.48H37.9042C37.348 12.0867 36.5446 12.4333 35.7069 12.4134C33.434 12.4134 31.5869 10.62 31.5869 8.41335C31.5869 6.20668 33.434 4.41335 35.7069 4.41335C36.5446 4.40002 37.3412 4.73335 37.9042 5.33335H37.966V4.66668H39.6896ZM38.0896 8.44002C38.1926 7.19335 37.2382 6.10668 35.9541 6.00668C35.9335 6.00668 35.906 6.00002 35.8786 6.00002C34.5602 6.04668 33.5302 7.12002 33.5782 8.40002C33.5782 8.41335 33.5782 8.42668 33.5782 8.44002C33.5164 9.70668 34.5258 10.7867 35.8305 10.8467C35.8442 10.8467 35.858 10.8467 35.8786 10.8467C37.1489 10.8 38.1377 9.76668 38.0965 8.53335C38.0965 8.50002 38.0965 8.46668 38.0896 8.43335V8.44002Z" fill="#4285F4"/>
<path d="M42.8685 0.426636V12.1733H41.0557V0.426636H42.8685Z" fill="#34A853"/>
<path d="M50.0099 9.73336L51.4244 10.6667C50.6554 11.78 49.3713 12.4467 47.9911 12.44C45.7869 12.4734 43.9741 10.76 43.9467 8.62003C43.9467 8.56003 43.9467 8.50003 43.9467 8.44003C43.7681 6.41336 45.3131 4.63336 47.3937 4.45336C49.1516 4.30669 50.779 5.35336 51.3283 6.98669L51.5137 7.44669L46.0204 9.65336C46.3706 10.42 47.1671 10.9 48.0254 10.8667C48.8426 10.8467 49.5979 10.42 50.0099 9.73336ZM45.677 8.29336L49.3713 6.81336C49.0692 6.27336 48.4649 5.95336 47.8332 6.00003C46.5835 6.05336 45.6221 7.08003 45.677 8.29336Z" fill="#EA4335"/>
</g>
<defs>
<clipPath id="clip0_14_3828">
<rect width="95" height="16" fill="white"/>
</clipPath>
</defs>
</svg>
