<svg width="95" height="34" viewBox="0 0 95 34" fill="none" xmlns="http://www.w3.org/2000/svg">
<g clip-path="url(#clip0_14_3785)">
<path fill-rule="evenodd" clip-rule="evenodd" d="M4.18388 30.401H1.68482V28.1614H0.582031V33.6971H1.68482V31.4485H4.18388V33.6971H5.28667V28.1614H4.18388V30.401Z" fill="black"/>
<path fill-rule="evenodd" clip-rule="evenodd" d="M10.4102 31.3311C10.4102 32.2342 9.97446 32.7037 9.17405 32.7037C8.36474 32.7037 7.92896 32.2071 7.92896 31.2859V28.1614H6.82617V31.3311C6.82617 32.8844 7.67994 33.7784 9.16515 33.7784C10.6681 33.7784 11.5219 32.8753 11.5219 31.2859V28.1704H10.4102V31.3311Z" fill="black"/>
<path fill-rule="evenodd" clip-rule="evenodd" d="M23.1799 31.9723L21.9437 28.1614H21.0454L19.8092 31.9723L18.6086 28.1614H17.4258L19.3201 33.6971H20.2361L21.4723 30.0668L22.7174 33.6971H23.6423L25.5366 28.1614H24.3894L23.1799 31.9723Z" fill="black"/>
<path fill-rule="evenodd" clip-rule="evenodd" d="M27.5197 31.313H29.5296V30.3106H27.5197V29.1728H30.4367V28.1614H26.4258V33.6971H30.5435V32.6767H27.5197V31.313Z" fill="black"/>
<path d="M32.9552 28.1614H31.8613V33.679H32.9552V28.1614Z" fill="black"/>
<path d="M15.4438 28.1614H14.4833L12.082 33.6881H13.2026L13.6651 32.6225L13.7006 32.5412H16.1997L16.6888 33.6881H17.845L15.4704 28.1885L15.4438 28.1614ZM15.7728 31.5388H14.1008L14.1542 31.4124L14.9368 29.5611L15.7284 31.4124L15.7728 31.5388Z" fill="black"/>
<path fill-rule="evenodd" clip-rule="evenodd" d="M4.50448 13.3151C6.97686 15.7533 12.9622 18.8327 14.3495 19.5281C14.3673 19.5371 14.4385 19.5642 14.4829 19.501C14.4829 19.501 14.5363 19.4558 14.5096 19.3836C10.6943 10.9671 5.49165 4.59155 5.49165 4.59155C5.49165 4.59155 2.65464 7.30975 2.85919 10.037C2.96591 12.0959 4.50448 13.3151 4.50448 13.3151Z" fill="url(#paint0_radial_14_3785)"/>
<path fill-rule="evenodd" clip-rule="evenodd" d="M13.5492 21.5871C13.5225 21.4968 13.4247 21.4968 13.4247 21.4968L3.45508 21.849C4.54008 23.7996 6.35435 25.3167 8.25755 24.8472C9.56489 24.513 12.5353 22.427 13.5047 21.7226C13.5847 21.6503 13.5492 21.5871 13.5492 21.5871Z" fill="url(#paint1_radial_14_3785)"/>
<path fill-rule="evenodd" clip-rule="evenodd" d="M4.21968 20.3318C5.18017 20.7292 6.12288 20.7563 6.12288 20.7563C6.27407 20.7833 12.0459 20.7562 13.5934 20.7472C13.6556 20.7472 13.7001 20.684 13.7001 20.684C13.7446 20.6027 13.6645 20.5305 13.6645 20.5305C9.29785 17.5414 0.81348 12.9629 0.81348 12.9629C0.039749 15.374 1.08028 17.3156 1.08028 17.3156C2.15639 19.6274 4.21968 20.3318 4.21968 20.3318Z" fill="url(#paint2_radial_14_3785)"/>
<path fill-rule="evenodd" clip-rule="evenodd" d="M30.0021 21.849L20.0236 21.4968C20.0236 21.4968 19.9347 21.5059 19.908 21.5781C19.908 21.5781 19.8813 21.6684 19.9436 21.7136C20.9041 22.3999 23.7856 24.4498 25.1819 24.8472C25.1907 24.8562 27.7699 25.7322 30.0021 21.849Z" fill="url(#paint3_radial_14_3785)"/>
<path fill-rule="evenodd" clip-rule="evenodd" d="M18.9737 19.3386C18.9737 19.3386 18.9292 19.4379 19.0004 19.5011C19.0004 19.5011 19.0715 19.5463 19.1338 19.5101C20.5567 18.7877 26.4976 15.7354 28.961 13.3152C28.961 13.3152 30.5174 12.0509 30.6063 10.019C30.7842 7.19247 27.9739 4.58264 27.9739 4.58264C27.9739 4.58264 22.7801 10.9401 18.9737 19.3386Z" fill="url(#paint4_radial_14_3785)"/>
<path fill-rule="evenodd" clip-rule="evenodd" d="M17.5861 18.589C17.595 18.6793 17.6662 18.7064 17.6662 18.7064C17.764 18.7425 17.8085 18.6522 17.8085 18.6522C18.769 17.2525 23.0734 10.7956 23.945 6.86734C23.945 6.86734 24.4252 4.96189 23.9627 3.67052C23.9627 3.67052 23.3046 1.20518 20.6722 0.564016C20.6722 0.564016 19.9162 0.365344 19.098 0.256978C19.098 0.229886 16.1543 4.0769 17.5861 18.589Z" fill="url(#paint5_radial_14_3785)"/>
<path fill-rule="evenodd" clip-rule="evenodd" d="M15.6571 18.6612C15.7194 18.7244 15.7728 18.6973 15.7728 18.6973C15.8795 18.6612 15.8706 18.5709 15.8706 18.5709C17.3024 4.06784 14.3676 0.229858 14.3676 0.229858C13.9407 0.265981 12.7668 0.536897 12.7668 0.536897C10.1254 1.22322 9.50287 3.6434 9.50287 3.6434C9.02263 5.16957 9.52066 6.84925 9.52066 6.84925C10.3922 10.7956 14.7233 17.2886 15.6571 18.6612Z" fill="url(#paint6_radial_14_3785)"/>
<path fill-rule="evenodd" clip-rule="evenodd" d="M32.6516 12.9448C32.6516 12.9448 24.185 17.5414 19.8094 20.5305C19.8094 20.5305 19.7294 20.5756 19.765 20.675C19.765 20.675 19.8005 20.7472 19.8717 20.7472C21.4458 20.7472 27.3778 20.7562 27.529 20.7292C27.529 20.7292 28.2938 20.693 29.2454 20.3318C29.2454 20.3318 31.3621 19.6545 32.4471 17.2343C32.4293 17.2253 33.4164 15.2476 32.6516 12.9448Z" fill="url(#paint7_radial_14_3785)"/>
<path fill-rule="evenodd" clip-rule="evenodd" d="M69.4226 8.85571C69.3336 10.7521 69.2447 12.1338 69.1558 13.0098H76.1371C76.0927 13.7954 76.0304 15.1771 75.9415 17.1638C75.8525 19.3763 75.7814 20.9025 75.7458 21.7333C75.7014 23.9458 74.6164 25.0565 72.4908 25.0565C71.4681 25.1017 70.3831 25.1288 69.2358 25.1288C69.1024 24.3882 68.9512 23.7471 68.7733 23.1872C69.8406 23.2775 70.8366 23.3226 71.7616 23.3226C73.1756 23.413 73.8871 22.6995 73.8871 21.1734C73.8871 20.758 73.9049 20.0626 73.9493 19.0963C74.0383 17.1096 74.1005 15.6828 74.145 14.8068H69.0224C68.6666 19.3763 66.4699 22.9524 62.4412 25.5351C62.3523 25.4448 62.2455 25.3003 62.1121 25.1197C61.6675 24.5689 61.3117 24.1535 61.0449 23.8735C64.8069 21.5707 66.8079 18.5455 67.0302 14.8068H61.4451V13.0098H67.2259C67.3593 11.6732 67.4215 10.2916 67.4215 8.85571H69.4226ZM70.1518 16.7394C71.1301 17.6605 72.0106 18.5365 72.811 19.3673L71.4147 20.7489C70.97 20.1981 70.3297 19.4576 69.4848 18.5365C69.218 18.2114 69.0224 17.9856 68.889 17.8411L70.1518 16.7394ZM63.7663 9.06342C64.0331 9.29821 64.4333 9.68652 64.9669 10.2374C65.5006 10.7431 65.9008 11.1404 66.1676 11.4114L64.709 12.7298C64.042 11.8539 63.2861 10.996 62.4501 10.1651L63.7663 9.06342Z" fill="black"/>
<path fill-rule="evenodd" clip-rule="evenodd" d="M80.0872 10.1381H93.4274V12.0435H80.0872V10.1381ZM78.6465 17.2632V15.3577H94.9927V17.2632H86.784C85.6456 18.9157 84.2316 20.749 82.5418 22.7718C84.0448 22.7718 86.6684 22.6815 90.4036 22.4918C89.6744 21.4082 88.9184 20.4239 88.1447 19.5298L89.7189 18.5455C90.4036 19.3492 91.4531 20.6677 92.8671 22.5009C93.5964 23.4401 94.1211 24.0812 94.4413 24.4063L92.7337 25.5351L91.711 24.1264C90.1635 24.1715 87.7 24.2889 84.3205 24.4786C83.5913 24.5237 83.0399 24.5508 82.6752 24.5508C81.8126 24.596 81.0566 24.6953 80.4163 24.8308L79.5269 22.9253C80.1228 22.6002 80.7098 22.0764 81.3056 21.3721C82.3995 20.0536 83.3778 18.69 84.2494 17.2722H78.6465V17.2632Z" fill="black"/>
<path fill-rule="evenodd" clip-rule="evenodd" d="M49.236 16.1524C49.0582 15.5925 48.8269 15.0416 48.5512 14.4817C49.823 14.0663 50.9614 13.669 51.9574 13.2987V9.12663H53.7984V12.4589C55.2036 11.8087 56.6354 10.9508 58.085 9.8852L59.1789 11.2037C57.5425 12.3596 55.7461 13.4071 53.7984 14.3282V15.159C53.7539 15.9898 54.163 16.3872 55.0257 16.342H56.4575C57.1868 16.3872 57.6404 16.0621 57.8182 15.3667C57.9072 14.9513 57.9783 14.3463 58.0228 13.5606C58.6542 13.7954 59.2501 13.976 59.7926 14.1205C59.6592 14.9513 59.5169 15.6738 59.3835 16.2788C59.1523 17.4347 58.3163 17.9946 56.8666 17.9495H54.3498C52.7134 18.0398 51.9219 17.2541 51.9663 15.5835V15.0958C51.1392 15.4299 50.2321 15.7821 49.236 16.1524ZM43.5798 21.7062V19.9723H50.7301V18.1662H52.5711V19.9723H59.7926V21.7062H52.5711V25.5261H50.7301V21.7062H43.5798ZM44.1223 15.6647C43.9889 15.0597 43.7577 14.4095 43.4375 13.7232C45.2518 12.5221 46.7992 10.8966 48.071 8.85571L49.8408 9.55107C49.2538 10.4361 48.6402 11.2669 47.9998 12.0525V18.3739H46.1589V13.9218C45.5808 14.5269 44.896 15.1049 44.1223 15.6647Z" fill="black"/>
</g>
<defs>
<radialGradient id="paint0_radial_14_3785" cx="0" cy="0" r="1" gradientUnits="userSpaceOnUse" gradientTransform="translate(20.9477 3.26628) scale(23.3613 23.7214)">
<stop stop-color="#F7BFA4"/>
<stop offset="0.0113" stop-color="#F7BB9F"/>
<stop offset="0.427" stop-color="#E60012"/>
<stop offset="0.6628" stop-color="#E50012"/>
<stop offset="0.7574" stop-color="#E10011"/>
<stop offset="0.8268" stop-color="#DA0010"/>
<stop offset="0.8838" stop-color="#CF000E"/>
<stop offset="0.9331" stop-color="#C00009"/>
<stop offset="0.9765" stop-color="#AE0003"/>
<stop offset="1" stop-color="#A00000"/>
</radialGradient>
<radialGradient id="paint1_radial_14_3785" cx="0" cy="0" r="1" gradientUnits="userSpaceOnUse" gradientTransform="translate(20.9631 3.24534) scale(23.4118 23.7726)">
<stop stop-color="#F7BFA4"/>
<stop offset="0.0113" stop-color="#F7BB9F"/>
<stop offset="0.427" stop-color="#E60012"/>
<stop offset="0.6628" stop-color="#E50012"/>
<stop offset="0.7574" stop-color="#E10011"/>
<stop offset="0.8268" stop-color="#DA0010"/>
<stop offset="0.8838" stop-color="#CF000E"/>
<stop offset="0.9331" stop-color="#C00009"/>
<stop offset="0.9765" stop-color="#AE0003"/>
<stop offset="1" stop-color="#A00000"/>
</radialGradient>
<radialGradient id="paint2_radial_14_3785" cx="0" cy="0" r="1" gradientUnits="userSpaceOnUse" gradientTransform="translate(20.962 3.24275) scale(23.4063 23.7671)">
<stop stop-color="#F7BFA4"/>
<stop offset="0.0113" stop-color="#F7BB9F"/>
<stop offset="0.427" stop-color="#E60012"/>
<stop offset="0.6628" stop-color="#E50012"/>
<stop offset="0.7574" stop-color="#E10011"/>
<stop offset="0.8268" stop-color="#DA0010"/>
<stop offset="0.8838" stop-color="#CF000E"/>
<stop offset="0.9331" stop-color="#C00009"/>
<stop offset="0.9765" stop-color="#AE0003"/>
<stop offset="1" stop-color="#A00000"/>
</radialGradient>
<radialGradient id="paint3_radial_14_3785" cx="0" cy="0" r="1" gradientUnits="userSpaceOnUse" gradientTransform="translate(20.9725 3.23379) scale(23.4361 23.7967)">
<stop stop-color="#F7BFA4"/>
<stop offset="0.0113" stop-color="#F7BB9F"/>
<stop offset="0.427" stop-color="#E60012"/>
<stop offset="0.6628" stop-color="#E50012"/>
<stop offset="0.7574" stop-color="#E10011"/>
<stop offset="0.8268" stop-color="#DA0010"/>
<stop offset="0.8838" stop-color="#CF000E"/>
<stop offset="0.9331" stop-color="#C00009"/>
<stop offset="0.9765" stop-color="#AE0003"/>
<stop offset="1" stop-color="#A00000"/>
</radialGradient>
<radialGradient id="paint4_radial_14_3785" cx="0" cy="0" r="1" gradientUnits="userSpaceOnUse" gradientTransform="translate(20.9673 3.24289) scale(23.3957 23.7563)">
<stop stop-color="#F7BFA4"/>
<stop offset="0.0113" stop-color="#F7BB9F"/>
<stop offset="0.427" stop-color="#E60012"/>
<stop offset="0.6628" stop-color="#E50012"/>
<stop offset="0.7574" stop-color="#E10011"/>
<stop offset="0.8268" stop-color="#DA0010"/>
<stop offset="0.8838" stop-color="#CF000E"/>
<stop offset="0.9331" stop-color="#C00009"/>
<stop offset="0.9765" stop-color="#AE0003"/>
<stop offset="1" stop-color="#A00000"/>
</radialGradient>
<radialGradient id="paint5_radial_14_3785" cx="0" cy="0" r="1" gradientUnits="userSpaceOnUse" gradientTransform="translate(20.9704 3.23682) scale(23.4097 23.7705)">
<stop stop-color="#F7BFA4"/>
<stop offset="0.0113" stop-color="#F7BB9F"/>
<stop offset="0.427" stop-color="#E60012"/>
<stop offset="0.6628" stop-color="#E50012"/>
<stop offset="0.7574" stop-color="#E10011"/>
<stop offset="0.8268" stop-color="#DA0010"/>
<stop offset="0.8838" stop-color="#CF000E"/>
<stop offset="0.9331" stop-color="#C00009"/>
<stop offset="0.9765" stop-color="#AE0003"/>
<stop offset="1" stop-color="#A00000"/>
</radialGradient>
<radialGradient id="paint6_radial_14_3785" cx="0" cy="0" r="1" gradientUnits="userSpaceOnUse" gradientTransform="translate(20.9514 3.28834) scale(23.4073 23.7681)">
<stop stop-color="#F7BFA4"/>
<stop offset="0.0113" stop-color="#F7BB9F"/>
<stop offset="0.427" stop-color="#E60012"/>
<stop offset="0.6628" stop-color="#E50012"/>
<stop offset="0.7574" stop-color="#E10011"/>
<stop offset="0.8268" stop-color="#DA0010"/>
<stop offset="0.8838" stop-color="#CF000E"/>
<stop offset="0.9331" stop-color="#C00009"/>
<stop offset="0.9765" stop-color="#AE0003"/>
<stop offset="1" stop-color="#A00000"/>
</radialGradient>
<radialGradient id="paint7_radial_14_3785" cx="0" cy="0" r="1" gradientUnits="userSpaceOnUse" gradientTransform="translate(20.9601 3.24548) scale(23.4092 23.7701)">
<stop stop-color="#F7BFA4"/>
<stop offset="0.0113" stop-color="#F7BB9F"/>
<stop offset="0.427" stop-color="#E60012"/>
<stop offset="0.6628" stop-color="#E50012"/>
<stop offset="0.7574" stop-color="#E10011"/>
<stop offset="0.8268" stop-color="#DA0010"/>
<stop offset="0.8838" stop-color="#CF000E"/>
<stop offset="0.9331" stop-color="#C00009"/>
<stop offset="0.9765" stop-color="#AE0003"/>
<stop offset="1" stop-color="#A00000"/>
</radialGradient>
<clipPath id="clip0_14_3785">
<rect width="95" height="34" fill="white"/>
</clipPath>
</defs>
</svg>
