<svg width="59" height="46" viewBox="0 0 59 46" fill="none" xmlns="http://www.w3.org/2000/svg">
<path d="M1.45702 32.932L2.26608 31.7105L3.66861 32.0942L2.75351 30.9793L3.53914 29.7736L2.18054 30.305L1.23674 29.1931L1.317 30.6372L0 31.1352L1.37441 31.4955L1.45702 32.932ZM1.26544 27.5515L2.28951 26.4964L3.59889 27.1391L2.91169 25.8765L3.90998 24.8396L2.47874 25.1038L1.76576 23.8284L1.57653 25.2626L0.176342 25.5034L1.45702 26.1203L1.26544 27.5515ZM2.11083 22.2232L3.31417 21.3936L4.48119 22.2648L4.04063 20.8903L5.23049 20.0684L3.76821 20.0502L3.31476 18.6659L2.84783 20.0455L1.42948 20.0116L2.57014 20.854L2.11083 22.2232ZM8.14687 12.2537L8.89911 13.501L9.0028 12.075L10.4106 11.7405L9.07018 11.1833L9.16625 9.73395L8.22538 10.833L6.91834 10.2677L7.6571 11.481L6.71856 12.5724L8.14687 12.2537ZM25.5239 3.7231L26.6024 2.76874L27.8391 3.51277L27.2556 2.17L28.3342 1.19514L26.8953 1.32754L26.3511 0.0205049L26.0324 1.40253L24.6011 1.54489L25.8508 2.29654L25.5239 3.7231ZM4.89773 43.0907L5.18831 41.6541L6.63244 41.4801L5.36993 40.7906L5.64235 39.3828L4.58196 40.3782L3.29308 39.7038L3.91526 41.0109L2.87537 41.9728L4.28083 41.7912L4.89773 43.0907ZM11.7587 8.54349L12.2619 9.91263L12.6404 8.52299L14.0821 8.47378L12.8688 7.66999L13.245 6.25691L12.1119 7.15151L10.9349 6.36061L11.4224 7.69342L10.2999 8.58275L11.7587 8.54349ZM16.0213 5.57205L16.2469 7.0109L16.8925 5.71968L18.3161 5.94758L17.2739 4.92351L17.9119 3.6112L16.6183 4.27497L15.6218 3.27492L15.8549 4.66983L14.5766 5.33888L16.0213 5.57205ZM20.7169 4.92351L21.5881 3.77758L22.949 4.27028L22.1218 3.06694L22.9959 1.90519L21.6033 2.30182L20.8177 1.13245L20.7761 2.5508L19.3917 2.95328L20.7661 3.46415L20.7169 4.92351ZM2.33111 36.7951L2.68379 38.19L3.24387 36.8291L4.70381 36.9357L3.58893 36.02L4.12851 34.6872L2.89939 35.4652L1.76107 34.5524L2.11903 35.9579L0.913345 36.6996L2.33111 36.7951ZM3.95919 17.1801L5.29963 16.5861L6.27214 17.6723L6.10635 16.241L7.421 15.6575L5.99738 15.3669L5.81576 13.9175L5.09223 15.1753L3.71021 14.8748L4.66456 15.9276L3.95919 17.1801ZM45.7194 8.36188L46.0926 9.75152L46.6134 8.39293L48.0651 8.4316L46.9374 7.52645L47.4506 6.20653L46.2607 6.98688L45.1406 6.08467L45.5085 7.50009L44.2823 8.29626L45.7194 8.36188ZM47.9937 11.5354L49.3968 11.8647L49.4929 13.3035L50.2551 12.0615L51.6787 12.3855L50.7425 11.2812L51.4965 10.0837L50.1842 10.6203L49.248 9.52597L49.3441 10.9859L47.9937 11.5354ZM41.452 5.59783L42.0824 6.8867L42.3261 5.45781L43.765 5.22698L42.4861 4.55032L42.7327 3.15775L41.7192 4.15311L40.4408 3.48407L41.0712 4.80399L40.0313 5.81811L41.452 5.59783ZM52.3366 16.016L52.1626 17.4397L53.1533 16.3687L54.4832 16.9575L53.7702 15.695L54.7427 14.6657L53.3501 14.948L52.6395 13.6826L52.4579 15.1343L51.0319 15.412L52.3366 16.016ZM35.3691 4.18475L36.733 3.70025L37.5965 4.85906L37.5579 3.39443L38.9323 2.89939L37.545 2.47933L37.5192 1.06098L36.7131 2.23034L35.3363 1.81263L36.2098 2.99254L35.3691 4.18475ZM57.2683 30.3724L57.3691 28.9306L56.4124 30.0531L55.0614 29.5006L55.8365 30.7087L54.9108 31.8183L56.3216 31.455L57.1177 32.6765L57.2109 31.2324L58.5853 30.8926L57.2683 30.3724ZM56.3011 36.5332L57.7194 36.4658L56.5295 35.696L56.8898 34.3064L55.7439 35.2215L54.5224 34.423L55.0567 35.7687L53.9289 36.6709L55.3889 36.5853L55.9384 37.9334L56.3011 36.5332ZM53.4954 41.4157L53.7702 42.8522L54.4029 41.5481L55.8054 41.7502L54.7761 40.7724L55.4065 39.4759L54.1047 40.1526L53.0496 39.1362L53.3167 40.544L52.0513 41.223L53.4954 41.4157ZM17.8597 32.3508C17.7484 32.26 16.3793 33.6526 15.4847 34.6245C15.1683 34.9619 14.9633 35.2807 14.8414 35.4312C14.8414 35.4312 14.4471 36.0821 14.2374 36.3569C14.0247 36.6316 13.4986 37.4067 13.2649 37.7442C13.1846 37.8555 12.9772 38.3458 12.5701 38.8538C12.3679 39.108 12.1629 39.4396 11.7663 39.9481C11.2372 40.6271 10.8377 41.1849 10.9291 41.2599C10.9806 41.2962 11.7587 40.3547 12.5935 39.3435C12.9409 38.9211 13.317 38.4882 13.6357 38.0758C13.791 37.876 14.1489 37.542 14.2661 37.3704C14.4706 37.0669 14.6938 36.8361 14.7822 36.7634C15.2462 36.385 15.5081 36.3563 15.6587 36.1413C15.729 36.0352 16.6488 34.6503 16.9833 34.0879C17.2891 33.5565 18.0437 32.5166 17.8597 32.3508ZM56.7861 23.5765L56.0655 24.8495L54.6366 24.5695L55.6297 25.6193L54.9378 26.8719L56.2501 26.2497L57.2613 27.2943L57.0826 25.8525L58.3685 25.2614L56.9683 25.0019L56.7861 23.5765ZM53.2728 19.8094L54.4474 20.6419L54.0016 22.0164L55.1686 21.1475L56.3743 21.9853L55.9126 20.6056L57.0615 19.7761L55.6484 19.7889L55.1891 18.4198L54.7304 19.8071L53.2728 19.8094ZM30.4685 3.47938L31.7128 2.74531L32.7808 3.702L32.4674 2.28131L33.7094 1.53728L32.2705 1.38671L31.98 0L31.4099 1.29884L29.9787 1.16116L31.0625 2.14129L30.4685 3.47938ZM30.6553 28.7572C30.7901 29.1538 31.2904 31.4925 31.4357 31.9776C31.5863 32.4598 31.7362 32.4861 31.8194 32.6754C32.1094 33.4042 32.5271 33.4323 32.7421 33.492C33.3438 33.676 33.393 34.4827 33.7768 35.2033C34.1347 35.8776 34.4716 36.484 34.7879 37.2204C35.1043 37.9568 36.7224 41.9447 36.9995 42.5511C37.0927 42.7714 37.8631 42.7714 37.7799 42.5511C37.5854 42.1129 37.1419 41.0109 36.8671 39.9118C36.6937 39.1988 37.3598 39.7044 36.9345 38.5608C36.7377 38.0371 36.3645 37.5157 36.1542 37.303C35.9391 37.0933 35.7312 36.1881 35.5677 35.7833C35.3943 35.389 35.4822 35.3685 35.1242 34.4171C34.8571 33.7223 35.6064 33.9555 35.1863 32.8845C34.9139 32.1873 33.5295 29.667 33.3684 29.4075C33.2905 29.2645 33.0234 28.8292 32.6941 28.3131C32.383 27.8233 32.1264 27.2996 31.9782 27.0711C31.6905 26.6094 31.1615 25.5983 30.8633 25.1782C30.568 24.7558 30.1995 23.8272 30.0466 23.9831C29.8961 24.1207 30.4925 25.5127 30.7362 26.3997C30.9928 27.2838 30.8065 27.6441 30.6536 27.896C30.5124 28.1455 30.5124 28.3113 30.6553 28.7572ZM40.0489 35.9755C40.4561 36.6521 40.565 36.5174 40.7338 36.5256C41.1175 36.5361 41.9758 37.4589 42.1468 37.7108C42.3103 37.965 43.6923 39.3418 44.0474 39.6786C44.2032 39.8263 45.297 41.5944 45.437 41.4678C45.5846 41.3407 45.0169 40.4824 44.9314 40.2903C44.8535 40.1034 44.5371 39.8263 44.3842 39.4244C44.2419 39.0301 43.591 38.0371 43.3783 37.7237C43.168 37.4073 42.8259 36.7072 42.4527 36.2637C42.1076 35.8747 42.3829 35.7687 42.0273 35.4265C41.8123 35.2244 41.1433 34.6304 40.9927 34.5062C40.8504 34.3767 40.3032 33.8916 39.9892 33.6198C39.6781 33.3549 38.9311 32.8365 38.9575 32.5049C38.9674 32.1651 38.8046 31.5195 38.5526 31.3045C38.371 31.1486 37.8367 30.288 37.2251 29.79C36.9164 29.5305 36.2579 28.8462 35.7499 28.2528C35.2754 27.6874 34.9174 27.1713 34.8085 27.2439C34.6479 27.3476 35.3609 28.3436 35.4336 28.4625C35.5085 28.5767 36.3334 30.0027 36.4108 30.3759C36.4963 30.7543 38.0342 33.3421 38.3634 34.1459C38.5532 34.6145 39.6054 35.242 40.0489 35.9755ZM46.7645 38.4776C46.8161 38.4156 46.6685 38.2234 46.5882 38.0781C46.4997 37.9328 45.976 37.3522 45.8776 37.1888C45.792 37.0359 45.113 36.0686 44.874 35.7523C44.4487 35.2074 44.8377 35.0082 44.615 34.6708C44.5242 34.5231 43.98 33.867 43.3473 33.219C43.0204 32.8951 42.6577 32.581 42.349 32.3033C41.8486 31.8575 41.4702 31.5253 41.4081 31.5798C41.3196 31.6677 41.6155 32.0233 41.7426 32.1862C41.8697 32.3414 42.0695 32.6297 42.3337 32.9431C42.7614 33.454 42.3648 33.84 42.7743 34.2472C42.8417 34.3146 43.9724 35.58 44.2501 35.8132C44.6619 36.1811 46.1347 37.9287 46.2384 38.0248C46.4119 38.19 46.7153 38.5403 46.7645 38.4776ZM23.4546 30.1831C23.5378 30.0068 23.7944 29.4625 23.7815 29.2446C23.7815 29.2059 23.6854 29.138 23.6052 29.2182C23.2267 29.592 22.4563 30.9242 22.1634 31.0748C21.5049 31.3935 21.2173 32.1663 21.0198 32.4721C20.8798 32.6976 20.6982 33.0632 20.3848 33.5225C20.11 33.9191 19.796 34.5126 19.6794 34.7176C19.5651 34.9327 19.5236 35.1301 19.7362 35.1301C19.9489 35.1301 19.7831 35.4775 19.5236 35.8589C19.3759 36.0821 19.0103 37.1501 18.9037 37.4407C18.7637 37.7986 18.7842 38.255 18.735 38.4079C18.6858 38.5509 17.9886 40.0366 17.807 40.3659C17.6928 40.5732 17.7267 40.6564 17.6822 40.7707C17.6172 40.913 17.698 40.9546 17.807 40.8509C17.9394 40.7185 18.6858 39.5855 18.9143 39.4508C19.1375 39.3107 19.3419 39.1033 19.3759 38.6159C19.4099 38.1285 19.7263 37.9961 19.9618 37.7108C20.2078 37.4278 20.5324 37.0493 20.7058 36.6527C20.8693 36.2432 21.079 36.5543 21.458 35.945C21.8365 35.3304 22.6872 33.816 22.8817 33.5231C23.0685 33.2302 22.9309 32.8072 22.9074 32.4574C22.8969 32.2735 22.9233 31.8194 23.0322 31.3373C23.1412 30.9067 23.341 30.4685 23.4546 30.1831ZM26.7114 18.6143C27.0248 18.6143 27.4841 18.0413 27.7331 17.5434C27.9897 17.0038 28.1198 16.7009 28.4408 16.0108C28.4537 15.9745 28.4227 15.9745 28.3887 15.9745C28.0231 15.9745 27.6212 16.3476 27.3646 16.6488C27.0611 17.022 26.5632 17.725 26.4882 18.2306C26.4343 18.5024 26.5532 18.6143 26.7114 18.6143ZM34.8114 19.0988C35.1693 19.2804 35.6128 18.4919 35.9989 17.7742C36.3826 17.0507 36.6885 16.1537 36.3645 16.0418C35.9989 15.8942 35.5349 16.5996 35.1482 17.3202C34.7674 18.0408 34.4774 18.9383 34.8114 19.0988ZM20.9735 18.6143C21.2952 18.6143 21.7433 18.0413 22.0029 17.5434C22.2571 17.0038 22.3919 16.7009 22.703 16.0108C22.7188 15.9745 22.6872 15.9745 22.659 15.9745C22.2911 15.9745 21.8892 16.3476 21.635 16.6488C21.3315 17.022 20.8288 17.725 20.7533 18.2306C20.6988 18.5024 20.8282 18.6143 20.9735 18.6143ZM17.4578 12.0984C19.9471 12.215 21.4118 13.4365 21.4118 14.7459C21.4094 17.0876 17.6963 17.4865 17.6963 17.4865C17.0507 20.7304 14.4788 21.9671 12.6972 21.949C10.3063 21.9308 10.3426 19.994 10.4235 19.745C10.5248 19.4573 10.6725 19.1955 10.973 19.1955C11.2712 19.1955 11.5202 19.4392 11.5202 19.745C11.5202 19.929 11.4294 20.103 11.2712 20.1938C10.9578 20.3883 11.017 20.632 11.017 20.632C11.017 21.6613 12.3469 21.7416 12.6972 21.7416C16.2574 21.7416 15.8473 15.8766 18.9875 13.883C19.1299 13.7869 19.2418 13.883 19.1533 13.9814C18.1732 15.2105 17.8052 17.1913 17.8052 17.1913C19.3197 17.1913 20.3203 15.7495 20.3203 14.7459C20.3203 13.027 18.7725 12.314 17.4578 12.314C13.7916 12.314 12.1992 14.876 12.1992 16.2709C12.1992 17.6687 13.0809 18.1737 13.7189 18.1737C14.6082 18.1737 14.8859 17.5803 14.777 17.2897C14.6006 16.8333 14.8443 16.4519 15.1191 16.4519C15.2281 16.4519 15.5936 16.4338 15.5936 17.077C15.5936 17.6969 14.7149 18.3214 13.7424 18.3214C12.7827 18.3214 11.3802 17.8029 11.3802 16.2703C11.3802 13.1641 15.2017 11.9842 17.4578 12.0984ZM23.631 15.8942C23.2343 16.7911 22.9414 17.4344 22.5758 18.2821C22.5448 18.3624 22.5161 18.5024 22.5917 18.5545C22.659 18.5856 22.737 18.5856 22.7809 18.5545C23.2502 18.329 23.6626 17.7818 23.9866 17.1596L24.5648 15.8842H25.3792L25.1559 16.3664C25.1378 16.3922 25.1378 16.408 25.1559 16.3922C25.4102 16.2006 25.6773 15.9124 26.0037 15.7337C26.1308 15.6739 26.4343 15.6739 26.4026 15.8842C26.3868 16.0711 26.2445 16.2135 26.1642 16.3922C26.1173 16.5064 26.0681 16.6488 26.0839 16.7267C26.1179 16.8122 26.2111 16.8591 26.3382 16.763C26.4653 16.6827 26.5637 16.6177 26.6803 16.5216C26.8824 16.3248 27.1391 16.1402 27.4267 15.9873C28.0049 15.7202 28.7906 15.5468 29.3665 15.9124C28.9646 16.8122 28.6611 17.4813 28.2774 18.329C28.2071 18.4743 28.2645 18.5206 28.3113 18.5545C28.3606 18.5856 28.4537 18.6014 28.5838 18.5311C28.9001 18.3987 29.4602 17.7742 29.6828 17.2891C29.8955 16.838 30.0876 16.3922 30.3132 15.8836H31.151L30.9172 16.3763L30.9512 16.3922C31.1744 16.1871 31.7579 15.7208 32.1879 15.8192C32.4264 15.8684 32.543 16.1537 32.5254 16.3664C32.7978 16.1666 33.0778 15.9282 33.4821 15.8297C34.0603 15.6874 34.2859 16.0887 34.1072 16.4754C33.8816 17.0044 33.4358 18.0413 33.1792 18.5756C33.1481 18.6301 33.1481 18.7491 33.1792 18.7754C33.2442 18.8276 33.3579 18.7754 33.4077 18.7496C33.6953 18.5036 33.8535 18.3454 34.0767 18.029C34.1388 17.469 34.4423 16.9528 34.8624 16.5228C35.3082 16.0278 36.0136 15.6411 36.6902 15.8696C36.9263 15.9475 37.0868 16.1883 37.1519 16.4273C37.1829 16.5544 37.214 16.6189 37.214 16.7642C37.569 17.0237 38.033 16.6007 38.2228 16.2844C38.2749 16.1549 38.3394 16.0119 38.3704 15.9135C38.5726 15.9293 38.9692 15.9135 39.2053 15.9135L38.1601 18.3015C38.0927 18.4415 38.0775 18.5217 38.0775 18.6307C38.0775 18.7186 38.1736 18.7344 38.2744 18.7186C38.562 18.6664 39.0313 18.1017 39.2674 17.6271C39.5322 17.0331 39.7941 16.538 40.053 15.9469H40.8984C40.5615 16.7454 40.1801 17.5961 39.9054 18.2183C39.8403 18.3454 39.7654 18.4749 39.8069 18.6512C39.8409 18.7344 39.9522 18.7186 40.022 18.6875C40.3875 18.4749 41.0179 17.7748 41.2358 17.3418C41.4637 16.8286 41.6325 16.4449 41.8709 15.9469H42.7397L42.5323 16.4449C42.8563 16.1883 43.2037 15.9135 43.6214 15.8462C43.813 15.8204 44.052 15.8303 44.1634 16.0278C44.2928 16.251 44.2149 16.4865 44.1194 16.7021C43.881 17.2463 43.6033 17.838 43.3648 18.3641C43.3209 18.4936 43.308 18.6155 43.3935 18.6676C43.5259 18.7508 44.1323 18.38 44.441 17.7056C44.7082 17.1145 44.8898 16.7642 45.1283 16.1889H44.6824L44.8066 15.9293H45.2554L45.8957 14.5368H46.7593L46.1371 15.9293H46.788L46.6661 16.1889H46.0258C45.6579 16.9692 45.3491 17.6277 45.0275 18.3641C44.9033 18.6155 44.7732 19.0385 44.8406 19.2951C44.8898 19.4374 45.0662 19.4738 45.2267 19.4199C45.7194 19.2488 46.0562 18.8287 46.3445 18.38C46.3603 18.3308 46.6216 18.3641 46.6011 18.4005C46.2613 19.0695 45.5278 19.7462 44.8248 19.728C44.615 19.728 44.3866 19.5985 44.2624 19.4193C44.2026 19.3261 44.1639 19.2482 44.1329 19.1369C44.0889 18.9553 44.1018 18.7502 44.1329 18.5563C43.7515 18.8469 43.3865 19.1966 42.9038 19.2951C42.6934 19.3261 42.424 19.2482 42.3747 19.0226C42.3437 18.8463 42.3589 18.6518 42.424 18.4936C42.7274 17.8375 42.9969 17.2463 43.2846 16.5539C43.308 16.5228 43.2846 16.4086 43.2506 16.3933C43.2037 16.3494 43.0614 16.3494 42.9342 16.4455C42.3431 16.8913 42.0396 17.4695 41.7854 18.0607C41.6038 18.4573 41.4098 18.8592 41.22 19.2482H40.3694C40.4678 19.0098 40.6107 18.6881 40.7221 18.4292C40.7221 18.4134 40.7068 18.4134 40.7068 18.4292C40.3571 18.7766 39.9054 19.1761 39.4625 19.2951C39.2832 19.3419 39.1045 19.2822 39.0137 19.1135C38.9123 18.9553 38.8842 18.7192 38.9698 18.5042C38.9698 18.4936 38.9622 18.4936 38.944 18.5042C38.6276 18.8281 38.3189 19.1135 37.8936 19.2611C37.4085 19.4087 36.9732 19.0695 37.279 18.3641C37.3622 18.1749 37.603 17.6435 37.8678 17.0056C37.6475 17.0964 37.378 17.0964 37.2327 17.0524C37.2146 17.0524 37.2146 17.0524 37.2146 17.0682C37.0277 17.9628 36.4963 18.7772 35.6796 19.1656C35.2801 19.3601 34.8266 19.4093 34.43 19.1369C34.2384 19.0098 34.1242 18.6987 34.1084 18.4292C33.6959 18.8469 33.2267 19.373 32.5887 19.2822C32.4926 19.2617 32.4123 19.1756 32.3631 19.0877C32.2178 18.8469 32.3033 18.5874 32.3942 18.38C32.7 17.742 32.9519 17.1456 33.2577 16.4273C33.3069 16.326 33.1692 16.2533 33.0708 16.3002C32.7673 16.4455 32.581 16.5908 32.4123 16.8497C32.3215 16.9897 32.2307 17.1503 32.1581 17.3032C31.8751 17.9177 31.5798 18.5557 31.3232 19.175H30.4544C30.8434 18.3015 31.209 17.4508 31.5927 16.5873C31.629 16.507 31.6085 16.3927 31.5617 16.367C31.4867 16.3254 31.349 16.3928 31.2605 16.4449C31.0531 16.5873 30.8692 16.7771 30.7315 17.0231C30.5862 17.2616 30.4544 17.5 30.353 17.7595L29.7051 19.175H28.8574C28.9405 18.9881 29.0987 18.6149 29.1942 18.428C29.1942 18.4122 29.1784 18.3993 29.1784 18.4122C28.7144 18.7959 28.1204 19.2939 27.6874 19.2107C27.5421 19.1949 27.4179 19.0683 27.3839 18.9383C27.3529 18.7748 27.3658 18.6295 27.3998 18.4924C27.3998 18.4743 27.3839 18.4743 27.3658 18.4924C26.9949 18.8451 26.6633 19.1357 26.1964 19.247C25.9293 19.3068 25.6779 19.1357 25.5924 18.9383C25.4729 18.718 25.4448 18.3624 25.6363 17.9605C25.7506 17.7039 25.8748 17.4344 26.033 17.2112C25.9398 17.2604 25.7506 17.2762 25.6205 17.2604C25.5116 17.2446 25.395 17.159 25.3381 17.0764C25.2708 17.0038 25.2549 16.8585 25.2549 16.7624C25.2708 16.7443 25.221 16.7443 25.1876 16.7624C24.9333 16.9675 24.8197 17.2112 24.6925 17.4807L23.9561 19.148H23.0902L23.4089 18.4403C23.4247 18.4274 23.4089 18.4116 23.3931 18.4274C22.942 18.827 22.4024 19.2804 21.9671 19.1949C21.8424 19.1744 21.7105 19.0496 21.6795 18.9254C21.6484 18.7748 21.6613 18.6143 21.6795 18.4743H21.6484C21.2958 18.827 20.9589 19.1123 20.4996 19.2107C20.2377 19.2939 20.0016 19.1357 19.9003 18.9125C19.7731 18.5856 19.82 18.254 19.9342 17.9453C20.2664 17.0764 20.8804 16.4572 21.7105 15.9879C22.236 15.6868 23.0557 15.596 23.631 15.8942ZM5.0149 29.3096C5.0149 32.9736 5.98742 37.1009 7.72213 40.4871C10.857 37.5625 19.0812 28.2803 20.025 27.2017C21.4592 25.5602 22.0785 26.6053 22.8489 25.6873C23.2613 25.1841 23.5021 24.9925 23.6837 24.8911C23.9795 24.7148 24.3164 24.2947 24.4851 24.1705C24.6539 24.0434 25.0347 23.5378 25.3305 23.2836C25.6287 23.0322 26.2122 22.6508 26.8057 22.1476C27.3968 21.6397 28.4027 20.4621 29.4995 20.4621C30.8036 20.4621 31.3484 21.3461 31.465 21.4528C31.5581 21.5541 32.3619 22.2642 32.492 22.3989C32.6343 22.5594 33.4956 23.239 33.9619 23.239C34.4235 23.239 34.7657 23.7446 35.0147 23.996C35.5671 24.4986 37.8484 26.8971 38.5978 27.4056C38.9323 27.6364 39.2486 27.5948 39.4976 27.7893C39.7542 27.9786 39.8814 28.1004 40.0266 28.1444C40.1667 28.183 40.657 28.0588 41.2271 28.7718C41.4919 28.9534 41.5616 28.9845 41.5616 28.9845C41.5616 28.9845 42.3367 29.6869 42.6144 30.182C42.8657 30.6096 48.6451 38.2872 50.7144 41.0331C52.633 37.5538 53.7297 33.5553 53.7297 29.3032C53.7297 15.8438 42.8188 4.94577 29.3676 4.94577C15.9147 4.95514 5.0149 15.8579 5.0149 29.3096Z" fill="#016BB1"/>
<path d="M49.2979 44.2858V44.5582H49.8239V46H50.1585V44.5582H50.6822V44.2858H49.2979ZM52.4562 44.2858L51.9922 45.502L51.5153 44.2858H51.0355V46H51.3466V44.6595H51.3542L51.8727 46H52.1035L52.612 44.6595H52.6249V46H52.9337V44.2858H52.4562Z" fill="#016BB1"/>
</svg>
