<svg width="95" height="28" viewBox="0 0 95 28" fill="none" xmlns="http://www.w3.org/2000/svg">
<path d="M43.28 7.24H44.54C44.3 6.68 44 6.14 43.64 5.62L45.26 5.04C45.62 5.65333 45.94 6.38667 46.22 7.24H46.94C47.1533 6.48 47.3267 5.58 47.46 4.54L49.3 4.76C49.1933 5.52 49.0267 6.34667 48.8 7.24H50.04C50.4 6.58667 50.7333 5.81333 51.04 4.92L52.74 5.56C52.42 6.24 52.1133 6.8 51.82 7.24H53.3V8.8H48.32C48.2133 9.09333 48.04 9.50667 47.8 10.04H53.86V11.62H51.04C51.84 12.42 52.94 13.06 54.34 13.54L53.54 15.2C52.8067 14.8667 52.1533 14.4933 51.58 14.08C51.46 15.08 51.32 15.9333 51.16 16.64H53.26C53.18 20.04 52.9267 21.9533 52.5 22.38C52.06 22.7933 51.16 23 49.8 23H48.94L48.46 21.4C49.1267 21.4267 49.5933 21.44 49.86 21.44C50.4733 21.44 50.88 21.34 51.08 21.14C51.28 20.94 51.4 19.94 51.44 18.14H44C44.3733 17.0067 44.6533 15.98 44.84 15.06L46.6 15.22L46.2 16.64H49.4C49.5333 16.1467 49.6667 15.4933 49.8 14.68H44.78V14.08C44.1667 14.6133 43.5733 15.0467 43 15.38L42.14 14.04V21.16C42.14 22.3733 41.52 22.98 40.28 22.98H38.98L38.54 21.24C39.0067 21.3067 39.4 21.34 39.72 21.34C40.1467 21.34 40.36 21.0667 40.36 20.52V16.5H38.46C38.34 19.1133 37.9067 21.2867 37.16 23.02L35.76 21.74C36.3867 19.9933 36.7067 17.7867 36.72 15.12V5.26H42.14V13.82C43.2067 13.2067 44.0867 12.4733 44.78 11.62H42.7V10.04H45.84C46.0533 9.66667 46.2533 9.25333 46.44 8.8H43.28V7.24ZM50.46 13.16C49.98 12.7067 49.5667 12.1933 49.22 11.62H46.92C46.6133 12.06 46.22 12.5733 45.74 13.16H50.46ZM38.5 11.8V14.7H40.36V11.8H38.5ZM40.36 10.02V7.04H38.5V10.02H40.36ZM42.86 19.06H50.14V20.66H42.86V19.06ZM61.74 12.28H64.58V7.24H62.08V5.42H71.5V11.76C71.5 15.56 71.74 18.1933 72.22 19.66C72.42 20.2867 72.6067 20.6 72.78 20.6C72.8467 20.6 72.9 20.32 72.94 19.76C72.9933 19.0133 73.02 18.34 73.02 17.74L74.5 18.44C74.42 20.3867 74.24 21.6333 73.96 22.18C73.76 22.58 73.5067 22.78 73.2 22.78C72.3867 22.7533 71.6867 22.2933 71.1 21.4C70.1133 19.8133 69.62 16.6 69.62 11.76V7.24H66.42V12.28H68.96V14.1H66.42V23.08H64.58V14.1H61.74V12.28ZM58.36 4.76C59.64 5.76 60.7 6.74667 61.54 7.72L60.24 9.04C59.4933 8.10667 58.4267 7.11333 57.04 6.06L58.36 4.76ZM55.78 10.56H60.26V18.98C60.8067 18.4733 61.3867 17.9133 62 17.3L62.5 19.3C61.3133 20.4733 60.0267 21.5267 58.64 22.46L57.92 20.76C58.2533 20.4533 58.42 20.0867 58.42 19.66V12.38H55.78V10.56ZM77.92 5.62H92.28V7.46H77.92V5.62ZM76 11.14H94.06V13.04H84.58C82.8467 16.4933 81.34 18.9533 80.06 20.42C83.2867 20.22 86.5533 19.8867 89.86 19.42C89.1933 18.22 88.4933 17.0467 87.76 15.9L89.28 14.96C91.0667 17.6 92.4733 19.9533 93.5 22.02L91.8 23.2C91.3733 22.2933 91.04 21.6133 90.8 21.16C86.7733 21.72 82.4067 22.16 77.7 22.48L77.2 20.54C77.4133 20.4733 77.5667 20.4133 77.66 20.36C78.8867 19.44 80.4867 17 82.46 13.04H76V11.14Z" fill="#161820"/>
<g clip-path="url(#clip0_14_3811)">
<path d="M29.8798 12.9128C28.5417 11.4965 26.6707 10.6033 24.5956 10.6033C22.8039 10.6033 21.2561 11.2438 19.9067 12.3839C19.3171 12.8775 18.6991 13.4769 17.928 14.2526C17.5424 14.6405 6.37305 25.8765 6.37305 25.8765C6.95703 25.9647 7.76213 25.9882 8.48219 25.9941C9.15689 25.9999 21.9932 25.9999 22.5261 25.9999C23.6091 25.9999 24.3121 25.9999 25.0662 25.9412C26.8011 25.8119 28.4397 25.1537 29.7607 23.8021C32.7033 20.8109 32.7487 15.9568 29.8798 12.9128ZM27.7309 21.6513C27.1583 22.2389 26.1434 22.8971 24.4765 22.9559C23.7054 22.9853 22.8039 22.9853 22.3901 22.9853C21.9421 22.9853 17.9733 22.9853 13.4262 22.9853C16.6863 19.7002 19.5325 16.8383 19.8557 16.5151C20.1505 16.2154 20.8139 15.5572 21.3922 15.0225C22.6509 13.8471 23.7848 13.6121 24.5842 13.618C25.8429 13.6297 26.9825 14.1586 27.799 15.0225C29.5509 16.8736 29.5056 19.8295 27.7309 21.6513Z" fill="#00A4FF"/>
<path d="M11.8558 12.19C10.5404 11.1733 9.07199 10.6033 7.40509 10.6033C5.32996 10.6033 3.46462 11.4965 2.12089 12.9128C-0.747998 15.951 -0.702641 20.8109 2.23428 23.8021C3.41359 25.0009 4.84236 25.6591 6.36752 25.8765L9.24208 22.9852C8.77716 22.9852 8.10813 22.9794 7.51848 22.9559C5.85158 22.8971 4.83102 22.233 4.26405 21.6513C2.48942 19.8295 2.44973 16.8736 4.19601 15.0225C5.01246 14.1645 6.15207 13.6297 7.41075 13.618C8.19885 13.6121 9.26476 13.853 10.4724 14.8873C11.0507 15.3809 12.3264 16.5504 12.8877 17.0734C12.9161 17.1028 12.9501 17.1028 12.9841 17.0734L14.9628 15.0695C14.9969 15.0342 14.9969 14.9872 14.9628 14.9578C14.016 14.0705 12.6666 12.8187 11.8558 12.19Z" fill="#00C9DB"/>
<path d="M25.3782 8.86974C24.0118 4.86778 20.3265 2 16.0005 2C11.0338 2 6.92321 5.78452 6.1748 10.715C6.57169 10.6445 6.98558 10.6092 7.40514 10.6092C7.98912 10.6092 8.54476 10.6797 9.08338 10.8149C9.09472 10.8149 9.10606 10.8208 9.1174 10.8208C9.7921 7.49461 12.627 5.02057 16.0061 5.02057C18.8183 5.02057 21.2847 6.77767 22.3959 9.26934C22.4129 9.31048 22.4413 9.32223 22.4753 9.31048C23.3144 9.07542 24.3123 8.93438 25.2818 9.0049C25.3725 9.01077 25.4066 8.95788 25.3782 8.86974Z" fill="#006CFF"/>
</g>
<defs>
<clipPath id="clip0_14_3811">
<rect width="32" height="24" fill="white" transform="translate(0 2)"/>
</clipPath>
</defs>
</svg>
