<svg width="62" height="47" viewBox="0 0 62 47" fill="none" xmlns="http://www.w3.org/2000/svg">
<path d="M54.1462 24.8319H45.8403C45.8403 24.8319 31.5066 25.8403 31.2729 25.8403C31.4599 25.0379 31.6 24.1921 31.6935 23.3029C33.4458 23.3246 46.0389 24.2246 46.0389 24.2246H53.7957L52.1719 21.6764H47.873C47.873 21.6764 31.9622 22.674 31.7402 22.674C31.7986 21.9691 31.8337 21.3185 31.8337 20.5595V20.0932C34.2402 20.245 47.0085 21.0583 47.0085 21.0583L51.8331 21.0474L50.1393 18.4341L31.822 19.4643V9.78093L37.1957 17.404L49.8472 17.8377L38.8312 0H31.822H20.7125V20.4402C20.7125 24.9511 20.619 27.2608 15.9696 27.2608C11.3202 27.2608 10.9697 24.9511 10.9697 20.4402V0H0.128906V20.5486C0.128906 30.6982 4.96523 35.7514 15.9813 35.7514C24.5792 35.7514 29.4155 32.6718 31.1211 26.4801C31.343 26.4801 43.3404 27.2608 43.3404 27.2608H55.6298L54.1462 24.8319Z" fill="black"/>
<path d="M56.0696 27.8757H43.7686L47.8105 34.0891H60.0181L56.0696 27.8757Z" fill="black"/>
<path d="M0.123987 38.3079H0.637992V40.9212C0.637992 41.2573 0.766493 41.4525 1.45573 41.4525H3.20802C3.89725 41.4525 4.02575 41.2573 4.02575 40.9212V38.3079H4.53976V40.9212C4.53976 41.626 4.15425 41.832 3.19634 41.832H1.45573C0.497809 41.832 0.112305 41.626 0.112305 40.9212V38.3079H0.123987Z" fill="black"/>
<path d="M5.50684 38.3087H6.26616L9.71233 41.3774V38.3087H10.2263V41.8003H9.46701L6.00916 38.7424V41.8111H5.50684V38.3087Z" fill="black"/>
<path d="M11.1953 38.3094H11.6976V41.801H11.1953V38.3094Z" fill="black"/>
<path d="M14.2157 38.691H12.3115V38.3115H16.6222V38.691H14.718V41.8031H14.2157V38.691Z" fill="black"/>
<path d="M17.2129 38.3079H20.9044V38.6874H17.7152V39.8043H20.7759V40.1838H17.7152V41.4091H20.9161V41.7887H17.2129V38.3079Z" fill="black"/>
<path d="M25.8043 40.2423C25.8043 41.2941 25.3721 41.4134 24.7647 41.4134H22.1713V38.6917H24.8347C25.4539 38.6917 25.7927 38.876 25.7927 39.8845V40.2423H25.8043ZM21.6689 41.8038H24.6946C25.9679 41.8038 26.3184 41.3483 26.3184 40.058C26.3184 38.6808 25.9796 38.3121 24.7179 38.3121H21.6806V41.8038H21.6689Z" fill="black"/>
<path d="M33.111 40.6798H30.5877L31.8494 38.6954L33.111 40.6798ZM29.291 41.8076H29.8634L30.3307 41.0702H33.3446L33.8119 41.8076H34.3843L32.1648 38.3159H31.5339L29.291 41.8076Z" fill="black"/>
<path d="M35.4525 40.0391V38.6945H37.7655C38.5131 38.6945 38.7001 38.8246 38.7001 39.215V39.5403C38.7001 39.909 38.4664 40.0499 37.894 40.0499H35.4525V40.0391ZM34.9385 41.8066H35.4525V40.4294H37.9407C38.3963 40.4294 38.6884 40.4945 38.6884 41.0367V41.8066H39.1673V40.9174C39.1673 40.5921 39.0388 40.3427 38.5248 40.2559V40.2451C38.8987 40.2126 39.2024 40.0716 39.2024 39.5836V39.3017C39.2024 38.6511 39.0272 38.3149 37.9524 38.3149H34.9385C34.9385 38.3149 34.9385 41.8066 34.9385 41.8066Z" fill="black"/>
<path d="M41.5956 38.691H39.6914V38.3115H44.002V38.691H42.0979V41.8031H41.5956V38.691Z" fill="black"/>
<path d="M44.6055 38.3094H45.1078V41.801H44.6055V38.3094Z" fill="black"/>
<path d="M46.041 40.7023H46.5199V40.9517C46.5199 41.2987 46.7185 41.4613 47.3494 41.4613H48.9264C49.6624 41.4613 49.8843 41.3203 49.8843 40.8107C49.8843 40.377 49.6974 40.2577 49.0666 40.2577H48.097C46.5433 40.2577 46.041 40.1709 46.041 39.2384C46.041 38.4468 46.5433 38.2625 47.5947 38.2625H48.6928C49.9544 38.2625 50.2698 38.5552 50.2698 39.1842V39.3034H49.7909C49.7792 38.7613 49.7091 38.6637 48.3774 38.6637H47.84C46.8587 38.6637 46.5083 38.707 46.5083 39.2818C46.5083 39.6938 46.6484 39.8348 47.4428 39.8348H48.9498C49.9427 39.8348 50.3516 40.1059 50.3516 40.6914V40.9191C50.3516 41.7758 49.5923 41.8408 48.8446 41.8408H47.4311C46.6835 41.8408 46.0293 41.7216 46.0293 40.9625V40.7023H46.041Z" fill="black"/>
<path d="M52.7508 38.691H50.8467V38.3115H55.1573V38.691H53.2532V41.8031H52.7508V38.691Z" fill="black"/>
<path d="M55.6582 40.7023H56.1371V40.9517C56.1371 41.2987 56.3357 41.4613 56.9665 41.4613H58.5436C59.2796 41.4613 59.5015 41.3203 59.5015 40.8107C59.5015 40.377 59.3146 40.2577 58.6838 40.2577H57.7142C56.1605 40.2577 55.6582 40.1709 55.6582 39.2384C55.6582 38.4468 56.1605 38.2625 57.2119 38.2625H58.31C59.5716 38.2625 59.887 38.5552 59.887 39.1842V39.3034H59.4081C59.3964 38.7613 59.3263 38.6637 57.9946 38.6637H57.4572C56.4759 38.6637 56.1254 38.707 56.1254 39.2818C56.1254 39.6938 56.2656 39.8348 57.06 39.8348H58.567C59.5599 39.8348 59.9688 40.1059 59.9688 40.6914V40.9191C59.9688 41.7758 59.2095 41.8408 58.4618 41.8408H57.0483C56.3007 41.8408 55.6465 41.7216 55.6465 40.9625V40.7023H55.6582Z" fill="black"/>
<path d="M60.4462 33.4339H60.1191V33.358H60.8434V33.4339H60.528V34.0845H60.4462V33.4339Z" fill="black"/>
<path d="M60.9453 33.3535H61.0738L61.4476 33.9715L61.8215 33.3535H61.95V34.0908H61.8682V33.451L61.4827 34.0908H61.4126L61.0271 33.451V34.0908H60.9453V33.3535Z" fill="black"/>
<path d="M2.13779 45.3764H0.72428L1.43688 44.2596L2.13779 45.3764ZM0 46.0054H0.315412L0.572415 45.5933H2.2663L2.53498 46.0054H2.86207L1.60042 44.0535H1.24997L0 46.0054Z" fill="black"/>
<path d="M4.62109 44.0448H5.04164L6.98084 45.7689V44.0448H7.26121V46.0075H6.84066L4.90146 44.2834V46.0075H4.62109V44.0448Z" fill="black"/>
<path d="M12.1094 44.0448H12.5533L13.7916 45.693L15.0299 44.0448H15.4738V46.0075H15.1817V44.2834H15.17L13.885 46.0075H13.6864L12.4014 44.2834H12.3897V46.0075H12.1094V44.0448Z" fill="black"/>
<path d="M20.0561 45.304C20.0561 45.8353 19.8692 46.0305 19.3435 46.0305H18.1637C17.5912 46.0305 17.416 45.7919 17.416 45.2931V44.7618C17.416 44.263 17.5912 44.0244 18.1637 44.0244H19.2384C19.6122 44.0244 20.0211 44.1112 20.0211 44.5666V44.6425H19.7641C19.7641 44.2738 19.6473 44.2521 18.9347 44.2521H18.1987C17.9183 44.2521 17.6964 44.328 17.6964 44.6642V45.4016C17.6964 45.7485 17.9183 45.8136 18.1987 45.8136H19.3085C19.6005 45.8136 19.7641 45.716 19.7641 45.4449V45.2497H18.6893V45.0329H20.0561V45.304Z" fill="black"/>
<path d="M21.999 44.0448H22.4429L23.6812 45.693L24.9195 44.0448H25.3634V46.0075H25.0714V44.2834H25.0597L23.7747 46.0075H23.5761L22.2911 44.2834H22.2794V46.0075H21.999V44.0448Z" fill="black"/>
<path d="M30.167 44.7569C30.167 44.2581 30.3422 44.0195 30.9146 44.0195H32.0127C32.5267 44.0195 32.6786 44.2472 32.6786 44.5075V44.681H32.4216V44.5942C32.4216 44.2581 32.1996 44.2472 31.931 44.2472H30.9497C30.6693 44.2472 30.4474 44.3232 30.4474 44.6593V45.3967C30.4474 45.7328 30.6693 45.8087 30.938 45.8087H31.931C32.3165 45.8087 32.4216 45.7328 32.4216 45.4726V45.3533H32.6903V45.4834C32.6903 45.8413 32.5735 46.0256 31.9777 46.0256H30.9146C30.3422 46.0256 30.167 45.787 30.167 45.2882V44.7569Z" fill="black"/>
<path d="M37.005 45.3931C37.005 45.7292 36.7831 45.8051 36.5144 45.8051H35.3579C35.0775 45.8051 34.8672 45.7292 34.8672 45.3931V44.6665C34.8672 44.3304 35.0892 44.2545 35.3579 44.2545H36.5144C36.7831 44.2545 37.005 44.3304 37.005 44.6665V45.3931ZM34.5752 45.2955C34.5752 45.7943 34.7504 46.0328 35.3228 46.0328H36.5378C37.1102 46.0328 37.2854 45.7943 37.2854 45.2955V44.7533C37.2854 44.2545 37.1102 44.0159 36.5378 44.0159H35.3228C34.7504 44.0159 34.5752 44.2545 34.5752 44.7533C34.5752 44.7641 34.5752 45.2955 34.5752 45.2955Z" fill="black"/>
<path d="M39.2344 44.0448H39.6783L40.9166 45.693L42.1549 44.0448H42.5988V46.0075H42.3067V44.2834H42.295L41.01 46.0075H40.8114L39.5264 44.2834V46.0075H39.2344V44.0448Z" fill="black"/>
<path d="M46.6459 44.7383C46.6459 44.9444 46.5057 45.0203 46.2837 45.0203H44.8702V44.2612H46.2604C46.5057 44.2612 46.6459 44.3154 46.6459 44.554V44.7383ZM44.5898 46.007H44.8702V45.2371H46.272C46.8912 45.2371 46.9262 45.0203 46.9262 44.5865C46.9262 44.1311 46.7043 44.0552 46.3188 44.0552H44.5898C44.5898 44.0552 44.5898 46.007 44.5898 46.007Z" fill="black"/>
<path d="M50.5313 45.3764H49.1178L49.8304 44.2596L50.5313 45.3764ZM48.3936 46.0054H48.709L48.9777 45.5933H50.6715L50.9285 46.0054H51.2556L49.994 44.0535H49.6435L48.3936 46.0054Z" fill="black"/>
<path d="M53.0146 44.0448H53.4352L55.3744 45.7689V44.0448H55.6548V46.0075H55.2342L53.295 44.2834V46.0075H53.0146V44.0448Z" fill="black"/>
<path d="M58.6427 45.1767L57.4277 44.049H57.8132L58.7828 44.9599L59.7524 44.049H60.1379L58.923 45.1767V46.0009H58.6427V45.1767Z" fill="black"/>
</svg>
