<svg width="37" height="46" viewBox="0 0 37 46" fill="none" xmlns="http://www.w3.org/2000/svg">
<g clip-path="url(#clip0_14_3967)">
<path d="M35.5732 45.9775C35.8423 45.9775 36.0732 45.753 36.0732 45.4765C36.0732 45.207 35.8423 44.9756 35.5732 44.9756C35.2967 44.9756 35.0713 45.2074 35.0713 45.4765C35.0709 45.753 35.2967 45.9775 35.5732 45.9775ZM32.051 44.7589C32.3122 45.5961 32.8353 45.9853 33.5455 45.9853C34.3165 45.9853 34.9582 45.3643 34.9582 44.5418C34.9582 43.9664 34.7042 43.5252 34.166 43.1287L33.6048 42.7096C33.269 42.4626 33.1048 42.2087 33.1048 41.9244C33.1048 41.6779 33.269 41.4607 33.5381 41.4607C33.8891 41.4607 34.0763 41.7377 34.1964 42.171L34.9218 41.7377C34.6757 40.9672 34.2116 40.6456 33.5759 40.6456C32.8583 40.6456 32.2662 41.2064 32.2662 41.9842C32.2662 42.4479 32.4456 42.9189 32.9765 43.3155L33.5989 43.7791C33.9121 44.0183 34.1219 44.2801 34.1219 44.609C34.1219 44.9084 33.8965 45.1702 33.568 45.1702C33.1425 45.1702 32.902 44.856 32.7529 44.3325L32.051 44.7589ZM30.2413 45.1849C29.7546 45.1849 29.4492 44.5717 29.4492 43.3155C29.4492 42.0592 29.7546 41.4387 30.2413 41.4387C30.7262 41.4387 31.0334 42.0592 31.0334 43.3155C31.0334 44.5717 30.7262 45.1849 30.2413 45.1849ZM30.2413 46C31.2648 46 31.8867 45.1173 31.8867 43.3155C31.8867 41.5132 31.257 40.6235 30.2413 40.6235C29.2238 40.6235 28.5959 41.5132 28.5959 43.3155C28.5954 45.1173 29.216 46 30.2413 46ZM27.4445 42.3131C27.4445 42.7993 27.1142 43.1204 26.5475 43.3228L26.4196 43.3674V41.5058C27.0991 41.5357 27.4445 41.8499 27.4445 42.3131ZM27.542 45.9329H28.4754L27.5554 43.712C28.0043 43.3904 28.2808 42.9415 28.2808 42.3136C28.2808 41.2965 27.4887 40.6985 26.3677 40.6985H25.5737V45.9333H26.4196V44.2359L26.5172 44.206C26.622 44.1761 26.7196 44.1389 26.8171 44.1016L27.542 45.9329ZM23.3381 43.6669C23.8841 43.5321 24.3248 43.7488 24.3248 44.2198C24.3248 44.7585 23.8096 45.1398 23.0842 45.1398V43.7262L23.3381 43.6669ZM23.9968 42.1489C23.9968 42.5155 23.7199 42.8145 23.2199 42.9194L23.0846 42.9493V41.4985C23.6532 41.5132 23.9968 41.7597 23.9968 42.1489ZM25.1634 44.2129C25.1634 43.6444 24.8561 43.211 24.3326 43.0316C24.6399 42.7699 24.8193 42.4258 24.8193 42.0817C24.8193 41.2367 24.0939 40.6985 22.9637 40.6985H22.2461V45.9333H22.9793C24.3041 45.9329 25.1634 45.2074 25.1634 44.2129ZM19.7266 42.3131C19.7266 42.7993 19.3977 43.1204 18.8292 43.3228L18.7022 43.3674V41.5058C19.3826 41.5357 19.7266 41.8499 19.7266 42.3131ZM19.8237 45.9329H20.7589L19.8389 43.712C20.2874 43.3904 20.5643 42.9415 20.5643 42.3136C20.5643 41.2965 19.7713 40.6985 18.6498 40.6985H17.8572V45.9333H18.7022V44.2359L18.7997 44.206C18.9042 44.1761 19.0017 44.1389 19.0987 44.1016L19.8237 45.9329ZM14.9859 45.9329H17.4759V45.1251H15.8304V43.6444H17.0642V42.8145H15.8304V41.5058H17.3112L17.4759 40.6981H14.9859V45.9329ZM11.4039 45.9329H12.2263V42.6802L13.5875 45.9329H14.4173V40.6981H13.5948V43.9507L12.2337 40.6981H11.4039V45.9329ZM10.1177 42.3131C10.1177 42.7993 9.7888 43.1204 9.22024 43.3228L9.09328 43.3674V41.5058C9.77362 41.5357 10.1177 41.8499 10.1177 42.3131ZM10.2152 45.9329H11.1499L10.2299 43.712C10.6789 43.3904 10.9554 42.9415 10.9554 42.3136C10.9554 41.2965 10.1628 40.6985 9.04084 40.6985H8.24826V45.9333H9.09328V44.2359L9.1908 44.206C9.29568 44.1761 9.39274 44.1389 9.4898 44.1016L10.2152 45.9329ZM5.90732 44.1453L6.33374 41.9097L6.7597 44.1453H5.90732ZM4.72604 45.9329H5.56324L5.75 44.9531H6.91656L7.10378 45.9329H7.97088L6.91656 40.6981H5.7799L4.72604 45.9329ZM1.06904 45.9329H1.92188L2.55714 42.6052L3.19286 45.9329H4.04524L5.1221 40.6981H4.27754L3.61192 44.1007L2.9693 40.6981H2.1758L1.53272 44.1007L0.87446 40.6981H0L1.06904 45.9329Z" fill="#000B6C"/>
<path d="M32.4361 6.57157C32.3974 6.41701 32.3588 6.35905 32.2815 6.33973L29.4994 5.60557L29.113 4.02133C29.0937 3.94405 29.0744 3.88609 28.9971 3.86677L26.1382 3.09397L25.7904 1.58701C25.7711 1.47109 25.7132 1.41313 25.6359 1.39381L18.2083 0.0170271C18.0868 -0.00551293 17.9622 -0.00551293 17.8403 0.0170271L10.4126 1.39427C10.3363 1.41359 10.2774 1.47155 10.2581 1.58747L9.91079 3.09443L7.05143 3.86723C6.97323 3.88655 6.95437 3.94451 6.93505 4.02179L6.54957 5.60603L3.76656 6.34019C3.6902 6.35951 3.65018 6.41747 3.612 6.57203C3.38154 7.76941 3.26562 9.04453 3.26562 10.3196C3.26562 21.447 9.06025 31.1057 17.7156 36.8639C17.8315 36.9403 17.9474 37.0185 18.0247 37.0185C18.102 37.0185 18.2179 36.9403 18.3338 36.8639C26.9883 31.1052 32.7838 21.447 32.7838 10.3196C32.7838 9.04453 32.6679 7.76941 32.4361 6.57157Z" fill="#0541A8"/>
<path d="M16.9428 31.7441C16.9428 31.8223 16.8655 31.8605 16.7887 31.7841C14.664 29.3503 13.2338 26.3745 12.2687 23.1306L10.8018 24.0575C10.4149 24.328 10.1054 24.2121 9.87489 23.787C7.90425 20.3104 6.63005 14.5935 6.51367 10.5763C6.51367 10.3831 6.55185 10.2672 6.70641 10.074C7.20827 9.45574 7.82605 8.83796 8.40611 8.297C8.52249 8.18108 8.63887 8.25836 8.63887 8.45156C8.63887 13.3961 9.48757 17.9929 10.84 21.0059C10.9564 21.2377 11.0709 21.2377 11.2255 21.1218L11.651 20.8513C10.8404 17.2587 10.3768 12.4687 10.4931 6.94506C10.4931 6.75232 10.5313 6.67458 10.6477 6.59776C11.0714 6.32728 11.8437 5.90224 12.502 5.63222C12.6947 5.55494 12.7329 5.59358 12.7329 5.74814C12.6165 13.783 13.2748 19.3453 14.7035 23.7875C14.7417 23.9034 14.8581 23.8648 14.8581 23.7489C14.7808 22.1264 14.7808 20.6972 14.7808 18.9589L14.7035 5.09126C14.7035 4.9367 14.7417 4.85942 14.8963 4.82078C15.5531 4.66622 16.1323 4.5503 16.8278 4.47302C16.9051 4.47302 16.9433 4.51166 16.9433 4.58894L16.9428 31.7441ZM25.4413 9.99716C25.4413 8.45202 23.6643 7.17736 21.3082 7.0228V15.0963C24.2826 13.3579 25.4413 11.6196 25.4413 9.99716ZM25.1322 15.7913C24.3207 15.7913 23.587 16.1004 21.3077 17.7229V26.4532C25.2481 22.0492 26.3682 19.0362 26.3682 17.491C26.3687 16.4096 25.8659 15.7913 25.1322 15.7913ZM19.2607 31.7841C19.1835 31.8605 19.1062 31.8223 19.1062 31.7441V4.58894C19.1062 4.51166 19.1448 4.47302 19.2221 4.47302C24.3985 4.82078 27.7206 6.9837 27.7206 10.1126C27.7206 11.4264 27.2183 12.701 26.3687 13.6279C28.0679 14.0916 28.7248 15.3663 28.7248 17.066C28.7248 20.079 26.5228 25.0622 19.2607 31.7841Z" fill="white"/>
</g>
<defs>
<clipPath id="clip0_14_3967">
<rect width="36.0732" height="46" fill="white"/>
</clipPath>
</defs>
</svg>
