<svg width="24" height="24" viewBox="0 0 24 24" fill="none" xmlns="http://www.w3.org/2000/svg">
<path d="M12 0C18.624 0 24 5.37598 24 12C24 18.624 18.624 24 12 24C5.37598 24 0 18.624 0 12C0 5.37598 5.37598 0 12 0ZM12 6C8.68799 6 6 8.68799 6 12C6.00352 14.695 7.80322 17.0572 10.4004 17.7765C12.9979 18.4957 15.7562 17.3956 17.1454 15.0864L15.0873 13.853C14.2544 15.2402 12.5982 15.9012 11.0388 15.4688C9.47959 15.0363 8.40059 13.6166 8.40088 11.9985C8.40146 10.3805 9.48164 8.96133 11.0411 8.53008C12.6006 8.09854 14.2564 8.76065 15.0885 10.1484L17.1454 8.9124C16.0611 7.10508 14.1076 5.99941 12 6Z" fill="url(#paint0_linear_37_7940)"/>
<defs>
<linearGradient id="paint0_linear_37_7940" x1="0.385393" y1="0.23726" x2="0.385393" y2="23.4665" gradientUnits="userSpaceOnUse">
<stop stop-color="white"/>
<stop offset="1" stop-color="#FF6392"/>
</linearGradient>
</defs>
</svg>
