<svg width="28" height="24" viewBox="0 0 28 24" fill="none" xmlns="http://www.w3.org/2000/svg">
<path d="M12.4513 0.355974L7.49358 2.28092C7.42765 2.31067 7.36241 2.34245 7.29851 2.3766C7.09365 2.4814 6.92698 2.59904 6.79479 2.73765C6.50372 3.03616 6.39959 3.40702 6.41379 3.93407V9.78261L1.24375 11.7207C0.941515 11.813 0.667681 11.9723 0.455037 12.1825C0.160581 12.4601 -0.0141988 12.8269 0.00169033 13.2921V16.9202L0 19.3543C0 20.2853 0.179513 20.4885 1.00609 20.9324L6.25152 23.6984C7.01995 23.9858 7.35193 24.1227 8.18932 23.6984L8.45064 23.5639L13.191 21.1176V21.117L13.1941 21.1153L13.1957 21.1136L13.1974 21.1129L13.1991 21.1112L13.2022 21.1095L13.2039 21.1078L13.2069 21.1061L13.2099 21.1038L13.213 21.1021L13.216 21.0997L13.2208 21.0974L13.2238 21.095L13.2285 21.0926L13.2333 21.0896L13.238 21.0872L13.2427 21.0842L13.2475 21.0818L13.2539 21.0788L13.2586 21.0757L13.2647 21.0727L13.2836 21.0632L13.2901 21.0595L13.2978 21.0564L13.312 21.0494L13.3198 21.0463L13.3276 21.0423L13.3354 21.0392L13.3448 21.0362L13.3526 21.0321L13.3621 21.0281L13.3698 21.025L13.3793 21.022L13.3888 21.0179L13.3982 21.0149L13.4094 21.0118L13.4189 21.0088L13.4283 21.0057L13.4391 21.0027L13.4503 20.9986L13.4611 20.9963L13.4719 20.9932L13.4831 20.9902L13.4939 20.9871L13.5068 20.9848L13.5176 20.9817L13.5301 20.9794L13.5429 20.977L13.568 20.9723L13.5808 20.9706L13.5933 20.9682L13.6058 20.9669L13.62 20.9652L13.6325 20.9635H13.6342L13.6467 20.9618L13.6609 20.9611L13.6751 20.9594L13.6893 20.9611L13.7035 20.9618L13.716 20.9635L13.7302 20.9652L13.7431 20.9669L13.7573 20.9682L13.7701 20.9706L13.7826 20.9723L13.7951 20.9746L13.808 20.977L13.8205 20.9794L13.8313 20.9817H13.833L13.8442 20.9848L13.855 20.9871L13.8675 20.9902L13.8786 20.9932L13.8895 20.9963L13.8989 20.9986L13.9101 21.0027L13.9209 21.0057L13.932 21.0088L13.9415 21.0118L13.951 21.0149L13.9618 21.0179L13.9696 21.022L13.979 21.025L13.9885 21.0281L13.998 21.0321L14.0057 21.0362L14.0135 21.0392L14.023 21.0423L14.0308 21.0463L14.0385 21.0494L14.045 21.0534L14.0531 21.0564L14.0592 21.0595L14.0669 21.0632L14.0859 21.0727L14.092 21.0757L14.0967 21.0788L14.1031 21.0818L14.1078 21.0842L14.1126 21.0872L14.1173 21.0896L14.122 21.0926L14.1268 21.095L14.1298 21.0974L14.1346 21.0997L14.1376 21.1021L14.1406 21.1038L14.1437 21.1061L14.1467 21.1078L14.1484 21.1095L14.1498 21.1112L14.1545 21.1136L14.1562 21.1153V21.1159H14.1579L14.1596 21.1166V21.1173L18.8999 23.5635L19.1613 23.6981C19.9973 24.1224 20.331 23.9855 21.0991 23.6981L26.2502 20.9824C26.9506 20.6102 27.3114 20.4354 27.3458 19.5852C27.4026 18.7617 27.3489 17.763 27.3489 16.9199V13.2921C27.3644 12.8269 27.19 12.4601 26.8939 12.1825C26.6815 11.9723 26.4091 11.813 26.1051 11.7207L20.9368 9.78228L20.9351 3.93373C20.9506 3.40668 20.8469 3.03549 20.5558 2.73731C20.4236 2.59871 20.2549 2.48106 20.0521 2.37626C19.9307 2.31203 19.8222 2.26639 19.6964 2.21771L14.9009 0.355974C14.5406 0.215339 14.0683 0.0101325 13.6761 0.0121609C13.2843 0.0101325 12.8117 0.215339 12.4513 0.355974ZM7.21501 11.1954L12.6731 13.4344L7.21501 15.6731L1.75862 13.4344L7.21501 11.1954ZM20.1511 11.1954L25.6078 13.4344L20.1511 15.6731L14.693 13.4344L20.1511 11.1954ZM14.616 7.78532L19.0963 5.87964V9.78363L14.616 11.6126V7.78532ZM8.18323 17.3624L12.6636 15.3039V19.4364L8.18323 21.7231V17.3624ZM21.05 17.3624L25.5308 15.3043V19.4368L21.0504 21.7235V17.3624H21.05ZM13.6288 1.61561L19.0855 3.85462L13.6288 6.09296L8.17241 3.85462L13.6288 1.61561Z" fill="url(#paint0_linear_37_7948)"/>
<defs>
<linearGradient id="paint0_linear_37_7948" x1="0.43954" y1="0.248967" x2="0.43954" y2="23.4352" gradientUnits="userSpaceOnUse">
<stop stop-color="white"/>
<stop offset="1" stop-color="#FF6392"/>
</linearGradient>
</defs>
</svg>
