<svg width="24" height="24" viewBox="0 0 24 24" fill="none" xmlns="http://www.w3.org/2000/svg">
<path d="M12 0C5.37275 0 0 5.37275 0 12C0 18.6272 5.37275 24 12 24C18.6272 24 24 18.6272 24 12C24 5.37275 18.6272 0 12 0ZM8.16006 17.7601C8.16006 18.2903 7.73027 18.7201 7.2 18.7201C6.66973 18.7201 6.23994 18.2903 6.23994 17.7601V13.9201C6.23994 13.3898 6.66973 12.9601 7.2 12.9601C7.72998 12.9601 8.16006 13.3898 8.16006 13.9201V17.7601ZM8.3291 11.6332L7.20029 11.0399L6.07178 11.6332L6.2874 10.3767L5.37451 9.48662L6.63603 9.30322L7.20059 8.15977L7.76514 9.30322L9.02666 9.48662L8.11377 10.3767L8.3291 11.6332ZM12.9601 17.7601C12.9601 18.2903 12.5303 18.7201 12 18.7201C11.4697 18.7201 11.0399 18.2903 11.0399 17.7601V10.0799C11.0399 9.54961 11.4697 9.11982 12 9.11982C12.5303 9.11982 12.9601 9.54961 12.9601 10.0799V17.7601ZM13.1291 8.27314L12 7.67988L10.8715 8.27314L11.0871 7.0166L10.1742 6.12656L11.4357 5.94316L12.0003 4.79971L12.5648 5.94316L13.8264 6.12656L12.9135 7.0166L13.1291 8.27314ZM17.7601 17.7601C17.7601 18.1031 17.577 18.4201 17.2802 18.5915C16.9831 18.7629 16.6172 18.7629 16.3201 18.5915C16.023 18.4201 15.8402 18.1031 15.8402 17.7601V11.5201C15.8402 11.1771 16.0233 10.8604 16.3201 10.6887C16.6172 10.517 16.9831 10.517 17.2802 10.6887C17.5772 10.8601 17.7601 11.1771 17.7601 11.5201V17.7601ZM17.9291 9.71338L16.8 9.12012L15.6715 9.71338L15.8868 8.45684L14.9739 7.5668L16.2352 7.3834L16.7997 6.23994L17.3643 7.3834L18.6258 7.5668L17.7129 8.45684L17.9291 9.71338Z" fill="url(#paint0_linear_37_7936)"/>
<defs>
<linearGradient id="paint0_linear_37_7936" x1="0.385393" y1="0.23726" x2="0.385393" y2="23.4665" gradientUnits="userSpaceOnUse">
<stop stop-color="white"/>
<stop offset="1" stop-color="#FF6392"/>
</linearGradient>
</defs>
</svg>
