<svg width="24" height="24" viewBox="0 0 24 24" fill="none" xmlns="http://www.w3.org/2000/svg">
<path d="M13.8636 0H3.90258C2.86754 0 1.87501 0.411231 1.1433 1.14294C0.411231 1.87465 0 2.86718 0 3.90222V20.0974C0 22.2529 1.7471 24 3.90258 24H17.7662V3.90222C17.7662 2.86718 17.3549 1.87465 16.6232 1.14294C15.8911 0.410873 14.8986 0 13.8636 0ZM14.3709 16.6732H3.6682C3.31986 16.6732 2.99759 16.4871 2.82324 16.1855C2.64924 15.8836 2.64924 15.5117 2.82324 15.2098C2.99759 14.9079 3.31986 14.7221 3.6682 14.7221H14.4002C14.939 14.7221 15.3756 15.1591 15.3756 15.6975C15.3756 16.2363 14.939 16.6732 14.4002 16.6732H14.3709ZM14.3709 8.74124H3.6682C3.12942 8.74124 2.69283 8.30428 2.69283 7.7655C2.69283 7.22672 3.12978 6.79013 3.6682 6.79013H14.4002C14.939 6.79013 15.3756 7.22708 15.3756 7.7655C15.3756 8.30428 14.939 8.74124 14.4002 8.74124H14.3709ZM20.3221 7.60973C19.9245 7.60973 19.5433 7.76836 19.2632 8.05026C18.9831 8.33251 18.8269 8.71444 18.8294 9.1121V23.9707H20.3221C22.2561 23.9761 23.8324 22.4215 23.8539 20.4879V11.1415C23.8539 10.2047 23.4819 9.30646 22.8195 8.64406C22.1571 7.98166 21.2589 7.60973 20.3221 7.60973Z" fill="url(#paint0_linear_37_7937)"/>
<defs>
<linearGradient id="paint0_linear_37_7937" x1="0.383047" y1="0.23726" x2="0.383047" y2="23.4665" gradientUnits="userSpaceOnUse">
<stop stop-color="white"/>
<stop offset="1" stop-color="#FF6392"/>
</linearGradient>
</defs>
</svg>
