<svg width="36" height="29" viewBox="0 0 36 29" fill="none" xmlns="http://www.w3.org/2000/svg">
<path opacity="0.25" d="M34.213 21.4579C31.3871 25.156 23.9383 23.3247 19.1754 25.156C13.0429 27.514 7.41135 30.9443 3.33047 27.6213C-2.72493 22.6906 7.77109 19.802 0 12.863C0 5.88494 8.17478 6.44796 15.4413 1.52966C23.3194 -3.80263 24.928 6.24245 29.7724 9.74748C36.0296 9.74748 37.6912 18.7421 34.213 21.4579Z" fill="white"/>
<path d="M17.5363 22.7257C17.2776 22.7254 17.0346 22.6239 16.8526 22.4404C16.6706 22.2568 16.571 22.0134 16.5722 21.7551V20.5716H14.1636C13.6291 20.5716 13.2105 20.1405 13.2105 19.5903C13.2105 19.0497 13.6382 18.6102 14.1636 18.6102H16.571V17.7953H14.1636C13.6291 17.7953 13.2105 17.3641 13.2105 16.814C13.2105 16.2733 13.6382 15.8334 14.1636 15.8334H15.7599L14.0232 13.7255C13.8595 13.5271 13.7817 13.2764 13.8038 13.0197C13.8442 12.5172 14.2697 12.1238 14.7737 12.1238C14.7977 12.1238 14.8221 12.1246 14.8465 12.1265C15.1082 12.1471 15.3463 12.2738 15.5024 12.4741L17.5363 14.9391L19.5679 12.4695C19.7301 12.2719 19.9697 12.146 20.2249 12.125C20.2512 12.1227 20.278 12.1216 20.3043 12.1216C20.5347 12.1216 20.7571 12.2051 20.9307 12.357C21.3317 12.7034 21.3829 13.302 21.046 13.7179L19.3031 15.8331H20.9044C21.4267 15.8331 21.8514 16.273 21.8514 16.8136C21.8514 17.3546 21.4263 17.7949 20.9044 17.7949H18.5027V18.6087H20.9105C21.4328 18.6087 21.8575 19.049 21.8575 19.59C21.8575 20.131 21.4324 20.5712 20.9105 20.5712H18.5027V21.7559C18.5027 22.2996 18.0784 22.7254 17.5371 22.7254H17.5363V22.7257Z" fill="white"/>
<path d="M22.987 26C22.7928 26 22.6032 25.9954 22.4197 25.9908L22.3529 25.9893H22.3334L22.2384 25.987C22.05 25.982 21.8718 25.9778 21.6955 25.9778H13.3954C13.1836 25.9778 12.9555 25.9839 12.754 25.9897C12.553 25.9939 12.3237 25.9988 12.0852 25.9988C10.5263 25.9988 8.77965 25.7913 7.6427 24.2522C6.98189 23.3823 6.81975 22.2568 7.207 21.2389C7.44774 20.5739 7.86742 20.0596 8.24628 19.6437L8.2726 19.6151L8.28787 19.5792C8.34929 19.435 8.53624 18.8845 8.36989 17.846C7.82622 14.3969 8.75028 12.1108 9.62092 10.8007C10.7613 9.09104 12.4976 7.94455 14.0459 7.87892H14.0558C14.2042 7.8732 14.5628 7.87015 15.1226 7.87015C15.8517 7.87015 16.7757 7.87511 17.4506 7.87854L17.5338 7.87892H17.8215L18.4354 7.87625C18.9905 7.87358 19.5151 7.87129 19.9546 7.87129C20.5303 7.87129 20.8691 7.87549 21.021 7.88465L21.0252 7.88503C22.1991 7.9331 24.0621 8.72706 25.4494 10.8064C26.3177 12.1093 27.2395 14.3893 26.6992 17.8532C26.5417 18.8498 26.705 19.3946 26.7824 19.5823L26.7973 19.6185L26.8232 19.6475C27.22 20.0909 27.6203 20.591 27.8633 21.2438C28.2448 22.2553 28.0903 23.3773 27.4493 24.2468L27.4383 24.2621L27.4325 24.2736C26.3009 25.7947 24.5509 26 22.987 26ZM15.2572 9.50461C14.6567 9.50461 14.2782 9.50766 14.1325 9.51339C13.548 9.53857 12.1505 10.0277 11.0417 11.6965C10.3294 12.761 9.57781 14.6507 10.0456 17.6056C10.2962 19.2099 9.9456 20.2645 9.56903 20.6796C9.28365 20.9916 8.96507 21.3621 8.80445 21.7982C8.60491 22.3285 8.67741 22.8367 9.0204 23.3068C9.67396 24.1927 10.7228 24.3708 12.2039 24.3708C12.3565 24.3708 12.524 24.3689 12.7304 24.3655L12.7384 24.3651C12.9337 24.3548 13.1665 24.3487 13.3946 24.3487H21.7005C21.8981 24.3487 22.0912 24.3533 22.3151 24.3586L22.3865 24.3602H22.4059C22.5761 24.3647 22.7871 24.3701 22.9927 24.3701C24.3796 24.3701 25.4364 24.1904 26.0861 23.3129L26.0884 23.3098C26.4127 22.8562 26.489 22.3495 26.3101 21.8421V21.8367L26.296 21.7986C26.1308 21.3499 25.7859 20.9634 25.5337 20.6815C25.1518 20.266 24.7992 19.2137 25.0549 17.6064C25.5177 14.6453 24.7657 12.7583 24.0534 11.6961C23.0847 10.2471 21.7695 9.54925 20.9576 9.51377C20.8264 9.50766 20.5051 9.50461 19.976 9.50461C19.2961 9.50461 18.4319 9.50957 17.8413 9.51339H17.5395C16.6368 9.50766 15.8471 9.50461 15.2572 9.50461Z" fill="white"/>
<path d="M14.2888 9.36883C13.6875 9.36806 13.1198 9.10366 12.7322 8.64392C12.1675 7.98159 11.1889 6.64434 10.9722 5.11899C10.8192 4.05872 10.9695 3.23195 11.4194 2.66119C11.7498 2.24074 12.2236 2 12.7188 2C13.1473 2 13.546 2.24074 13.968 2.4956C14.4624 2.79549 14.7047 2.90956 14.8619 2.91567H14.8707C15.0988 2.91567 15.4563 2.78976 15.8024 2.66767L15.8458 2.65241C16.3357 2.48225 16.8912 2.28958 17.4612 2.28958C17.4853 2.28958 17.5177 2.28958 17.5288 2.29111L17.5517 2.29607L17.5726 2.29568H17.6009C18.1766 2.29568 18.734 2.4895 19.2258 2.66042L19.2643 2.67378C19.61 2.79549 19.9679 2.92177 20.196 2.92177H20.2052C20.3631 2.91567 20.6043 2.80121 21.0949 2.4998L21.1186 2.48568C21.5531 2.2251 21.9282 2.00038 22.3486 2.00038C22.8484 2.00038 23.3215 2.24074 23.6469 2.66042C24.0968 3.23119 24.2471 4.05987 24.0952 5.12547C23.8682 6.65502 22.8923 7.99037 22.3307 8.64965C21.945 9.1071 21.3814 9.36882 20.784 9.36959H14.2888V9.36883ZM13.8077 7.6943C13.8764 7.7996 14.0191 7.8698 14.1675 7.8698H20.9022C21.0499 7.8698 21.1926 7.7996 21.2613 7.6943C21.6191 7.18076 22.46 5.85228 22.6176 4.51236C22.6527 4.19493 22.663 3.92595 22.6477 3.71115L22.6191 3.30254L22.286 3.54099C22.2551 3.56312 22.2239 3.58601 22.1926 3.60928C22.1403 3.64782 22.0907 3.68406 22.0468 3.71344L22.0388 3.71916C21.5466 4.08276 20.9343 4.53525 20.2914 4.53525C19.8088 4.53525 19.3223 4.32999 18.8523 4.13198L18.7203 4.07627C18.3315 3.91145 17.9294 3.74091 17.6013 3.74091H17.5257C17.5112 3.74091 17.4906 3.74091 17.4788 3.74015L17.4513 3.73137L17.409 3.73366C17.0751 3.75121 16.6642 3.92519 16.2671 4.09344L16.2568 4.09764C15.7688 4.31015 15.2667 4.52877 14.765 4.52877C14.1358 4.52877 13.5284 4.08505 13.0401 3.72832L13.0126 3.70848C12.9749 3.68254 12.9264 3.64667 12.8749 3.6089C12.8448 3.58677 12.8138 3.56388 12.7841 3.54213L12.4503 3.30025L12.4213 3.71153C12.4102 3.86987 12.4014 4.12587 12.4518 4.5219C12.6097 5.84961 13.4502 7.18 13.8077 7.6943Z" fill="white"/>
</svg>
