<svg width="36" height="29" viewBox="0 0 36 29" fill="none" xmlns="http://www.w3.org/2000/svg">
<path opacity="0.25" d="M34.213 21.4579C31.3871 25.156 23.9383 23.3247 19.1754 25.156C13.0429 27.514 7.41135 30.9443 3.33047 27.6213C-2.72493 22.6906 7.77109 19.802 0 12.863C0 5.88494 8.17478 6.44796 15.4413 1.52966C23.3194 -3.80263 24.928 6.24245 29.7724 9.74748C36.0296 9.74748 37.6912 18.7421 34.213 21.4579Z" fill="white"/>
<path d="M27.9317 21.7892L25.3193 17.7895C26.0654 17.3501 26.5241 16.5495 26.5254 15.6836V8.18777C26.5254 7.31796 26.0571 6.50798 25.3043 6.07358L18.8119 2.3258C18.0561 1.8914 17.1268 1.8914 16.371 2.3258L9.87849 6.07358C9.12401 6.51064 8.65903 7.31597 8.65737 8.18777V15.6836C8.65737 16.5073 9.07815 17.279 9.76415 17.727L7.11086 21.7896C6.97459 21.999 6.96263 22.2662 7.08228 22.4852C7.20227 22.7042 7.4306 22.8418 7.68121 22.8418H11.5107L13.0832 25.6517C13.2025 25.8644 13.4262 25.9973 13.6698 26H13.6781C13.9191 26 14.1424 25.8734 14.2651 25.6653L16.6229 21.6709C16.932 21.8045 17.2627 21.8723 17.5934 21.8723C17.8849 21.8723 18.1747 21.8192 18.4509 21.7158L20.7818 25.6653C20.9044 25.872 21.1275 26 21.3684 26H21.3767C21.6204 25.9973 21.8437 25.8637 21.9637 25.6517L23.5361 22.8418H27.3657C27.6163 22.8418 27.8449 22.7042 27.9646 22.4852C28.0842 22.2659 28.0693 21.999 27.9317 21.7892ZM13.6934 23.9539L12.5049 21.8288C12.3849 21.6134 12.1579 21.4801 11.9112 21.4801H8.93789L10.9417 18.4117L15.4317 21.0039L13.6934 23.9539ZM17.0516 20.368L10.5592 16.6203C10.2255 16.4272 10.0194 16.0709 10.0187 15.685V8.18777C10.0187 7.80255 10.2255 7.44459 10.5592 7.25248L17.0516 3.50471C17.2178 3.40799 17.4056 3.36046 17.5921 3.36046C17.7785 3.36046 17.965 3.40799 18.1325 3.50471L24.625 7.25248C24.959 7.44559 25.1647 7.80189 25.1654 8.18777V15.6836C25.1654 16.0689 24.9583 16.4268 24.625 16.6189L18.1328 20.3667C17.7985 20.5598 17.3867 20.5601 17.0516 20.368ZM23.133 21.4801C22.8867 21.4801 22.6593 21.6137 22.5394 21.8288L21.3508 23.9539L19.6464 21.065L24.139 18.4715L26.105 21.4801H23.133Z" fill="white"/>
<path d="M15.4219 15.9831C15.2025 15.9831 14.9848 15.9149 14.7984 15.7787C14.47 15.542 14.3058 15.1385 14.3763 14.74L14.6964 12.8764L13.342 11.5556C13.0511 11.2741 12.9468 10.851 13.0737 10.4664C13.197 10.0809 13.5304 9.79971 13.9316 9.74354L15.8021 9.47099L16.6394 7.77625C16.8192 7.41131 17.1838 7.18398 17.5923 7.18398C17.9994 7.18398 18.364 7.41131 18.5452 7.77625L19.3824 9.47099L21.253 9.74354C21.6561 9.80203 21.9855 10.0799 22.1105 10.4664C22.2358 10.8543 22.1337 11.2711 21.8409 11.5556L20.4865 12.8748L20.8066 14.7384C20.8761 15.1399 20.7139 15.5374 20.3845 15.777C20.0581 16.0166 19.623 16.0479 19.2654 15.8574L17.5923 14.978L15.9191 15.8574C15.7613 15.9422 15.5908 15.9831 15.4219 15.9831ZM17.5919 13.5801C17.7621 13.5801 17.9323 13.6209 18.0862 13.7027L19.3618 14.3741L19.1182 12.9529C19.0597 12.6085 19.174 12.2572 19.4233 12.0123L20.4553 11.0062L19.0284 10.7991C18.6821 10.7489 18.383 10.5316 18.2281 10.2178L17.5896 8.92458L16.9511 10.2178C16.7962 10.5316 16.4968 10.7489 16.1505 10.7991L14.7236 11.0062L15.7556 12.0123C16.0062 12.2562 16.1202 12.6082 16.0604 12.9529L15.8168 14.3741L17.0937 13.7027C17.2516 13.6209 17.4218 13.5801 17.5919 13.5801Z" fill="white"/>
</svg>
