<svg width="36" height="29" viewBox="0 0 36 29" fill="none" xmlns="http://www.w3.org/2000/svg">
<path opacity="0.25" d="M34.213 21.4579C31.3871 25.156 23.9383 23.3247 19.1754 25.156C13.0429 27.514 7.41135 30.9443 3.33047 27.6213C-2.72493 22.6906 7.77109 19.802 0 12.863C0 5.88494 8.17478 6.44796 15.4413 1.52966C23.3194 -3.80263 24.928 6.24245 29.7724 9.74748C36.0296 9.74748 37.6912 18.7421 34.213 21.4579Z" fill="white"/>
<path d="M7 19.4986V8.50139C7 8.14304 7.19116 7.81233 7.50122 7.63316L17.0254 2.13438C17.3355 1.95521 17.7178 1.95521 18.0279 2.13438L27.5517 7.63316C27.8618 7.81233 28.053 8.14337 28.053 8.50139V19.4986C28.053 19.857 27.8618 20.1877 27.5517 20.3668L18.0279 25.8656C17.7178 26.0448 17.3355 26.0448 17.0254 25.8656L7.50122 20.3668C7.19116 20.1877 7 19.857 7 19.4986ZM17.5266 24.2647L26.4161 19.1323V8.86773L17.5266 3.73529L8.63688 8.86773V19.1326L17.5266 24.2647Z" fill="white"/>
<path d="M19.4095 17.5474V10.4624H22.2237C22.9553 10.4624 23.5678 10.6788 24.044 11.1061C24.5246 11.5371 24.7684 12.1212 24.7684 12.8426C24.7684 13.2732 24.6681 13.6698 24.471 14.0219C24.2049 14.4894 23.8246 14.8225 23.34 15.0123C22.9773 15.1522 22.4764 15.2231 21.8506 15.2231H20.9395V17.5474H19.4095ZM22.1034 13.9053C22.4415 13.9053 22.7002 13.8001 22.8951 13.5829C23.0935 13.3618 23.1901 13.0847 23.1901 12.7363C23.1901 12.4259 23.0852 12.2015 22.8691 12.0496C22.6413 11.8898 22.3575 11.8088 22.0258 11.8088H20.9391V13.9053H22.1034ZM16.8634 17.5474V10.4624H18.3741V17.5474H16.8634ZM12.3438 17.5474L12.3161 17.4505C11.9271 16.082 11.5608 14.8221 11.2268 13.7058C10.8944 12.5955 10.58 11.5687 10.2919 10.6545L10.2373 10.4813H11.8892L13.3162 15.5082C13.4608 14.9587 13.623 14.3569 13.8011 13.7128C14.0323 12.8762 14.331 11.8118 14.6887 10.5493L14.716 10.4524H16.3152L14.2711 17.5471H12.3438V17.5474Z" fill="white"/>
</svg>
