<svg width="26" height="24" viewBox="0 0 26 24" fill="none" xmlns="http://www.w3.org/2000/svg">
<path d="M20.9594 21.0091C20.8083 20.8577 20.6029 20.7727 20.3889 20.7727C20.1747 20.7727 19.9696 20.8577 19.8182 21.0091C19.6667 21.1603 19.5818 21.3656 19.5818 21.5796V23.1932C19.5818 23.4815 19.7357 23.7477 19.9854 23.892C20.235 24.036 20.5426 24.036 20.7923 23.892C21.0419 23.7477 21.1958 23.4815 21.1958 23.1932V21.5796C21.1958 21.3656 21.1106 21.1603 20.9594 21.0091Z" fill="url(#paint0_linear_37_7924)"/>
<path d="M16.3567 16.7385C16.5707 16.7385 16.776 16.8235 16.9272 16.9749C17.0784 17.1261 17.1636 17.3314 17.1636 17.5454C17.1636 19.3279 18.6085 20.7728 20.3909 20.7728C22.1734 20.7728 23.6183 19.3279 23.6183 17.5454C23.6183 17.0997 23.9795 16.7385 24.4249 16.7385C24.8706 16.7385 25.2318 17.0997 25.2318 17.5454C25.2318 20.219 23.0643 22.3866 20.3907 22.3866C17.7171 22.3866 15.5496 20.2192 15.5496 17.5454C15.5496 17.3314 15.6345 17.1261 15.7859 16.9749C15.9374 16.8235 16.1425 16.7385 16.3567 16.7385Z" fill="url(#paint1_linear_37_7924)"/>
<path d="M17.7686 15.7299C17.7686 14.2816 18.9426 13.1076 20.3909 13.1076C21.8392 13.1076 23.0133 14.2816 23.0133 15.7299V17.3435C23.0133 18.7918 21.8392 19.9658 20.3909 19.9658C18.9426 19.9658 17.7686 18.7918 17.7686 17.3435V15.7299ZM20.3909 14.7214C19.8342 14.7214 19.3824 15.1732 19.3824 15.7299V17.3435C19.3824 17.704 19.5747 18.0369 19.8866 18.2169C20.1989 18.3971 20.5832 18.3971 20.8952 18.2169C21.2072 18.0366 21.3995 17.7037 21.3995 17.3435V15.7299C21.3995 15.1732 20.9476 14.7214 20.3909 14.7214Z" fill="url(#paint2_linear_37_7924)"/>
<path d="M14.3414 18.3696V18.3366C14.3414 16.3578 15.326 14.6099 16.8337 13.5546L16.8195 13.5404C16.7913 13.5216 16.763 13.498 16.7347 13.4792C16.7018 13.4556 16.6641 13.4274 16.6311 13.4038C16.6028 13.385 16.5793 13.3661 16.551 13.3473C16.4992 13.3096 16.4474 13.2766 16.3955 13.2389L16.3107 13.1824C16.2683 13.1541 16.2259 13.1258 16.1882 13.1023C16.16 13.0834 16.1317 13.0646 16.1034 13.0505L15.9904 12.9798C15.9621 12.9609 15.9338 12.9468 15.9055 12.928C15.8631 12.8997 15.816 12.8761 15.7689 12.8479C15.7454 12.8337 15.7218 12.8196 15.6935 12.8055C15.637 12.7725 15.5758 12.7395 15.5192 12.7065C15.4909 12.6924 15.4674 12.6783 15.4391 12.6641C15.3967 12.6406 15.359 12.6217 15.3166 12.5982L15.2318 12.5558C15.1894 12.5322 15.1423 12.5134 15.0999 12.4898C15.0763 12.4757 15.0528 12.4663 15.0245 12.4521C14.9586 12.4191 14.8926 12.3909 14.8266 12.3579C14.8031 12.3485 14.7795 12.3343 14.7513 12.3249C14.7041 12.3061 14.6617 12.2825 14.6146 12.2637C14.5864 12.2495 14.5581 12.2401 14.5298 12.226C14.4874 12.2071 14.4403 12.1883 14.3932 12.1694C14.3649 12.16 14.3367 12.1459 14.3131 12.1365C14.2424 12.1082 14.1765 12.0846 14.1058 12.0564C14.087 12.0469 14.0681 12.0422 14.0493 12.0375C13.9974 12.0187 13.9409 11.9998 13.8891 11.981L13.8043 11.9527C13.7572 11.9386 13.7101 11.9244 13.6677 11.9056L13.5828 11.8773C13.5263 11.8585 13.4698 11.8444 13.4132 11.8255L13.3567 11.8114C13.4179 11.7831 13.4745 11.7501 13.531 11.7171C13.5357 11.7124 13.5452 11.7077 13.5499 11.7077C13.6677 11.6418 13.7807 11.5711 13.8938 11.4957C13.8985 11.491 13.9032 11.4863 13.9126 11.4863C13.9645 11.4533 14.021 11.4156 14.0728 11.3779C14.0775 11.3779 14.0775 11.3732 14.0822 11.3732C14.1388 11.3355 14.1953 11.2931 14.2519 11.2507H14.2566C14.3084 11.213 14.3602 11.1706 14.412 11.1329C14.4168 11.1282 14.4262 11.1235 14.4309 11.1188C14.5345 11.034 14.6335 10.9492 14.7324 10.8597C14.7371 10.855 14.7466 10.8503 14.7513 10.8408C14.7984 10.7984 14.8408 10.756 14.8832 10.7136C14.8879 10.7089 14.8926 10.7089 14.8926 10.7042C14.9397 10.6571 14.9868 10.61 15.0339 10.5582L15.0434 10.5487C15.0858 10.5016 15.1282 10.4592 15.1706 10.4121C15.1753 10.4027 15.1847 10.398 15.1894 10.3885C15.2742 10.2896 15.359 10.1907 15.4391 10.087C15.4438 10.0776 15.4533 10.0682 15.458 10.0588C15.4957 10.0116 15.5286 9.96452 15.5616 9.91741C15.5663 9.9127 15.571 9.90328 15.5758 9.89856C15.6134 9.84674 15.6511 9.7902 15.6888 9.73367C15.6935 9.72896 15.6982 9.71953 15.703 9.71482C15.7359 9.66771 15.7642 9.61588 15.7972 9.56877C15.8019 9.55935 15.8113 9.54521 15.816 9.53579C15.882 9.42743 15.9479 9.31436 16.0092 9.19657C16.0139 9.18244 16.0233 9.17302 16.028 9.15888C16.0516 9.11177 16.0799 9.05994 16.1034 9.01283L16.1176 8.98456C16.1458 8.92802 16.1741 8.86678 16.1977 8.81024L16.2118 8.78197C16.2353 8.73015 16.2542 8.68303 16.2777 8.63121C16.2825 8.61707 16.2919 8.60294 16.2966 8.58881C16.3437 8.47102 16.3908 8.34853 16.4285 8.22603C16.4332 8.2119 16.4379 8.19305 16.4426 8.17892C16.4568 8.12709 16.4756 8.07998 16.4898 8.02816C16.4945 8.01402 16.4992 8.0046 16.4992 7.99046C16.518 7.92922 16.5322 7.86797 16.551 7.80201C16.5557 7.78788 16.5557 7.77845 16.5604 7.76432C16.5746 7.71249 16.584 7.66067 16.5981 7.60884C16.6028 7.59 16.6075 7.57586 16.6075 7.55702C16.6217 7.49106 16.6358 7.42981 16.6452 7.36385C16.6547 7.29789 16.6688 7.23665 16.6782 7.17069C16.6829 7.15184 16.6829 7.133 16.6876 7.11886C16.6971 7.06704 16.7018 7.01521 16.7065 6.96339C16.7065 6.94925 16.7112 6.93512 16.7112 6.92099C16.7159 6.85503 16.7253 6.78907 16.73 6.72311C16.73 6.70897 16.73 6.69484 16.7347 6.68071C16.7395 6.62888 16.7395 6.57234 16.7442 6.52052V6.46398C16.7442 6.39803 16.7489 6.32735 16.7489 6.2614C16.7489 2.80326 13.9456 0 10.4828 0C7.01992 0 4.22138 2.80326 4.22138 6.2614C4.22138 6.32735 4.22138 6.39803 4.22609 6.46398V6.52052C4.22609 6.57234 4.2308 6.62888 4.23551 6.68071C4.23551 6.69484 4.23551 6.70897 4.24022 6.72311C4.24493 6.78907 4.24965 6.85503 4.25907 6.92099C4.25907 6.93512 4.26378 6.94925 4.26378 6.96339C4.26849 7.01521 4.27791 7.06704 4.28262 7.11886C4.28734 7.13771 4.28734 7.15655 4.29205 7.17069C4.30147 7.23665 4.31089 7.30261 4.32503 7.36385C4.33445 7.42981 4.34858 7.49106 4.36272 7.55702C4.36743 7.57586 4.37214 7.59 4.37214 7.60884C4.38156 7.66067 4.3957 7.71249 4.40983 7.76432C4.41454 7.77845 4.41454 7.78788 4.41925 7.80201C4.43339 7.86326 4.45223 7.92922 4.47108 7.99046C4.47579 8.0046 4.4805 8.01402 4.4805 8.02816C4.49464 8.07998 4.50877 8.13181 4.52762 8.17892C4.53233 8.19305 4.53704 8.2119 4.54175 8.22603C4.58415 8.34853 4.62655 8.47102 4.67367 8.58881C4.67838 8.60294 4.6878 8.61707 4.69251 8.63121C4.71136 8.68303 4.73492 8.73015 4.75847 8.78197L4.77261 8.81024C4.80087 8.87149 4.82443 8.92802 4.8527 8.98456L4.86683 9.01283C4.89039 9.05994 4.91395 9.11177 4.94221 9.15888C4.94693 9.17302 4.95635 9.18244 4.96106 9.19657C5.02231 9.30964 5.08827 9.42272 5.15423 9.53108C5.16365 9.5405 5.16836 9.55463 5.17778 9.56406C5.21076 9.61117 5.23903 9.663 5.27201 9.71011C5.27672 9.71482 5.28143 9.72424 5.28614 9.72896C5.32383 9.78549 5.36153 9.83732 5.39922 9.88914C5.40393 9.89856 5.40864 9.90328 5.41335 9.90799C5.44633 9.9551 5.47931 10.0022 5.517 10.0446C5.52171 10.054 5.53113 10.0635 5.53585 10.0729C5.61594 10.1765 5.70074 10.2755 5.78555 10.3744L5.8091 10.398C5.85151 10.4451 5.8892 10.4875 5.9316 10.5346L5.94102 10.544C5.98814 10.5911 6.03525 10.643 6.08236 10.6901L6.0965 10.7042C6.1389 10.7466 6.1813 10.789 6.22842 10.8314L6.24726 10.8503C6.3462 10.9398 6.44514 11.0246 6.54879 11.1094C6.55821 11.1141 6.56292 11.1188 6.57234 11.1282C6.62417 11.1706 6.67128 11.2083 6.72311 11.246C6.77964 11.2884 6.83147 11.3261 6.88801 11.3685C6.89272 11.3732 6.89743 11.3732 6.89743 11.3779C6.94925 11.4156 7.00108 11.4486 7.0529 11.4816C7.05761 11.4863 7.06704 11.491 7.07175 11.4957C7.18482 11.5711 7.29789 11.6371 7.41568 11.703C7.4251 11.7077 7.42981 11.7124 7.43924 11.7171C7.49577 11.7501 7.55702 11.7831 7.61355 11.8114C7.60413 11.8161 7.59471 11.8161 7.58529 11.8208C7.51933 11.8396 7.45337 11.8585 7.39212 11.8773C7.36856 11.8868 7.3403 11.8915 7.31674 11.9009C7.26491 11.915 7.2178 11.9339 7.16598 11.948C7.13771 11.9574 7.11415 11.9669 7.08588 11.9763C7.02935 11.9951 6.97281 12.014 6.91627 12.0375C6.90214 12.0422 6.88329 12.0469 6.86916 12.0564C6.79849 12.0846 6.72782 12.1082 6.65715 12.1365L6.58648 12.1647C6.53936 12.1836 6.48754 12.2024 6.44043 12.226C6.41216 12.2354 6.3886 12.2495 6.36033 12.259C6.31322 12.2778 6.26139 12.3014 6.21428 12.3249C6.19072 12.3343 6.17188 12.3438 6.14832 12.3532C6.08236 12.3862 6.01169 12.4144 5.94573 12.4474C5.92689 12.4568 5.90333 12.4663 5.88449 12.4757C5.83737 12.4992 5.78555 12.5228 5.73843 12.5463C5.71017 12.5605 5.68661 12.5746 5.66305 12.584C5.62065 12.6076 5.57354 12.6312 5.53113 12.6547C5.50758 12.6688 5.48402 12.683 5.46046 12.6924C5.39922 12.7254 5.33797 12.7631 5.27201 12.796C5.25788 12.8055 5.23903 12.8149 5.2249 12.8243C5.17307 12.8526 5.12125 12.8856 5.06942 12.9138C5.04587 12.928 5.0176 12.9468 4.99404 12.9609C4.95164 12.9845 4.91395 13.0128 4.87154 13.0363C4.84799 13.0505 4.81972 13.0693 4.79616 13.0834C4.74905 13.1117 4.70665 13.14 4.66424 13.173C4.6454 13.1871 4.62655 13.1965 4.60771 13.2106C4.54646 13.2531 4.48992 13.2907 4.42868 13.3331C4.40512 13.352 4.38156 13.3661 4.35329 13.385C4.3156 13.4132 4.27791 13.4368 4.24022 13.4651C4.21195 13.4839 4.1884 13.5028 4.16013 13.5216C4.12244 13.5499 4.08475 13.5781 4.05177 13.6064L3.9811 13.6629C3.92456 13.7053 3.87274 13.7525 3.8162 13.7949C3.79264 13.8137 3.76909 13.8325 3.74553 13.8561C3.71255 13.8844 3.67486 13.9126 3.64188 13.9409C3.61361 13.9645 3.59005 13.988 3.56179 14.0069C3.52881 14.0351 3.50054 14.0634 3.46756 14.0917C3.444 14.1152 3.41573 14.1388 3.39218 14.1623C3.35449 14.1953 3.3168 14.233 3.27911 14.266C3.24613 14.299 3.20844 14.332 3.17546 14.3649C3.14248 14.3932 3.11421 14.4262 3.08123 14.4544L3.00114 14.5345C2.97287 14.5628 2.94931 14.5911 2.92104 14.6146C2.89277 14.6429 2.86922 14.6712 2.84095 14.6947C2.81268 14.723 2.78912 14.7513 2.76086 14.7795C2.71845 14.8219 2.68076 14.869 2.63836 14.9114C2.61009 14.9444 2.58182 14.9727 2.55356 15.0057C2.52529 15.0339 2.50173 15.0669 2.47346 15.0952C2.44991 15.1235 2.42635 15.147 2.4075 15.1753C2.37924 15.2083 2.35568 15.2365 2.32741 15.2695C2.30857 15.2931 2.28501 15.3213 2.26616 15.3496C2.2379 15.3826 2.21434 15.4156 2.19078 15.4485L2.14838 15.5051C2.09655 15.571 2.04944 15.637 1.99762 15.7077C1.97877 15.7312 1.95993 15.7548 1.94108 15.7831C1.91752 15.8207 1.88925 15.8537 1.8657 15.8914C1.84685 15.915 1.83272 15.9385 1.81387 15.9668C1.79032 16.0045 1.76205 16.0422 1.73849 16.0799C1.72436 16.0987 1.71493 16.1176 1.7008 16.1364C1.64898 16.2118 1.60186 16.2872 1.55475 16.3625C1.54061 16.3814 1.52648 16.4049 1.51706 16.4238C1.4935 16.4615 1.46994 16.5039 1.44639 16.5463L1.40398 16.617C1.38043 16.6594 1.35687 16.6971 1.33331 16.7395C1.32389 16.7583 1.31447 16.7771 1.30033 16.796C1.24851 16.8855 1.2014 16.9797 1.14957 17.0693C1.14486 17.0787 1.14015 17.0881 1.13544 17.0928C1.11188 17.1352 1.08832 17.1823 1.06948 17.2294C1.06006 17.2483 1.05063 17.2718 1.0365 17.2907C1.01294 17.3331 0.994097 17.3802 0.97054 17.4273L0.942272 17.4839C0.871601 17.6346 0.805642 17.7901 0.739683 17.9503C0.730261 17.9691 0.725549 17.9833 0.716127 18.0021C0.697281 18.0492 0.678436 18.101 0.65959 18.1482C0.650167 18.167 0.645456 18.1858 0.636033 18.2047C0.574786 18.3696 0.513538 18.5345 0.461713 18.7041C0.457002 18.7182 0.45229 18.7276 0.45229 18.7418C0.438156 18.7936 0.419311 18.8454 0.405177 18.8973L0.391043 18.9538C0.376909 19.0056 0.358063 19.0574 0.343929 19.1093C0.339218 19.1187 0.339218 19.1281 0.334506 19.1375C0.287393 19.3119 0.244991 19.4862 0.202588 19.6652L0.188454 19.7217C0.179032 19.7736 0.164898 19.8301 0.155475 19.8819C0.150763 19.8961 0.150763 19.9149 0.146052 19.929C0.113073 20.1034 0.0848045 20.2824 0.0565363 20.4614C0.0565363 20.4803 0.0518249 20.4944 0.0518249 20.5133C0.0424022 20.5698 0.0376909 20.6216 0.0329795 20.6782V20.6829C0.0141341 20.7677 0 20.8525 0 20.942L0.00942272 21.0409C0.00942272 21.1116 0.0188454 21.1823 0.0282682 21.2482C0.117784 21.8748 0.654879 22.3554 1.30976 22.3554H15.8867C14.9209 21.3142 14.332 19.9196 14.332 18.3884C14.3414 18.3979 14.3414 18.3837 14.3414 18.3696Z" fill="url(#paint3_linear_37_7924)"/>
<defs>
<linearGradient id="paint0_linear_37_7924" x1="19.6077" y1="20.8046" x2="19.6077" y2="23.9282" gradientUnits="userSpaceOnUse">
<stop stop-color="white"/>
<stop offset="1" stop-color="#FF6392"/>
</linearGradient>
<linearGradient id="paint1_linear_37_7924" x1="15.705" y1="16.7944" x2="15.705" y2="22.261" gradientUnits="userSpaceOnUse">
<stop stop-color="white"/>
<stop offset="1" stop-color="#FF6392"/>
</linearGradient>
<linearGradient id="paint2_linear_37_7924" x1="17.8528" y1="13.1754" x2="17.8528" y2="19.8134" gradientUnits="userSpaceOnUse">
<stop stop-color="white"/>
<stop offset="1" stop-color="#FF6392"/>
</linearGradient>
<linearGradient id="paint3_linear_37_7924" x1="0.270316" y1="0.221001" x2="0.270316" y2="21.8584" gradientUnits="userSpaceOnUse">
<stop stop-color="white"/>
<stop offset="1" stop-color="#FF6392"/>
</linearGradient>
</defs>
</svg>
