<svg width="24" height="24" viewBox="0 0 24 24" fill="none" xmlns="http://www.w3.org/2000/svg">
<path d="M23.4637 8.20479L15.7602 0.50126C15.1196 -0.139336 14.0614 -0.139336 13.4059 0.50126C12.7653 1.14186 12.7653 2.1997 13.4059 2.85521L15.0148 4.46452L10.9919 8.50235L9.45716 6.96761C8.36949 5.87994 6.59648 5.87994 5.50882 6.96761L2.37968 10.0967C-0.794203 13.2706 -0.794203 18.4107 2.37968 21.5846C5.55356 24.7584 10.694 24.7584 13.8675 21.5846L16.9966 18.4554C18.0843 17.3678 18.0843 15.5947 16.9966 14.5071L15.4768 12.9873L19.5146 8.94942L21.1239 10.5587C21.7645 11.1993 22.8224 11.1993 23.4779 10.5587C24.1192 9.90322 24.1192 8.84539 23.4637 8.20479ZM11.4244 13.8963L5.6285 19.6926C5.43497 19.8861 5.19634 19.9756 4.94316 19.9756C4.68997 19.9756 4.45134 19.8861 4.25782 19.6926C3.88532 19.3201 3.88532 18.7093 4.25782 18.3219L10.0541 12.526C10.4266 12.1535 11.0374 12.1535 11.4248 12.526C11.8118 12.913 11.8118 13.5238 11.4244 13.8963Z" fill="url(#paint0_linear_37_7951)"/>
<defs>
<linearGradient id="paint0_linear_37_7951" x1="0.383984" y1="0.257521" x2="0.383984" y2="23.4327" gradientUnits="userSpaceOnUse">
<stop stop-color="white"/>
<stop offset="1" stop-color="#FF6392"/>
</linearGradient>
</defs>
</svg>
