<svg width="26" height="24" viewBox="0 0 26 24" fill="none" xmlns="http://www.w3.org/2000/svg">
<path d="M14.7707 18.9195V18.8856C14.7707 16.8476 15.7849 15.0473 17.3376 13.9604L17.3231 13.9458C17.294 13.9264 17.2649 13.9021 17.2357 13.8827C17.2018 13.8585 17.163 13.8294 17.129 13.8051C17.0999 13.7857 17.0756 13.7663 17.0465 13.7469C16.9931 13.708 16.9397 13.6741 16.8864 13.6353L16.799 13.577C16.7554 13.5479 16.7117 13.5188 16.6729 13.4945C16.6438 13.4751 16.6146 13.4557 16.5855 13.4412L16.4691 13.3684C16.44 13.349 16.4108 13.3344 16.3817 13.315C16.338 13.2859 16.2895 13.2616 16.241 13.2325C16.2167 13.218 16.1925 13.2034 16.1634 13.1888C16.1051 13.1549 16.0421 13.1209 15.9838 13.0869C15.9547 13.0724 15.9304 13.0578 15.9013 13.0433C15.8577 13.019 15.8188 12.9996 15.7752 12.9753L15.6878 12.9317C15.6442 12.9074 15.5956 12.888 15.552 12.8637C15.5277 12.8492 15.5034 12.8395 15.4743 12.8249C15.4064 12.7909 15.3385 12.7618 15.2705 12.7279C15.2463 12.7182 15.222 12.7036 15.1929 12.6939C15.1444 12.6745 15.1007 12.6502 15.0522 12.6308C15.023 12.6163 14.9939 12.6066 14.9648 12.592C14.9211 12.5726 14.8726 12.5532 14.8241 12.5338C14.795 12.5241 14.7659 12.5095 14.7416 12.4998C14.6688 12.4707 14.6009 12.4464 14.5281 12.4173C14.5087 12.4076 14.4893 12.4027 14.4699 12.3979C14.4165 12.3785 14.3583 12.3591 14.3049 12.3397L14.2175 12.3106C14.169 12.296 14.1205 12.2814 14.0768 12.262L13.9895 12.2329C13.9313 12.2135 13.873 12.1989 13.8148 12.1795L13.7566 12.165C13.8197 12.1359 13.8779 12.1019 13.9361 12.0679C13.941 12.0631 13.9507 12.0582 13.9555 12.0582C14.0768 11.9903 14.1933 11.9175 14.3097 11.8399C14.3146 11.835 14.3195 11.8302 14.3292 11.8302C14.3825 11.7962 14.4408 11.7574 14.4941 11.7186C14.499 11.7186 14.499 11.7137 14.5038 11.7137C14.5621 11.6749 14.6203 11.6312 14.6785 11.5875H14.6834C14.7368 11.5487 14.7901 11.5051 14.8435 11.4662C14.8484 11.4614 14.8581 11.4565 14.8629 11.4517C14.9697 11.3643 15.0716 11.277 15.1735 11.1848C15.1783 11.1799 15.188 11.1751 15.1929 11.1654C15.2414 11.1217 15.2851 11.078 15.3287 11.0344C15.3336 11.0295 15.3385 11.0295 15.3385 11.0247C15.387 10.9761 15.4355 10.9276 15.484 10.8742L15.4937 10.8645C15.5374 10.816 15.5811 10.7723 15.6247 10.7238C15.6296 10.7141 15.6393 10.7093 15.6442 10.6996C15.7315 10.5977 15.8188 10.4958 15.9013 10.389C15.9062 10.3793 15.9159 10.3696 15.9207 10.3599C15.9596 10.3114 15.9935 10.2628 16.0275 10.2143C16.0323 10.2095 16.0372 10.1998 16.0421 10.1949C16.0809 10.1415 16.1197 10.0833 16.1585 10.0251C16.1634 10.0202 16.1682 10.0105 16.1731 10.0057C16.207 9.95714 16.2362 9.90376 16.2701 9.85524C16.275 9.84553 16.2847 9.83097 16.2895 9.82127C16.3575 9.70966 16.4254 9.59321 16.4885 9.4719C16.4933 9.45734 16.503 9.44763 16.5079 9.43308C16.5321 9.38455 16.5613 9.33118 16.5855 9.28265L16.6001 9.25354C16.6292 9.19531 16.6583 9.13223 16.6826 9.074L16.6971 9.04488C16.7214 8.99151 16.7408 8.94298 16.7651 8.88961C16.7699 8.87505 16.7796 8.86049 16.7845 8.84594C16.833 8.72463 16.8815 8.59846 16.9203 8.4723C16.9252 8.45774 16.93 8.43833 16.9349 8.42378C16.9495 8.3704 16.9689 8.32188 16.9834 8.2685C16.9883 8.25394 16.9931 8.24424 16.9931 8.22968C17.0125 8.1666 17.0271 8.10352 17.0465 8.03558C17.0514 8.02103 17.0514 8.01132 17.0562 7.99677C17.0708 7.94339 17.0805 7.89001 17.095 7.83664C17.0999 7.81723 17.1047 7.80267 17.1047 7.78326C17.1193 7.71533 17.1338 7.65224 17.1436 7.58431C17.1533 7.51638 17.1678 7.4533 17.1775 7.38536C17.1824 7.36595 17.1824 7.34654 17.1872 7.33199C17.1969 7.27861 17.2018 7.22523 17.2066 7.17186C17.2066 7.1573 17.2115 7.14274 17.2115 7.12818C17.2163 7.06025 17.226 6.99232 17.2309 6.92438C17.2309 6.90983 17.2309 6.89527 17.2357 6.88071C17.2406 6.82734 17.2406 6.76911 17.2455 6.71573V6.6575C17.2455 6.58957 17.2503 6.51678 17.2503 6.44885C17.2503 2.88718 14.3631 0 10.7966 0C7.23008 0 4.34776 2.88718 4.34776 6.44885C4.34776 6.51678 4.34776 6.58957 4.35261 6.6575V6.71573C4.35261 6.76911 4.35746 6.82734 4.36231 6.88071C4.36231 6.89527 4.36231 6.90983 4.36717 6.92438C4.37202 6.99232 4.37687 7.06025 4.38657 7.12818C4.38657 7.14274 4.39143 7.1573 4.39143 7.17186C4.39628 7.22523 4.40598 7.27861 4.41084 7.33199C4.41569 7.3514 4.41569 7.3708 4.42054 7.38536C4.43025 7.4533 4.43995 7.52123 4.45451 7.58431C4.46421 7.65224 4.47877 7.71533 4.49333 7.78326C4.49818 7.80267 4.50303 7.81723 4.50303 7.83664C4.51274 7.89001 4.52729 7.94339 4.54185 7.99677C4.5467 8.01132 4.5467 8.02103 4.55156 8.03558C4.56611 8.09867 4.58552 8.1666 4.60493 8.22968C4.60979 8.24424 4.61464 8.25394 4.61464 8.2685C4.6292 8.32188 4.64375 8.37525 4.66316 8.42378C4.66801 8.43833 4.67287 8.45774 4.67772 8.4723C4.72139 8.59846 4.76506 8.72463 4.81359 8.84594C4.81844 8.86049 4.82814 8.87505 4.833 8.88961C4.85241 8.94298 4.87667 8.99151 4.90093 9.04488L4.91549 9.074C4.9446 9.13708 4.96886 9.19531 4.99798 9.25354L5.01254 9.28265C5.0368 9.33118 5.06106 9.38455 5.09017 9.43308C5.09503 9.44763 5.10473 9.45734 5.10958 9.4719C5.17266 9.58836 5.2406 9.70481 5.30853 9.81642C5.31824 9.82612 5.32309 9.84068 5.33279 9.85038C5.36676 9.89891 5.39587 9.95229 5.42984 10.0008C5.43469 10.0057 5.43955 10.0154 5.4444 10.0202C5.48322 10.0784 5.52204 10.1318 5.56086 10.1852C5.56571 10.1949 5.57056 10.1998 5.57541 10.2046C5.60938 10.2531 5.64335 10.3017 5.68217 10.3453C5.68702 10.355 5.69672 10.3647 5.70158 10.3744C5.78407 10.4812 5.87141 10.5831 5.95875 10.685L5.98302 10.7093C6.02669 10.7578 6.06551 10.8015 6.10918 10.85L6.11888 10.8597C6.16741 10.9082 6.21593 10.9616 6.26446 11.0101L6.27901 11.0247C6.32268 11.0683 6.36636 11.112 6.41488 11.1557L6.43429 11.1751C6.53619 11.2673 6.63809 11.3546 6.74484 11.442C6.75455 11.4468 6.7594 11.4517 6.76911 11.4614C6.82248 11.5051 6.87101 11.5439 6.92438 11.5827C6.98261 11.6264 7.03599 11.6652 7.09422 11.7089C7.09907 11.7137 7.10392 11.7137 7.10392 11.7186C7.1573 11.7574 7.21067 11.7913 7.26405 11.8253C7.2689 11.8302 7.27861 11.835 7.28346 11.8399C7.39992 11.9175 7.51638 11.9854 7.63769 12.0534C7.64739 12.0582 7.65224 12.0631 7.66195 12.0679C7.72018 12.1019 7.78326 12.1359 7.84149 12.165C7.83178 12.1698 7.82208 12.1698 7.81237 12.1747C7.74444 12.1941 7.67651 12.2135 7.61342 12.2329C7.58916 12.2426 7.56005 12.2475 7.53579 12.2572C7.48241 12.2717 7.43389 12.2911 7.38051 12.3057C7.3514 12.3154 7.32713 12.3251 7.29802 12.3348C7.23979 12.3542 7.18156 12.3736 7.12333 12.3979C7.10877 12.4027 7.08937 12.4076 7.07481 12.4173C7.00202 12.4464 6.92924 12.4707 6.85645 12.4998L6.78366 12.5289C6.73514 12.5483 6.68176 12.5677 6.63324 12.592C6.60412 12.6017 6.57986 12.6163 6.55075 12.626C6.50222 12.6454 6.44885 12.6696 6.40032 12.6939C6.37606 12.7036 6.35665 12.7133 6.33239 12.723C6.26446 12.757 6.19167 12.7861 6.12374 12.8201C6.10433 12.8298 6.08006 12.8395 6.06065 12.8492C6.01213 12.8734 5.95875 12.8977 5.91023 12.922C5.88112 12.9365 5.85685 12.9511 5.83259 12.9608C5.78892 12.985 5.7404 13.0093 5.69672 13.0336C5.67246 13.0481 5.6482 13.0627 5.62394 13.0724C5.56086 13.1063 5.49778 13.1452 5.42984 13.1791C5.41528 13.1888 5.39588 13.1985 5.38132 13.2082C5.32794 13.2374 5.27457 13.2713 5.22119 13.3004C5.19693 13.315 5.16781 13.3344 5.14355 13.349C5.09988 13.3732 5.06106 13.4023 5.01739 13.4266C4.99313 13.4412 4.96401 13.4606 4.93975 13.4751C4.89123 13.5042 4.84755 13.5334 4.80388 13.5673C4.78447 13.5819 4.76506 13.5916 4.74565 13.6061C4.68257 13.6498 4.62434 13.6886 4.56126 13.7323C4.537 13.7517 4.51274 13.7663 4.48362 13.7857C4.4448 13.8148 4.40598 13.8391 4.36717 13.8682C4.33805 13.8876 4.31379 13.907 4.28467 13.9264C4.24585 13.9555 4.20704 13.9846 4.17307 14.0137L4.10028 14.072C4.04205 14.1156 3.98868 14.1642 3.93045 14.2078C3.90619 14.2273 3.88192 14.2467 3.85766 14.2709C3.8237 14.3 3.78488 14.3292 3.75091 14.3583C3.7218 14.3825 3.69753 14.4068 3.66842 14.4262C3.63445 14.4553 3.60534 14.4844 3.57137 14.5135C3.54711 14.5378 3.51799 14.5621 3.49373 14.5863C3.45491 14.6203 3.41609 14.6591 3.37727 14.6931C3.34331 14.7271 3.30449 14.761 3.27052 14.795C3.23655 14.8241 3.20744 14.8581 3.17347 14.8872L3.09098 14.9697C3.06187 14.9988 3.03761 15.0279 3.00849 15.0522C2.97938 15.0813 2.95512 15.1104 2.926 15.1347C2.89689 15.1638 2.87262 15.1929 2.84351 15.222C2.79984 15.2657 2.76102 15.3142 2.71735 15.3579C2.68823 15.3918 2.65912 15.4209 2.63 15.4549C2.60089 15.484 2.57663 15.518 2.54751 15.5471C2.52325 15.5762 2.49899 15.6005 2.47958 15.6296C2.45046 15.6636 2.4262 15.6927 2.39709 15.7266C2.37768 15.7509 2.35342 15.78 2.33401 15.8091C2.30489 15.8431 2.28063 15.8771 2.25637 15.911L2.2127 15.9693C2.15932 16.0372 2.1108 16.1051 2.05742 16.1779C2.03801 16.2022 2.0186 16.2264 1.99919 16.2556C1.97493 16.2944 1.94581 16.3283 1.92155 16.3672C1.90214 16.3914 1.88759 16.4157 1.86818 16.4448C1.84391 16.4836 1.8148 16.5224 1.79054 16.5613C1.77598 16.5807 1.76628 16.6001 1.75172 16.6195C1.69834 16.6971 1.64982 16.7748 1.60129 16.8524C1.58674 16.8718 1.57218 16.8961 1.56247 16.9155C1.53821 16.9543 1.51395 16.998 1.48969 17.0416L1.44602 17.1144C1.42175 17.1581 1.39749 17.1969 1.37323 17.2406C1.36353 17.26 1.35382 17.2794 1.33926 17.2988C1.28589 17.391 1.23736 17.4881 1.18399 17.5803C1.17913 17.59 1.17428 17.5997 1.16943 17.6045C1.14517 17.6482 1.12091 17.6967 1.1015 17.7452C1.09179 17.7647 1.08209 17.7889 1.06753 17.8083C1.04327 17.852 1.02386 17.9005 0.999596 17.9491L0.970481 18.0073C0.897695 18.1626 0.829761 18.3227 0.761828 18.4877C0.752123 18.5071 0.747271 18.5216 0.737566 18.541C0.718156 18.5896 0.698746 18.6429 0.679337 18.6915C0.669632 18.7109 0.66478 18.7303 0.655075 18.7497C0.591994 18.9195 0.528912 19.0894 0.475536 19.2641C0.470683 19.2786 0.465831 19.2883 0.465831 19.3029C0.451274 19.3562 0.431864 19.4096 0.417307 19.463L0.40275 19.5212C0.388192 19.5746 0.368783 19.628 0.354226 19.6814C0.349373 19.6911 0.349373 19.7008 0.344521 19.7105C0.295997 19.89 0.252325 20.0696 0.208653 20.2539L0.194096 20.3122C0.184391 20.3655 0.169834 20.4238 0.160129 20.4772C0.155277 20.4917 0.155277 20.5111 0.150425 20.5257C0.116458 20.7052 0.0873433 20.8896 0.0582289 21.074C0.0582289 21.0934 0.0533765 21.108 0.0533765 21.1274C0.0436717 21.1856 0.0388192 21.239 0.0339668 21.2972V21.3021C0.0145572 21.3894 0 21.4767 0 21.5689L0.00970481 21.6708C0.00970481 21.7436 0.0194096 21.8164 0.0291144 21.8843C0.12131 22.5297 0.674484 23.0247 1.34897 23.0247H16.3623C15.3676 21.9523 14.761 20.516 14.761 18.9389C14.7707 18.9486 14.7707 18.9341 14.7707 18.9195ZM20.8605 13.9749C18.0946 13.9749 15.8528 16.2167 15.8528 18.9875C15.8528 21.7533 18.0946 24 20.8605 24C23.6264 24 25.8682 21.7582 25.8682 18.9875C25.8682 16.2216 23.6264 13.9749 20.8605 13.9749ZM23.6603 17.7744L21.4913 21.8892C21.4573 22.0542 21.3603 22.2046 21.2099 22.3017C21.0983 22.3744 20.9721 22.4036 20.8508 22.4036C20.7295 22.4036 20.6033 22.3744 20.4917 22.3017C20.3413 22.2046 20.2442 22.0542 20.2103 21.8892L18.0412 17.7744C17.852 17.4735 17.9345 17.0805 18.2353 16.8864C18.5362 16.6971 18.9292 16.7796 19.1233 17.0805L20.8556 20.3655L22.5879 17.0805C22.7772 16.7796 23.1751 16.6971 23.4759 16.8864C23.7671 17.0756 23.8544 17.4735 23.6603 17.7744Z" fill="url(#paint0_linear_37_7921)"/>
<defs>
<linearGradient id="paint0_linear_37_7921" x1="0.415393" y1="0.23726" x2="0.415393" y2="23.4665" gradientUnits="userSpaceOnUse">
<stop stop-color="white"/>
<stop offset="1" stop-color="#FF6392"/>
</linearGradient>
</defs>
</svg>
