<svg width="32" height="32" viewBox="0 0 32 32" fill="none" xmlns="http://www.w3.org/2000/svg">
<g clip-path="url(#clip0_14_8973)">
<path d="M15.9704 0.0202637C24.786 0.0202637 31.9407 7.17496 31.9407 15.9906C31.9407 24.8063 24.786 31.961 15.9704 31.961C7.15469 31.961 0 24.8063 0 15.9906C0 7.17496 7.15469 0.0202637 15.9704 0.0202637ZM15.9704 8.00545C11.5625 8.00545 7.98518 11.5828 7.98518 15.9906C7.98986 19.5773 10.385 22.7211 13.8415 23.6783C17.2984 24.6355 20.9693 23.1714 22.8182 20.0982L20.0791 18.4568C18.9707 20.3029 16.7665 21.1826 14.6911 20.6071C12.616 20.0316 11.18 18.1421 11.1804 15.9887C11.1812 13.8353 12.6188 11.9466 14.6942 11.3726C16.7697 10.7983 18.9734 11.6795 20.0807 13.5265L22.8182 11.8815C21.3752 9.47616 18.7753 8.00467 15.9704 8.00545Z" fill="url(#paint0_linear_14_8973)"/>
</g>
<defs>
<linearGradient id="paint0_linear_14_8973" x1="0.512906" y1="0.336024" x2="0.512906" y2="31.2509" gradientUnits="userSpaceOnUse">
<stop stop-color="white"/>
<stop offset="1" stop-color="#FF6392"/>
</linearGradient>
<clipPath id="clip0_14_8973">
<rect width="31.9704" height="32" fill="white"/>
</clipPath>
</defs>
</svg>
