<svg width="39" height="34" viewBox="0 0 39 34" fill="none" xmlns="http://www.w3.org/2000/svg">
<g clip-path="url(#clip0_14_8951)">
<path d="M17.6394 0.504302L10.6159 3.23131C10.5225 3.27346 10.4301 3.31848 10.3396 3.36685C10.0493 3.51532 9.81322 3.68198 9.62596 3.87834C9.2136 4.30124 9.06609 4.82662 9.08621 5.57327V13.8587L1.76197 16.6044C1.33381 16.7351 0.945881 16.9607 0.644636 17.2586C0.22749 17.6518 -0.0201149 18.1714 0.00239464 18.8305V23.9703L0 27.4186C0 28.7375 0.25431 29.0254 1.42529 29.6542L8.85632 33.5728C9.94492 33.9799 10.4152 34.1738 11.6015 33.5728L11.9717 33.3822L18.6873 29.9167V29.9157L18.6916 29.9133L18.694 29.9109L18.6964 29.91L18.6988 29.9076L18.7031 29.9052L18.7055 29.9028L18.7098 29.9004L18.7141 29.897L18.7184 29.8946L18.7227 29.8913L18.7294 29.8879L18.7337 29.8846L18.7404 29.8812L18.7471 29.8769L18.7538 29.8736L18.7605 29.8692L18.7672 29.8659L18.7763 29.8616L18.783 29.8573L18.7917 29.853L18.8185 29.8396L18.8276 29.8343L18.8386 29.83L18.8587 29.8199L18.8697 29.8156L18.8807 29.8099L18.8918 29.8055L18.9052 29.8012L18.9162 29.7955L18.9296 29.7897L18.9406 29.7854L18.954 29.7811L18.9674 29.7754L18.9808 29.7711L18.9966 29.7668L19.0101 29.7624L19.0235 29.7581L19.0388 29.7538L19.0546 29.7481L19.0699 29.7447L19.0853 29.7404L19.1011 29.7361L19.1164 29.7318L19.1346 29.7284L19.1499 29.7241L19.1676 29.7208L19.1858 29.7174L19.2213 29.7107L19.2395 29.7083L19.2572 29.705L19.2749 29.7031L19.295 29.7007L19.3127 29.6983H19.3151L19.3329 29.6959L19.353 29.6949L19.3731 29.6925L19.3932 29.6949L19.4133 29.6959L19.431 29.6983L19.4512 29.7007L19.4693 29.7031L19.4895 29.705L19.5077 29.7083L19.5254 29.7107L19.5431 29.7141L19.5613 29.7174L19.579 29.7208L19.5944 29.7241H19.5967L19.6125 29.7284L19.6279 29.7318L19.6456 29.7361L19.6614 29.7404L19.6767 29.7447L19.6901 29.7481L19.7059 29.7538L19.7213 29.7581L19.7371 29.7624L19.7505 29.7668L19.7639 29.7711L19.7792 29.7754L19.7902 29.7811L19.8036 29.7854L19.8171 29.7897L19.8305 29.7955L19.8415 29.8012L19.8525 29.8055L19.8659 29.8099L19.8769 29.8156L19.8879 29.8199L19.897 29.8257L19.9085 29.83L19.9171 29.8343L19.9282 29.8396L19.955 29.853L19.9636 29.8573L19.9703 29.8616L19.9794 29.8659L19.9861 29.8692L19.9928 29.8736L19.9995 29.8769L20.0062 29.8812L20.0129 29.8846L20.0172 29.8879L20.0239 29.8913L20.0283 29.8946L20.0326 29.897L20.0369 29.9004L20.0412 29.9028L20.0436 29.9052L20.0455 29.9076L20.0522 29.9109L20.0546 29.9133V29.9143H20.057L20.0594 29.9152V29.9162L26.7749 33.3817L27.1451 33.5723C28.3295 34.1734 28.8022 33.9794 29.8903 33.5723L37.1877 29.7251C38.1801 29.1978 38.6911 28.9502 38.7399 27.7457C38.8204 26.579 38.7443 25.1643 38.7443 23.9698V18.8305C38.7663 18.1714 38.5192 17.6518 38.0996 17.2586C37.7989 16.9607 37.4128 16.7351 36.9823 16.6044L29.6604 13.8582L29.658 5.57279C29.6801 4.82614 29.533 4.30028 29.1207 3.87787C28.9334 3.68151 28.6944 3.51484 28.4071 3.36637C28.2352 3.27538 28.0814 3.21072 27.9033 3.14175L21.1097 0.504302C20.5991 0.305068 19.9301 0.0143595 19.3745 0.0172331C18.8194 0.0143595 18.1499 0.305068 17.6394 0.504302ZM10.2213 15.8601L17.9535 19.0321L10.2213 22.2035L2.49138 19.0321L10.2213 15.8601ZM28.5474 15.8601L36.2778 19.0321L28.5474 22.2035L20.8151 19.0321L28.5474 15.8601ZM20.7059 11.0292L27.0532 8.32949V13.8601L20.7059 16.4511V11.0292ZM11.5929 24.5967L17.9401 21.6805V27.535L11.5929 30.7744V24.5967ZM29.8209 24.5967L36.1686 21.681V27.5354L29.8214 30.7749V24.5967H29.8209ZM19.3075 2.28878L27.0378 5.46072L19.3075 8.6317L11.5776 5.46072L19.3075 2.28878Z" fill="url(#paint0_linear_14_8951)"/>
</g>
<defs>
<linearGradient id="paint0_linear_14_8951" x1="0.622681" y1="0.352708" x2="0.622681" y2="33.1998" gradientUnits="userSpaceOnUse">
<stop stop-color="white"/>
<stop offset="1" stop-color="#FF6392"/>
</linearGradient>
<clipPath id="clip0_14_8951">
<rect width="38.7874" height="34" fill="white"/>
</clipPath>
</defs>
</svg>
