<svg width="32" height="32" viewBox="0 0 32 32" fill="none" xmlns="http://www.w3.org/2000/svg">
<g clip-path="url(#clip0_14_8967)">
<path d="M16 0C7.16367 0 0 7.16367 0 16C0 24.8363 7.16367 32 16 32C24.8363 32 32 24.8363 32 16C32 7.16367 24.8363 0 16 0ZM10.8801 23.6801C10.8801 24.3871 10.307 24.9602 9.6 24.9602C8.89297 24.9602 8.31992 24.3871 8.31992 23.6801V18.5602C8.31992 17.8531 8.89297 17.2801 9.6 17.2801C10.3066 17.2801 10.8801 17.8531 10.8801 18.5602V23.6801ZM11.1055 15.5109L9.60039 14.7199L8.0957 15.5109L8.3832 13.8355L7.16602 12.6488L8.84805 12.4043L9.60078 10.8797L10.3535 12.4043L12.0355 12.6488L10.8184 13.8355L11.1055 15.5109ZM17.2801 23.6801C17.2801 24.3871 16.707 24.9602 16 24.9602C15.293 24.9602 14.7199 24.3871 14.7199 23.6801V13.4398C14.7199 12.7328 15.293 12.1598 16 12.1598C16.707 12.1598 17.2801 12.7328 17.2801 13.4398V23.6801ZM17.5055 11.0309L16 10.2398L14.4953 11.0309L14.7828 9.35547L13.5656 8.16875L15.2477 7.92422L16.0004 6.39961L16.7531 7.92422L18.4352 8.16875L17.218 9.35547L17.5055 11.0309ZM23.6801 23.6801C23.6801 24.1375 23.4359 24.5602 23.0402 24.7887C22.6441 25.0172 22.1562 25.0172 21.7602 24.7887C21.3641 24.5602 21.1203 24.1375 21.1203 23.6801V15.3602C21.1203 14.9027 21.3645 14.4805 21.7602 14.2516C22.1562 14.0227 22.6441 14.0227 23.0402 14.2516C23.4363 14.4801 23.6801 14.9027 23.6801 15.3602V23.6801ZM23.9055 12.9512L22.4 12.1602L20.8953 12.9512L21.1824 11.2758L19.9652 10.0891L21.6469 9.84453L22.3996 8.31992L23.1523 9.84453L24.8344 10.0891L23.6172 11.2758L23.9055 12.9512Z" fill="url(#paint0_linear_14_8967)"/>
</g>
<defs>
<linearGradient id="paint0_linear_14_8967" x1="0.513858" y1="0.316346" x2="0.513858" y2="31.2886" gradientUnits="userSpaceOnUse">
<stop stop-color="white"/>
<stop offset="1" stop-color="#FF6392"/>
</linearGradient>
<clipPath id="clip0_14_8967">
<rect width="32" height="32" fill="white"/>
</clipPath>
</defs>
</svg>
