<svg width="32" height="32" viewBox="0 0 32 32" fill="none" xmlns="http://www.w3.org/2000/svg">
<g clip-path="url(#clip0_14_8969)">
<path d="M18.4513 0.0123291H5.19401C3.81645 0.0123291 2.49548 0.559642 1.52164 1.53349C0.547313 2.50734 0 3.82831 0 5.20586V26.7603C0 29.6291 2.32525 31.9543 5.19401 31.9543H23.6453V5.20586C23.6453 3.82831 23.098 2.50734 22.1241 1.53349C21.1498 0.559167 19.8288 0.0123291 18.4513 0.0123291ZM19.1265 22.203H4.88207C4.41845 22.203 3.98954 21.9553 3.75749 21.5539C3.52591 21.1521 3.52591 20.6571 3.75749 20.2553C3.98954 19.8535 4.41845 19.6062 4.88207 19.6062H19.1655C19.8825 19.6062 20.4636 20.1878 20.4636 20.9044C20.4636 21.6215 19.8825 22.203 19.1655 22.203H19.1265ZM19.1265 11.6462H4.88207C4.165 11.6462 3.58393 11.0646 3.58393 10.3476C3.58393 9.63049 4.16548 9.04942 4.88207 9.04942H19.1655C19.8825 9.04942 20.4636 9.63097 20.4636 10.3476C20.4636 11.0646 19.8825 11.6462 19.1655 11.6462H19.1265ZM27.0471 10.1402C26.5178 10.1402 26.0105 10.3514 25.6377 10.7265C25.2649 11.1022 25.0571 11.6105 25.0604 12.1398V31.9153H27.0471C29.621 31.9225 31.719 29.8535 31.7475 27.28V14.8407C31.7475 13.5939 31.2525 12.3984 30.3709 11.5168C29.4893 10.6352 28.2939 10.1402 27.0471 10.1402Z" fill="url(#paint0_linear_14_8969)"/>
</g>
<defs>
<linearGradient id="paint0_linear_14_8969" x1="0.509803" y1="0.328102" x2="0.509803" y2="31.2442" gradientUnits="userSpaceOnUse">
<stop stop-color="white"/>
<stop offset="1" stop-color="#FF6392"/>
</linearGradient>
<clipPath id="clip0_14_8969">
<rect width="31.7641" height="32" fill="white"/>
</clipPath>
</defs>
</svg>
