<svg width="92" height="73" viewBox="0 0 92 73" fill="none" xmlns="http://www.w3.org/2000/svg">
<path d="M87.4332 54.0148C80.2116 63.3238 61.1756 58.714 49.0039 63.3238C33.3318 69.2593 18.9401 77.8942 8.51119 69.5296C-6.9637 57.1178 19.8595 49.8464 0 32.3794C0 14.8138 20.8911 16.2311 39.461 3.85052C59.594 -9.57214 63.705 15.7138 76.0849 24.5368C92.0757 24.5368 96.322 47.1784 87.4332 54.0148Z" fill="white" fill-opacity="0.25"/>
<path d="M45.5847 56.36C44.9811 56.3591 44.4141 56.1223 43.9894 55.6941C43.5648 55.2659 43.3324 54.6979 43.3351 54.0952V51.3337H37.7151C36.4679 51.3337 35.4913 50.3278 35.4913 49.0441C35.4913 47.7826 36.4892 46.757 37.7151 46.757H43.3324V44.8555H37.7151C36.4679 44.8555 35.4913 43.8496 35.4913 42.5658C35.4913 41.3044 36.4892 40.2779 37.7151 40.2779H41.4398L37.3875 35.3594C37.0055 34.8965 36.8239 34.3116 36.8756 33.7125C36.9699 32.5401 37.9626 31.6222 39.1386 31.6222C39.1946 31.6222 39.2516 31.624 39.3086 31.6285C39.9193 31.6765 40.4748 31.9721 40.8389 32.4395L45.5847 38.1912L50.3252 32.4288C50.7035 31.9676 51.2626 31.6739 51.8582 31.6249C51.9196 31.6196 51.9819 31.6169 52.0433 31.6169C52.581 31.6169 53.1 31.8118 53.5051 32.1662C54.4407 32.9745 54.56 34.3713 53.7739 35.3416L49.7074 40.2771H53.4437C54.6624 40.2771 55.6532 41.3035 55.6532 42.5649C55.6532 43.8273 54.6615 44.8546 53.4437 44.8546H47.8397V46.7535H53.4579C54.6766 46.7535 55.6675 47.7808 55.6675 49.0432C55.6675 50.3055 54.6757 51.3328 53.4579 51.3328H47.8397V54.097C47.8397 55.3656 46.8497 56.3591 45.5865 56.3591H45.5847V56.36Z" fill="white"/>
<path d="M58.3029 64C57.8498 64 57.4074 63.9893 56.9792 63.9786L56.8234 63.9751H56.778L56.5563 63.9697C56.1166 63.9581 55.7008 63.9483 55.2895 63.9483H35.9225C35.4285 63.9483 34.8961 63.9626 34.4261 63.9759C33.9569 63.9857 33.4219 63.9973 32.8655 63.9973C29.228 63.9973 25.1525 63.513 22.4996 59.9218C20.9577 57.8921 20.5794 55.2659 21.483 52.8908C22.0447 51.3391 23.024 50.1391 23.908 49.1687L23.9694 49.102L24.005 49.0183C24.1484 48.6818 24.5846 47.3972 24.1964 44.974C22.9278 36.9263 25.084 31.592 27.1155 28.5349C29.7764 24.5458 33.8278 21.8707 37.4404 21.7176H37.4635C37.8098 21.7042 38.6466 21.6971 39.9526 21.6971C41.6539 21.6971 43.81 21.7087 45.3848 21.7167L45.5789 21.7176H46.2501L47.6825 21.7113C48.9778 21.7051 50.2018 21.6998 51.2274 21.6998C52.5708 21.6998 53.3613 21.7095 53.7156 21.7309L53.7254 21.7318C56.4646 21.844 60.8116 23.6965 64.0485 28.5483C66.0747 31.5884 68.2255 36.9085 66.9649 44.9909C66.5972 47.3162 66.9783 48.5874 67.159 49.0254L67.1937 49.11L67.2542 49.1776C68.1801 50.2121 69.1139 51.3792 69.681 52.9024C70.5712 55.2624 70.2107 57.8805 68.7151 59.9094L68.6893 59.945L68.6759 59.9717C66.0355 63.521 61.952 64 58.3029 64ZM40.2669 25.5108C38.8656 25.5108 37.9825 25.518 37.6425 25.5313C36.2786 25.5901 33.0177 26.7313 30.4307 30.6252C28.7686 33.109 27.0149 37.5183 28.1063 44.4131C28.6912 48.1565 27.8731 50.6171 26.9944 51.5857C26.3285 52.3139 25.5852 53.1783 25.2104 54.1959C24.7448 55.4333 24.9139 56.6191 25.7143 57.7158C27.2392 59.783 29.6865 60.1987 33.1423 60.1987C33.4984 60.1987 33.8893 60.1942 34.3709 60.1862L34.3896 60.1853C34.8454 60.1613 35.3884 60.1471 35.9208 60.1471H55.3011C55.7622 60.1471 56.2127 60.1577 56.7353 60.1702L56.9017 60.1738H56.9471C57.3442 60.1845 57.8365 60.1969 58.3163 60.1969C61.5523 60.1969 64.0183 59.7776 65.5343 57.7301L65.5396 57.723C66.2963 56.6645 66.4744 55.4823 66.0569 54.2982V54.2858L66.0239 54.1968C65.6385 53.1498 64.8337 52.248 64.2452 51.5902C63.3541 50.6207 62.5316 48.1654 63.128 44.4149C64.2079 37.5058 62.4532 33.1027 60.7912 30.6243C58.5309 27.2432 55.4622 25.615 53.5678 25.5322C53.2616 25.518 52.512 25.5108 51.2772 25.5108C49.6909 25.5108 47.6745 25.5224 46.2964 25.5313H45.5922C43.486 25.518 41.6432 25.5108 40.2669 25.5108Z" fill="white"/>
<path d="M38.0072 25.1939C36.6042 25.1921 35.2795 24.5752 34.375 23.5025C33.0575 21.957 30.7741 18.8368 30.2684 15.2776C29.9114 12.8037 30.2622 10.8746 31.3117 9.54277C32.0827 8.56174 33.1884 8 34.3439 8C35.3436 8 36.2739 8.56174 37.2585 9.15641C38.4122 9.85613 38.9775 10.1223 39.3443 10.1366H39.3648C39.8971 10.1366 40.7313 9.84278 41.5387 9.5579L41.6402 9.5223C42.7833 9.12525 44.0795 8.67569 45.4095 8.67569C45.4655 8.67569 45.5412 8.67569 45.567 8.67925L45.6204 8.69082L45.6694 8.68993H45.7353C47.0786 8.68993 48.3793 9.14217 49.5268 9.54099L49.6167 9.57215C50.4232 9.85613 51.2583 10.1508 51.7906 10.1508H51.812C52.1806 10.1366 52.7432 9.86949 53.888 9.1662L53.9432 9.13326C54.9572 8.52524 55.8323 8.00089 56.8133 8.00089C57.9795 8.00089 59.0834 8.56174 59.8428 9.54099C60.8924 10.8728 61.2431 12.8064 60.8888 15.2928C60.3591 18.8617 58.0819 21.9775 56.7715 23.5158C55.8714 24.5832 54.5566 25.1939 53.1625 25.1957H38.0072V25.1939ZM36.8846 21.2867C37.0448 21.5324 37.3778 21.6962 37.7241 21.6962H53.4385C53.783 21.6962 54.1159 21.5324 54.2762 21.2867C55.1112 20.0884 57.0733 16.9887 57.4409 13.8622C57.5228 13.1215 57.5469 12.4939 57.5113 11.9927L57.4445 11.0392L56.6673 11.5956C56.5952 11.6473 56.5222 11.7007 56.4492 11.755C56.3273 11.8449 56.2115 11.9295 56.1091 11.998L56.0905 12.0114C54.9421 12.8598 53.5132 13.9156 52.0132 13.9156C50.887 13.9156 49.752 13.4366 48.6552 12.9746L48.3472 12.8446C47.4401 12.4601 46.5018 12.0621 45.7362 12.0621H45.5599C45.5261 12.0621 45.478 12.0621 45.4504 12.0603L45.3863 12.0399L45.2875 12.0452C44.5085 12.0862 43.5498 12.4921 42.623 12.8847L42.599 12.8945C41.4604 13.3903 40.2889 13.9005 39.1182 13.9005C37.6502 13.9005 36.2329 12.8651 35.0934 12.0327L35.0294 11.9865C34.9412 11.9259 34.8282 11.8422 34.708 11.7541C34.6377 11.7025 34.5655 11.6491 34.4961 11.5983L33.7172 11.0339L33.6495 11.9936C33.6237 12.363 33.6032 12.9604 33.7207 13.8844C34.0893 16.9824 36.0505 20.0867 36.8846 21.2867Z" fill="white"/>
</svg>
