<svg width="92" height="73" viewBox="0 0 92 73" fill="none" xmlns="http://www.w3.org/2000/svg">
<path d="M87.4332 54.0148C80.2116 63.3238 61.1756 58.714 49.0039 63.3238C33.3318 69.2593 18.9401 77.8942 8.51119 69.5296C-6.9637 57.1178 19.8595 49.8464 0 32.3794C0 14.8138 20.8911 16.2311 39.461 3.85052C59.594 -9.57214 63.705 15.7138 76.0849 24.5368C92.0757 24.5368 96.322 47.1784 87.4332 54.0148Z" fill="white" fill-opacity="0.25"/>
<path d="M21 48.8301V23.1699C21 22.3338 21.446 21.5621 22.1695 21.144L44.3927 8.31355C45.1161 7.89548 46.0082 7.89548 46.7317 8.31355L68.954 21.144C69.6775 21.5621 70.1236 22.3345 70.1236 23.1699V48.8301C70.1236 49.6662 69.6775 50.4379 68.954 50.856L46.7317 63.6864C46.0082 64.1045 45.1161 64.1045 44.3927 63.6864L22.1695 50.856C21.446 50.4379 21 49.6662 21 48.8301ZM45.5622 59.951L66.3042 47.9753V24.0247L45.5622 12.049L24.8194 24.0247V47.9761L45.5622 59.951Z" fill="white"/>
<path d="M49.9555 44.2772V27.7454H56.5219C58.2291 27.7454 59.6582 28.2505 60.7694 29.2475C61.8907 30.2531 62.4596 31.6161 62.4596 33.2993C62.4596 34.304 62.2257 35.2295 61.7656 36.0509C61.1447 37.142 60.2573 37.919 59.1266 38.362C58.2804 38.6884 57.1117 38.8539 55.6515 38.8539H53.5254V44.2772H49.9555V44.2772ZM56.2413 35.7789C57.0301 35.7789 57.6339 35.5334 58.0885 35.0267C58.5516 34.5107 58.777 33.8642 58.777 33.0514C58.777 32.3271 58.5322 31.8034 58.0278 31.449C57.4963 31.076 56.8342 30.8872 56.0603 30.8872H53.5246V35.7789H56.2413V35.7789ZM44.0146 44.2772V27.7454H47.5395V44.2772H44.0146V44.2772ZM33.4688 44.2772L33.4043 44.051C32.4967 40.858 31.6419 37.9183 30.8624 35.3135C30.0869 32.7227 29.3533 30.3269 28.6812 28.1938L28.5537 27.7897H32.4081L35.7379 39.5191C36.0751 38.2369 36.4536 36.8327 36.8693 35.3298C37.4086 33.3777 38.1057 30.8942 38.9403 27.9482L39.004 27.7221H42.7355L37.9658 44.2764H33.4688V44.2772Z" fill="white"/>
</svg>
