<svg width="92" height="73" viewBox="0 0 92 73" fill="none" xmlns="http://www.w3.org/2000/svg">
<path d="M87.4332 54.0148C80.2116 63.3238 61.1756 58.714 49.0039 63.3238C33.3318 69.2593 18.9401 77.8942 8.51119 69.5296C-6.96371 57.1177 19.8595 49.8464 0 32.3794C0 14.8138 20.8911 16.2311 39.461 3.85052C59.594 -9.57214 63.705 15.7138 76.0849 24.5368C92.0757 24.5368 96.322 47.1784 87.4332 54.0148Z" fill="white" fill-opacity="0.25"/>
<path d="M69.8406 54.1749L63.745 44.8422C65.486 43.817 66.5563 41.9488 66.5594 39.9285V22.4381C66.5594 20.4086 65.4666 18.5186 63.7101 17.505L48.561 8.76021C46.7975 7.7466 44.6291 7.7466 42.8656 8.76021L27.7165 17.505C25.956 18.5248 24.8711 20.4039 24.8672 22.4381V39.9285C24.8672 41.8503 25.849 43.651 27.4497 44.6964L21.2587 54.1757C20.9407 54.6642 20.9128 55.2878 21.192 55.7988C21.472 56.3099 22.0047 56.631 22.5895 56.631H31.5251L35.1941 63.1872C35.4725 63.6836 35.9944 63.9938 36.5629 64H36.5823C37.1445 64 37.6657 63.7045 37.9518 63.219L43.4534 53.8988C44.1746 54.2106 44.9463 54.3688 45.7179 54.3688C46.3981 54.3688 47.0743 54.2447 47.7188 54.0035L53.1575 63.219C53.4437 63.7014 53.9641 64 54.5263 64H54.5457C55.1142 63.9938 55.6353 63.682 55.9153 63.1872L59.5843 56.631H68.5199C69.1046 56.631 69.6382 56.3099 69.9174 55.7988C70.1966 55.287 70.1617 54.6642 69.8406 54.1749ZM36.6179 59.2259L33.8447 54.2672C33.5647 53.7646 33.035 53.4536 32.4596 53.4536H25.5217L30.1974 46.294L40.6739 52.3423L36.6179 59.2259ZM44.4538 50.8587L29.3047 42.1139C28.5261 41.6634 28.0453 40.832 28.0437 39.9316V22.4381C28.0437 21.5393 28.5261 20.7041 29.3047 20.2558L44.4538 11.511C44.8416 11.2853 45.2798 11.1744 45.7148 11.1744C46.1499 11.1744 46.585 11.2853 46.9758 11.511L62.1249 20.2558C62.9043 20.7064 63.3844 21.5377 63.3859 22.4381V39.9285C63.3859 40.8273 62.9028 41.6626 62.1249 42.1108L46.9766 50.8556C46.1964 51.3062 45.2356 51.307 44.4538 50.8587ZM58.6436 53.4536C58.0689 53.4536 57.5385 53.7654 57.2585 54.2672L54.4852 59.2259L50.5083 52.485L60.9911 46.4336L65.5783 53.4536H58.6436Z" fill="white"/>
<path d="M40.6512 40.6272C40.1394 40.6272 39.6314 40.4682 39.1963 40.1502C38.4301 39.5981 38.047 38.6566 38.2114 37.7267L38.9583 33.3784L35.798 30.2964C35.1194 29.6396 34.8759 28.6523 35.1722 27.7551C35.4599 26.8554 36.2377 26.1994 37.1738 26.0683L41.5384 25.4324L43.492 21.478C43.9115 20.6264 44.7623 20.096 45.7154 20.096C46.6654 20.096 47.5162 20.6264 47.9388 21.478L49.8924 25.4324L54.257 26.0683C55.1977 26.2048 55.9663 26.8531 56.2579 27.7551C56.5502 28.6601 56.3122 29.6326 55.6289 30.2964L52.4687 33.3745L53.2155 37.7229C53.3776 38.6597 52.9991 39.5872 52.2306 40.1464C51.469 40.7055 50.4539 40.7784 49.6194 40.334L45.7154 38.282L41.8114 40.334C41.443 40.5318 41.0452 40.6272 40.6512 40.6272ZM45.7146 35.0202C46.1117 35.0202 46.5088 35.1155 46.8678 35.3063L49.8443 36.8729L49.2758 33.5567C49.1393 32.7533 49.4061 31.9336 49.9878 31.362L52.3958 29.0145L49.0664 28.5313C48.2583 28.4142 47.5604 27.9071 47.199 27.175L45.7092 24.1574L44.2194 27.175C43.858 27.9071 43.1593 28.4142 42.3512 28.5313L39.0219 29.0145L41.4299 31.362C42.0146 31.9312 42.2806 32.7525 42.141 33.5567L41.5726 36.8729L44.5521 35.3063C44.9205 35.1155 45.3176 35.0202 45.7146 35.0202Z" fill="white"/>
</svg>
