<svg width="35" height="34" viewBox="0 0 35 34" fill="none" xmlns="http://www.w3.org/2000/svg">
<g clip-path="url(#clip0_14_8959)">
<path d="M28.783 29.8507C28.5754 29.6428 28.2934 29.5261 27.9995 29.5261C27.7053 29.5261 27.4237 29.6428 27.2157 29.8507C27.0078 30.0583 26.8911 30.3404 26.8911 30.6342V32.85C26.8911 33.246 27.1024 33.6115 27.4453 33.8096C27.7882 34.0074 28.2105 34.0074 28.5534 33.8096C28.8963 33.6115 29.1076 33.246 29.1076 32.85V30.6342C29.1076 30.3404 28.9906 30.0583 28.783 29.8507Z" fill="url(#paint0_linear_14_8959)"/>
<path d="M22.4619 23.9862C22.7558 23.9862 23.0378 24.1029 23.2454 24.3108C23.453 24.5184 23.57 24.8004 23.57 25.0943C23.57 27.542 25.5542 29.5262 28.002 29.5262C30.4497 29.5262 32.4339 27.542 32.4339 25.0943C32.4339 24.4823 32.9299 23.9862 33.5416 23.9862C34.1537 23.9862 34.6497 24.4823 34.6497 25.0943C34.6497 28.7658 31.6731 31.7424 28.0016 31.7424C24.3301 31.7424 21.3535 28.7661 21.3535 25.0943C21.3535 24.8004 21.4702 24.5184 21.6781 24.3108C21.8861 24.1029 22.1677 23.9862 22.4619 23.9862Z" fill="url(#paint1_linear_14_8959)"/>
<path d="M24.4009 22.6012C24.4009 20.6122 26.0131 19 28.002 19C29.9909 19 31.6032 20.6122 31.6032 22.6012V24.817C31.6032 26.8059 29.9909 28.4181 28.002 28.4181C26.0131 28.4181 24.4009 26.8059 24.4009 24.817V22.6012ZM28.002 21.2161C27.2375 21.2161 26.617 21.8366 26.617 22.6012V24.817C26.617 25.312 26.8811 25.7691 27.3095 26.0163C27.7383 26.2638 28.2661 26.2638 28.6945 26.0163C29.123 25.7688 29.387 25.3117 29.387 24.817V22.6012C29.387 21.8366 28.7666 21.2161 28.002 21.2161Z" fill="url(#paint2_linear_14_8959)"/>
<path d="M19.6943 26.226V26.1808C19.6943 23.4634 21.0465 21.0631 23.1169 19.6138L23.0975 19.5944C23.0586 19.5685 23.0198 19.5362 22.981 19.5103C22.9357 19.478 22.8839 19.4391 22.8387 19.4068C22.7998 19.3809 22.7675 19.355 22.7287 19.3292C22.6575 19.2774 22.5863 19.2321 22.5152 19.1803L22.3987 19.1027C22.3405 19.0639 22.2822 19.0251 22.2305 18.9927C22.1917 18.9668 22.1528 18.941 22.114 18.9216L21.9588 18.8245C21.9199 18.7986 21.8811 18.7792 21.8423 18.7533C21.7841 18.7145 21.7194 18.6822 21.6547 18.6433C21.6223 18.6239 21.59 18.6045 21.5512 18.5851C21.4735 18.5398 21.3894 18.4945 21.3118 18.4493C21.2729 18.4298 21.2406 18.4104 21.2018 18.391C21.1435 18.3587 21.0918 18.3328 21.0336 18.3004L20.9171 18.2422C20.8589 18.2099 20.7942 18.184 20.7359 18.1516C20.7036 18.1322 20.6712 18.1193 20.6324 18.0999C20.5419 18.0546 20.4513 18.0158 20.3607 17.9705C20.3283 17.9575 20.296 17.9381 20.2572 17.9252C20.1925 17.8993 20.1343 17.867 20.0696 17.8411C20.0307 17.8217 19.9919 17.8087 19.9531 17.7893C19.8949 17.7634 19.8302 17.7376 19.7655 17.7117C19.7266 17.6987 19.6878 17.6793 19.6555 17.6664C19.5584 17.6276 19.4679 17.5952 19.3708 17.5564C19.3449 17.5435 19.319 17.537 19.2932 17.5305C19.222 17.5047 19.1444 17.4788 19.0732 17.4529L18.9567 17.4141C18.892 17.3947 18.8273 17.3753 18.7691 17.3494L18.6526 17.3106C18.575 17.2847 18.4974 17.2653 18.4197 17.2394L18.3421 17.22C18.4262 17.1812 18.5038 17.1359 18.5815 17.0906C18.5879 17.0841 18.6009 17.0776 18.6074 17.0776C18.7691 16.9871 18.9244 16.89 19.0797 16.7865C19.0861 16.78 19.0926 16.7736 19.1055 16.7736C19.1767 16.7283 19.2543 16.6765 19.3255 16.6247C19.332 16.6247 19.332 16.6183 19.3385 16.6183C19.4161 16.5665 19.4937 16.5083 19.5714 16.4501H19.5778C19.649 16.3983 19.7202 16.3401 19.7913 16.2883C19.7978 16.2818 19.8108 16.2754 19.8172 16.2689C19.9596 16.1524 20.0954 16.036 20.2313 15.9131C20.2378 15.9066 20.2507 15.9001 20.2572 15.8872C20.3219 15.829 20.3801 15.7707 20.4383 15.7125C20.4448 15.706 20.4513 15.706 20.4513 15.6996C20.516 15.6349 20.5807 15.5702 20.6454 15.499L20.6583 15.486C20.7165 15.4214 20.7748 15.3631 20.833 15.2984C20.8395 15.2855 20.8524 15.279 20.8589 15.2661C20.9753 15.1302 21.0918 14.9943 21.2018 14.852C21.2082 14.8391 21.2212 14.8261 21.2277 14.8132C21.2794 14.7485 21.3247 14.6838 21.37 14.6191C21.3765 14.6126 21.3829 14.5997 21.3894 14.5932C21.4412 14.522 21.4929 14.4444 21.5447 14.3668C21.5512 14.3603 21.5576 14.3474 21.5641 14.3409C21.6094 14.2762 21.6482 14.205 21.6935 14.1403C21.7 14.1274 21.7129 14.108 21.7194 14.095C21.8099 13.9462 21.9005 13.7909 21.9846 13.6292C21.9911 13.6098 22.004 13.5968 22.0105 13.5774C22.0429 13.5127 22.0817 13.4416 22.114 13.3769L22.1334 13.3381C22.1723 13.2604 22.2111 13.1763 22.2434 13.0987L22.2628 13.0598C22.2952 12.9887 22.3211 12.924 22.3534 12.8528C22.3599 12.8334 22.3728 12.814 22.3793 12.7946C22.444 12.6328 22.5087 12.4646 22.5605 12.2964C22.5669 12.277 22.5734 12.2511 22.5799 12.2317C22.5993 12.1605 22.6252 12.0958 22.6446 12.0247C22.651 12.0053 22.6575 11.9923 22.6575 11.9729C22.6834 11.8888 22.7028 11.8047 22.7287 11.7141C22.7351 11.6947 22.7351 11.6818 22.7416 11.6624C22.761 11.5912 22.774 11.52 22.7934 11.4488C22.7998 11.423 22.8063 11.4036 22.8063 11.3777C22.8257 11.2871 22.8451 11.203 22.8581 11.1124C22.871 11.0218 22.8904 10.9377 22.9034 10.8471C22.9098 10.8213 22.9098 10.7954 22.9163 10.776C22.9292 10.7048 22.9357 10.6336 22.9422 10.5625C22.9422 10.5431 22.9486 10.5237 22.9486 10.5042C22.9551 10.4137 22.9681 10.3231 22.9745 10.2325C22.9745 10.2131 22.9745 10.1937 22.981 10.1743C22.9875 10.1031 22.9875 10.0255 22.9939 9.95431V9.87667C22.9939 9.78609 23.0004 9.68904 23.0004 9.59846C23.0004 4.84958 19.1508 1 14.3955 1C9.64011 1 5.79701 4.84958 5.79701 9.59846C5.79701 9.68904 5.79701 9.78609 5.80348 9.87667V9.95431C5.80348 10.0255 5.80995 10.1031 5.81642 10.1743C5.81642 10.1937 5.81642 10.2131 5.82289 10.2325C5.82936 10.3231 5.83583 10.4137 5.84877 10.5042C5.84877 10.5237 5.85524 10.5431 5.85524 10.5625C5.86171 10.6336 5.87465 10.7048 5.88112 10.776C5.88759 10.8019 5.88759 10.8277 5.89406 10.8471C5.907 10.9377 5.91994 11.0283 5.93934 11.1124C5.95228 11.203 5.97169 11.2871 5.9911 11.3777C5.99757 11.4036 6.00404 11.423 6.00404 11.4488C6.01698 11.52 6.03639 11.5912 6.0558 11.6624C6.06227 11.6818 6.06227 11.6947 6.06874 11.7141C6.08815 11.7982 6.11403 11.8888 6.13991 11.9729C6.14638 11.9923 6.15285 12.0053 6.15285 12.0247C6.17226 12.0958 6.19167 12.167 6.21755 12.2317C6.22402 12.2511 6.23049 12.277 6.23696 12.2964C6.29519 12.4646 6.35342 12.6328 6.41812 12.7946C6.42459 12.814 6.43753 12.8334 6.44399 12.8528C6.46987 12.924 6.50222 12.9887 6.53457 13.0598L6.55398 13.0987C6.5928 13.1828 6.62515 13.2604 6.66397 13.3381L6.68338 13.3769C6.71573 13.4416 6.74808 13.5127 6.7869 13.5774C6.79337 13.5968 6.80631 13.6098 6.81278 13.6292C6.89689 13.7845 6.98746 13.9397 7.07804 14.0886C7.09098 14.1015 7.09745 14.1209 7.11039 14.1338C7.15568 14.1985 7.1945 14.2697 7.23979 14.3344C7.24626 14.3409 7.25273 14.3538 7.2592 14.3603C7.31096 14.4379 7.36272 14.5091 7.41448 14.5803C7.42095 14.5932 7.42742 14.5997 7.43389 14.6061C7.47917 14.6708 7.52446 14.7355 7.57622 14.7938C7.58269 14.8067 7.59563 14.8197 7.6021 14.8326C7.71209 14.9749 7.82855 15.1108 7.94501 15.2467L7.97736 15.279C8.03558 15.3437 8.08734 15.4019 8.14557 15.4666L8.15851 15.4796C8.22321 15.5443 8.28791 15.6154 8.35261 15.6801L8.37202 15.6996C8.43025 15.7578 8.48847 15.816 8.55317 15.8742L8.57905 15.9001C8.71492 16.0231 8.85079 16.1395 8.99312 16.256C9.00606 16.2624 9.01254 16.2689 9.02547 16.2818C9.09664 16.3401 9.16134 16.3918 9.23251 16.4436C9.31015 16.5018 9.38132 16.5536 9.45896 16.6118C9.46543 16.6183 9.4719 16.6183 9.4719 16.6247C9.54307 16.6765 9.61423 16.7218 9.6854 16.7671C9.69187 16.7736 9.70481 16.78 9.71128 16.7865C9.86656 16.89 10.0218 16.9806 10.1836 17.0712C10.1965 17.0776 10.203 17.0841 10.2159 17.0906C10.2936 17.1359 10.3777 17.1812 10.4553 17.22C10.4424 17.2264 10.4294 17.2264 10.4165 17.2329C10.3259 17.2588 10.2353 17.2847 10.1512 17.3106C10.1189 17.3235 10.0801 17.33 10.0477 17.3429C9.97655 17.3623 9.91185 17.3882 9.84068 17.4076C9.80186 17.4205 9.76951 17.4335 9.73069 17.4464C9.65305 17.4723 9.57541 17.4982 9.49778 17.5305C9.47837 17.537 9.45249 17.5435 9.43308 17.5564C9.33603 17.5952 9.23898 17.6276 9.14193 17.6664L9.04488 17.7052C8.98018 17.7311 8.90902 17.757 8.84432 17.7893C8.8055 17.8023 8.77315 17.8217 8.73433 17.8346C8.66963 17.8605 8.59846 17.8928 8.53376 17.9252C8.50141 17.9381 8.47554 17.9511 8.44319 17.964C8.35261 18.0093 8.25556 18.0481 8.16498 18.0934C8.1391 18.1063 8.10675 18.1193 8.08087 18.1322C8.01617 18.1646 7.94501 18.1969 7.88031 18.2293C7.84149 18.2487 7.80914 18.2681 7.77679 18.281C7.71856 18.3134 7.65386 18.3457 7.59563 18.3781C7.56328 18.3975 7.53093 18.4169 7.49858 18.4298C7.41448 18.4751 7.33037 18.5269 7.23979 18.5722C7.22038 18.5851 7.1945 18.5981 7.17509 18.611C7.10392 18.6498 7.03275 18.6951 6.96159 18.7339C6.92924 18.7533 6.89042 18.7792 6.85807 18.7986C6.79984 18.831 6.74808 18.8698 6.68985 18.9021C6.6575 18.9216 6.61868 18.9474 6.58633 18.9668C6.52163 19.0057 6.4634 19.0445 6.40518 19.0898C6.3793 19.1092 6.35342 19.1221 6.32754 19.1415C6.24343 19.1998 6.16579 19.2515 6.08168 19.3097C6.04933 19.3356 6.01698 19.355 5.97816 19.3809C5.9264 19.4197 5.87465 19.4521 5.82289 19.4909C5.78407 19.5168 5.75172 19.5427 5.7129 19.5685C5.66114 19.6074 5.60938 19.6462 5.56409 19.685L5.46704 19.7626C5.38941 19.8209 5.31824 19.8856 5.2406 19.9438C5.20825 19.9697 5.1759 19.9956 5.14355 20.0279C5.09826 20.0667 5.0465 20.1055 5.00121 20.1444C4.96239 20.1767 4.93004 20.2091 4.89122 20.2349C4.84594 20.2738 4.80712 20.3126 4.76183 20.3514C4.72948 20.3837 4.69066 20.4161 4.65831 20.4484C4.60655 20.4937 4.55479 20.5455 4.50303 20.5908C4.45774 20.6361 4.40598 20.6814 4.3607 20.7266C4.31541 20.7655 4.27659 20.8108 4.2313 20.8496L4.12131 20.9596C4.08249 20.9984 4.05014 21.0372 4.01132 21.0696C3.9725 21.1084 3.94015 21.1472 3.90133 21.1795C3.86251 21.2184 3.83017 21.2572 3.79135 21.296C3.73312 21.3542 3.68136 21.4189 3.62313 21.4772C3.58431 21.5224 3.54549 21.5613 3.50667 21.6066C3.46785 21.6454 3.4355 21.6907 3.39668 21.7295C3.36433 21.7683 3.33199 21.8006 3.30611 21.8395C3.26729 21.8848 3.23494 21.9236 3.19612 21.9689C3.17024 22.0012 3.13789 22.04 3.11201 22.0789C3.07319 22.1241 3.04084 22.1694 3.00849 22.2147L2.95026 22.2924C2.87909 22.3829 2.8144 22.4735 2.74323 22.5706C2.71735 22.6029 2.69147 22.6353 2.66559 22.6741C2.63324 22.7258 2.59442 22.7711 2.56207 22.8229C2.53619 22.8552 2.51678 22.8876 2.4909 22.9264C2.45855 22.9782 2.41973 23.0299 2.38738 23.0817C2.36797 23.1076 2.35503 23.1334 2.33562 23.1593C2.26446 23.2628 2.19976 23.3664 2.13506 23.4699C2.11565 23.4958 2.09624 23.5281 2.0833 23.554C2.05095 23.6057 2.0186 23.664 1.98625 23.7222L1.92802 23.8193C1.89567 23.8775 1.86332 23.9292 1.83097 23.9875C1.81803 24.0133 1.80509 24.0392 1.78569 24.0651C1.71452 24.188 1.64982 24.3174 1.57865 24.4404C1.57218 24.4533 1.56571 24.4662 1.55924 24.4727C1.52689 24.5309 1.49454 24.5956 1.46866 24.6603C1.45572 24.6862 1.44278 24.7186 1.42337 24.7444C1.39102 24.8027 1.36514 24.8674 1.33279 24.9321L1.29397 25.0097C1.19693 25.2167 1.10635 25.4302 1.01577 25.6502C1.00283 25.6761 0.996361 25.6955 0.983421 25.7214C0.957541 25.7861 0.931662 25.8573 0.905782 25.922C0.892843 25.9478 0.886373 25.9737 0.873433 25.9996C0.789325 26.226 0.705216 26.4525 0.634048 26.6854C0.627578 26.7048 0.621108 26.7178 0.621108 26.7372C0.601698 26.8083 0.575819 26.8795 0.556409 26.9507L0.537 27.0283C0.51759 27.0995 0.49171 27.1706 0.472301 27.2418C0.465831 27.2548 0.465831 27.2677 0.459361 27.2806C0.394662 27.52 0.336433 27.7594 0.278205 28.0053L0.258795 28.0829C0.245855 28.1541 0.226446 28.2317 0.213506 28.3029C0.207036 28.3223 0.207036 28.3482 0.200566 28.3676C0.155277 28.607 0.116458 28.8528 0.0776385 29.0987C0.0776385 29.1245 0.0711686 29.144 0.0711686 29.1698C0.0582289 29.2475 0.051759 29.3186 0.0452891 29.3963V29.4028C0.0194096 29.5192 0 29.6357 0 29.7586L0.0129397 29.8945C0.0129397 29.9915 0.0258795 30.0886 0.0388192 30.1791C0.161747 31.0396 0.899313 31.6996 1.79863 31.6996H21.8164C20.4901 30.2697 19.6814 28.3546 19.6814 26.2519C19.6943 26.2649 19.6943 26.2455 19.6943 26.226Z" fill="url(#paint3_linear_14_8959)"/>
</g>
<defs>
<linearGradient id="paint0_linear_14_8959" x1="26.9267" y1="29.5699" x2="26.9267" y2="33.8595" gradientUnits="userSpaceOnUse">
<stop stop-color="white"/>
<stop offset="1" stop-color="#FF6392"/>
</linearGradient>
<linearGradient id="paint1_linear_14_8959" x1="21.567" y1="24.0629" x2="21.567" y2="31.57" gradientUnits="userSpaceOnUse">
<stop stop-color="white"/>
<stop offset="1" stop-color="#FF6392"/>
</linearGradient>
<linearGradient id="paint2_linear_14_8959" x1="24.5165" y1="19.0931" x2="24.5165" y2="28.2087" gradientUnits="userSpaceOnUse">
<stop stop-color="white"/>
<stop offset="1" stop-color="#FF6392"/>
</linearGradient>
<linearGradient id="paint3_linear_14_8959" x1="0.371212" y1="1.30349" x2="0.371212" y2="31.0171" gradientUnits="userSpaceOnUse">
<stop stop-color="white"/>
<stop offset="1" stop-color="#FF6392"/>
</linearGradient>
<clipPath id="clip0_14_8959">
<rect width="34.6593" height="34" fill="white"/>
</clipPath>
</defs>
</svg>
