<svg width="34" height="34" viewBox="0 0 34 34" fill="none" xmlns="http://www.w3.org/2000/svg">
<g clip-path="url(#clip0_14_8955)">
<path d="M33.2403 11.6235L22.327 0.710175C21.4195 -0.197337 19.9203 -0.197337 18.9917 0.710175C18.0842 1.61769 18.0842 3.11629 18.9917 4.04493L21.2711 6.32479L15.5719 12.0451L13.3977 9.87084C11.8568 8.32998 9.34508 8.32998 7.80422 9.87084L3.37127 14.3038C-1.12506 18.8001 -1.12506 26.0819 3.37127 30.5782C7.8676 35.0745 15.1499 35.0745 19.6457 30.5782L24.0786 26.1452C25.6195 24.6044 25.6195 22.0926 24.0786 20.5518L21.9255 18.3987L27.6458 12.6784L29.9257 14.9583C30.8332 15.8658 32.3318 15.8658 33.2604 14.9583C34.169 14.0296 34.169 12.531 33.2403 11.6235ZM16.1847 19.6865L7.97376 27.8979C7.6996 28.1721 7.36154 28.2988 7.00287 28.2988C6.64419 28.2988 6.30613 28.1721 6.03197 27.8979C5.50426 27.3702 5.50426 26.5049 6.03197 25.9561L14.2434 17.7452C14.7711 17.2175 15.6363 17.2175 16.1852 17.7452C16.7335 18.2935 16.7335 19.1588 16.1847 19.6865Z" fill="url(#paint0_linear_14_8955)"/>
</g>
<defs>
<linearGradient id="paint0_linear_14_8955" x1="0.544039" y1="0.364877" x2="0.544039" y2="33.1964" gradientUnits="userSpaceOnUse">
<stop stop-color="white"/>
<stop offset="1" stop-color="#FF6392"/>
</linearGradient>
<clipPath id="clip0_14_8955">
<rect width="33.9505" height="34" fill="white"/>
</clipPath>
</defs>
</svg>
