<svg width="35" height="32" viewBox="0 0 35 32" fill="none" xmlns="http://www.w3.org/2000/svg">
<path d="M19.6943 25.226V25.1808C19.6943 22.4634 21.0465 20.0631 23.1169 18.6138L23.0975 18.5944C23.0586 18.5685 23.0198 18.5362 22.981 18.5103C22.9357 18.478 22.8839 18.4391 22.8387 18.4068C22.7998 18.3809 22.7675 18.355 22.7287 18.3292C22.6575 18.2774 22.5863 18.2321 22.5152 18.1803L22.3987 18.1027C22.3405 18.0639 22.2822 18.0251 22.2305 17.9927C22.1917 17.9668 22.1528 17.941 22.114 17.9216L21.9588 17.8245C21.9199 17.7986 21.8811 17.7792 21.8423 17.7533C21.7841 17.7145 21.7194 17.6822 21.6547 17.6433C21.6223 17.6239 21.59 17.6045 21.5512 17.5851C21.4735 17.5398 21.3894 17.4945 21.3118 17.4493C21.2729 17.4298 21.2406 17.4104 21.2018 17.391C21.1435 17.3587 21.0918 17.3328 21.0336 17.3004L20.9171 17.2422C20.8589 17.2099 20.7942 17.184 20.7359 17.1516C20.7036 17.1322 20.6712 17.1193 20.6324 17.0999C20.5419 17.0546 20.4513 17.0158 20.3607 16.9705C20.3283 16.9575 20.296 16.9381 20.2572 16.9252C20.1925 16.8993 20.1342 16.867 20.0696 16.8411C20.0307 16.8217 19.9919 16.8087 19.9531 16.7893C19.8949 16.7634 19.8302 16.7376 19.7655 16.7117C19.7266 16.6987 19.6878 16.6793 19.6555 16.6664C19.5584 16.6276 19.4679 16.5952 19.3708 16.5564C19.3449 16.5435 19.319 16.537 19.2932 16.5305C19.222 16.5047 19.1444 16.4788 19.0732 16.4529L18.9567 16.4141C18.892 16.3947 18.8273 16.3753 18.7691 16.3494L18.6526 16.3106C18.575 16.2847 18.4974 16.2653 18.4197 16.2394L18.3421 16.22C18.4262 16.1812 18.5038 16.1359 18.5815 16.0906C18.5879 16.0841 18.6009 16.0776 18.6074 16.0776C18.7691 15.9871 18.9244 15.89 19.0797 15.7865C19.0861 15.78 19.0926 15.7736 19.1055 15.7736C19.1767 15.7283 19.2543 15.6765 19.3255 15.6247C19.332 15.6247 19.332 15.6183 19.3385 15.6183C19.4161 15.5665 19.4937 15.5083 19.5714 15.4501H19.5778C19.649 15.3983 19.7202 15.3401 19.7913 15.2883C19.7978 15.2818 19.8108 15.2754 19.8172 15.2689C19.9596 15.1524 20.0954 15.036 20.2313 14.9131C20.2378 14.9066 20.2507 14.9001 20.2572 14.8872C20.3219 14.829 20.3801 14.7707 20.4383 14.7125C20.4448 14.706 20.4513 14.706 20.4513 14.6996C20.516 14.6349 20.5807 14.5702 20.6454 14.499L20.6583 14.486C20.7165 14.4214 20.7748 14.3631 20.833 14.2984C20.8395 14.2855 20.8524 14.279 20.8589 14.2661C20.9753 14.1302 21.0918 13.9943 21.2018 13.852C21.2082 13.8391 21.2212 13.8261 21.2277 13.8132C21.2794 13.7485 21.3247 13.6838 21.37 13.6191C21.3765 13.6126 21.3829 13.5997 21.3894 13.5932C21.4412 13.522 21.4929 13.4444 21.5447 13.3668C21.5512 13.3603 21.5576 13.3474 21.5641 13.3409C21.6094 13.2762 21.6482 13.205 21.6935 13.1403C21.7 13.1274 21.7129 13.108 21.7194 13.095C21.8099 12.9462 21.9005 12.7909 21.9846 12.6292C21.9911 12.6098 22.004 12.5968 22.0105 12.5774C22.0429 12.5127 22.0817 12.4416 22.114 12.3769L22.1334 12.3381C22.1723 12.2604 22.2111 12.1763 22.2434 12.0987L22.2628 12.0598C22.2952 11.9887 22.3211 11.924 22.3534 11.8528C22.3599 11.8334 22.3728 11.814 22.3793 11.7946C22.444 11.6328 22.5087 11.4646 22.5605 11.2964C22.5669 11.277 22.5734 11.2511 22.5799 11.2317C22.5993 11.1605 22.6252 11.0958 22.6446 11.0247C22.651 11.0053 22.6575 10.9923 22.6575 10.9729C22.6834 10.8888 22.7028 10.8047 22.7287 10.7141C22.7351 10.6947 22.7351 10.6818 22.7416 10.6624C22.761 10.5912 22.774 10.52 22.7934 10.4488C22.7998 10.423 22.8063 10.4036 22.8063 10.3777C22.8257 10.2871 22.8451 10.203 22.8581 10.1124C22.871 10.0218 22.8904 9.93773 22.9034 9.84715C22.9098 9.82127 22.9098 9.79539 22.9163 9.77598C22.9292 9.70481 22.9357 9.63364 22.9422 9.56248C22.9422 9.54307 22.9486 9.52366 22.9486 9.50425C22.9551 9.41367 22.9681 9.32309 22.9745 9.23251C22.9745 9.2131 22.9745 9.19369 22.981 9.17428C22.9875 9.10311 22.9875 9.02548 22.9939 8.95431V8.87667C22.9939 8.78609 23.0004 8.68904 23.0004 8.59846C23.0004 3.84958 19.1508 0 14.3955 0C9.64011 0 5.79701 3.84958 5.79701 8.59846C5.79701 8.68904 5.79701 8.78609 5.80348 8.87667V8.95431C5.80348 9.02548 5.80995 9.10311 5.81642 9.17428C5.81642 9.19369 5.81642 9.2131 5.82289 9.23251C5.82936 9.32309 5.83583 9.41367 5.84877 9.50425C5.84877 9.52366 5.85524 9.54307 5.85524 9.56248C5.86171 9.63364 5.87465 9.70481 5.88112 9.77598C5.88759 9.80186 5.88759 9.82774 5.89406 9.84715C5.907 9.93773 5.91994 10.0283 5.93934 10.1124C5.95228 10.203 5.97169 10.2871 5.9911 10.3777C5.99757 10.4036 6.00404 10.423 6.00404 10.4488C6.01698 10.52 6.03639 10.5912 6.0558 10.6624C6.06227 10.6818 6.06227 10.6947 6.06874 10.7141C6.08815 10.7982 6.11403 10.8888 6.13991 10.9729C6.14638 10.9923 6.15285 11.0053 6.15285 11.0247C6.17226 11.0958 6.19167 11.167 6.21755 11.2317C6.22402 11.2511 6.23049 11.277 6.23696 11.2964C6.29519 11.4646 6.35342 11.6328 6.41812 11.7946C6.42459 11.814 6.43753 11.8334 6.44399 11.8528C6.46987 11.924 6.50222 11.9887 6.53457 12.0598L6.55398 12.0987C6.5928 12.1828 6.62515 12.2604 6.66397 12.3381L6.68338 12.3769C6.71573 12.4416 6.74808 12.5127 6.7869 12.5774C6.79337 12.5968 6.80631 12.6098 6.81278 12.6292C6.89689 12.7845 6.98746 12.9397 7.07804 13.0886C7.09098 13.1015 7.09745 13.1209 7.11039 13.1338C7.15568 13.1985 7.1945 13.2697 7.23979 13.3344C7.24626 13.3409 7.25273 13.3538 7.2592 13.3603C7.31096 13.4379 7.36272 13.5091 7.41448 13.5803C7.42095 13.5932 7.42742 13.5997 7.43389 13.6061C7.47917 13.6708 7.52446 13.7355 7.57622 13.7938C7.58269 13.8067 7.59563 13.8197 7.6021 13.8326C7.71209 13.9749 7.82855 14.1108 7.94501 14.2467L7.97736 14.279C8.03558 14.3437 8.08734 14.4019 8.14557 14.4666L8.15851 14.4796C8.22321 14.5443 8.28791 14.6154 8.35261 14.6801L8.37202 14.6996C8.43025 14.7578 8.48848 14.816 8.55317 14.8742L8.57905 14.9001C8.71492 15.0231 8.85079 15.1395 8.99312 15.256C9.00607 15.2624 9.01254 15.2689 9.02547 15.2818C9.09664 15.3401 9.16134 15.3918 9.23251 15.4436C9.31015 15.5018 9.38132 15.5536 9.45896 15.6118C9.46543 15.6183 9.4719 15.6183 9.4719 15.6247C9.54307 15.6765 9.61423 15.7218 9.6854 15.7671C9.69187 15.7736 9.70481 15.78 9.71128 15.7865C9.86656 15.89 10.0218 15.9806 10.1836 16.0712C10.1965 16.0776 10.203 16.0841 10.2159 16.0906C10.2936 16.1359 10.3777 16.1812 10.4553 16.22C10.4424 16.2264 10.4294 16.2264 10.4165 16.2329C10.3259 16.2588 10.2353 16.2847 10.1512 16.3106C10.1189 16.3235 10.0801 16.33 10.0477 16.3429C9.97655 16.3623 9.91185 16.3882 9.84068 16.4076C9.80186 16.4205 9.76951 16.4335 9.73069 16.4464C9.65305 16.4723 9.57541 16.4982 9.49778 16.5305C9.47837 16.537 9.45249 16.5435 9.43308 16.5564C9.33603 16.5952 9.23898 16.6276 9.14193 16.6664L9.04488 16.7052C8.98019 16.7311 8.90902 16.757 8.84432 16.7893C8.8055 16.8023 8.77315 16.8217 8.73433 16.8346C8.66963 16.8605 8.59846 16.8928 8.53376 16.9252C8.50141 16.9381 8.47554 16.9511 8.44319 16.964C8.35261 17.0093 8.25556 17.0481 8.16498 17.0934C8.1391 17.1063 8.10675 17.1193 8.08087 17.1322C8.01617 17.1646 7.94501 17.1969 7.88031 17.2293C7.84149 17.2487 7.80914 17.2681 7.77679 17.281C7.71856 17.3134 7.65386 17.3457 7.59563 17.3781C7.56328 17.3975 7.53093 17.4169 7.49858 17.4298C7.41448 17.4751 7.33037 17.5269 7.23979 17.5722C7.22038 17.5851 7.1945 17.5981 7.17509 17.611C7.10392 17.6498 7.03275 17.6951 6.96159 17.7339C6.92924 17.7533 6.89042 17.7792 6.85807 17.7986C6.79984 17.831 6.74808 17.8698 6.68985 17.9021C6.6575 17.9216 6.61868 17.9474 6.58633 17.9668C6.52163 18.0057 6.4634 18.0445 6.40518 18.0898C6.3793 18.1092 6.35342 18.1221 6.32754 18.1415C6.24343 18.1998 6.16579 18.2515 6.08168 18.3097C6.04933 18.3356 6.01698 18.355 5.97816 18.3809C5.9264 18.4197 5.87465 18.4521 5.82289 18.4909C5.78407 18.5168 5.75172 18.5427 5.7129 18.5685C5.66114 18.6074 5.60938 18.6462 5.56409 18.685L5.46704 18.7626C5.38941 18.8209 5.31824 18.8856 5.2406 18.9438C5.20825 18.9697 5.1759 18.9956 5.14355 19.0279C5.09826 19.0667 5.0465 19.1055 5.00121 19.1444C4.96239 19.1767 4.93004 19.2091 4.89122 19.2349C4.84594 19.2738 4.80712 19.3126 4.76183 19.3514C4.72948 19.3837 4.69066 19.4161 4.65831 19.4484C4.60655 19.4937 4.55479 19.5455 4.50303 19.5908C4.45774 19.6361 4.40598 19.6814 4.3607 19.7266C4.31541 19.7655 4.27659 19.8108 4.2313 19.8496L4.12131 19.9596C4.08249 19.9984 4.05014 20.0372 4.01132 20.0696C3.9725 20.1084 3.94015 20.1472 3.90133 20.1795C3.86252 20.2184 3.83017 20.2572 3.79135 20.296C3.73312 20.3542 3.68136 20.4189 3.62313 20.4772C3.58431 20.5224 3.54549 20.5613 3.50667 20.6066C3.46785 20.6454 3.4355 20.6907 3.39668 20.7295C3.36433 20.7683 3.33199 20.8006 3.30611 20.8395C3.26729 20.8848 3.23494 20.9236 3.19612 20.9689C3.17024 21.0012 3.13789 21.04 3.11201 21.0789C3.07319 21.1241 3.04084 21.1694 3.00849 21.2147L2.95026 21.2924C2.87909 21.3829 2.8144 21.4735 2.74323 21.5706C2.71735 21.6029 2.69147 21.6353 2.66559 21.6741C2.63324 21.7258 2.59442 21.7711 2.56207 21.8229C2.53619 21.8552 2.51678 21.8876 2.4909 21.9264C2.45855 21.9782 2.41973 22.0299 2.38738 22.0817C2.36797 22.1076 2.35503 22.1334 2.33562 22.1593C2.26446 22.2628 2.19976 22.3664 2.13506 22.4699C2.11565 22.4958 2.09624 22.5281 2.0833 22.554C2.05095 22.6057 2.0186 22.664 1.98625 22.7222L1.92802 22.8193C1.89567 22.8775 1.86332 22.9292 1.83097 22.9875C1.81803 23.0133 1.80509 23.0392 1.78569 23.0651C1.71452 23.188 1.64982 23.3174 1.57865 23.4404C1.57218 23.4533 1.56571 23.4662 1.55924 23.4727C1.52689 23.5309 1.49454 23.5956 1.46866 23.6603C1.45572 23.6862 1.44278 23.7186 1.42337 23.7444C1.39102 23.8027 1.36514 23.8674 1.33279 23.9321L1.29397 24.0097C1.19693 24.2167 1.10635 24.4302 1.01577 24.6502C1.00283 24.6761 0.996361 24.6955 0.983421 24.7214C0.957541 24.7861 0.931662 24.8573 0.905782 24.922C0.892843 24.9478 0.886373 24.9737 0.873433 24.9996C0.789325 25.226 0.705216 25.4525 0.634048 25.6854C0.627578 25.7048 0.621108 25.7178 0.621108 25.7372C0.601698 25.8083 0.575819 25.8795 0.556409 25.9507L0.537 26.0283C0.51759 26.0995 0.49171 26.1706 0.472301 26.2418C0.465831 26.2548 0.465831 26.2677 0.459361 26.2806C0.394662 26.52 0.336433 26.7594 0.278205 27.0053L0.258795 27.0829C0.245855 27.1541 0.226446 27.2317 0.213506 27.3029C0.207036 27.3223 0.207036 27.3482 0.200566 27.3676C0.155277 27.607 0.116458 27.8528 0.0776385 28.0987C0.0776385 28.1245 0.0711686 28.144 0.0711686 28.1698C0.0582289 28.2475 0.051759 28.3186 0.0452891 28.3963V28.4028C0.0194096 28.5192 0 28.6357 0 28.7586L0.0129397 28.8945C0.0129397 28.9915 0.0258795 29.0886 0.0388192 29.1791C0.161747 30.0396 0.899313 30.6996 1.79863 30.6996H21.8164C20.4901 29.2697 19.6814 27.3546 19.6814 25.2519C19.6943 25.2649 19.6943 25.2455 19.6943 25.226ZM27.814 18.6332C24.1262 18.6332 21.1371 21.6223 21.1371 25.3166C21.1371 29.0044 24.1262 32 27.814 32C31.5018 32 34.4909 29.0109 34.4909 25.3166C34.4909 21.6288 31.5018 18.6332 27.814 18.6332ZM31.5471 23.6992L28.6551 29.1856C28.6098 29.4056 28.4804 29.6061 28.2798 29.7355C28.131 29.8326 27.9628 29.8714 27.8011 29.8714C27.6393 29.8714 27.4711 29.8326 27.3223 29.7355C27.1217 29.6061 26.9923 29.4056 26.947 29.1856L24.055 23.6992C23.8027 23.298 23.9127 22.774 24.3138 22.5152C24.7149 22.2628 25.239 22.3728 25.4978 22.774L27.8075 27.1541L30.1173 22.774C30.3696 22.3728 30.9001 22.2628 31.3013 22.5152C31.6894 22.7675 31.8059 23.298 31.5471 23.6992Z" fill="url(#paint0_linear_14_8966)"/>
<defs>
<linearGradient id="paint0_linear_14_8966" x1="0.553857" y1="0.316346" x2="0.553857" y2="31.2886" gradientUnits="userSpaceOnUse">
<stop stop-color="white"/>
<stop offset="1" stop-color="#FF6392"/>
</linearGradient>
</defs>
</svg>
